<?xml version="1.0" standalone="no"?>
<!DOCTYPE svg PUBLIC "-//W3C//DTD SVG 20010904//EN"
 "http://www.w3.org/TR/2001/REC-SVG-20010904/DTD/svg10.dtd">
<svg version="1.0" xmlns="http://www.w3.org/2000/svg"
 width="260.000000pt" height="260.000000pt" viewBox="0 0 260.000000 260.000000"
 preserveAspectRatio="xMidYMid meet">
<metadata>
Created by potrace 1.11, written by Peter Selinger 2001-2013
</metadata>
<g transform="translate(0.000000,260.000000) scale(0.100000,-0.100000)"
fill="#000000" stroke="none">
<path d="M1245 2354 c-81 -102 -203 -216 -424 -397 -284 -232 -521 -439 -573
-500 l-48 -55 526 -559 c289 -307 539 -571 556 -588 l29 -30 22 30 c52 71 180
226 243 294 38 41 208 196 379 346 296 260 450 407 443 425 -3 9 -1079 1104
-1087 1107 -3 1 -33 -32 -66 -73z m822 -852 l186 -193 -39 -40 c-39 -40 -170
-155 -439 -384 -178 -152 -296 -265 -398 -383 -44 -51 -83 -91 -87 -90 -3 2
-216 226 -473 498 l-466 495 27 29 c15 15 171 149 347 296 176 147 383 327
460 399 l140 131 278 -282 c152 -156 361 -370 464 -476z"/>
<path d="M1265 1938 c-33 -28 -139 -112 -235 -186 -193 -150 -373 -297 -408
-334 l-22 -24 90 -83 c82 -75 93 -82 108 -69 9 8 173 137 364 287 191 150 350
276 352 280 5 7 -176 182 -186 181 -1 -1 -30 -24 -63 -52z"/>
<path d="M1545 1669 c-28 -23 -138 -108 -245 -189 -200 -152 -366 -288 -409
-333 l-24 -26 41 -48 c22 -26 58 -66 81 -87 l40 -39 375 301 376 300 -89 81
c-49 45 -90 81 -92 81 -3 0 -27 -19 -54 -41z"/>
<path d="M1770 1409 c-114 -92 -109 -83 -71 -123 l33 -34 89 71 c49 39 89 73
89 77 0 3 -15 20 -32 37 l-33 32 -75 -60z"/>
<path d="M1852 1293 l-93 -76 32 -33 c18 -19 36 -34 39 -34 4 0 46 34 94 75
l87 74 -33 36 -33 35 -93 -77z"/>
<path d="M1483 1180 c-40 -24 -53 -48 -53 -99 0 -78 86 -137 163 -112 103 34
120 168 27 216 -40 21 -99 19 -137 -5z"/>
<path d="M1198 944 c-49 -43 -88 -80 -88 -83 0 -3 38 -46 84 -96 l83 -89 87
79 c47 43 86 81 86 85 0 4 -37 47 -82 95 l-83 87 -87 -78z"/>
</g>
</svg>
