<svg fill="none" height="23" viewBox="0 0 121 23" width="121" xmlns="http://www.w3.org/2000/svg"><g fill="#96ff94"><g clip-rule="evenodd" fill-rule="evenodd"><path d="m48.4816 17.9667c-4.5409 3.2666-11.1302 5-16.7978 5-7.9551.0333-15.0907-2.8334-20.5193-7.6334-.4097-.3667-.0341-.9.478-.6 5.8383 3.3334 13.0422 5.3 20.5193 5.3 5.0189 0 10.5498-1.0333 15.637-3.1333.7852-.2667 1.3998.5333.6828 1.0667z"/><path d="m50.3595 15.8667c-.5804-.7334-3.8239-.3334-5.292-.1667-.4438.0667-.5121-.3333-.1024-.6 2.5948-1.7667 6.8625-1.2667 7.3405-.6667.5121.6-.1366 4.7667-2.5606 6.7667-.3756.3-.717.1333-.5804-.2667.5462-1.3333 1.7753-4.3333 1.1949-5.0666z"/><path d="m45.1699 2.50001v-1.733333c0-.266667.2049-.433333.4439-.433333h7.955c.239 0 .4439.166666.4439.433333v1.500003c0 .23333-.2049.56666-.6146 1.1l-4.1312 5.73333c1.5364-.03333 3.1411.2 4.5409.96669.3073.1666.4097.4333.4097.6666v1.8334c0 .2666-.2731.5333-.5804.4-2.4582-1.2667-5.7017-1.4-8.3989 0-.2731.1333-.5804-.1334-.5804-.4v-1.7667c0-.2667 0-.7667.3073-1.19999l4.7798-6.66667h-4.1653c-.2048 0-.4097-.16666-.4097-.43333z"/><path d="m16.1492 13.3333h-2.4241c-.239 0-.4097-.2-.4439-.4v-12.099969c0-.233333.2049-.433333.478-.433333h2.2534c.239 0 .4097.2.4438.4v1.566662h.0342c.5804-1.533329 1.7071-2.233329 3.1752-2.233329 1.5022 0 2.4582.7 3.141 2.233329.5805-1.533329 1.912-2.233329 3.3459-2.233329 1.0243 0 2.1168.4 2.7997 1.333329.7511 1.03334.6145 2.5.6145 3.8v7.63334c0 .2333-.2048.4333-.478.4333h-2.424c-.239 0-.4439-.2-.4439-.4333v-6.43334c0-.5.0342-1.79999-.0683-2.26666-.1707-.8-.7169-1.03334-1.4339-1.03334-.5804 0-1.195.36667-1.434 1.00001-.239.59999-.239 1.63333-.239 2.33333v6.4333c0 .2334-.2048.4334-.478.4334h-2.424c-.239 0-.4439-.2-.4439-.4334v-6.4333c0-1.36667.239-3.33334-1.5022-3.33334-1.7413 0-1.673 1.93334-1.673 3.33334v6.4333c.1025.2-.1024.4-.3755.4z"/><path d="m60.841.133331c3.5849 0 5.531 2.999999 5.531 6.833329 0 3.70004-2.1509 6.63334-5.531 6.63334-3.5166 0-5.4285-3-5.4285-6.76667 0-3.8 1.9461-6.699999 5.4285-6.699999zm.0342 2.466669c-1.7754 0-1.912 2.36666-1.912 3.83333s-.0341 4.63337 1.8778 4.63337c1.8778 0 1.9803-2.53337 1.9803-4.10004 0-1.03333-.0342-2.23333-.3756-3.2-.2731-.83333-.8194-1.16666-1.5705-1.16666z"/><path d="m71.0493 13.3333h-2.4241c-.239 0-.4438-.2-.4438-.4333v-12.133335c.0341-.233334.2049-.4.478-.4h2.2533c.2049 0 .3756.166666.4439.333333v1.866662h.0341c.6829-1.666662 1.6388-2.433329 3.2776-2.433329 1.0926 0 2.151.366667 2.8338 1.433329.6487.96667.6487 2.6.6487 3.76667v7.63337c-.0341.2-.239.3666-.478.3666h-2.424c-.239 0-.4097-.1666-.4439-.3666v-6.60004c0-1.33333.1707-3.26666-1.5022-3.26666-.5804 0-1.1267.36666-1.3998.96666-.3415.73334-.3756 1.46667-.3756 2.3v6.53334c-.0341.2333-.239.4333-.478.4333z"/><path d="m79.619 12.3667c0-.6.5462-1.1 1.1949-1.1s1.195.5 1.195 1.1-.5463 1.1-1.195 1.1-1.1949-.5-1.1949-1.1z"/></g><path d="m105.259 13.3333c-.239 0-.443-.2-.443-.4333v-12.133341c0-.2.204-.4.443-.4h.888c.239 0 .444.166666.478.4v1.766671c.615-1.4 1.81-2.5000048 3.278-2.5000048h.102.103c1.57 0 2.731 1.1333348 3.175 2.8000048.683-1.63334 1.912-2.8000048 3.585-2.8000048h.102.103c1.16 0 2.287.7333338 2.902 1.8666648.58 1.06667.546 2.5.546 3.7v7.30001c0 .2333-.205.4333-.444.4333h-1.058c-.239 0-.41-.1666-.444-.3666v-7.33337c0-.86667.034-1.8-.307-2.56667-.376-.8-1.059-1.3-1.844-1.33333-.854.03333-1.605.63333-2.117 1.46666-.649 1.03334-.649 2-.649 3.2v6.60001c-.034.2-.204.3667-.443.3667h-1.059c-.239 0-.444-.2-.444-.4334v-7.76664c0-.7-.034-1.56667-.375-2.2-.376-.73333-1.093-1.2-1.81-1.23333-.751.03333-1.536.6-1.98 1.26666-.58.83334-.683 1.9-.683 2.96667v6.96664c0 .2334-.205.4334-.444.4334h-1.161z"/><path d="m97.9532 13.5667c-3.4142 0-4.9506-3.4-4.9506-6.83337 0-3.6 1.8095-6.7000048 5.2579-6.7000048h.1024.1024c3.3797 0 5.0187 3.2999948 5.0187 6.7333348 0 3.63334-1.843 6.80004-5.326 6.80004h-.1024zm.2731-1.6334c1.1267-.0333 2.0147-.7333 2.5607-1.8666.478-1.03337.58-2.20004.58-3.30004 0-1.23333-.136-2.5-.717-3.53333-.512-.9-1.4336-1.5-2.3895-1.53334-1.0584.03334-2.0144.73334-2.4924 1.83334-.4438.93333-.5804 2.2-.5804 3.23333 0 1.16666.1707 2.53333.6487 3.53334.4438.9667 1.3657 1.6 2.3899 1.6333z"/><path d="m87.2327 11.8667c1.5364-.0334 2.3558-1.2667 2.6972-2.80002.0683-.2.2049-.33333.4439-.33333h1.0242c.239 0 .478.2.4439.4-.478 2.66665-2.1168 4.46665-4.4385 4.46665h-.1024-.1024c-3.4142 0-4.8823-3.3333-4.8823-6.73332 0-3.36667 1.5022-6.7999991 4.8823-6.7999991h.1024.1024c2.3558 0 4.0629 1.7666691 4.4043 4.4333291 0 .2-.2048.36667-.4097.4h-1.0584c-.239-.03333-.3756-.23333-.4097-.43333-.2731-1.5-1.1267-2.66667-2.5948-2.7-2.3216.06667-2.9703 2.86667-2.9703 5 0 2.03333.5463 5.03332 2.8679 5.10002z"/><path clip-rule="evenodd" d="m38.8194 7.53333c0 .93334.0341 1.7-.4438 2.49997-.3756.6667-.9902 1.0667-1.673 1.0667-.9218 0-1.4681-.7-1.4681-1.7 0-2 1.8437-2.36667 3.5849-2.36667zm2.4241 5.76667c-.1707.1333-.3756.1333-.5804.0667-.8194-.6667-.956-.9667-1.3999-1.5667-1.3315 1.3333-2.2533 1.7-3.9946 1.7-2.0485 0-3.619-1.2333-3.619-3.66667 0-1.93333 1.0584-3.23333 2.5948-3.86666 1.2974-.56667 3.141-.66667 4.5409-.83334v-.3c0-.56666.0341-1.23333-.3073-1.7-.3073-.43333-.8536-.6-1.3657-.6-.9218 0-1.7412.46667-1.9461 1.43334-.0341.2-.2048.43333-.4097.43333l-2.3558-.23333c-.2048-.03334-.4097-.2-.3755-.5.6145-2.833337 3.1752-3.66667 5.4968-3.66667 1.1608 0 2.7314.3 3.6532 1.16667 1.1608 1.06666 1.0584 2.5 1.0584 4.06666v3.66667c0 1.1.478 1.6.9218 2.2.1707.2.2049.4667 0 .6333-.5462.4-1.3998 1.1334-1.9119 1.5667z" fill-rule="evenodd"/><path clip-rule="evenodd" d="m7.13568 7.53333c0 .93334.03414 1.7-.44385 2.49997-.37556.6667-.99011 1.0667-1.67295 1.0667-.92183 0-1.4681-.7-1.4681-1.7 0-2 1.84366-2.36667 3.5849-2.36667zm2.42407 5.76667c-.17071.1333-.37556.1333-.58041.0667-.81941-.6667-.95597-.9667-1.39982-1.5667-1.33153 1.3333-2.25336 1.7-3.9946 1.7-2.04851 0-3.6190387-1.2333-3.6190387-3.66667 0-1.93333 1.0583987-3.23333 2.5947787-3.86666 1.2974-.56667 3.14106-.66667 4.54088-.83334v-.3c0-.56666.03414-1.23333-.30728-1.7-.30728-.43333-.85355-.6-1.36568-.6-.92183 0-1.74123.46667-1.94608 1.43334-.03415.2-.20486.43333-.40971.43333l-2.355787-.23333c-.204852-.03334-.409703-.2-.375561-.5.614554-2.833337 3.175198-3.66667 5.462698-3.66667 1.16083 0 2.69721.3 3.65319 1.16667 1.16087 1.06666 1.05837 2.5 1.05837 4.06666v3.66667c0 1.1.478 1.6.9219 2.2.1707.2.2048.4667 0 .6333-.5122.4-1.3999 1.1334-1.87785 1.5667z" fill-rule="evenodd"/></g></svg>