<svg width="104" height="27" viewBox="0 0 104 27" fill="none" xmlns="http://www.w3.org/2000/svg">
<path d="M66.5669 8.82892C66.9033 8.82892 67.2397 8.79716 67.5762 8.83951C67.9911 8.88187 68.1817 8.70187 68.3275 8.37363C68.7312 7.42069 69.1685 6.48892 69.5722 5.53598C69.9759 4.57245 70.3684 3.59834 70.7496 2.62422C70.8281 2.42304 70.9066 2.28539 71.1646 2.28539C71.9159 2.29598 72.656 2.28539 73.4073 2.29598C73.7325 2.29598 73.811 2.40186 73.7213 2.69834C73.6316 3.00539 73.5082 3.30186 73.3849 3.59834C72.7457 5.17598 72.0953 6.75363 71.4561 8.33128C71.4225 8.41598 71.4 8.50069 71.3552 8.57481C71.2655 8.75481 71.3215 8.83951 71.5346 8.83951C71.6467 8.83951 71.7589 8.83951 71.871 8.83951C72.3756 8.83951 72.8802 8.82892 73.3849 8.8501C73.5531 8.86069 73.8446 8.72304 73.8783 9.00892C73.9119 9.37951 73.6652 9.63363 73.3176 9.63363C72.6223 9.64422 71.9383 9.64422 71.243 9.63363C70.9627 9.62304 70.8057 9.71834 70.6936 9.96186C69.6843 12.1642 68.3499 14.2183 67.4752 16.4736C67.0603 17.5536 66.6791 18.6336 66.309 19.7242C66.2305 19.9677 66.2417 20.243 66.2305 20.5077C66.2305 20.6666 66.3539 20.7407 66.4996 20.6772C66.6903 20.5819 66.9146 20.4866 67.0379 20.3277C67.6547 19.5972 68.2602 18.856 68.8321 18.0936C70.0544 16.4736 71.243 14.8219 72.4878 13.2125C73.2952 12.1748 74.1586 11.1795 75.1679 10.3113C75.9977 9.60186 76.8948 8.96657 77.9713 8.60657C78.5432 8.41598 79.1263 8.3101 79.7206 8.34187C79.7991 8.34187 79.8776 8.40539 79.9561 8.44775C79.9 8.51128 79.8552 8.58539 79.7879 8.62775C79.3169 8.90304 78.8123 9.14657 78.3525 9.45363C77.2648 10.1948 76.4238 11.1689 75.6725 12.2066C74.5175 13.7948 73.6316 15.5313 72.9924 17.363C72.7008 18.1889 72.555 19.036 72.5999 19.9042C72.6335 20.5819 73.0372 21.143 74.0689 20.9736C74.9996 20.8148 75.7061 20.3383 76.3453 19.7136C77.3545 18.7289 77.9825 17.5325 78.5207 16.283C78.6105 16.0713 78.7114 15.8595 78.8011 15.6477C78.8684 15.5101 78.8123 15.4783 78.6553 15.4783C78.3413 15.4889 78.0161 15.5207 77.7246 15.4677C76.4462 15.2348 76.0537 14.3772 76.1995 13.4772C76.3677 12.4501 76.8835 11.5925 77.7806 10.9466C78.7562 10.2477 79.9561 10.6289 80.4719 11.4866C80.5953 11.6877 80.5953 11.9736 80.8868 12.0583C81.0326 11.8783 81.1672 11.6877 81.313 11.5077C81.5709 11.1795 81.8288 10.8513 82.0755 10.523C82.5128 9.95128 83.0735 9.51716 83.7127 9.17834C84.2397 8.89245 84.8116 8.73363 85.4284 8.93481C85.8209 9.06186 86.1349 9.27363 86.2806 9.64422C86.4152 9.97245 86.5273 10.3113 86.6283 10.6501C86.6955 10.8513 86.7628 10.8513 86.931 10.7348C87.5141 10.3007 88.1085 9.87716 88.7028 9.45363C88.7589 9.41128 88.8261 9.36892 88.8934 9.33716C90.5418 8.33128 91.9211 9.47481 92.2575 10.6501C92.4818 11.4336 92.3809 12.196 92.1006 12.9372C91.652 14.0913 91.1474 15.2348 90.6876 16.3889C90.2727 17.4054 89.8242 18.4219 89.6335 19.5019C89.5999 19.7242 89.5663 19.9572 89.5663 20.1795C89.5663 21.1748 90.3288 21.7572 91.3492 21.5348C92.0221 21.3866 92.5603 20.9948 93.0762 20.5925C93.2107 20.4866 93.2219 20.3701 93.1883 20.2113C92.7173 18.1042 94.2087 16.2301 96.0029 15.5525C96.5524 15.3513 97.1243 15.2454 97.6738 15.5207C97.8868 15.6266 97.9541 15.4572 98.0214 15.3619C98.5372 14.6948 99.0306 14.0066 99.5352 13.3289C100.32 12.2807 100.634 11.063 100.948 9.8454C101.049 9.43245 101.161 9.0301 101.251 8.60657C101.296 8.35245 101.453 8.22539 101.7 8.22539C102.036 8.22539 102.372 8.21481 102.698 8.27834C103.112 8.35245 103.146 8.45834 103.012 8.83951C102.81 9.41128 102.619 9.98304 102.417 10.5442C102.283 10.9254 102.361 11.2642 102.507 11.6242C102.731 12.1642 102.955 12.7042 103.146 13.2548C103.471 14.176 103.651 15.1395 103.651 16.103C103.651 17.3948 103.314 18.6336 102.496 19.6819C101.397 21.1113 99.995 22.1172 98.0438 22.3395C97.1131 22.4454 96.2272 22.3713 95.3413 22.1277C94.8591 21.9901 94.4106 21.7783 94.0293 21.4395C93.7153 21.1748 93.7153 21.196 93.3453 21.4077C92.8743 21.6619 92.4145 21.9266 91.9099 22.1277C90.2615 22.7948 88.3664 22.0219 87.8057 20.3701C87.2226 18.676 87.4581 17.0666 88.2543 15.4995C88.9047 14.2289 89.5326 12.9583 90.0148 11.6136C90.183 11.1477 90.3288 10.6713 90.3064 10.1736C90.2839 9.64422 90.026 9.48539 89.555 9.76069C89.2747 9.91951 89.0056 10.1525 88.8374 10.4066C88.4112 11.063 88.0075 11.7513 87.6487 12.4395C86.9871 13.7419 86.3591 15.0548 85.7087 16.3677C84.9238 17.9666 84.1276 19.5654 83.3426 21.1642C83.2641 21.323 83.1744 21.4819 83.0959 21.6407C83.0175 21.7995 82.9053 21.8842 82.7035 21.8842C81.7279 21.8842 80.7635 21.8842 79.7879 21.8842C79.5748 21.8842 79.53 21.7889 79.6085 21.6089C79.9225 20.9101 80.2365 20.2113 80.5504 19.5125C81.4812 17.4583 82.4119 15.3936 83.3314 13.3395C83.5893 12.7677 83.8585 12.2066 84.094 11.6348C84.251 11.2642 84.3967 10.8725 84.4865 10.4807C84.5762 10.0783 84.2958 9.89834 83.8921 10.0148C83.5669 10.1101 83.3539 10.3007 83.1408 10.5336C82.4007 11.3595 81.84 12.3019 81.3242 13.2548C80.6738 14.4619 80.0682 15.7007 79.4291 16.9077C78.9693 17.776 78.5208 18.6442 77.8816 19.4172C77.119 20.3277 76.2332 21.1113 75.0669 21.5454C74.2371 21.8525 73.3737 22.0748 72.4541 21.9266C71.0524 21.7042 70.5366 20.9101 70.2226 19.8407C70.1553 19.6183 70.1329 19.3854 70.088 19.163C70.0432 18.9513 69.9759 18.9195 69.8077 19.0783C69.2022 19.6289 68.619 20.2007 68.0023 20.7407C67.6995 21.0054 67.3743 21.2489 67.0491 21.4819C66.2081 22.096 65.1316 21.9901 64.3466 21.4289C63.7523 21.0054 63.5841 20.3701 63.4832 19.7136C63.4607 19.5866 63.4383 19.4489 63.4271 19.3219C63.3262 19.4172 63.2028 19.5019 63.1131 19.6077C62.4963 20.3277 61.8123 20.9736 60.9825 21.4607C60.6909 21.6407 60.3657 21.7889 60.0293 21.8948C58.9192 22.2442 57.809 21.6936 57.4277 20.656C57.1586 19.9042 57.1698 19.1313 57.2595 18.3583C57.338 17.6277 57.6072 16.9607 57.966 16.3148C58.594 15.1925 59.1995 14.0595 59.8163 12.9372C60.1975 12.2383 60.3994 11.4972 60.3657 10.703C60.3433 10.1525 60.1415 10.0148 59.6369 10.3113C59.1995 10.5654 58.7622 10.8725 58.4258 11.243C57.4165 12.3336 56.5755 13.5513 55.8803 14.843C54.9719 16.5372 54.1421 18.2736 53.2899 19.9995C53.0544 20.476 52.8189 20.963 52.5946 21.4501C52.4825 21.7042 52.3255 21.8419 52.0115 21.8313C51.2266 21.8101 50.4416 21.8313 49.6566 21.8207C49.2866 21.8207 49.2529 21.7677 49.3875 21.4607C49.6903 20.7936 50.0043 20.1372 50.307 19.4807C51.3051 17.2995 52.3143 15.1183 53.2787 12.9266C53.5702 12.2807 53.7721 11.603 53.9963 10.9254C54.0636 10.7136 54.0524 10.4701 54.0524 10.2477C54.0524 10.1101 53.9403 10.0572 53.8281 10.1525C53.6039 10.3642 53.3572 10.5654 53.189 10.8089C52.7292 11.476 52.2694 12.143 51.8882 12.8419C50.9126 14.663 49.9818 16.516 49.0287 18.3477C48.4792 19.4172 47.8512 20.4336 46.9878 21.3125C46.5504 21.7572 46.0458 22.1172 45.4291 22.2972C44.6217 22.5301 43.9937 22.3501 43.534 21.683C43.2536 21.2701 43.0518 20.8148 42.8163 20.3701C42.7378 20.2113 42.6817 20.1477 42.5135 20.3066C42.0986 20.6877 41.6837 21.0795 41.2239 21.3972C40.7642 21.7148 40.2483 21.9795 39.7213 22.2125C39.1494 22.4666 38.5999 22.3607 38.0841 22.0325C37.4225 21.6195 37.03 20.9948 36.6263 20.3807C36.2787 19.8619 36.3011 19.8513 35.875 20.3489C35.2807 21.0477 34.563 21.5983 33.6883 21.9689C33.2285 22.1701 32.7464 22.2972 32.2305 22.1913C31.5577 22.0536 31.0867 21.6725 30.8176 21.0901C30.6382 20.6877 30.5373 20.2536 30.4027 19.8407C30.3915 19.7877 30.3803 19.7348 30.3691 19.6819C30.313 19.7136 30.2345 19.7348 30.1896 19.7772C29.7972 20.1372 29.4271 20.5077 29.0234 20.8466C28.3506 21.4183 27.6441 21.9266 26.8255 22.2866C26.7134 22.3395 26.59 22.3501 26.4667 22.3819C26.534 22.2866 26.5788 22.1807 26.6685 22.096C27.8796 20.9101 28.844 19.5442 29.7523 18.1466C31.5689 15.3619 33.0716 12.4289 34.4957 9.45363C35.2807 7.81245 36.0768 6.18186 36.8618 4.54069C37.3776 3.4501 37.871 2.33834 38.3644 1.23716C38.5551 0.824217 38.5438 0.813629 39.0148 0.813629C39.6091 0.813629 40.2147 0.813629 40.809 0.813629C41.3024 0.813629 41.3136 0.824217 41.1342 1.2901C40.8314 2.06304 40.5175 2.83598 40.1811 3.60892C39.284 5.69481 38.3981 7.79128 37.4673 9.86657C36.7945 11.3701 36.0544 12.863 35.3367 14.356C34.6415 15.8172 33.9238 17.2677 33.251 18.7501C33.0379 19.2266 32.9258 19.756 32.8024 20.2642C32.7464 20.4866 32.7464 20.7513 33.0043 20.8783C33.2846 21.016 33.5986 21.016 33.8565 20.836C34.1481 20.6242 34.4621 20.4019 34.6639 20.116C35.2694 19.2689 35.8526 18.4113 36.3796 17.5113C37.2879 15.976 38.1402 14.3983 39.0373 12.8525C39.9456 11.296 41.2127 10.0889 42.9508 9.35834C43.6573 9.06186 44.3862 8.8501 45.1599 8.87128C45.7318 8.88186 46.2813 8.98775 46.6738 9.43245C46.8644 9.64422 46.8981 9.48539 46.9317 9.33716C46.9878 9.05128 47.1672 8.97716 47.4588 8.98775C48.0755 8.99834 48.6923 8.98775 49.309 8.99834C49.7464 9.00892 49.7912 9.07245 49.6342 9.47481C49.2754 10.4172 48.8941 11.3595 48.5241 12.3019C47.7391 14.2819 46.9541 16.2619 46.1692 18.2419C45.8888 18.9513 45.6197 19.6607 45.3506 20.3807C45.2945 20.5289 45.2609 20.6877 45.2497 20.8466C45.2384 21.0372 45.3618 21.1113 45.5412 21.0266C45.7206 20.9313 45.8888 20.8148 46.0346 20.6877C46.7859 20.0842 47.313 19.3113 47.7615 18.496C48.1428 17.8077 48.4568 17.0877 48.8044 16.3889C49.7464 14.5148 50.621 12.5983 51.877 10.8725C52.2134 10.4066 52.6395 10.0042 53.0544 9.60186C53.3908 9.27363 53.8281 9.12539 54.2991 9.0301C54.8374 8.92422 55.4653 9.24187 55.8018 9.76069C56.1045 10.2372 56.2615 10.756 56.34 11.3066C56.3624 11.4654 56.4073 11.476 56.5419 11.3701C57.2371 10.8089 57.9324 10.2477 58.65 9.70775C58.908 9.50657 59.1995 9.34775 59.5023 9.2101C60.3097 8.8501 61.0386 9.0301 61.6441 9.60186C62.2721 10.1948 62.6421 10.9254 62.7431 11.7513C62.8552 12.7783 62.6421 13.7419 62.0702 14.6419C61.1283 16.1136 60.3433 17.6489 59.8051 19.2901C59.6817 19.6819 59.5696 20.0736 59.6144 20.4866C59.6593 20.9419 59.9396 21.1113 60.3321 20.8466C60.747 20.5607 61.1395 20.2113 61.4535 19.8195C62.7655 18.2525 63.8644 16.5477 64.8961 14.8113C65.7035 13.456 66.4324 12.0689 67.1949 10.6925C67.3407 10.4277 67.4528 10.1419 67.5874 9.87716C67.6659 9.70775 67.5986 9.65481 67.4192 9.65481C66.7127 9.65481 65.995 9.65481 65.2886 9.65481C64.7167 9.65481 64.6157 9.49598 64.9073 9.05128C64.9746 8.95598 65.1428 8.88186 65.2661 8.87128C65.7147 8.81834 66.1408 8.82892 66.5669 8.82892ZM45.9113 10.8195C45.8776 10.6819 45.8552 10.4701 45.7879 10.2795C45.6646 9.95128 45.4291 9.84539 45.0814 9.96186C44.9469 10.0042 44.8011 10.0783 44.7002 10.1736C44.2853 10.576 43.8367 10.9572 43.4667 11.3913C42.2556 12.8101 41.3585 14.4195 40.5399 16.0713C40.0241 17.0877 39.5194 18.1148 39.1942 19.2054C39.0709 19.5972 39.0036 19.9889 39.0821 20.4019C39.183 20.8995 39.4634 21.1219 39.9904 21.016C40.3605 20.9313 40.7305 20.7725 41.0557 20.5819C41.908 20.0736 42.435 19.3113 42.8836 18.4854C43.8031 16.823 44.5768 15.1077 45.2945 13.3713C45.6421 12.5666 45.8216 11.7513 45.9113 10.8195ZM100.287 16.8125C100.287 16.7172 100.298 16.5795 100.287 16.4419C100.219 15.976 100.174 15.4995 100.062 15.0442C100.006 14.8007 99.8492 14.7689 99.6586 14.9595C99.3558 15.2666 99.0755 15.5948 98.7839 15.923C98.5821 16.156 98.5036 16.3572 98.6494 16.6854C98.8961 17.236 98.7952 17.7548 98.2905 18.1677C97.8083 18.5595 97.2589 18.803 96.6309 18.8348C96.4066 18.8454 96.2496 18.9089 96.1039 19.0572C95.7787 19.396 95.4535 19.7348 95.1058 20.0525C94.8031 20.3383 94.7918 20.3595 95.1619 20.5501C96.0254 21.0054 96.9 20.9736 97.7747 20.5819C98.3242 20.3277 98.7503 19.9466 99.1652 19.5336C99.9165 18.7713 100.365 17.9136 100.287 16.8125ZM78.2965 14.6736C78.8123 14.6736 79.3281 14.3983 79.4627 14.0066C79.5861 13.6254 79.7094 13.223 79.743 12.8313C79.7655 12.4395 79.6309 12.0689 79.2048 11.8677C78.7899 11.6772 78.4871 11.6877 78.1731 11.963C77.6124 12.4713 77.3209 13.1066 77.3545 13.8583C77.377 14.3983 77.7246 14.6736 78.2965 14.6736ZM94.2199 19.0572C94.2424 19.0677 94.2648 19.0677 94.276 19.0783C94.276 19.1313 94.2648 19.1842 94.276 19.2372C94.2872 19.2901 94.3097 19.3325 94.3209 19.3854C94.3882 19.3642 94.4667 19.3536 94.5115 19.3113C95.2853 18.4748 96.0478 17.6489 96.8103 16.8019C96.9112 16.6854 96.9785 16.5477 97.057 16.4207C96.8776 16.4101 96.687 16.3889 96.5075 16.4101C96.3842 16.4207 96.2608 16.4842 96.1487 16.5477C95.4759 16.876 94.9937 17.3736 94.6573 17.9877C94.4667 18.3266 94.3657 18.6972 94.2199 19.0572Z" fill="#96FF94"/>
<path d="M16.7668 22.3499C16.7443 22.0429 16.7107 21.7464 16.6883 21.4393C16.4752 21.6829 16.2734 21.9264 16.0491 22.1593C14.8492 23.4299 13.5148 24.5417 11.9561 25.4311C10.7114 26.1405 9.42177 26.7229 7.9752 26.9134C5.75489 27.1993 3.7252 26.8393 2.11043 25.2405C1.24697 24.3934 0.753567 23.3558 0.495652 22.2123C0.0022482 20.0099 0.439583 17.9452 1.61702 16.0076C2.59262 14.4087 3.96069 13.1805 5.67639 12.3017C6.89869 11.677 8.21069 11.317 9.61241 11.497C11.5524 11.7511 13.4475 12.8946 13.9297 14.9699C14.3222 16.6323 14.0418 18.1887 13.3017 19.6923C12.8307 20.6346 12.1916 21.4499 11.2272 21.9899C10.4534 22.4346 9.61241 22.7205 8.69288 22.7311C7.20146 22.7417 6.00159 21.8629 5.57547 20.4546C5.01478 18.6334 5.71003 16.7699 7.17903 15.6581C7.76214 15.2134 8.45739 14.9276 9.25357 14.9805C9.64605 15.0123 9.98246 15.1393 10.2516 15.404C10.7898 15.9123 10.6104 16.6534 9.88153 16.8758C9.34328 17.0452 8.7938 16.9817 8.31161 16.7381C7.9752 16.5687 7.73971 16.6323 7.52665 16.8546C6.73048 17.6381 6.19222 18.517 6.46135 19.6605C6.55106 20.0311 6.62956 20.4229 6.80898 20.7617C7.25752 21.6617 8.03127 21.9899 9.06293 21.8099C10.1843 21.6193 11.0029 21.0052 11.6533 20.1793C12.2925 19.364 12.8195 18.4958 13.0214 17.4793C13.2905 16.1346 13.1784 14.8534 12.2701 13.7099C11.6197 12.884 10.7338 12.4393 9.65726 12.3546C8.24433 12.2381 6.99961 12.6617 5.94552 13.5405C4.26346 14.9381 2.9066 16.5476 2.22256 18.5911C1.80766 19.8511 1.5946 21.1217 1.67309 22.4452C1.80766 24.4887 3.36636 25.717 5.1942 25.9923C6.97718 26.257 8.44618 25.6217 9.74697 24.5417C10.745 23.7052 11.5636 22.7205 12.3149 21.6829C13.7054 19.777 14.9165 17.7758 16.0154 15.7005C16.8004 14.2181 17.5517 12.7146 18.3815 11.2534C19.1889 9.80285 20.0187 8.36285 20.9383 6.97579C22.1045 5.21815 23.5174 3.65109 25.3228 2.42285C25.6368 2.21109 25.9732 2.0205 26.2984 1.80873C26.3769 1.76638 26.433 1.69226 26.5003 1.63932C26.4106 1.57579 26.3433 1.49109 26.2423 1.46991C25.6705 1.32167 25.0986 1.13109 24.5154 1.04638C23.6183 0.92991 22.6988 0.813439 21.7905 0.834615C19.3011 0.887557 16.9013 1.3852 14.7034 2.53932C13.3129 3.26991 12.1019 4.20167 11.2272 5.47226C10.6777 6.27697 10.3974 7.15579 10.3974 8.11932C10.3974 9.89815 12.0234 11.2323 13.9633 10.7346C15.4772 10.3534 16.5537 9.46403 17.2489 8.1405C17.462 7.73815 17.4956 7.37815 17.2153 6.95462C16.935 6.55226 16.7555 6.0652 16.6098 5.59932C16.4191 4.99579 16.8453 4.59344 17.5069 4.70991C18.0563 4.8052 18.3815 5.1652 18.5722 5.63109C18.7852 6.11814 18.7964 6.64756 18.6731 7.1452C18.1236 9.54873 16.1949 11.2852 13.6381 11.6346C12.1131 11.8464 10.9917 11.2323 10.0385 10.2264C9.42177 9.56991 9.04051 8.79697 8.88351 7.91815C8.78259 7.33579 8.84987 6.7852 9.07415 6.25579C9.84789 4.38167 11.1935 2.95226 13.0214 1.93579C14.524 1.09932 16.15 0.622851 17.8545 0.347557C19.0319 0.156968 20.2542 0.0828507 21.4877 0.0193213C23.4726 -0.0759728 25.334 0.347557 27.1507 1.0252C27.4534 1.14167 27.7226 1.16285 28.0478 1.04638C29.3598 0.622851 30.7054 0.527557 32.0735 0.771086C32.1071 0.781674 32.152 0.771086 32.1856 0.792262C32.3202 0.845204 32.4548 0.908733 32.5781 0.961674C32.4435 0.982851 32.2978 1.0252 32.1632 1.0252C31.1988 1.03579 30.3354 1.36403 29.5168 1.79814C29.2028 1.96756 29.1916 2.04167 29.4831 2.23226C30.3466 2.81462 31.0755 3.50285 31.6249 4.37109C32.0286 5.01697 32.2641 5.7052 32.3763 6.44638C32.6678 8.21462 31.8044 9.49579 30.4811 10.6076C29.3934 11.5181 28.115 12.1323 26.7918 12.6829C26.7358 12.704 26.6797 12.7146 26.6348 12.7358C26.4106 12.8417 26.3993 12.8946 26.6012 13.0111C26.7694 13.117 26.9488 13.2123 27.1282 13.3076C28.6533 14.2076 29.7186 15.4358 30.055 17.1299C30.2344 18.0405 30.1784 18.9511 29.9429 19.8511C29.4495 21.7993 28.373 23.4193 26.7918 24.7429C25.5022 25.8123 24.0108 26.5217 22.3288 26.8287C21.555 26.9664 20.7813 26.9558 19.9963 26.8076C18.1797 26.4581 16.8789 24.9652 16.7443 23.0381C16.7331 22.8052 16.7443 22.5829 16.7443 22.3499C16.7555 22.3499 16.7555 22.3499 16.7668 22.3499ZM19.7945 16.2617C19.929 16.2087 20.0748 16.1664 20.2094 16.1134C20.8149 15.8911 21.4429 15.6899 22.1045 15.7217C23.6183 15.7958 24.8967 16.7381 24.7397 18.5064C24.6836 19.0676 24.3584 19.4911 23.7865 19.724C23.4277 19.8617 23.2034 19.7452 23.1362 19.3958C23.1025 19.2476 23.1137 19.0887 23.1249 18.9299C23.1586 18.4958 23.2371 18.0511 23.2483 17.617C23.2595 17.204 23.024 16.9393 22.6315 16.8334C22.0036 16.664 21.3868 16.6958 20.7813 16.9605C19.7496 17.4264 18.9759 18.1252 18.4264 19.0676C17.9891 19.8193 17.7087 20.6134 17.5966 21.4605C17.4957 22.2864 17.5181 23.1229 17.8321 23.917C18.1124 24.6158 18.6058 25.1029 19.3683 25.3464C20.243 25.6323 21.0392 25.3676 21.7793 24.9758C23.1586 24.2558 24.1678 23.1758 24.8855 21.8734C25.6592 20.4864 26.0741 18.9934 26.3769 17.4581C26.5451 16.6111 26.6124 15.7429 26.3881 14.8852C26.0854 13.7311 25.4686 13.2017 24.3584 13.0217C23.4053 12.8734 22.4185 12.9158 21.4541 13.0746C21.241 13.1064 21.1177 13.1911 21.0392 13.3711C20.6355 14.3452 20.2206 15.2981 19.7945 16.2617C19.7945 16.2723 19.7832 16.2829 19.772 16.2934C19.7832 16.2829 19.7832 16.2723 19.7945 16.2617ZM29.9989 5.29226C30.0326 4.47697 29.5055 3.62991 28.743 2.87815C28.4066 2.53932 28.3393 2.5605 27.9693 2.87815C26.8143 3.89462 25.8499 5.05932 24.9752 6.28756C23.8314 7.90756 22.8782 9.62285 21.9924 11.3699C21.8017 11.7617 21.8241 11.8146 22.2503 11.8676C22.3624 11.8781 22.4745 11.8781 22.5867 11.8781C23.6632 11.8464 24.6836 11.5817 25.6256 11.0734C26.8143 10.4381 27.8123 9.61226 28.6645 8.61697C29.4495 7.73815 29.9877 6.75344 29.9989 5.29226Z" fill="#96FF94"/>
<path d="M95.2404 19.6941C95.5095 19.0906 95.801 18.5082 96.0478 17.8941C96.2047 17.5024 96.3169 17.0894 96.429 16.6871C96.5299 16.3059 96.3842 16.02 96.0253 15.7871C95.2291 15.2788 95.1731 14.94 95.7674 14.2412C95.9468 14.0294 96.1935 13.8494 96.4402 13.6906C96.7206 13.5106 97.0121 13.5741 97.2588 13.7753C97.7074 14.1459 97.9092 14.6224 97.9765 15.1624C98.1335 16.4435 97.6177 17.5129 96.7654 18.4553C96.3281 18.9318 95.902 19.4294 95.2964 19.7365C95.274 19.7259 95.2516 19.7047 95.2404 19.6941Z" fill="#96FF94"/>
<path d="M95.2855 13.6164C95.2631 13.627 95.2294 13.6376 95.2069 13.6376C95.2181 13.6164 95.2294 13.5847 95.2294 13.5635C95.2518 13.5847 95.2743 13.6059 95.2855 13.6164Z" fill="#96FF94"/>
</svg>
