<svg fill="none" height="27" viewBox="0 0 104 27" width="104" xmlns="http://www.w3.org/2000/svg"><g fill="#96ff94"><path d="m66.5669 8.82892c.3364 0 .6728-.03176 1.0093.01059.4149.04236.6055-.13764.7513-.46588.4037-.95294.841-1.88471 1.2447-2.83765.4037-.96353.7962-1.93764 1.1774-2.91176.0785-.20118.157-.33883.415-.33883.7513.01059 1.4914 0 2.2427.01059.3252 0 .4037.10588.314.40236-.0897.30705-.2131.60352-.3364.9-.6392 1.57764-1.2896 3.15529-1.9288 4.73294-.0336.0847-.0561.16941-.1009.24353-.0897.18-.0337.2647.1794.2647h.3364c.5046 0 1.0092-.01059 1.5139.01059.1682.01059.4597-.12706.4934.15882.0336.37059-.2131.62471-.5607.62471-.6953.01059-1.3793.01059-2.0746 0-.2803-.01059-.4373.08471-.5494.32823-1.0093 2.20234-2.3437 4.25644-3.2184 6.51174-.4149 1.08-.7961 2.16-1.1662 3.2506-.0785.2435-.0673.5188-.0785.7835 0 .1589.1234.233.2691.1695.1907-.0953.415-.1906.5383-.3495.6168-.7305 1.2223-1.4717 1.7942-2.2341 1.2223-1.62 2.4109-3.2717 3.6557-4.8811.8074-1.0377 1.6708-2.033 2.6801-2.9012.8298-.70944 1.7269-1.34473 2.8034-1.70473.5719-.19059 1.155-.29647 1.7493-.2647.0785 0 .157.06352.2355.10588-.0561.06353-.1009.13764-.1682.18-.471.27529-.9756.51882-1.4354.82588-1.0877.74117-1.9287 1.71527-2.68 2.75297-1.155 1.5882-2.0409 3.3247-2.6801 5.1564-.2916.8259-.4374 1.673-.3925 2.5412.0336.6777.4373 1.2388 1.469 1.0694.9307-.1588 1.6372-.6353 2.2764-1.26 1.0092-.9847 1.6372-2.1811 2.1754-3.4306.0898-.2117.1907-.4235.2804-.6353.0673-.1376.0112-.1694-.1458-.1694-.314.0106-.6392.0424-.9307-.0106-1.2784-.2329-1.6709-1.0905-1.5251-1.9905.1682-1.0271.684-1.8847 1.5811-2.5306.9756-.6989 2.1755-.3177 2.6913.54.1234.2011.1234.487.4149.5717.1458-.18.2804-.3706.4262-.5506.2579-.3282.5158-.6564.7625-.9847.4373-.57172.998-1.00584 1.6372-1.34466.527-.28589 1.0989-.44471 1.7157-.24353.3925.12705.7065.33882.8522.70941.1346.32823.2467.66708.3477 1.00588.0672.2012.1345.2012.3027.0847.5831-.4341 1.1775-.85764 1.7718-1.28117.0561-.04235.1233-.08471.1906-.11647 1.6484-1.00588 3.0277.13765 3.3641 1.31294.2243.7835.1234 1.5459-.1569 2.2871-.4486 1.1541-.9532 2.2976-1.413 3.4517-.4149 1.0165-.8634 2.033-1.0541 3.113-.0336.2223-.0672.4553-.0672.6776 0 .9953.7625 1.5777 1.7829 1.3553.6729-.1482 1.2111-.54 1.727-.9423.1345-.1059.1457-.2224.1121-.3812-.471-2.1071 1.0204-3.9812 2.8146-4.6588.5495-.2012 1.1214-.3071 1.6709-.0318.213.1059.2803-.0635.3476-.1588.5158-.6671 1.0092-1.3553 1.5138-2.033.7848-1.0482 1.0988-2.2659 1.4128-3.4835.101-.41295.213-.8153.303-1.23883.045-.25412.202-.38118.449-.38118.336 0 .672-.01058.998.05295.414.07411.448.18.314.56117-.202.57177-.393 1.14353-.595 1.70469-.134.3812-.056.72.09 1.08.224.54.448 1.08.639 1.6306.325.9212.505 1.8847.505 2.8482 0 1.2918-.337 2.5306-1.155 3.5789-1.099 1.4294-2.501 2.4353-4.4522 2.6576-.9307.1059-1.8166.0318-2.7025-.2118-.4822-.1376-.9307-.3494-1.312-.6882-.314-.2647-.314-.2435-.684-.0318-.471.2542-.9308.5189-1.4354.72-1.6484.6671-3.5435-.1058-4.1042-1.7576-.5831-1.6941-.3476-3.3035.4486-4.8706.6504-1.2706 1.2783-2.5412 1.7605-3.8859.1682-.4659.314-.9423.2916-1.44-.0225-.52938-.2804-.68821-.7514-.41291-.2803.15882-.5494.39181-.7176.64591-.4262.6564-.8299 1.3447-1.1887 2.0329-.6616 1.3024-1.2896 2.6153-1.94 3.9282-.7849 1.5989-1.5811 3.1977-2.3661 4.7965-.0785.1588-.1682.3177-.2467.4765-.0784.1588-.1906.2435-.3924.2435-.9756 0-1.94 0-2.9156 0-.2131 0-.2579-.0953-.1794-.2753.314-.6988.628-1.3976.9419-2.0964.9308-2.0542 1.8615-4.1189 2.781-6.173.2579-.5718.5271-1.1329.7626-1.7047.157-.3706.3027-.7623.3925-1.1541.0897-.4024-.1907-.58236-.5944-.4659-.3252.0953-.5382.2859-.7513.5188-.7401.8259-1.3008 1.7683-1.8166 2.7212-.6504 1.2071-1.256 2.4459-1.8951 3.6529-.4598.8683-.9083 1.7365-1.5475 2.5095-.7626.9105-1.6484 1.6941-2.8147 2.1282-.8298.3071-1.6932.5294-2.6128.3812-1.4017-.2224-1.9175-1.0165-2.2315-2.0859-.0673-.2224-.0897-.4553-.1346-.6777-.0448-.2117-.1121-.2435-.2803-.0847-.6055.5506-1.1887 1.1224-1.8054 1.6624-.3028.2647-.628.5082-.9532.7412-.841.6141-1.9175.5082-2.7025-.053-.5943-.4235-.7625-1.0588-.8634-1.7153-.0225-.127-.0449-.2647-.0561-.3917-.1009.0953-.2243.18-.314.2858-.6168.72-1.3008 1.3659-2.1306 1.853-.2916.18-.6168.3282-.9532.4341-1.1101.3494-2.2203-.2012-2.6016-1.2388-.2691-.7518-.2579-1.5247-.1682-2.2977.0785-.7306.3477-1.3976.7065-2.0435.628-1.1223 1.2335-2.2553 1.8503-3.3776.3812-.6989.5831-1.44.5494-2.2342-.0224-.5505-.2242-.6882-.7288-.3917-.4374.2541-.8747.5612-1.2111.9317-1.0093 1.0906-1.8503 2.3083-2.5455 3.6-.9084 1.6942-1.7382 3.4306-2.5904 5.1565-.2355.4765-.471.9635-.6953 1.4506-.1121.2541-.2691.3918-.5831.3812-.7849-.0212-1.5699 0-2.3549-.0106-.37 0-.4037-.053-.2691-.36.3028-.6671.6168-1.3235.9195-1.98.9981-2.1812 2.0073-4.3624 2.9717-6.5541.2915-.6459.4934-1.3236.7176-2.0012.0673-.2118.0561-.4553.0561-.6777 0-.1376-.1121-.1905-.2243-.0952-.2242.2117-.4709.4129-.6391.6564-.4598.6671-.9196 1.3341-1.3008 2.033-.9756 1.8211-1.9064 3.6741-2.8595 5.5058-.5495 1.0695-1.1775 2.0859-2.0409 2.9648-.4374.4447-.942.8047-1.5587.9847-.8074.2329-1.4354.0529-1.8951-.6142-.2804-.4129-.4822-.8682-.7177-1.3129-.0785-.1588-.1346-.2224-.3028-.0635-.4149.3811-.8298.7729-1.2896 1.0906-.4597.3176-.9756.5823-1.5026.8153-.5719.2541-1.1214.1482-1.6372-.18-.6616-.413-1.0541-1.0377-1.4578-1.6518-.3476-.5188-.3252-.5294-.7513-.0318-.5943.6988-1.312 1.2494-2.1867 1.62-.4598.2012-.9419.3283-1.4578.2224-.6728-.1377-1.1438-.5188-1.4129-1.1012-.1794-.4024-.2803-.8365-.4149-1.2494-.0112-.053-.0224-.1059-.0336-.1588-.0561.0317-.1346.0529-.1795.0953-.3924.36-.7625.7305-1.1662 1.0694-.6728.5717-1.3793 1.08-2.1979 1.44-.1121.0529-.2355.0635-.3588.0953.0673-.0953.1121-.2012.2018-.2859 1.2111-1.1859 2.1755-2.5518 3.0838-3.9494 1.8166-2.7847 3.3193-5.7177 4.7434-8.69297.785-1.64118 1.5811-3.27177 2.3661-4.91294.5158-1.09059 1.0092-2.20235 1.5026-3.30353.1907-.412943.1794-.423531.6504-.423531h1.7942c.4934 0 .5046.010588.3252.476471-.3028.77294-.6167 1.54588-.9531 2.31882-.8971 2.08589-1.783 4.18236-2.7138 6.25765-.6728 1.50353-1.4129 2.99643-2.1306 4.48943-.6952 1.4612-1.4129 2.9117-2.0857 4.3941-.2131.4765-.3252 1.0059-.4486 1.5141-.056.2224-.056.4871.2019.6141.2803.1377.5943.1377.8522-.0423.2916-.2118.6056-.4341.8074-.72.6055-.8471 1.1887-1.7047 1.7157-2.6047.9083-1.5353 1.7606-3.113 2.6577-4.6588.9083-1.5565 2.1754-2.7636 3.9135-3.49416.7065-.29648 1.4354-.50824 2.2091-.48706.5719.01058 1.1214.11647 1.5139.56117.1906.21177.2243.05294.2579-.09529.0561-.28588.2355-.36.5271-.34941.6167.01059 1.2335 0 1.8502.01059.4374.01058.4822.07411.3252.47647-.3588.94239-.7401 1.88469-1.1101 2.82709-.785 1.98-1.57 3.96-2.3549 5.94-.2804.7094-.5495 1.4188-.8186 2.1388-.0561.1482-.0897.307-.1009.4659-.0113.1906.1121.2647.2915.18.1794-.0953.3476-.2118.4934-.3389.7513-.6035 1.2784-1.3764 1.7269-2.1917.3813-.6883.6953-1.4083 1.0429-2.1071.942-1.8741 1.8166-3.7906 3.0726-5.5164.3364-.4659.7625-.8683 1.1774-1.27064.3364-.32823.7737-.47647 1.2447-.57176.5383-.10588 1.1662.21177 1.5027.73059.3027.47651.4597.99531.5382 1.54591.0224.1588.0673.1694.2019.0635.6952-.5612 1.3905-1.1224 2.1081-1.66235.258-.20118.5495-.36.8523-.49765.8074-.36 1.5363-.18 2.1418.39176.628.59294.998 1.32354 1.099 2.14944.1121 1.027-.101 1.9906-.6729 2.8906-.9419 1.4717-1.7269 3.007-2.2651 4.6482-.1234.3918-.2355.7835-.1907 1.1965.0449.4553.3252.6247.7177.36.4149-.2859.8074-.6353 1.1214-1.0271 1.312-1.567 2.4109-3.2718 3.4426-5.0082.8074-1.3553 1.5363-2.7424 2.2988-4.1188.1458-.2648.2579-.5506.3925-.81534.0785-.16941.0112-.22235-.1682-.22235-.7065 0-1.4242 0-2.1306 0-.5719 0-.6729-.15883-.3813-.60353.0673-.0953.2355-.16942.3588-.18.4486-.05294.8747-.04236 1.3008-.04236zm-20.6556 1.99058c-.0337-.1376-.0561-.3494-.1234-.54-.1233-.32822-.3588-.43411-.7065-.31764-.1345.04234-.2803.11644-.3812.21174-.4149.4024-.8635.7836-1.2335 1.2177-1.2111 1.4188-2.1082 3.0282-2.9268 4.68-.5158 1.0164-1.0205 2.0435-1.3457 3.1341-.1233.3918-.1906.7835-.1121 1.1965.1009.4976.3813.72.9083.6141.3701-.0847.7401-.2435 1.0653-.4341.8523-.5083 1.3793-1.2706 1.8279-2.0965.9195-1.6624 1.6932-3.3777 2.4109-5.1141.3476-.8047.5271-1.62.6168-2.5518zm54.3757 5.993c0-.0953.011-.233 0-.3706-.068-.4659-.113-.9424-.225-1.3977-.056-.2435-.2128-.2753-.4034-.0847-.3028.3071-.5831.6353-.8747.9635-.2018.233-.2803.4342-.1345.7624.2467.5506.1458 1.0694-.3589 1.4823-.4822.3918-1.0316.6353-1.6596.6671-.2243.0106-.3813.0741-.527.2224-.3252.3388-.6504.6776-.9981.9953-.3027.2858-.314.307.0561.4976.8635.4553 1.7381.4235 2.6128.0318.5495-.2542.9756-.6353 1.3905-1.0483.7513-.7623 1.1998-1.62 1.1218-2.7211zm-21.9905-2.1389c.5158 0 1.0316-.2753 1.1662-.667.1234-.3812.2467-.7836.2803-1.1753.0225-.3918-.1121-.7624-.5382-.9636-.4149-.1905-.7177-.18-1.0317.0953-.5607.5083-.8522 1.1436-.8186 1.8953.0225.54.3701.8153.942.8153zm15.9234 4.3836c.0225.0105.0449.0105.0561.0211 0 .053-.0112.1059 0 .1589.0112.0529.0337.0953.0449.1482.0673-.0212.1458-.0318.1906-.0741.7738-.8365 1.5363-1.6624 2.2988-2.5094.1009-.1165.1682-.2542.2467-.3812-.1794-.0106-.37-.0318-.5495-.0106-.1233.0106-.2467.0741-.3588.1376-.6728.3283-1.155.8259-1.4914 1.44-.1906.3389-.2916.7095-.4374 1.0695z"/><path d="m16.7668 22.3499c-.0225-.307-.0561-.6035-.0785-.9106-.2131.2436-.4149.4871-.6392.72-1.1999 1.2706-2.5343 2.3824-4.093 3.2718-1.2447.7094-2.53433 1.2918-3.9809 1.4823-2.22031.2859-4.25-.0741-5.86477-1.6729-.86346-.8471-1.356863-1.8847-1.614778-3.0282-.4934038-2.2024-.056069-4.2671 1.121368-6.2047.9756-1.5989 2.34367-2.8271 4.05937-3.7059 1.2223-.6247 2.5343-.9847 3.93602-.8047 1.93999.2541 3.83509 1.3976 4.31729 3.4729.3925 1.6624.1121 3.2188-.628 4.7224-.471.9423-1.1101 1.7576-2.0745 2.2976-.7738.4447-1.61479.7306-2.53432.7412-1.49142.0106-2.69129-.8682-3.11741-2.2765-.56069-1.8212.13456-3.6847 1.60356-4.7965.58311-.4447 1.27836-.7305 2.07454-.6776.39248.0318.72889.1588.99803.4235.5382.5083.3588 1.2494-.37007 1.4718-.53825.1694-1.08773.1059-1.56992-.1377-.33641-.1694-.5719-.1058-.78496.1165-.79617.7835-1.33443 1.6624-1.0653 2.8059.08971.3706.16821.7624.34763 1.1012.44854.9 1.22229 1.2282 2.25395 1.0482 1.12137-.1906 1.93997-.8047 2.59037-1.6306.6392-.8153 1.1662-1.6835 1.3681-2.7.2691-1.3447.157-2.6259-.7513-3.7694-.6504-.8259-1.5363-1.2706-2.61284-1.3553-1.41293-.1165-2.65765.3071-3.71174 1.1859-1.68206 1.3976-3.03892 3.0071-3.72296 5.0506-.4149 1.26-.62796 2.5306-.54947 3.8541.13457 2.0435 1.69327 3.2718 3.52111 3.5471 1.78298.2647 3.25198-.3706 4.55277-1.4506.99803-.8365 1.81663-1.8212 2.56793-2.8588 1.3905-1.9059 2.6016-3.9071 3.7005-5.9824.785-1.4824 1.5363-2.9859 2.3661-4.4471.8074-1.45055 1.6372-2.89055 2.5568-4.27761 1.1662-1.75764 2.5791-3.3247 4.3845-4.55294.314-.21176.6504-.40235.9756-.61412.0785-.04235.1346-.11647.2019-.16941-.0897-.06353-.157-.14823-.258-.16941-.5718-.14824-1.1437-.33882-1.7269-.42353-.8971-.11647-1.8166-.232941-2.7249-.211765-2.4894.052942-4.8892.550585-7.0871 1.704705-1.3905.73059-2.6015 1.66235-3.4762 2.93294-.5495.80471-.8298 1.68353-.8298 2.64706 0 1.77883 1.626 3.11298 3.5659 2.61528 1.5139-.3812 2.5904-1.27057 3.2856-2.5941.2131-.40235.2467-.76235-.0336-1.18588-.2803-.40236-.4598-.88942-.6055-1.3553-.1907-.60353.2355-1.00588.8971-.88941.5494.09529.8746.45529 1.0653.92118.213.48705.2242 1.01647.1009 1.51411-.5495 2.40353-2.4782 4.14-5.035 4.4894-1.525.2118-2.6464-.4023-3.5996-1.4082-.61673-.65649-.99799-1.42943-1.15499-2.30825-.10092-.58236-.03364-1.13295.19064-1.66236.77374-1.87412 2.11935-3.30353 3.94725-4.32 1.5026-.83647 3.1286-1.312939 4.8331-1.588233 1.1774-.190589 2.3997-.2647063 3.6332-.3282357 1.9849-.0952941 3.8463.3282357 5.663 1.0058787.3027.11647.5719.13765.8971.02118 1.312-.423529 2.6576-.518823 4.0257-.275294.0336.010588.0785 0 .1121.021176.1346.052942.2692.116471.3925.169412-.1346.021177-.2803.063526-.4149.063526-.9644.01059-1.8278.33883-2.6464.77294-.314.16942-.3252.24353-.0337.43412.8635.58236 1.5924 1.27059 2.1418 2.13883.4037.64588.6392 1.33411.7514 2.07529.2915 1.76824-.5719 3.04941-1.8952 4.16122-1.0877.9105-2.3661 1.5247-3.6893 2.0753-.056.0211-.1121.0317-.157.0529-.2242.1059-.2355.1588-.0336.2753.1682.1059.3476.2012.527.2965 1.5251.9 2.5904 2.1282 2.9268 3.8223.1794.9106.1234 1.8212-.1121 2.7212-.4934 1.9482-1.5699 3.5682-3.1511 4.8918-1.2896 1.0694-2.781 1.7788-4.463 2.0858-.7738.1377-1.5475.1271-2.3325-.0211-1.8166-.3495-3.1174-1.8424-3.252-3.7695-.0112-.2329 0-.4552 0-.6882zm3.0277-6.0882c.1345-.053.2803-.0953.4149-.1483.6055-.2223 1.2335-.4235 1.8951-.3917 1.5138.0741 2.7922 1.0164 2.6352 2.7847-.0561.5612-.3813.9847-.9532 1.2176-.3588.1377-.5831.0212-.6503-.3282-.0337-.1482-.0225-.3071-.0113-.4659.0337-.4341.1122-.8788.1234-1.3129.0112-.413-.2243-.6777-.6168-.7836-.6279-.1694-1.2447-.1376-1.8502.1271-1.0317.4659-1.8054 1.1647-2.3549 2.1071-.4373.7517-.7177 1.5458-.8298 2.3929-.1009.8259-.0785 1.6624.2355 2.4565.2803.6988.7737 1.1859 1.5362 1.4294.8747.2859 1.6709.0212 2.411-.3706 1.3793-.72 2.3885-1.8 3.1062-3.1024.7737-1.387 1.1886-2.88 1.4914-4.4153.1682-.847.2355-1.7152.0112-2.5729-.3027-1.1541-.9195-1.6835-2.0297-1.8635-.9531-.1483-1.9399-.1059-2.9043.0529-.2131.0318-.3364.1165-.4149.2965-.4037.9741-.8186 1.927-1.2447 2.8906 0 .0106-.0113.0212-.0225.0317.0112-.0105.0112-.0211.0225-.0317zm10.2044-10.96944c.0337-.81529-.4934-1.66235-1.2559-2.41411-.3364-.33883-.4037-.31765-.7737 0-1.155 1.01647-2.1194 2.18117-2.9941 3.40941-1.1438 1.62-2.097 3.33529-2.9828 5.08234-.1907.3918-.1683.4447.2579.4977.1121.0105.2242.0105.3364.0105 1.0765-.0317 2.0969-.2964 3.0389-.8047 1.1887-.6353 2.1867-1.46114 3.0389-2.45643.785-.87882 1.3232-1.86353 1.3344-3.32471z"/><path d="m95.2404 19.6941c.2691-.6035.5606-1.1859.8074-1.8.1569-.3917.2691-.8047.3812-1.207.1009-.3812-.0448-.6671-.4037-.9-.7962-.5083-.8522-.8471-.2579-1.5459.1794-.2118.4261-.3918.6728-.5506.2804-.18.5719-.1165.8186.0847.4486.3706.6504.8471.7177 1.3871.157 1.2811-.3588 2.3505-1.2111 3.2929-.4373.4765-.8634.9741-1.469 1.2812-.0224-.0106-.0448-.0318-.056-.0424z"/><path d="m95.2855 13.6164c-.0224.0106-.0561.0212-.0786.0212.0112-.0212.0225-.0529.0225-.0741.0224.0212.0449.0424.0561.0529z"/></g></svg>