<svg fill="none" height="22" viewBox="0 0 97 22" width="97" xmlns="http://www.w3.org/2000/svg"><g clip-rule="evenodd" fill="#96ff94" fill-rule="evenodd"><path d="m6.70968 3.36951c0-1.53653.10234-2.3048.35819-2.544884.30701-.192067 1.43273-.480167 3.47953-.480167 9.2104 0 11.1036 6.146141 11.1036 9.795441 0 6.0981-3.0701 10.3236-9.8756 10.3236-2.25142 0-3.53065-.3362-4.34935-1.3445-.61403-.7683-.71637-1.8727-.71637-3.6013zm-2.81429 12.86849c0 3.5052-.10234 3.8893-2.1491 4.1294l-.767536.0961c-.204676.24-.102338.7202.051166.8643 1.68858-.0481 2.96781-.0961 4.40054-.0961 1.27922 0 3.47949.2881 5.73094.2881 2.7119 0 5.5774-.4321 7.88-1.5845 4.0424-2.0167 6.1403-5.666 6.1403-9.8435 0-4.36947-2.3538-8.11477-7.1125-9.699325-2.3026-.768267-4.8099-1.00835-7.7777-1.00835-2.96779 0-5.88442.048016-8.80106.240083-.35818.096034-.30701.624217-.05116.768267l.76753.096034c1.4839.240083 1.68858.960331 1.68858 3.265131z"/><path d="m27.433 11.7724c0-1.2964 0-1.4885-.9722-2.11269l-.307-.19207c-.2047-.09603-.2047-.52818 0-.62422.8187-.24008 2.8143-1.1524 3.633-1.58455.2047 0 .3582.04802.3582.19207-.0512 1.20042-.1024 2.78496-.1024 4.12946v5.954c0 2.3529.0512 2.689 1.3304 2.833l.7164.0961c.2558.192.2047.7202-.0512.8643-1.0234-.048-2.0467-.0961-3.326-.0961-1.2792 0-2.3026.0481-3.326.0961-.2558-.0961-.307-.6723-.0511-.8643l.7163-.0961c1.3304-.096 1.3816-.4321 1.3816-2.833zm2.8143-9.69933c0 1.1524-.8187 1.68058-1.7909 1.68058-1.0746 0-1.7909-.72025-1.7909-1.63256 0-1.05637.921-1.728605 1.9444-1.728605.9722-.048017 1.6374.720255 1.6374 1.680585z"/><path d="m37.3087 17.5344c0 2.3529.0512 2.689 1.3304 2.833l.8187.0961c.2558.192.2047.7202-.0512.8643-1.228-.0481-2.2514-.0961-3.4283-.0961-1.2792 0-2.3026.048-3.3772.0961-.2558-.0961-.307-.6723-.0511-.8643l.7675-.0961c1.3304-.096 1.3304-.4321 1.3304-2.833v-13.54068c0-1.92066 0-2.16075-1.0745-2.68893l-.3582-.24008c-.1024-.096038-.1024-.576205 0-.624222.921-.2881 2.6096-.768267 3.8377-1.392484.1023 0 .2558.048017.307.192067 0 1.008351-.0512 2.640919-.0512 4.129439z"/><path d="m44.7282 17.5344c0 2.3529.0512 2.689 1.3304 2.833l.8187.0961c.2558.192.2047.7202-.0512.8643-1.1257-.0481-2.1491-.0961-3.4283-.0961s-2.3026.048-3.3772.0961c-.2558-.0961-.307-.6723-.0511-.8643l.7675-.0961c1.3304-.096 1.3816-.4321 1.3816-2.833v-13.54068c0-1.92066-.0512-2.16075-1.0746-2.68893l-.3582-.24008c-.2046-.096038-.2046-.576205 0-.624222.8187-.2881 2.5073-.768267 3.7865-1.392484.1024 0 .2559.048017.3582.192067-.0511 1.008351-.1023 2.640919-.1023 4.129439z"/><path d="m49.8963 18.2067c0-1.2965 1.0234-1.8246 3.0701-2.4489.6141-.24 1.2281-.3361 1.4328-.3361.2046 0 .3581.048.3581.4322l-.0511 1.9206c0 .6723-.0512 1.1524-.4606 1.5366-.3581.3361-1.4327.8643-2.1491.8643-1.7909 0-2.2002-1.3925-2.2002-1.9687zm.1535-2.4008c-2.2514.7682-2.8655 1.5365-2.8655 2.8329 0 .9124.4094 1.7286 1.0746 2.3048.614.5282 1.4327.7203 2.4561.7203.9722 0 1.7397-.3841 2.5073-.7683.6652-.3841 1.0745-.6722 1.3304-.6722.2558 0 .4093.2881.614.4321.614.7203 1.4327 1.0084 2.3026 1.0084 1.6886 0 2.9678-1.2965 2.9678-1.3925 0-.2881-.1023-.4321-.2558-.4321-.1024 0-.3071.096-.4606.24-.2046.0961-.5628.2401-.921.2401-1.3304 0-1.6886-1.3444-1.5863-2.881l.2047-5.762c.1024-2.49685-1.1257-3.84132-3.6841-3.84132-2.5073 0-6.4985 2.30482-6.4985 4.08142 0 .2881.2047.4322.4605.4322.5629 0 1.4839-.2401 1.9956-.6243.307-.24.3582-.6242.3582-1.1524.0512-1.00832 1.2792-1.48848 2.2514-1.48848 2.2515 0 2.6608 1.63258 2.6096 2.83298v1.4885c-.0511.5282-.1023.7683-.614.9604z"/><path d="m62.535 11.7724c0-1.2964 0-1.4885-.9722-2.11268l-.307-.19207c-.2047-.09604-.2047-.52819 0-.62422.8187-.24008 2.7119-1.1524 3.5306-1.58455.2047 0 .3071.04802.3071.24008v1.92067c0 .19207.0511.24008.1023.2881 1.2281-.96033 2.5073-1.96868 3.8377-1.96868.921 0 1.5862.52818 1.5862 1.29645 0 1.0564-.9722 1.5365-1.4839 1.5365-.3582 0-.5629-.096-.7675-.2401-.5629-.33607-1.0234-.52813-1.4839-.52813-.6141 0-1.0234.28813-1.2793.62423-.3581.5282-.4605 1.3925-.4605 2.5449v4.5135c0 2.3529.0512 2.785 1.3816 2.833l1.2792.0961c.2559.192.2047.7202-.0512.8643-1.6374-.0481-2.6607-.0961-3.8888-.0961-1.2792 0-2.3026.048-3.1725.0961-.2558-.0961-.3582-.6723-.1023-.8643l.7163-.0961c1.2793-.192 1.3304-.4321 1.3304-2.833v-5.714z"/><path d="m80.0348 17.9186c0 .5762-.0512 1.0083-.2558 1.2484-.5629.5282-1.7398.9123-2.712.9123-3.4283 0-5.2192-2.833-5.2192-5.81 0-2.881 1.6374-5.47389 4.861-5.47389 1.3304 0 2.405.67223 2.9678 1.34449.2559.3361.3582.6722.3582 1.2964zm2.6096-14.64511c0-1.48852.0512-3.121089.1024-4.12944-.0512-.096033-.2047-.14405-.3582-.14405-1.2792.624217-2.8655 1.152401-3.7865 1.392484-.2047.048017-.2047.528184 0 .624216l.3582.24008c1.0233.57621 1.0745.76827 1.0745 2.68894v3.60125c0 .2881-.0512.43215-.2047.43215-.4093-.09603-1.228-.2881-2.4049-.2881-4.7587 0-8.494 2.92898-8.494 7.58668 0 3.4572 2.6096 6.3382 6.4984 6.3382 1.6886 0 2.8655-.5282 4.4517-1.5366h.1023c.0512.1921.0512.5762.0512 1.0084v.5762c0 .192.2047.2881.4094.2881.9722-.3361 3.1213-.8643 4.6563-1.0564.3071-.1921.2559-.9603 0-1.0083-.4605.192-1.0745.3361-1.4839.3361-.9722 0-1.0233-1.2485-1.0233-3.8414v-13.10851z"/><path d="m89.7568 3.46555c0 2.25679-1.9444 3.84134-4.1447 4.46555-.2558-.09603-.4093-.43215-.2558-.67223 1.3304-.5762 2.7119-1.48852 2.7119-2.83299 0-1.29645-1.0745-1.87265-1.7909-1.87265-.4605-.04801-.921-.2881-.921-.91231 0-.52819.307-1.344472 1.6886-1.344472 1.4327 0 2.7119 1.392482 2.7119 3.169102z"/><path d="m95.8972 8.31524c.307.72025.5629 1.82466.5629 2.68896-.1024.2401-.6652.2881-.8187.048-.614-1.39249-1.6374-2.35282-3.0702-2.35282-1.3815 0-2.3026.76826-2.3026 1.96872 0 1.3444 1.4839 2.1127 2.712 2.7849 1.8421.9604 3.633 2.1128 3.633 4.4656 0 2.4969-2.4561 3.7453-5.0657 3.7453-1.6886 0-2.8655-.3361-3.7865-.9603-.2559-.6243-.4606-2.2568-.4094-3.3132.2047-.2401.6652-.2401.8187-.048.614 1.8246 1.6886 3.4092 3.7353 3.4092 1.2793 0 2.3538-.6723 2.3538-2.1128 0-1.5365-1.4327-2.3528-2.7119-3.073-2.0468-1.0564-3.4795-2.2088-3.4795-4.0815 0-2.35277 2.0979-3.74526 4.7587-3.74526 1.4327 0 2.7119.33612 3.0701.5762z"/></g></svg>