<svg fill="none" height="25" viewBox="0 0 117 25" width="117" xmlns="http://www.w3.org/2000/svg"><path d="m14.6846 11.6507c0 3.9409-3.143 7.1429-6.98434 7.1429-3.725 0-6.867985-3.202-6.867985-7.1429 0-3.94151 3.142985-7.14325 6.867985-7.14325 3.84134 0 6.98434 3.20174 6.98434 7.14325z" fill="#96ff94"/><path d="m9.44626 5.36965c-.11659 0-.23264 0-.34922 0-.1166.12226-.1166.12221-.1166.3665v.12236s.00001 0-.11659 0c0-.12226-.11657-.12236-.34922-.12236-.11659 0-.23263 0-.23263 0-.23263 0-.46581 0-.69844 0-.34922.12226-.81486.24453-.81486.36679-.11659.12214-.11659.24422-.11659.37231v.12222h-.11659c-.11659.12226-.23264.12222-.23264.12222v.12221s.1166.12222.23264.12222c.23263.12226.69844.24424.69844.3665 0 0 0 0-.1166 0 0 0 0 .12229.1166.24443.11659.12226.11659.12222.58201.12222.23263.12226.34922.12228.46581.24443h.34922c.34923 0 .46581-.00008.69845-.12222h.23262c0-.12226 0-.12221 0-.12221.1166.12226.1166 0 .1166 0s.11657-.12227.23263-.24429c0 0 0-.12229 0-.24443 0-.12226 0-.24429 0-.24429-.1166-.12214-.11659-.12221-.11659-.12221.11659 0 .34919.12221.34919.12221.1166.24441 0 .49463-.1166.61559 0 0-.23258.12221-.34917.12221-.11659.12214-.11659.12217-.23264.24443-.11659.24429-.11659.24429-.46581.24429-.58207 0-.58207-.0001-1.04766-.12236-.23263 0-.46581 0-.46581 0-.11659 0-.11659 0-.11659 0 0 .12226.11659.12231.11659.24457.11659 0 .11659.12222.11659.12222s-.34922-.12217-.58201-.24443c-.23263-.12226-.34922-.24429-.46581-.24429-.46581-.2444-.81482-.2444-1.28046 0-.23263.12215-.23263.12205-.23263-.12236v-.12207h-.11659c-.11659 0-.11659 0-.23263 0 0 .12214-.11659.12207 0 .12207 0-.12214 0-.12207 0-.12207s0 .00005 0-.12221c0-.12227 0-.24429-.11659-.24429-.11658 0-.23263 0-.23263 0 0-.12226 0-.12236-.11659-.12236 0-.12226 0-.12222-.23263-.12222s-.34922-.00004-.46581.12222c-.34922.12226-.58202.49467-.69845.73896 0 .12214.00001.12217.1166.24443h.23263.23263l-.11659.12222c-.11659.12214-.11659.12214-.34922 0-.34922 0-.34922.00007-.46582.12221 0 0-.11659.12217 0 .24443 0 .12215 0 .12222-.11659.12222s-.11659-.00005-.11659.12222c-.11659.12214-.11659.24441-.11659.49453v.24457c-.11658 0-.11658-.36658-.11658-.49467 0-.24441 0-.24443-.11659-.24443s-.11659.00007-.11659.12221c-.11659.24452-.23263.73899-.11659 1.1085v.2443s-.11659 0-.11659-.1222h-.11659c0 .1222-.11659.6161-.11659 1.1082v.6163.3665.3667c.23263.985.69844 2.2167 1.39688 3.2017.23263.2445.81481.8619 1.04767 1.1087 1.0476.7388 2.09526 1.2312 3.25935 1.3545 1.9789.2443 3.72499-.3667 5.12179-1.7241.6985-.6162 1.2805-1.4778 1.6297-2.2167.2326-.3724.3492-.9852.4658-1.7241.1166-.3667.1166-1.6013 0-1.9707-.1166-.8623-.3492-1.72403-.6984-2.46295-.1166-.24441-.3492-.49463-.582-.86249-.1166-.12226-.3493-.37234-.4658-.61544-.3493-.36655-.3493-.49467-.5821-.49467-.3492-.12226-.8148-.24424-.9312-.12222 0 .12226 0 .12232.1166.24458.3492.24428.5821.49448.5821.61544.1166.12226.1166.12226-.1166 0-.1166-.12227-.4658-.49437-.6985-.61544-.1165-.12226-.2326-.12232-.2326-.24458 0-.12214-.1166-.24424-.4658-.3665-.1166-.12214-.23264-.12222-.1166-.12222 0 0 0 .00005 0-.12221 0 0-.11658-.12217-.34921-.24443-.11659 0-.11659 0-.23263 0zm-1.62968.73896s.11659.12221.23263.12221c0 .12215-.11658.12222-.23263.12222-.11659.12226-.23263.12229-.23263.24443-.23263.12226-.23263.12222-.34922.12222-.11659-.12227-.11659-.12227-.11659-.24429 0 0 .23263-.12222.34922-.12222h.11659c.11659 0 .11659-.00007.11659-.12221 0-.12226.11659-.12222.11659-.12222zm.93123.7391h.23263c.1166.12215.23263.24424.23263.36651 0 0 0 0-.11659 0-.11659-.12227-.11659-.12222-.23263-.12222-.11658 0-.23263 0-.34922 0h-.11659c0-.12226 0-.12226.11659-.24429h.23263zm1.97899.24429h.1166l.1165.12222c.1166.12214.2327.12217.2327.24443l.1166.12207c0 .12226-.2327.2445-.3493.36664-.1166.12227-.3492.12237-.3492.12237s0-.0001.1166-.12237c.1166-.2444.2326-.36664.1166-.61616 0-.12214-.1166-.12207-.1166-.12207 0-.12226 0-.12236 0-.12236zm-8.2649.36665c-.11659 0-.11659 0-.23263 0-.23263.12214-.34922.24426-.34922.49438 0 0 0-.00007.23263-.12221.23263-.12227.34922-.24443.34922-.24443 0-.12215 0-.12222 0-.12222zm1.51331 1.2316h.11659s-.46581.49463-.69839.61558c-.11659.12215-.23263.24441-.23263.49453v.12222c0 .12222-.11658-.12222-.11658-.12222 0-.12214.11658-.37238.23263-.49453 0-.12226.11659-.12226.11659-.24428 0 0 .1166.00004.23263-.12222.1166-.24428.23263-.24428.34923-.24428zm2.56091.3665h.34922c.11658.12226.23263.12229.23263.24443l.11659.12236h-.11659c-.11659-.12226-.11659 0-.11659 0 0 .12227 0 .12227-.23263 0-.11659-.12226-.46581-.24453-.46581-.36679h.11659s.11659-.12226.11659 0zm3.72498 0s.1166.0001.2327.12236c.1165 0 .2326.12207.2326.12207.1166.12226.1166.12226.1166.24429v.12236c0 .12226 0 .12221-.1166.12221s-.1166 0-.1166 0c0-.12226 0-.12231 0-.24457 0-.24429 0-.24429-.2326-.24429-.2327 0-.2327.0001-.2327.12236-.1165 0-.1165.12222-.1165.12222s-.11664-.12222-.23268-.12222l-.23263-.12236h.11659l.11658-.12207s0-.0001.11659-.12236h.34925zm-5.12186.49468h.11658.23263c.11659.12214.46581.36643.46581.49457.23263.1222.23263.4946.23263.7389-.11659 0-.11659 0-.11659 0s0-.1222 0-.2443c-.11659-.2444-.11659-.2444-.34922-.4946-.11659-.12219-.46581-.12211-.46581-.12211-.11658.12211-.23263.12201-.46581.24431-.11659 0-.34922 0-.34922 0-.11659.1221-.34922.3665-.34922.4945 0 .1223 0 .1223.11659.2444.11659.1222.11659.1222.34922.1222s.23263 0 .23263-.2444c0-.1222 0-.1222-.11659-.1222-.11658 0-.11658-.1222 0-.1222.11659-.1223.11659-.1222.23263-.1222.11659 0 .23263-.0001.34922.1222.11659 0 .23263.1222.23263.1222v.2443c.11658.1221 0 .1222 0 .1222-.23263.1223-.34922.2442-.58201.3665 0 0-.11659.0001-.11659.1224-.1166 0-.11659.122-.34922.122-.1166 0-.23263 0-.46582 0-.46581-.1221-.69844-.1221-.69844-.3666-.11659-.2443-.11659-.2444.11659-.1222.11659.2443.34922.2443.58202.2443h.11659c0-.1223 0-.1223 0-.2443-.34922-.2444-.46581-.3666-.46581-.739 0-.1222 0-.2443.11658-.2443.11659-.2445.23263-.49465.34922-.49465v.12222h.34922c.23263-.12226.34922-.12226.46581 0 .11659 0 .23263-.12222.23263-.12222v-.12221zm4.07422 0 .11659.12221c.11659 0 .11659.12222.23263.12222-.11659.12214-.46581.12214-.58202 0-.11659 0-.11659 0 0 0 0-.12226.11659-.12229.11659-.24443h.11659zm4.19064.24443s.1166.00007.1166.12221c.1166.24453.2326.61573.2326.86173 0 .2444 0 .3724-.1166.2445 0-.1222-.1166-.2445-.2326-.2445-.1166 0-.1166.1222-.2326.1222 0 0-.2327.1222-.3493.2443-.1166 0-.2326 0-.2326 0l-.1166-.1222h.1166l.1166-.1222c.1166 0 .3492-.3665.3492-.6156h.2326s0 .0001.1166-.1221c0 0 0-.1223 0-.24453 0-.12214 0-.12221 0-.12221zm-10.59298.24424c0 .1223.11659.2444.11659.3667v.2443.3665s-.11659-.1222-.23263-.3665c-.11659-.1223-.11659-.1223-.11659-.2443.11659-.1223.11659-.3667.23263-.3667zm-.69844 1.1086s0-.0001.11659.1222c.11659.1222.46581.2442.81487.3665.11658.1221.23263.1222.23263.1222s-.34922.1222-.46581.1222c-.23263-.1223-.34922-.1223-.34922-.2443 0 0-.11658-.1223-.23263-.2444-.11659-.1223-.11659-.2444-.11659-.2444zm3.84143.1222c.11659.1222.11659.6155 0 .7389 0 .2443-.23263.6155-.46582.8616 0 .1223-.34922.3665-.46581.3665h-.11659s.11659-.122.34922-.3665c.1166 0 .23263-.1221.34922-.2444 0-.1221.1166-.2443 0-.3665 0-.1221 0-.1222-.11659-.1222 0 .1221-.11659.1222-.23263.1222 0 .1223-.11657.1222-.11657.1222s0-.1222.11657-.2443c.23263-.2444.46582-.4946.58202-.7389.11659-.1223.11659-.1222.11659-.1222zm1.62967 0c.11658.1222.11658.1222.23263.2443.11659.2444.11659.7389 0 .9851-.11659.1223-.11659.1223-.11659 0 0 0 0-.1223 0-.2444-.11658 0-.11658-.1223-.11658-.2443.11658-.1223 0-.2445-.23263 0-.11659-.1223 0-.4947.11659-.6157l.11659-.1223zm-5.93669 0s0 .1222.11659.2443c0 .1222.11659.2443.23263.3665.11659.1222.23263.1222.23263.2444h.11659v.2444h.23263.23263.34922c.11659.1223.34922.1222.46581.1222l.11658.1223s-.23263.1222-.58207.1222c0 .1222-.23263.1222-.34922.1222-.34922 0-.46581 0-.81481-.1222-.23263-.1222-.34922-.3665-.46581-.8622 0-.2444 0-.3668.11659-.6158zm9.66171.2443s.1166-.0001.2326.1222c0 0 .2326.2444.3492.3666.2327.1222.3493.2443.3493.2443h.1165c.1166-.1223 0-.3665-.1165-.4945 0-.1222 0-.1222 0-.1222s.1165 0 .1165.1222c0 0 .1166.2442.2327.4945v.4945c.1166.1223.1166.2445.1166.3667.1166.2443-.2327.7389-.6985.985-.2326.2444-.2326.2444-.582.2444-.4658.1223-.6984-.0001-.9313-.1222-.2326-.1223-.2326-.2443-.1166-.2443v-.1222.1222c.1166 0 .4659.1221.8149 0 .2326 0 .4658-.1223.4658-.2446.1166-.1221.1166-.2443.1166-.2443-.1166 0-.1166.0001 0-.1222.2326-.2444.2326-.2444.2326-.4945-.1166-.3665-.2326-.6162-.4658-.739-.2326 0-.2326-.1222-.1166-.1222.1166 0 .1166.0001.1166-.122 0 0 0-.1223-.1166-.2443-.1166 0-.1166-.1224-.1166-.1224zm1.8625 1.6007h.1165v.2444c0 .1222-.1165.1222-.1165.2443-.1166.1223-.2327.1222-.2327.1222s.1166-.3666.1166-.4947c.1166-.1222.1166-.1222.1166-.1222zm-8.96329.3663h.11657v.1224s0 .1222-.23263.1222l-.23263.1221-.11659-.1221s-.11659.0001-.11659-.1222c-.11658 0-.11658-.0001.23263-.1224h.34922zm4.5398.8625s.11658.1222.23263.1222c.23263.1223.23263.1223 0 .1223-.34922 0-.46581 0-.46581.2444h-.11659l.11659-.3723c0-.1223.11659-.1224.23263-.1224zm-5.70384.1222.11659.1223s0 .1222-.11659.1222c-.23263.1222-.23263.2444-.34922.3665h-.11659c0-.1222-.11659-.1222-.11659-.2443 0-.1223 0-.1222 0-.1222h.11659c.11659 0 .23263-.1222.34922-.1222.11658 0 .11658-.1223.11658-.1223zm2.44449.4947s-.11659.1222-.34922.2444c-.58201.3666-.81481.4946-.93123.8622-.11659.1223-.11659.2444 0 .3665.11657.1222.11657.1223 0 .1223-.11659-.1222-.23264-.2444-.23264-.3665 0-.1223 0-.3665.11659-.4946.23264-.3665.11659-.6163-.34922-.6163-.11659 0-.11659 0 0 0 .11659-.1221.46582-.1221.81481 0 .34923 0 .69844.0001.81487-.1221h.11659zm4.53984.1221h.2327.582c.3492 0 .4658.0001.3492.1223-.1166 0-.3492 0-.4658 0-.2326 0-.6984-.1223-.6984-.1223z" fill="#000"/><path d="m3.50956 7.09375c-.11659.12226-.11659.12222 0 .12222h.58202v-.12222c-.11659 0-.46581 0-.58202 0z" fill="#37abc8"/><path d="m113.161 5.23281-3.149 9.47549-2.94-9.47549h-3.002l4.566 12.83529-.037.0888s-.919 2.6179-1.752 3.2522c-.64.3444-2.14.3188-2.708.2778v2.4195c.991-.0014 3.323.0659 4.073-.4345.942-.6263 1.153-.8967 1.796-2.2702.702-1.4953 6.084-16.16889 6.084-16.16889zm-14.7065 2.13698v-2.1363h-2.8139v12.92611h2.8139v-4.921c0-.8644.0774-1.6238.3038-2.2507.8472-2.35153 3.2107-3.02014 4.4337-3.21049l-.966-2.47061c-.981.17825-2.7107.67668-3.7715 2.06299zm-48.4713 8.50621c-2.1637 0-3.6753-1.8585-3.6753-4.1838 0-2.27624 1.4885-4.13676 3.5359-4.13676 1.4182 0 2.3261.66053 3.1867 1.61568l1.7449-1.98227c-1.14-1.32106-2.5825-2.22644-4.9086-2.22644-3.6752 0-6.3735 3.08271-6.3735 6.77819 0 3.6948 2.6983 6.7049 6.3505 6.7049 2.3945 0 3.8146-1.0036 5.0244-2.4229l-1.6989-1.761c-.8837.9539-1.86 1.6144-3.1861 1.6144zm40.7602-5.3946c-.0467-.4735-.1477-.60805-.3037-1.02441-.1541-.41569-.3651-.77892-.6266-1.08833-.2647-.31009-.5793-.55157-.9431-.72376-.3638-.17018-.7794-.25628-1.2456-.25628-.8683 0-1.5857.31412-2.1522.94304-.5652.62825-.9117 1.13744-1.0358 2.14974zm2.4195-1.21948c.2481.84008.3728 1.72598.3728 2.65558 0 .1305-.0039.2657-.0103.4043-.0089.1385-.0211.2811-.0364.4284h-9.0289c.156 1.0601.555 1.8727 1.1982 2.4343.6445.5644 1.4239.8462 2.3396.8462.6975 0 1.303-.1312 1.8152-.3922.5122-.2609 1.0154-.6437 1.5109-1.1508l1.6541 1.543c-.5908.7338-1.2922 1.3217-2.1081 1.7623-.8133.4406-1.7865.6619-2.9188.6619-.8849 0-1.711-.1655-2.479-.4904-.7672-.3262-1.4341-.7836-2.0013-1.3715-.5658-.5872-1.0121-1.2921-1.337-2.1161-.326-.8247-.4891-1.7354-.4891-2.7309v-.0498c0-.9289.1471-1.802.4418-2.61858.2948-.81591.7098-1.53025 1.2449-2.14101.5359-.61345 1.1669-1.09371 1.8965-1.4455.7289-.35045 1.5358-.52601 2.4207-.52601.9764 0 1.8345.18834 2.5711.563.7365.37601 1.3497.88183 1.8389 1.51748.4891.63699.8574 1.37554 1.1042 2.21634zm-18.0719 5.47258-3.3044-9.50101h-3.0256l5.0506 13.02501h2.5358l5.0257-13.02501h-2.956zm-9.261-3.0127c0-.5718-.0927-1.1099-.2794-1.615-.1861-.50654-.4463-.94645-.7795-1.32245-.3337-.37533-.7289-.67331-1.1867-.89394-.4572-.22062-.9661-.33026-1.5249-.33026-.5582 0-1.0666.10964-1.5231.33026-.4578.22063-.8497.5139-1.1765.88116-.3248.36793-.5742.79977-.7436 1.29753-.172.4977-.2564 1.0325-.2564 1.6042v.0485c0 .5549.0934 1.0856.2794 1.5908.1855.5071.445.9504.7794 1.3345.3332.3834.729.6847 1.1874.9047.4572.2206.9572.3316 1.5007.3316.5735 0 1.0895-.111 1.5467-.3316.4591-.22.8504-.5173 1.1758-.8926.3255-.3754.5729-.8112.7449-1.3103.1701-.4971.2558-1.0238.2558-1.5774zm2.3267-2.65763c.3255.80918.4885 1.67893.4885 2.60913v.0485c0 .9141-.1675 1.7784-.5 2.5943-.3344.8159-.7915 1.5303-1.3734 2.1424-.5812.6134-1.2769 1.0971-2.0812 1.4569-.8076.3585-1.6842.5395-2.6311.5395-.9304 0-1.7955-.1756-2.5934-.5274-.7999-.3504-1.4905-.8287-2.0717-1.432-.5825-.604-1.0352-1.3144-1.3619-2.1289-.3261-.8166-.4885-1.6816-.4885-2.5951v-.0497c0-.9303.1662-1.80406.5007-2.61929.3331-.81591.7915-1.53026 1.3727-2.14169.5819-.61277 1.2731-1.09842 2.071-1.45626.7993-.35986 1.6721-.53946 2.6184-.53946s1.8191.17556 2.6177.52601c.7986.35179 1.4891.83205 2.071 1.4455.5812.61076 1.0358 1.32106 1.3612 2.12756zm-27.175 2.69393c-.3638-.2845-.7711-.526-1.2218-.7224-.4502-.1951-.899-.3666-1.3492-.5139-.3567-.1305-.7014-.2529-1.0351-.368-.3338-.113-.6286-.24009-.8843-.37798-.2564-.13924-.4623-.29394-.6164-.46614-.156-.17018-.2327-.37062-.2327-.59999v-.04776c0-.37533.1502-.68609.4533-.93026.3024-.24417.7257-.36726 1.2685-.36726.5128 0 1.0698.11031 1.6753.33026.6048.21996 1.202.51794 1.7922.89327l1.1164-2.10536c-.6509-.45672-1.3722-.81591-2.1644-1.0769-.7903-.26098-1.5748-.39215-2.3498-.39215-.6055 0-1.1752.09014-1.7103.26973-.5352.18027-1.0007.44125-1.3965.78363-.3958.34304-.7059.75403-.9303 1.23564-.2257.48295-.3383 1.03317-.3383 1.652v.0491c0 .62152.1171 1.14277.3498 1.56857.2321.4231.5313.7783.8958 1.0628.3644.2872.7756.5199 1.2327.6989.4579.1796.9118.3349 1.362.4654.3567.1144.702.224 1.0358.3303.3331.1063.6272.228.8836.3673.2564.1385.4572.2979.6055.4769.1465.1802.2206.3928.2206.6369v.0485c0 .4251-.1669.7628-.5006 1.0157-.3331.2535-.8018.3793-1.4073.3793-.6362 0-1.2993-.1338-1.9892-.4042-.6912-.2691-1.3702-.6653-2.0371-1.1866l-1.2564 2.0079c.7762.6356 1.617 1.1179 2.5256 1.4441.9067.3269 1.8025.489 2.6874.489.6355 0 1.2334-.084 1.7922-.2569.5576-.1715 1.0422-.4231 1.4534-.7594.4117-.3343.7333-.7534.9667-1.2606.2328-.5044.3485-1.1017.3485-1.7872v-.0477c0-.5879-.1157-1.0863-.3485-1.4933-.2334-.4089-.5326-.7553-.8971-1.0412zm-13.261 6.4015h2.8161v-12.92611h-2.8161zm-1.6305-8.68849c0 4.84499-3.5359 8.58759-8.6529 8.58759h-4.9509c.9994-.7016 1.8332-1.6386 2.431-2.741h2.5199c3.4194 0 5.6522-2.4215 5.6522-5.79816 0-3.37597-2.2328-5.84792-5.6522-5.84792h-3.2098v2.51903c-.4713-.61681-1.0205-1.16434-1.642-1.615-.3817-.27646-.7909-.5139-1.2187-.71569v-2.927999h6.0705c5.117 0 8.6529 3.694129 8.6529 8.539149" fill="#96ff94"/></svg>