<svg width="117" height="25" viewBox="0 0 117 25" fill="none" xmlns="http://www.w3.org/2000/svg">
<path d="M14.6846 11.6507C14.6846 15.5916 11.5416 18.7936 7.70026 18.7936C3.97526 18.7936 0.832275 15.5916 0.832275 11.6507C0.832275 7.70919 3.97526 4.50745 7.70026 4.50745C11.5416 4.50745 14.6846 7.70919 14.6846 11.6507Z" fill="#96FF94"/>
<path d="M9.44626 5.36965C9.32967 5.36965 9.21362 5.36965 9.09704 5.36965C8.98044 5.49191 8.98044 5.49186 8.98044 5.73615V5.85851C8.98044 5.85851 8.98045 5.85851 8.86385 5.85851C8.86385 5.73625 8.74728 5.73615 8.51463 5.73615C8.39804 5.73615 8.282 5.73615 8.282 5.73615C8.04937 5.73615 7.81619 5.73615 7.58356 5.73615C7.23434 5.85841 6.7687 5.98068 6.7687 6.10294C6.65211 6.22508 6.65211 6.34716 6.65211 6.47525V6.59747H6.53552C6.41893 6.71973 6.30288 6.71969 6.30288 6.71969C6.30288 6.84195 6.30288 6.8419 6.30288 6.8419C6.30288 6.8419 6.41948 6.96412 6.53552 6.96412C6.76815 7.08638 7.23396 7.20836 7.23396 7.33062C7.23396 7.33062 7.23396 7.33062 7.11736 7.33062C7.11736 7.33062 7.11736 7.45291 7.23396 7.57505C7.35055 7.69731 7.35055 7.69727 7.81597 7.69727C8.0486 7.81953 8.16519 7.81955 8.28178 7.9417C8.39837 7.9417 8.39837 7.9417 8.631 7.9417C8.98023 7.9417 9.09681 7.94162 9.32945 7.81948C9.44602 7.81948 9.56207 7.81948 9.56207 7.81948C9.56207 7.69722 9.56207 7.69727 9.56207 7.69727C9.67867 7.81953 9.67867 7.69727 9.67867 7.69727C9.67867 7.69727 9.79524 7.575 9.9113 7.45298C9.9113 7.45298 9.9113 7.33069 9.9113 7.20855C9.9113 7.08629 9.9113 6.96426 9.9113 6.96426C9.7947 6.84212 9.79471 6.84205 9.79471 6.84205C9.9113 6.84205 10.1439 6.96426 10.1439 6.96426C10.2605 7.20867 10.1439 7.45889 10.0273 7.57985C10.0273 7.57985 9.79472 7.70206 9.67813 7.70206C9.56154 7.8242 9.56154 7.82423 9.44549 7.94649C9.3289 8.19078 9.3289 8.19078 8.97968 8.19078C8.39761 8.19078 8.39761 8.19068 7.93202 8.06842C7.69939 8.06842 7.46621 8.06842 7.46621 8.06842C7.34962 8.06842 7.34962 8.06842 7.34962 8.06842C7.34962 8.19068 7.46621 8.19073 7.46621 8.31299C7.5828 8.31299 7.5828 8.43521 7.5828 8.43521C7.5828 8.43521 7.23358 8.31304 7.00079 8.19078C6.76816 8.06852 6.65157 7.94649 6.53498 7.94649C6.06917 7.70209 5.72016 7.70209 5.25452 7.94649C5.02189 8.06864 5.02189 8.06854 5.02189 7.82413V7.70206H4.9053C4.78871 7.70206 4.78871 7.70206 4.67267 7.70206C4.67267 7.8242 4.55608 7.82413 4.67267 7.82413C4.67267 7.70199 4.67267 7.70206 4.67267 7.70206C4.67267 7.70206 4.67267 7.70211 4.67267 7.57985C4.67267 7.45758 4.67267 7.33556 4.55608 7.33556C4.4395 7.33556 4.32345 7.33556 4.32345 7.33556C4.32345 7.2133 4.32345 7.2132 4.20686 7.2132C4.20686 7.09094 4.20686 7.09098 3.97423 7.09098C3.7416 7.09098 3.62501 7.09094 3.50842 7.2132C3.1592 7.33546 2.9264 7.70787 2.80997 7.95216C2.80997 8.0743 2.80998 8.07433 2.92657 8.19659C3.04316 8.19659 3.04316 8.19659 3.1592 8.19659H3.39183L3.27524 8.31881C3.15865 8.44095 3.15865 8.44095 2.92602 8.31881C2.5768 8.31881 2.5768 8.31888 2.4602 8.44102C2.4602 8.44102 2.34361 8.56319 2.4602 8.68545C2.4602 8.8076 2.4602 8.80767 2.34361 8.80767C2.22702 8.80767 2.22702 8.80762 2.22702 8.92989C2.11043 9.05203 2.11043 9.1743 2.11043 9.42442C2.11043 9.54668 2.11043 9.66899 2.11043 9.66899C1.99385 9.66899 1.99385 9.30241 1.99385 9.17432C1.99385 8.92991 1.99385 8.92989 1.87726 8.92989C1.76067 8.92989 1.76067 8.92996 1.76067 9.0521C1.64408 9.29662 1.52804 9.79109 1.64408 10.1606C1.64408 10.2828 1.64408 10.4049 1.64408 10.4049C1.64408 10.4049 1.52749 10.4049 1.52749 10.2827H1.4109C1.4109 10.4049 1.29431 10.8988 1.29431 11.3909C1.29431 11.6354 1.29431 11.7576 1.29431 12.0072C1.29431 12.1295 1.29431 12.2517 1.29431 12.3737C1.29431 12.3737 1.29431 12.6181 1.29431 12.7404C1.52694 13.7254 1.99275 14.9571 2.69119 15.9421C2.92382 16.1866 3.506 16.804 3.73886 17.0508C4.78646 17.7896 5.83412 18.282 6.99821 18.4053C8.97711 18.6496 10.7232 18.0386 12.12 16.6812C12.8185 16.065 13.4005 15.2034 13.7497 14.4645C13.9823 14.0921 14.0989 13.4793 14.2155 12.7404C14.3321 12.3737 14.3321 11.1391 14.2155 10.7697C14.0989 9.9074 13.8663 9.04567 13.5171 8.30675C13.4005 8.06234 13.1679 7.81212 12.9351 7.44426C12.8185 7.322 12.5858 7.07192 12.4693 6.82882C12.12 6.46227 12.12 6.33415 11.8872 6.33415C11.538 6.21189 11.0724 6.08991 10.956 6.21193C10.956 6.33419 10.956 6.33425 11.0726 6.45651C11.4218 6.70079 11.6547 6.95099 11.6547 7.07195C11.7713 7.19421 11.7713 7.19421 11.5381 7.07195C11.4215 6.94968 11.0723 6.57758 10.8396 6.45651C10.7231 6.33425 10.607 6.33419 10.607 6.21193C10.607 6.08979 10.4904 5.96769 10.1412 5.84543C10.0246 5.72329 9.90856 5.72321 10.0246 5.72321C10.0246 5.72321 10.0246 5.72326 10.0246 5.601C10.0246 5.601 9.90802 5.47883 9.67539 5.35657C9.5588 5.35657 9.5588 5.35657 9.44276 5.35657L9.44626 5.36965ZM7.81658 6.10861C7.81658 6.10861 7.93317 6.23082 8.04921 6.23082C8.04921 6.35297 7.93263 6.35304 7.81658 6.35304C7.69999 6.4753 7.58395 6.47533 7.58395 6.59747C7.35132 6.71973 7.35132 6.71969 7.23473 6.71969C7.11814 6.59742 7.11814 6.59742 7.11814 6.4754C7.11814 6.4754 7.35077 6.35318 7.46736 6.35318C7.46736 6.35318 7.46736 6.35318 7.58395 6.35318C7.70054 6.35318 7.70054 6.35311 7.70054 6.23097C7.70054 6.10871 7.81713 6.10875 7.81713 6.10875L7.81658 6.10861ZM8.74781 6.84771C8.86439 6.84771 8.98044 6.84771 8.98044 6.84771C9.09704 6.96986 9.21307 7.09195 9.21307 7.21422C9.21307 7.21422 9.21307 7.21422 9.09648 7.21422C8.97989 7.09195 8.97989 7.092 8.86385 7.092C8.74727 7.092 8.63122 7.092 8.51463 7.092H8.39804C8.39804 6.96974 8.39804 6.96974 8.51463 6.84771C8.63122 6.84771 8.63122 6.84771 8.74726 6.84771H8.74781ZM10.7268 7.092C10.7268 7.092 10.7268 7.092 10.8434 7.092L10.9599 7.21422C11.0765 7.33636 11.1926 7.33639 11.1926 7.45865L11.3092 7.58072C11.3092 7.70298 11.0765 7.82522 10.9599 7.94736C10.8433 8.06963 10.6107 8.06973 10.6107 8.06973C10.6107 8.06973 10.6107 8.06963 10.7273 7.94736C10.8439 7.70296 10.9599 7.58072 10.8439 7.3312C10.8439 7.20906 10.7273 7.20913 10.7273 7.20913C10.7273 7.08687 10.7273 7.08677 10.7273 7.08677L10.7268 7.092ZM2.4619 7.45865C2.34531 7.45865 2.34531 7.45865 2.22927 7.45865C1.99664 7.58079 1.88005 7.70291 1.88005 7.95303C1.88005 7.95303 1.88005 7.95296 2.11268 7.83082C2.34531 7.70855 2.4619 7.58639 2.4619 7.58639C2.4619 7.46424 2.4619 7.46417 2.4619 7.46417V7.45865ZM3.97521 8.69025C3.97521 8.69025 3.97521 8.69025 4.0918 8.69025C4.0918 8.69025 3.62599 9.18488 3.39341 9.30583C3.27682 9.42798 3.16078 9.55024 3.16078 9.80036C3.16078 9.92262 3.16078 9.92258 3.16078 9.92258C3.16078 10.0448 3.0442 9.80036 3.0442 9.80036C3.0442 9.67822 3.16078 9.42798 3.27683 9.30583C3.27683 9.18357 3.39342 9.18357 3.39342 9.06155C3.39342 9.06155 3.51002 9.06159 3.62605 8.93933C3.74265 8.69505 3.85868 8.69505 3.97528 8.69505L3.97521 8.69025ZM6.53612 9.05675C6.65271 9.05675 6.76875 9.05675 6.88534 9.05675C7.00192 9.17901 7.11797 9.17904 7.11797 9.30118L7.23456 9.42354H7.11797C7.00138 9.30128 7.00138 9.42354 7.00138 9.42354C7.00138 9.54581 7.00138 9.54581 6.76875 9.42354C6.65216 9.30128 6.30294 9.17901 6.30294 9.05675C6.30294 9.05675 6.30294 9.05675 6.41953 9.05675C6.41953 9.05675 6.53612 8.93449 6.53612 9.05675ZM10.2611 9.05675C10.2611 9.05675 10.3777 9.05685 10.4938 9.17911C10.6103 9.17911 10.7264 9.30118 10.7264 9.30118C10.843 9.42344 10.843 9.42344 10.843 9.54547C10.843 9.66773 10.843 9.66783 10.843 9.66783C10.843 9.79009 10.843 9.79004 10.7264 9.79004C10.6098 9.79004 10.6098 9.79004 10.6098 9.79004C10.6098 9.66778 10.6098 9.66773 10.6098 9.54547C10.6098 9.30118 10.6098 9.30118 10.3772 9.30118C10.1445 9.30118 10.1445 9.30128 10.1445 9.42354C10.028 9.42354 10.028 9.54576 10.028 9.54576C10.028 9.54576 9.91136 9.42354 9.79532 9.42354L9.56269 9.30118H9.67928L9.79586 9.17911C9.79586 9.17911 9.79586 9.17901 9.91245 9.05675C10.029 9.05675 10.1451 9.05675 10.2617 9.05675H10.2611ZM5.13924 9.55143H5.25582C5.25582 9.55143 5.37241 9.55143 5.48845 9.55143C5.60504 9.67357 5.95426 9.91786 5.95426 10.046C6.18689 10.1682 6.18689 10.5406 6.18689 10.7849C6.0703 10.7849 6.0703 10.7849 6.0703 10.7849C6.0703 10.7849 6.0703 10.6627 6.0703 10.5406C5.95371 10.2962 5.95371 10.2962 5.72108 10.046C5.60449 9.92381 5.25527 9.92389 5.25527 9.92389C5.13869 10.046 5.02264 10.0459 4.78946 10.1682C4.67287 10.1682 4.44024 10.1682 4.44024 10.1682C4.32365 10.2903 4.09102 10.5347 4.09102 10.6627C4.09102 10.785 4.09102 10.785 4.20761 10.9071C4.3242 11.0293 4.3242 11.0293 4.55683 11.0293C4.78946 11.0293 4.78946 11.0293 4.78946 10.7849C4.78946 10.6627 4.78946 10.6627 4.67287 10.6627C4.55629 10.6627 4.55629 10.5405 4.67287 10.5405C4.78946 10.4182 4.78946 10.4183 4.9055 10.4183C5.02209 10.4183 5.13813 10.4182 5.25472 10.5405C5.37131 10.5405 5.48735 10.6627 5.48735 10.6627C5.48735 10.785 5.48735 10.907 5.48735 10.907C5.60393 11.0291 5.48735 11.0292 5.48735 11.0292C5.25472 11.1515 5.13813 11.2734 4.90534 11.3957C4.90534 11.3957 4.78875 11.3958 4.78875 11.5181C4.67215 11.5181 4.67216 11.6401 4.43953 11.6401C4.32293 11.6401 4.2069 11.6401 3.97371 11.6401C3.5079 11.518 3.27527 11.518 3.27527 11.2735C3.15868 11.0292 3.15868 11.0291 3.39186 11.1513C3.50845 11.3956 3.74108 11.3956 3.97388 11.3956H4.09047C4.09047 11.2733 4.09047 11.2733 4.09047 11.1513C3.74125 10.9069 3.62466 10.7847 3.62466 10.4123C3.62466 10.2901 3.62466 10.168 3.74124 10.168C3.85783 9.9235 3.97387 9.67335 4.09046 9.67335C4.09046 9.79561 4.09046 9.79557 4.09046 9.79557C4.09046 9.79557 4.20705 9.79557 4.43968 9.79557C4.67231 9.67331 4.7889 9.67331 4.90549 9.79557C5.02208 9.79557 5.13812 9.67335 5.13812 9.67335V9.55114L5.13924 9.55143ZM9.21346 9.55143L9.33005 9.67364C9.44664 9.67364 9.44664 9.79586 9.56268 9.79586C9.44609 9.918 9.09687 9.918 8.98066 9.79586C8.86407 9.79586 8.86407 9.79586 8.98066 9.79586C8.98066 9.6736 9.09725 9.67357 9.09725 9.55143H9.21384H9.21346ZM13.4041 9.79586C13.4041 9.79586 13.5207 9.79593 13.5207 9.91807C13.6373 10.1626 13.7533 10.5338 13.7533 10.7798C13.7533 11.0242 13.7533 11.1522 13.6367 11.0243C13.6367 10.9021 13.5201 10.7798 13.4041 10.7798C13.2875 10.7798 13.2875 10.902 13.1715 10.902C13.1715 10.902 12.9388 11.0242 12.8222 11.1463C12.7056 11.1463 12.5896 11.1463 12.5896 11.1463L12.473 11.0241H12.5896L12.7062 10.9019C12.8228 10.9019 13.0554 10.5354 13.0554 10.2863C13.0554 10.2863 13.0554 10.1642 13.0554 10.2863C13.172 10.2863 13.172 10.2863 13.288 10.2863C13.288 10.2863 13.288 10.2864 13.4046 10.1642C13.4046 10.1642 13.4046 10.0419 13.4046 9.91967C13.4046 9.79753 13.4046 9.79746 13.4046 9.79746L13.4041 9.79586ZM2.81112 10.0401C2.81112 10.1624 2.92771 10.2845 2.92771 10.4068C2.92771 10.5291 2.92771 10.6511 2.92771 10.6511C2.92771 10.7733 2.92771 10.8954 2.92771 11.0176C2.92771 11.0176 2.81112 10.8954 2.69508 10.6511C2.57849 10.5288 2.57849 10.5288 2.57849 10.4068C2.69508 10.2845 2.69508 10.0401 2.81112 10.0401H2.81112ZM2.11268 11.1487C2.11268 11.1487 2.11268 11.1486 2.22927 11.2709C2.34586 11.3931 2.69508 11.5151 3.04414 11.6374C3.16072 11.7595 3.27677 11.7596 3.27677 11.7596C3.27677 11.7596 2.92755 11.8818 2.81096 11.8818C2.57833 11.7595 2.46174 11.7595 2.46174 11.6375C2.46174 11.6375 2.34516 11.5152 2.22911 11.3931C2.11252 11.2708 2.11252 11.1487 2.11252 11.1487C2.11252 11.1487 1.99593 11.1487 2.11252 11.1487H2.11268ZM5.95411 11.2709C6.0707 11.3931 6.0707 11.8864 5.95411 12.0098C5.95411 12.2541 5.72148 12.6253 5.48829 12.8714C5.48829 12.9937 5.13907 13.2379 5.02248 13.2379H4.90589C4.90589 13.2379 5.02248 13.1159 5.25511 12.8714C5.37171 12.8714 5.48774 12.7493 5.60433 12.627C5.60433 12.5049 5.72093 12.3827 5.60433 12.2605C5.60433 12.1384 5.60433 12.1383 5.48774 12.1383C5.48774 12.2604 5.37115 12.2605 5.25511 12.2605C5.25511 12.3828 5.13854 12.3827 5.13854 12.3827C5.13854 12.3827 5.13854 12.2605 5.25511 12.1384C5.48774 11.894 5.72093 11.6438 5.83713 11.3995C5.95372 11.2772 5.95372 11.2773 5.95372 11.2773L5.95411 11.2709ZM7.58378 11.2709C7.70036 11.3931 7.70036 11.3931 7.81641 11.5152C7.933 11.7596 7.933 12.2541 7.81641 12.5003C7.69982 12.6226 7.69982 12.6226 7.69982 12.5003C7.69982 12.5003 7.69982 12.378 7.69982 12.2559C7.58324 12.2559 7.58324 12.1336 7.58324 12.0116C7.69982 11.8893 7.58324 11.7671 7.35061 12.0116C7.23402 11.8893 7.35061 11.5169 7.4672 11.3959L7.58379 11.2736L7.58378 11.2709ZM1.64709 11.2709C1.64709 11.2709 1.64709 11.3931 1.76368 11.5152C1.76368 11.6374 1.88027 11.7595 1.99631 11.8817C2.1129 12.0039 2.22894 12.0039 2.22894 12.1261C2.34553 12.1261 2.34553 12.1261 2.34553 12.1261C2.34553 12.2484 2.34553 12.2484 2.34553 12.3705C2.46211 12.3705 2.46211 12.3705 2.57816 12.3705C2.69475 12.3705 2.81079 12.3705 2.81079 12.3705C2.92738 12.3705 2.92738 12.3705 3.16001 12.3705C3.2766 12.4928 3.50923 12.4927 3.62582 12.4927L3.7424 12.615C3.7424 12.615 3.50977 12.7372 3.16033 12.7372C3.16033 12.8594 2.9277 12.8594 2.81111 12.8594C2.46189 12.8594 2.3453 12.8594 1.9963 12.7372C1.76367 12.615 1.64708 12.3707 1.53049 11.875C1.53049 11.6306 1.53049 11.5082 1.64708 11.2592L1.64709 11.2709ZM11.3088 11.5152C11.3088 11.5152 11.4254 11.5151 11.5414 11.6374C11.5414 11.6374 11.774 11.8818 11.8906 12.004C12.1233 12.1262 12.2399 12.2483 12.2399 12.2483H12.3564C12.473 12.126 12.3564 11.8818 12.2399 11.7538C12.2399 11.6316 12.2399 11.6316 12.2399 11.6316C12.2399 11.6316 12.3564 11.6316 12.3564 11.7538C12.3564 11.7538 12.473 11.998 12.5891 12.2483C12.5891 12.3705 12.5891 12.4926 12.5891 12.7428C12.7057 12.8651 12.7057 12.9873 12.7057 13.1095C12.8223 13.3538 12.473 13.8484 12.0072 14.0945C11.7746 14.3389 11.7746 14.3389 11.4252 14.3389C10.9594 14.4612 10.7268 14.3388 10.4939 14.2167C10.2613 14.0944 10.2613 13.9724 10.3773 13.9724V13.8502V13.9724C10.4939 13.9724 10.8432 14.0945 11.1922 13.9724C11.4248 13.9724 11.658 13.8501 11.658 13.7278C11.7746 13.6057 11.7746 13.4835 11.7746 13.4835C11.658 13.4835 11.658 13.4836 11.7746 13.3613C12.0072 13.1169 12.0072 13.1169 12.0072 12.8668C11.8906 12.5003 11.7746 12.2506 11.5414 12.1278C11.3088 12.1278 11.3088 12.0056 11.4248 12.0056C11.5414 12.0056 11.5414 12.0057 11.5414 11.8836C11.5414 11.8836 11.5414 11.7613 11.4248 11.6393C11.3082 11.6393 11.3082 11.5169 11.3082 11.5169L11.3088 11.5152ZM13.1713 13.1159C13.1713 13.1159 13.1713 13.1159 13.2878 13.1159C13.2878 13.238 13.2878 13.238 13.2878 13.3603C13.2878 13.4825 13.1713 13.4825 13.1713 13.6046C13.0547 13.7269 12.9386 13.7268 12.9386 13.7268C12.9386 13.7268 13.0552 13.3602 13.0552 13.2321C13.1718 13.1099 13.1718 13.1099 13.1718 13.1099L13.1713 13.1159ZM4.20801 13.4822H4.32458V13.6046C4.32458 13.6046 4.32458 13.7268 4.09195 13.7268L3.85932 13.8489L3.74273 13.7268C3.74273 13.7268 3.62614 13.7269 3.62614 13.6046C3.50956 13.6046 3.50956 13.6045 3.85877 13.4822C3.97536 13.4822 4.0914 13.4822 4.20799 13.4822H4.20801ZM8.74781 14.3447C8.74781 14.3447 8.86439 14.4669 8.98044 14.4669C9.21307 14.5892 9.21307 14.5892 8.98044 14.5892C8.63122 14.5892 8.51463 14.5892 8.51463 14.8336H8.39804L8.51463 14.4613C8.51463 14.339 8.63122 14.3389 8.74726 14.3389L8.74781 14.3447ZM3.04397 14.4669L3.16056 14.5892C3.16056 14.5892 3.16056 14.7114 3.04397 14.7114C2.81134 14.8336 2.81134 14.9558 2.69475 15.0779H2.57816C2.57816 14.9557 2.46157 14.9557 2.46157 14.8336C2.46157 14.7113 2.46157 14.7114 2.46157 14.7114H2.57816C2.69475 14.7114 2.81079 14.5892 2.92738 14.5892C3.04396 14.5892 3.04396 14.4669 3.04396 14.4669H3.04397ZM5.48846 14.9616C5.48846 14.9616 5.37187 15.0838 5.13924 15.206C4.55723 15.5726 4.32443 15.7006 4.20801 16.0682C4.09142 16.1905 4.09142 16.3126 4.20801 16.4347C4.32458 16.5569 4.32458 16.557 4.20801 16.557C4.09142 16.4348 3.97537 16.3126 3.97537 16.1905C3.97537 16.0682 3.97537 15.824 4.09196 15.6959C4.3246 15.3294 4.20855 15.0796 3.74274 15.0796C3.62615 15.0796 3.62615 15.0796 3.74274 15.0796C3.85933 14.9575 4.20856 14.9575 4.55755 15.0796C4.90678 15.0796 5.25599 15.0797 5.37242 14.9575H5.48901L5.48846 14.9616ZM10.0283 15.0837C10.0283 15.0837 10.1449 15.0837 10.261 15.0837C10.3775 15.0837 10.6102 15.0837 10.843 15.0837C11.1922 15.0837 11.3088 15.0838 11.1922 15.206C11.0756 15.206 10.843 15.206 10.7264 15.206C10.4938 15.206 10.028 15.0837 10.028 15.0837H10.0283Z" fill="black"/>
<path d="M3.50956 7.09375C3.39297 7.21601 3.39297 7.21597 3.50956 7.21597C3.74219 7.21597 3.97537 7.21597 4.09158 7.21597V7.09375C3.97499 7.09375 3.62577 7.09375 3.50956 7.09375Z" fill="#37ABC8"/>
<path d="M113.161 5.23281L110.012 14.7083L107.072 5.23281H104.07L108.636 18.0681L108.599 18.1569C108.599 18.1569 107.68 20.7748 106.847 21.4091C106.207 21.7535 104.707 21.7279 104.139 21.6869V24.1064C105.13 24.105 107.462 24.1723 108.212 23.6719C109.154 23.0456 109.365 22.7752 110.008 21.4017C110.71 19.9064 116.092 5.23281 116.092 5.23281H113.161ZM98.4545 7.36979V5.23349H95.6406V18.1596H98.4545V13.2386C98.4545 12.3742 98.5319 11.6148 98.7583 10.9879C99.6055 8.63637 101.969 7.96776 103.192 7.77741L102.226 5.3068C101.245 5.48505 99.5153 5.98348 98.4545 7.36979V7.36979ZM49.9832 15.876C47.8195 15.876 46.3079 14.0175 46.3079 11.6922C46.3079 9.41596 47.7964 7.55544 49.8438 7.55544C51.262 7.55544 52.1699 8.21597 53.0305 9.17112L54.7754 7.18885C53.6354 5.86779 52.1929 4.96241 49.8668 4.96241C46.1916 4.96241 43.4933 8.04512 43.4933 11.7406C43.4933 15.4354 46.1916 18.4455 49.8438 18.4455C52.2383 18.4455 53.6584 17.4419 54.8682 16.0226L53.1693 14.2616C52.2856 15.2155 51.3093 15.876 49.9832 15.876ZM90.7434 10.4814C90.6967 10.0079 90.5957 9.87335 90.4397 9.45699C90.2856 9.0413 90.0746 8.67807 89.8131 8.36866C89.5484 8.05857 89.2338 7.81709 88.87 7.6449C88.5062 7.47472 88.0906 7.38862 87.6244 7.38862C86.7561 7.38862 86.0387 7.70274 85.4722 8.33166C84.907 8.95991 84.5605 9.4691 84.4364 10.4814H90.7434V10.4814ZM93.1629 9.26192C93.411 10.102 93.5357 10.9879 93.5357 11.9175C93.5357 12.048 93.5318 12.1832 93.5254 12.3218C93.5165 12.4603 93.5043 12.6029 93.489 12.7502H84.4601C84.6161 13.8103 85.0151 14.6229 85.6583 15.1845C86.3028 15.7489 87.0822 16.0307 87.9979 16.0307C88.6954 16.0307 89.3009 15.8995 89.8131 15.6385C90.3253 15.3776 90.8285 14.9948 91.324 14.4877L92.9781 16.0307C92.3873 16.7645 91.6859 17.3524 90.87 17.793C90.0567 18.2336 89.0835 18.4549 87.9512 18.4549C87.0663 18.4549 86.2402 18.2894 85.4722 17.9645C84.705 17.6383 84.0381 17.1809 83.4709 16.593C82.9051 16.0058 82.4588 15.3009 82.1339 14.4769C81.8079 13.6522 81.6448 12.7415 81.6448 11.746V11.6962C81.6448 10.7673 81.7919 9.8942 82.0866 9.07762C82.3814 8.26171 82.7964 7.54737 83.3315 6.93661C83.8674 6.32316 84.4984 5.8429 85.228 5.49111C85.9569 5.14066 86.7638 4.9651 87.6487 4.9651C88.6251 4.9651 89.4832 5.15344 90.2198 5.5281C90.9563 5.90411 91.5695 6.40993 92.0587 7.04558C92.5478 7.68257 92.9161 8.42112 93.1629 9.26192V9.26192ZM75.091 14.7345L71.7866 5.23349H68.761L73.8116 18.2585H76.3474L81.3731 5.23349H78.4171L75.091 14.7345ZM65.83 11.7218C65.83 11.15 65.7373 10.6119 65.5506 10.1068C65.3645 9.60026 65.1043 9.16035 64.7711 8.78435C64.4374 8.40902 64.0422 8.11104 63.5844 7.89041C63.1272 7.66979 62.6183 7.56015 62.0595 7.56015C61.5013 7.56015 60.9929 7.66979 60.5364 7.89041C60.0786 8.11104 59.6867 8.40431 59.3599 8.77157C59.0351 9.1395 58.7857 9.57134 58.6163 10.0691C58.4443 10.5668 58.3599 11.1016 58.3599 11.6733V11.7218C58.3599 12.2767 58.4533 12.8074 58.6393 13.3126C58.8248 13.8197 59.0843 14.263 59.4187 14.6471C59.7519 15.0305 60.1477 15.3318 60.6061 15.5518C61.0633 15.7724 61.5633 15.8834 62.1068 15.8834C62.6803 15.8834 63.1963 15.7724 63.6535 15.5518C64.1126 15.3318 64.5039 15.0345 64.8293 14.6592C65.1548 14.2838 65.4022 13.848 65.5742 13.3489C65.7443 12.8518 65.83 12.3251 65.83 11.7715V11.7218ZM68.1567 9.06417C68.4822 9.87335 68.6452 10.7431 68.6452 11.6733V11.7218C68.6452 12.6359 68.4777 13.5002 68.1452 14.3161C67.8108 15.132 67.3537 15.8464 66.7718 16.4585C66.1906 17.0719 65.4949 17.5556 64.6906 17.9154C63.883 18.2739 63.0064 18.4549 62.0595 18.4549C61.1291 18.4549 60.264 18.2793 59.4661 17.9275C58.6662 17.5771 57.9756 17.0988 57.3944 16.4955C56.8119 15.8915 56.3592 15.1811 56.0325 14.3666C55.7064 13.55 55.544 12.685 55.544 11.7715V11.7218C55.544 10.7915 55.7102 9.91774 56.0447 9.10251C56.3778 8.2866 56.8362 7.57225 57.4174 6.96082C57.9993 6.34805 58.6905 5.8624 59.4884 5.50456C60.2877 5.1447 61.1605 4.9651 62.1068 4.9651C63.0531 4.9651 63.9259 5.14066 64.7245 5.49111C65.5231 5.8429 66.2136 6.32316 66.7955 6.93661C67.3767 7.54737 67.8313 8.25767 68.1567 9.06417V9.06417ZM40.9817 11.7581C40.6179 11.4736 40.2106 11.2321 39.7599 11.0357C39.3097 10.8406 38.8609 10.6691 38.4107 10.5218C38.054 10.3913 37.7093 10.2689 37.3756 10.1538C37.0418 10.0408 36.747 9.91371 36.4913 9.77582C36.2349 9.63658 36.029 9.48188 35.8749 9.30968C35.7189 9.1395 35.6422 8.93906 35.6422 8.70969V8.66193C35.6422 8.2866 35.7924 7.97584 36.0955 7.73167C36.3979 7.4875 36.8212 7.36441 37.364 7.36441C37.8768 7.36441 38.4338 7.47472 39.0393 7.69467C39.6441 7.91463 40.2413 8.21261 40.8315 8.58794L41.9479 6.48258C41.297 6.02586 40.5757 5.66667 39.7835 5.40568C38.9932 5.1447 38.2087 5.01353 37.4337 5.01353C36.8282 5.01353 36.2585 5.10367 35.7234 5.28326C35.1882 5.46353 34.7227 5.72451 34.3269 6.06689C33.9311 6.40993 33.621 6.82092 33.3966 7.30253C33.1709 7.78548 33.0583 8.3357 33.0583 8.95453V9.00363C33.0583 9.62515 33.1754 10.1464 33.4081 10.5722C33.6402 10.9953 33.9394 11.3505 34.3039 11.635C34.6683 11.9222 35.0795 12.1549 35.5366 12.3339C35.9945 12.5135 36.4484 12.6688 36.8986 12.7993C37.2553 12.9137 37.6006 13.0233 37.9344 13.1296C38.2675 13.2359 38.5616 13.3576 38.818 13.4969C39.0744 13.6354 39.2752 13.7948 39.4235 13.9738C39.57 14.154 39.6441 14.3666 39.6441 14.6107V14.6592C39.6441 15.0843 39.4772 15.422 39.1435 15.6749C38.8104 15.9284 38.3417 16.0542 37.7362 16.0542C37.1 16.0542 36.4369 15.9204 35.747 15.65C35.0558 15.3809 34.3768 14.9847 33.7099 14.4634L32.4535 16.4713C33.2297 17.1069 34.0705 17.5892 34.9791 17.9154C35.8858 18.2423 36.7816 18.4044 37.6665 18.4044C38.302 18.4044 38.8999 18.3204 39.4587 18.1475C40.0163 17.976 40.5009 17.7244 40.9121 17.3881C41.3238 17.0538 41.6454 16.6347 41.8788 16.1275C42.1116 15.6231 42.2273 15.0258 42.2273 14.3403V14.2926C42.2273 13.7047 42.1116 13.2063 41.8788 12.7993C41.6454 12.3904 41.3462 12.044 40.9817 11.7581V11.7581ZM27.7207 18.1596H30.5368V5.23349H27.7207V18.1596ZM26.0902 9.47111C26.0902 14.3161 22.5543 18.0587 17.4373 18.0587H12.4864C13.4858 17.3571 14.3196 16.4201 14.9174 15.3177H17.4373C20.8567 15.3177 23.0895 12.8962 23.0895 9.51954C23.0895 6.14357 20.8567 3.67162 17.4373 3.67162H14.2275V6.19065C13.7562 5.57384 13.207 5.02631 12.5855 4.57565C12.2038 4.29919 11.7946 4.06175 11.3668 3.85996V0.931961H17.4373C22.5543 0.931961 26.0902 4.62609 26.0902 9.47111" fill="#96FF94"/>
</svg>
