<svg width="189" height="32" viewBox="0 0 189 32" fill="none" xmlns="http://www.w3.org/2000/svg">
<g style="mix-blend-mode:overlay">
<path fill-rule="evenodd" clip-rule="evenodd" d="M96.4557 19.2749C95.8972 19.1042 95.1201 19.1286 94.8287 18.7628C94.3916 18.2019 95.2415 17.8605 95.4844 17.3727C96.3829 15.69 97.3542 14.0561 98.1313 12.3246C98.8356 10.7394 99.1998 9.03231 99.8798 7.44714C100.803 5.30106 102.211 3.47202 104.008 1.9844C104.227 1.81369 104.445 1.61859 104.639 1.42349C105.586 0.49678 106.655 0.00903526 108.015 0.106584C109.229 0.204133 110.443 0.106584 111.657 0.130971C112.945 0.155359 113.212 0.49678 112.75 1.71614C112.24 3.03305 111.682 4.37435 110.929 5.54493C110.152 6.73991 109.448 8.0812 108.185 8.91037C107.821 9.15424 107.918 9.39811 108.233 9.66637C109.375 10.6662 109.69 12.0563 109.108 13.4708C108.233 15.5925 106.728 17.0313 104.639 18.0068C103.085 18.7384 101.507 18.9579 99.8312 18.9335C98.7141 18.9091 97.5728 19.0798 96.4557 19.153C96.48 19.2018 96.48 19.2262 96.4557 19.2749ZM100.705 16.9582C100.705 16.9338 100.705 16.9338 100.705 16.9582C101.191 16.9582 101.677 16.9582 102.162 16.9582C104.542 16.9338 106.242 15.812 107.456 13.7634C108.452 12.1051 107.286 10.2517 105.417 10.3736C104.129 10.4712 102.842 10.4224 101.555 10.3736C100.73 10.3492 100.293 10.6906 100.001 11.4223C99.6126 12.4465 99.2241 13.4708 98.787 14.4707C98.5442 15.0072 98.1556 15.4949 97.8885 16.0314C97.5728 16.7143 97.6942 16.9094 98.4227 16.9582C99.1513 16.9582 99.9283 16.9582 100.705 16.9582ZM103.28 8.64211C103.522 8.64211 103.765 8.61772 104.008 8.64211C107.481 8.88598 109.108 6.76429 110.273 3.83783C110.735 2.66724 110.346 2.13072 109.108 2.08195C108.015 2.03317 106.922 2.03317 105.854 2.10634C105.465 2.13072 105.004 2.35021 104.688 2.61847C103.255 3.8866 102.211 5.49616 101.361 7.17888C100.657 8.59334 100.681 8.61772 102.308 8.61772C102.624 8.64211 102.94 8.64211 103.28 8.64211Z" fill="black"/>
<path fill-rule="evenodd" clip-rule="evenodd" d="M91.4047 0.374834C92.0847 0.374834 92.7889 0.350446 93.4688 0.374834C94.6588 0.423608 95.0716 0.960127 94.5131 2.00878C93.5903 3.71588 92.5461 5.34983 91.5261 7.00816C91.3076 7.34958 90.9919 7.64222 90.7976 7.98365C89.9962 9.44688 88.7335 10.3248 87.2279 10.9101C86.0622 11.3735 86.4508 16.4948 85.8923 18.397C85.8194 18.6652 85.6737 19.0067 85.4794 19.1042C85.1395 19.2505 84.6781 19.3481 84.3624 19.2262C84.1681 19.153 84.0224 18.6165 84.0467 18.3238C84.1681 17.2508 84.4595 16.1778 84.5566 15.0803C84.6295 14.2024 84.5566 13.3001 84.4838 12.4221C84.4352 11.8612 84.0467 11.5686 83.4639 11.593C83.2939 11.593 83.1482 11.6173 82.9782 11.593C81.254 11.3491 80.2341 11.8856 79.4327 13.6171C78.5342 15.5193 77.0286 17.1532 75.7902 18.8847C75.6202 19.1286 75.3045 19.3481 75.0131 19.4456C74.6974 19.5432 74.3331 19.4944 73.9689 19.5188C74.0903 19.2262 74.1631 18.8603 74.3331 18.6165C75.0131 17.6654 75.7173 16.7387 76.4458 15.8119C78.34 13.3976 79.4084 10.5199 80.7926 7.81293C81.934 5.56931 83.6096 3.76466 85.5523 2.20388C85.868 1.96 86.2322 1.76491 86.5479 1.52103C87.6407 0.643093 88.8792 0.252898 90.2877 0.374834C90.6762 0.399221 91.0405 0.374834 91.4047 0.374834ZM83.7553 9.86146C84.1924 9.86146 84.6538 9.88585 85.0909 9.86146C86.4265 9.76391 87.8107 9.5932 88.7335 8.52017C89.7534 7.32519 90.6519 6.03267 91.5747 4.76453C91.7447 4.52066 91.8175 4.15485 91.8904 3.86221C92.0604 3.17936 91.8661 2.76478 91.2104 2.52091C90.8462 2.39897 90.4091 2.37459 90.0205 2.39897C89.1463 2.44775 88.2478 2.56968 87.3736 2.56968C86.7665 2.56968 86.2808 2.76478 85.8923 3.22814C84.8238 4.49627 83.6824 5.69125 82.7111 7.03254C82.2497 7.66661 82.0554 8.49578 81.764 9.25178C81.594 9.66636 81.7883 9.88585 82.2011 9.88585C82.7111 9.86146 83.221 9.86146 83.7553 9.86146Z" fill="black"/>
<path fill-rule="evenodd" clip-rule="evenodd" d="M75.3287 0.83816C76.5429 0.83816 77.7571 0.83816 78.9713 0.83816C79.0927 0.83816 79.2141 0.960096 79.3356 1.03326C79.2627 1.13081 79.2142 1.25274 79.1413 1.30152C77.9757 2.13068 76.8586 2.93546 75.2802 2.81352C73.6774 2.69159 72.0504 2.74036 70.4234 2.81352C69.8891 2.83791 69.2578 3.00862 68.8692 3.32566C67.1693 4.71573 65.688 6.3009 64.6681 8.30065C64.4252 8.764 64.5709 8.88594 65.0081 8.88594C66.4651 8.88594 67.9221 8.88594 69.3792 8.88594C69.6949 8.88594 70.0348 8.86155 70.3505 8.91033C71.079 8.98349 71.249 9.37369 70.8362 9.95898C70.4234 10.5687 69.8649 10.8613 69.0878 10.8369C67.4365 10.7881 65.7609 10.8613 64.1096 10.8125C63.3568 10.7881 62.8954 11.0564 62.604 11.7392C61.6812 13.8853 60.1998 15.6656 58.7428 17.4459C58.67 17.5434 58.5971 17.6166 58.5243 17.7141C58.6457 17.7629 58.7914 17.8848 58.9128 17.8604C60.9769 17.8117 63.0168 17.7385 65.0809 17.6653C65.2752 17.6653 65.4937 17.6166 65.688 17.641C66.1008 17.6897 66.2951 17.9824 66.028 18.3238C65.3723 19.1286 64.7652 20.0309 63.5267 20.0553C61.5112 20.1041 59.4956 20.226 57.48 20.2992C56.7272 20.3235 55.9502 20.2992 55.1974 20.2504C55.0274 20.2504 54.7602 20.1284 54.7117 20.0309C54.6631 19.8846 54.7845 19.6407 54.9059 19.4944C55.5373 18.8115 56.1201 18.0799 56.8487 17.4946C58.5243 16.1533 59.617 14.3487 60.7098 12.544C61.7297 10.8857 62.5797 9.12981 63.6482 7.49587C65.2752 4.98399 67.3393 2.91107 69.9863 1.42345C70.8605 0.935709 71.759 0.716223 72.7789 0.764998C73.6289 0.886934 74.4788 0.862547 75.3287 0.83816Z" fill="black"/>
<path fill-rule="evenodd" clip-rule="evenodd" d="M25.5953 2.56967C25.3038 2.56967 25.0124 2.61845 24.7453 2.56967C22.7055 2.15509 21.4184 3.32568 20.1799 4.69136C19.3057 5.64246 18.4072 6.56918 17.533 7.54467C17.2902 7.83731 17.1687 8.22751 16.9745 8.56893C17.3387 8.6177 17.6787 8.66648 18.043 8.69087C19.0872 8.71525 20.1557 8.69087 21.1999 8.71525C21.4427 8.71525 21.6855 8.91035 21.9284 9.0079C21.8312 9.25177 21.7584 9.54442 21.6127 9.73952C21.0056 10.4955 20.3014 10.9833 19.2329 10.8857C17.9944 10.7882 16.7316 10.8369 15.4689 10.8857C15.0803 10.9101 14.5461 11.0808 14.3275 11.3735C12.3362 13.8122 9.88356 15.7144 7.50373 17.7141C6.96949 18.1531 6.38667 18.5189 5.85243 18.9335C5.73101 19.031 5.68244 19.1774 5.5853 19.2749C5.73101 19.2993 5.90099 19.3725 6.0467 19.3481C7.86799 19.2749 9.665 19.2018 11.4863 19.153C11.6806 19.153 11.8748 19.2261 12.0691 19.2749C11.972 19.47 11.8991 19.7383 11.7534 19.8602C10.4421 20.982 9.00934 21.8356 7.18804 21.86C5.36675 21.8843 3.56974 22.0063 1.74844 22.0794C1.57846 22.0794 1.40847 22.1038 1.26276 22.0794C0.849937 21.9819 0.412827 21.86 0 21.738C0.315691 21.4942 0.607098 21.2259 0.947073 21.0308C2.40411 20.1529 3.934 19.3969 5.29389 18.397C7.04234 17.1045 8.66936 15.6412 10.2964 14.178C12.8462 11.8368 15.1046 9.17861 17.3387 6.5204C19.0143 4.54504 20.957 2.78916 23.094 1.30154C23.4583 1.03328 23.9925 0.886956 24.4296 0.862569C26.2509 0.813794 28.0722 0.838182 29.8935 0.862569C30.1121 0.862569 30.3306 0.984505 30.5492 1.03328C30.4278 1.22838 30.3549 1.47225 30.1849 1.61857C29.5293 2.25264 28.7764 2.69161 27.8051 2.59406C27.0766 2.5209 26.3481 2.56967 25.6195 2.56967C25.5953 2.59406 25.5953 2.56967 25.5953 2.56967Z" fill="black"/>
<path fill-rule="evenodd" clip-rule="evenodd" d="M50.0249 9.12982C51.8705 9.59318 53.4246 8.88595 54.6631 6.83742C55.8287 4.88644 57.65 3.42321 59.5199 2.13069C60.0784 1.74049 60.7098 1.44785 61.3412 1.1552C61.4869 1.08204 61.7055 1.20397 61.8997 1.22836C61.8026 1.39907 61.7297 1.59417 61.584 1.69172C60.2484 2.81353 58.8642 3.86218 57.6015 5.05715C55.5131 7.00813 54.1774 9.56879 52.6233 11.9343C51.7491 13.2513 50.9477 14.6413 49.952 15.8363C48.5921 17.4946 47.0865 19.0066 45.3381 20.2748C45.1195 20.4211 44.8281 20.543 44.5853 20.5918C44.391 20.6162 44.1725 20.4699 43.9539 20.4211C44.051 20.2504 44.1239 20.0553 44.2696 19.9334C44.8281 19.3968 45.3867 18.8847 45.9695 18.3726C48.1065 16.446 50.0006 14.2755 51.3362 11.6905C51.7005 10.9832 51.6519 10.8857 50.8263 10.8857C49.1264 10.8613 47.4265 10.8857 45.7266 10.8857C45.1438 10.8857 44.7553 11.1296 44.4396 11.6173C42.1812 15.0559 39.4614 18.0312 36.1588 20.4455C35.7945 20.7137 35.3088 20.8845 34.8717 21.0308C34.7503 21.0796 34.556 20.8601 34.386 20.7625C34.4589 20.6406 34.5075 20.4699 34.6289 20.3723C35.5274 19.6163 36.3773 18.8115 37.3244 18.1043C39.2428 16.6167 40.6999 14.7389 42.1083 12.7879C43.4682 10.9345 44.731 9.00788 46.1152 7.15446C47.6936 5.03277 49.5878 3.20373 51.8219 1.76488C52.1862 1.52101 52.599 1.32591 53.0118 1.17959C53.1818 1.10643 53.4004 1.17959 53.5703 1.17959C53.4732 1.32591 53.4004 1.52101 53.2789 1.61856C51.4819 2.88669 49.8549 4.32554 48.3979 5.98387C47.7179 6.73987 47.1351 7.54465 46.528 8.37382C46.1395 8.88595 46.2366 9.08105 46.868 9.10543C47.7908 9.15421 48.7136 9.12982 50.0249 9.12982Z" fill="black"/>
<path fill-rule="evenodd" clip-rule="evenodd" d="M135.067 18.1531C134.217 18.1775 133.974 17.8117 134.29 17.2508C134.921 16.1289 135.601 15.0071 136.184 13.8853C136.864 12.5684 137.52 11.2271 138.151 9.88582C139.705 6.61793 141.454 3.47198 144.052 0.886935C144.222 0.716225 144.368 0.472353 144.586 0.399191C144.902 0.277255 145.266 0.277255 145.606 0.22848C145.655 0.545514 145.825 0.93571 145.704 1.20397C144.829 3.22811 145.048 5.27663 145.582 7.27639C146.092 9.27614 146.796 11.2271 147.428 13.1781C147.816 14.4218 148.253 15.6412 148.666 16.8606C148.836 17.3483 148.958 17.8361 148.326 18.0799C147.816 18.275 147.331 17.9092 147.112 17.202C146.796 16.2021 146.456 15.2022 146.165 14.2024C145.971 13.5683 145.606 13.2756 144.926 13.3C142.935 13.3244 140.968 13.3244 138.977 13.3C138.273 13.3 137.884 13.5927 137.593 14.2267C137.034 15.3973 136.379 16.4948 135.699 17.6166C135.553 17.8848 135.189 18.0555 135.067 18.1531ZM142.085 11.5685C142.814 11.5685 143.542 11.5929 144.271 11.5685C145.121 11.5442 145.242 11.3491 144.975 10.4955C144.684 9.56878 144.441 8.64207 144.174 7.71536C143.785 6.34967 143.615 4.93521 143.712 3.49637C143.712 3.37443 143.664 3.2525 143.639 3.15495C143.518 3.2525 143.397 3.32566 143.299 3.42321C141.624 5.69122 140.434 8.2031 139.317 10.7638C139.074 11.3003 139.22 11.5442 139.778 11.5685C140.531 11.5929 141.308 11.5685 142.085 11.5685Z" fill="black"/>
<path fill-rule="evenodd" clip-rule="evenodd" d="M164.378 18.2019C161.44 18.2019 159.643 16.7143 158.186 14.5926C157.141 13.0806 156.656 11.3247 156.631 9.54444C156.607 7.93489 156.996 6.34972 157.918 4.93526C158.817 3.54519 159.861 2.3746 161.294 1.52105C163.407 0.252912 165.908 0.277299 167.462 2.10634C167.778 2.47215 168.142 2.78918 168.458 3.17938C168.846 3.61835 168.749 4.05732 168.36 4.49629C168.02 4.88648 167.705 4.91087 167.389 4.4719C167.171 4.17925 166.952 3.88661 166.685 3.64274C164.548 1.69176 162.338 2.1795 160.42 3.95977C157.433 6.78869 157.19 11.5686 160.201 14.5438C162.678 16.9825 165.155 17.1776 167.705 14.5194C168.336 13.861 168.943 13.9098 169.162 14.6414C169.235 14.8852 169.113 15.2754 168.968 15.5193C168.093 17.1533 166.272 18.3726 164.378 18.2019Z" fill="black"/>
<path fill-rule="evenodd" clip-rule="evenodd" d="M177.613 5.88633C177.734 7.4715 177.855 9.03228 177.977 10.6174C177.977 10.7638 178.05 10.9101 178.098 11.0564C178.22 10.9589 178.365 10.8857 178.438 10.7882C179.75 9.08105 180.988 7.34956 182.348 5.69123C183.125 4.71574 184.072 3.86219 184.946 2.95986C185.068 2.83792 185.213 2.6916 185.335 2.6916C185.699 2.6916 186.088 2.78915 186.452 2.83792C186.355 3.13057 186.331 3.47199 186.136 3.69148C185.116 4.83768 184.072 5.95949 183.028 7.10569C182.834 7.32517 182.639 7.52027 182.469 7.73976C181.741 8.66647 181.717 8.76402 182.518 9.71512C184.485 12.1295 186.501 14.495 188.492 16.885C188.613 17.0313 188.759 17.1776 188.88 17.3483C189.123 17.6897 188.977 17.8848 188.613 17.9336C188.03 18.0312 187.593 17.7873 187.229 17.3727C185.991 15.9339 184.752 14.495 183.514 13.0562C182.858 12.2758 182.227 11.4954 181.571 10.7394C180.94 10.0565 180.745 10.0809 180.162 10.8369C180.138 10.8613 180.114 10.9101 180.09 10.9345C178.414 13.2757 178.39 13.4951 179.045 16.2753C179.118 16.5435 179.215 16.8362 179.24 17.1044C179.24 17.3483 179.143 17.6166 179.094 17.8605C178.754 17.7873 178.341 17.8117 178.123 17.6166C177.88 17.3971 177.783 16.9825 177.734 16.6167C177.37 14.5438 177.006 12.4709 176.714 10.398C176.52 8.95912 176.35 7.49588 176.301 6.05704C176.253 4.88645 176.423 3.71586 176.52 2.54528C176.544 2.13069 176.811 1.81366 177.248 1.9356C177.467 2.00876 177.71 2.37457 177.734 2.61844C177.783 3.71586 177.758 4.81329 177.758 5.91071C177.685 5.88633 177.661 5.88633 177.613 5.88633Z" fill="black"/>
<path fill-rule="evenodd" clip-rule="evenodd" d="M120.958 18.4214C119.623 18.4214 118.287 18.4458 116.951 18.4214C116.029 18.397 115.859 18.1043 116.223 17.2996C117.413 14.7145 118.19 12.0075 118.748 9.203C119.428 5.7644 121.031 2.83793 123.727 0.545536C123.848 0.447987 123.969 0.301664 124.115 0.25289C124.479 0.155341 125.086 -0.0885312 125.184 0.0334049C125.572 0.569924 124.892 0.618698 124.649 0.886957C123.289 2.39896 122.1 4.00852 121.298 5.91072C120.254 8.39822 120.011 11.0808 119.21 13.6171C119.016 14.2024 118.846 14.7633 118.627 15.3242C118.214 16.4216 118.457 16.7386 119.623 16.6655C121.444 16.5679 123.241 16.4948 125.062 16.4704C126.034 16.446 126.204 16.6167 126.204 17.2996C126.204 18.0312 125.912 18.3482 125.062 18.397C123.678 18.4458 122.318 18.397 120.934 18.397C120.958 18.397 120.958 18.4214 120.958 18.4214Z" fill="black"/>
<path fill-rule="evenodd" clip-rule="evenodd" d="M41.7683 2.88669C41.3555 2.88669 40.9669 2.88669 40.5541 2.88669C38.9271 2.88669 38.0529 4.10605 37.1058 5.10593C35.7945 6.47161 34.6531 7.98362 33.5361 9.5444C31.7148 12.1051 29.6749 14.5438 27.5137 16.8362C25.9109 18.5433 23.9439 19.8846 21.9041 21.0552C21.7341 21.1527 21.5398 21.2747 21.3455 21.299C21.1513 21.299 20.9327 21.2015 20.7142 21.1283C20.8113 20.9576 20.8841 20.7625 21.0056 20.665C21.7826 20.0797 22.584 19.5188 23.3854 18.9823C26.1538 17.1044 28.2665 14.5682 30.3306 11.9343C32.3947 9.30053 34.2646 6.47161 36.7658 4.2036C36.9844 4.0085 37.1787 3.8134 37.3729 3.59392C37.6401 3.30127 37.6158 3.10617 37.1787 3.0574C36.6201 3.00863 36.0616 2.93546 35.5031 2.83791C35.3574 2.81353 35.2602 2.69159 35.1388 2.61843C35.2117 2.49649 35.2845 2.32578 35.4059 2.22823C36.4016 1.39907 37.5186 1.00887 38.8785 1.10642C40.6755 1.22836 42.4968 1.13081 44.2938 1.13081C44.4153 1.13081 44.5367 1.10642 44.6581 1.10642C44.8038 1.13081 44.9495 1.20397 45.0952 1.25275C45.0466 1.39907 44.9981 1.56978 44.9009 1.66733C44.0753 2.59404 43.0554 3.08179 41.7683 2.88669Z" fill="black"/>
<path d="M4.13965 31.8011H6.41334L7.63887 26.1219H5.36518L4.13965 31.8011Z" fill="black"/>
<path d="M20.3681 31.8011H22.5451L23.2304 28.6195H23.2465L24.98 31.8011H27.4714L28.6969 26.1219H26.52L25.8427 29.2717H25.8186L24.1899 26.1219H21.5937L20.3681 31.8011Z" fill="black"/>
<path d="M44.593 27.5536H45.8992C46.9393 27.5536 47.2457 28.0627 47.0522 28.9615C46.8587 29.8603 46.3265 30.3694 45.2864 30.3694H43.9803L44.593 27.5536ZM41.4002 31.8011H45.875C47.7859 31.8011 48.9953 30.958 49.4226 28.9615C49.8741 26.8696 49.0034 26.1219 47.0522 26.1219H42.6257L41.4002 31.8011Z" fill="black"/>
<path d="M62.779 29.6456C62.3839 31.4512 63.3756 32 65.7138 32C68.052 32 69.2695 31.4512 69.6645 29.6456L70.4224 26.1219H68.1487L67.407 29.5581C67.2457 30.2899 66.77 30.5205 66.0282 30.5205C65.2865 30.5205 64.9075 30.2899 65.0688 29.5581L65.8105 26.1219H63.5369L62.779 29.6456Z" fill="black"/>
<path d="M87.3293 29.7728C87.6276 29.8206 87.6921 29.9876 87.6598 30.1546C87.6034 30.4251 87.3696 30.616 86.6601 30.616C86.3053 30.616 86.0634 30.5762 85.9102 30.4967C85.7651 30.4092 85.7248 30.2819 85.757 30.091H83.0157C82.6609 31.7614 84.5234 32 86.273 32C88.8289 32 90.1109 31.3478 90.4092 29.9637C90.6189 29.0013 90.0222 28.4763 88.9096 28.3093L86.2811 27.9116C86.0634 27.8798 86.015 27.7764 86.0473 27.6173C86.0957 27.3786 86.3698 27.2116 87.0471 27.2116C87.297 27.2116 87.547 27.2434 87.7243 27.3309C87.9178 27.4105 88.0307 27.5536 87.9743 27.7843H90.6189C90.7962 26.5832 89.8851 25.923 87.3212 25.923C85.4506 25.923 83.9026 26.3207 83.5882 27.7923C83.4188 28.5877 83.7413 29.224 84.8137 29.391L87.3293 29.7728Z" fill="black"/>
<path d="M105.099 31.8011H107.372L108.292 27.5536H110.396L110.702 26.1219H104.22L103.914 27.5536H106.018L105.099 31.8011Z" fill="black"/>
<path d="M122.82 31.8011H125.094L125.472 30.0512H127.085C127.504 30.0512 127.593 30.3058 127.528 30.7273C127.424 31.3875 127.367 31.6341 127.416 31.8011H129.899C129.794 31.6262 129.73 31.3875 129.762 31.133L129.931 29.8922C129.996 29.399 129.786 29.1126 129.464 29.0172L129.472 29.0013C130.173 28.8104 130.52 28.2377 130.633 27.7048C130.77 27.0843 130.536 26.5355 130.149 26.3287C129.867 26.1776 129.488 26.1219 128.835 26.1219H124.045L122.82 31.8011ZM126.013 27.5536H127.593C127.972 27.5536 128.23 27.657 128.133 28.0866C128.061 28.4445 127.835 28.6195 127.391 28.6195H125.779L126.013 27.5536Z" fill="black"/>
<path d="M143.419 31.8011H145.693L146.919 26.1219H144.645L143.419 31.8011Z" fill="black"/>
<path d="M159.648 31.8011H165.768L166.066 30.4171H162.22L162.381 29.6535H165.953L166.251 28.2695H162.68L162.849 27.5059H166.695L166.993 26.1219H160.873L159.648 31.8011Z" fill="black"/>
<path d="M183.655 29.7728C183.954 29.8206 184.018 29.9876 183.986 30.1546C183.929 30.4251 183.695 30.616 182.986 30.616C182.631 30.616 182.389 30.5762 182.236 30.4967C182.091 30.4092 182.051 30.2819 182.083 30.091H179.342C178.987 31.7614 180.849 32 182.599 32C185.155 32 186.437 31.3478 186.735 29.9637C186.945 29.0013 186.348 28.4763 185.235 28.3093L182.607 27.9116C182.389 27.8798 182.341 27.7764 182.373 27.6173C182.422 27.3786 182.696 27.2116 183.373 27.2116C183.623 27.2116 183.873 27.2434 184.05 27.3309C184.244 27.4105 184.357 27.5536 184.3 27.7843H186.945C187.122 26.5832 186.211 25.923 183.647 25.923C181.777 25.923 180.229 26.3207 179.914 27.7923C179.745 28.5877 180.067 29.224 181.14 29.391L183.655 29.7728Z" fill="black"/>
</g>
</svg>
