<svg fill="none" height="32" viewBox="0 0 189 32" width="189" xmlns="http://www.w3.org/2000/svg"><g fill="#000"><g clip-rule="evenodd" fill-rule="evenodd"><path d="m96.4557 19.2749c-.5585-.1707-1.3356-.1463-1.627-.5121-.4371-.5609.4128-.9023.6557-1.3901.8985-1.6827 1.8698-3.3166 2.6469-5.0481.7043-1.5852 1.0685-3.29229 1.7485-4.87746.9232-2.14608 2.3312-3.97512 4.1282-5.46274.219-.17071.437-.36581.631-.56091.947-.92671 2.016-1.41445474 3.376-1.316906 1.214.097549 2.428 0 3.642.024387 1.288.024388 1.555.365809 1.093 1.585169-.51 1.31691-1.068 2.65821-1.821 3.82879-.777 1.19498-1.481 2.53627-2.744 3.36544-.364.24387-.267.48774.048.756 1.142.99983 1.457 2.38993.875 3.80443-.875 2.1217-2.38 3.5605-4.469 4.536-1.554.7316-3.132.9511-4.8078.9267-1.1171-.0244-2.2584.1463-3.3755.2195.0243.0488.0243.0732 0 .1219zm4.2493-2.3167c0-.0244 0-.0244 0 0h1.457c2.38-.0244 4.08-1.1462 5.294-3.1948.996-1.6583-.17-3.5117-2.039-3.3898-1.288.0976-2.575.0488-3.862 0-.825-.0244-1.262.317-1.554 1.0487-.3884 1.0242-.7769 2.0485-1.214 3.0484-.2428.5365-.6314 1.0242-.8985 1.5607-.3157.6829-.1943.878.5342.9268zm2.575-8.31609c.242 0 .485-.02439.728 0 3.473.24387 5.1-1.87782 6.265-4.80428.462-1.17059.073-1.70711-1.165-1.75588-1.093-.04878-2.186-.04878-3.254.02439-.389.02438-.85.24387-1.166.51213-1.433 1.26813-2.477 2.87769-3.327 4.56041-.704 1.41446-.68 1.43884.947 1.43884.316.02439.632.02439.972.02439z"/><path d="m91.4047.374834c.68 0 1.3842-.024388 2.0641 0 1.19.048774 1.6028.585293 1.0443 1.633946-.9228 1.7071-1.967 3.34105-2.987 4.99938-.2185.34142-.5342.63406-.7285.97549-.8014 1.46323-2.0641 2.34115-3.5697 2.92645-1.1657.4634-.7771 5.5847-1.3356 7.4869-.0729.2682-.2186.6097-.4129.7072-.3399.1463-.8013.2439-1.117.122-.1943-.0732-.34-.6097-.3157-.9024.1214-1.073.4128-2.146.5099-3.2435.0729-.8779 0-1.7802-.0728-2.6582-.0486-.5609-.4371-.8535-1.0199-.8291-.17 0-.3157.0243-.4857 0-1.7242-.2439-2.7441.2926-3.5455 2.0241-.8985 1.9022-2.4041 3.5361-3.6425 5.2676-.17.2439-.4857.4634-.7771.5609-.3157.0976-.68.0488-1.0442.0732.1214-.2926.1942-.6585.3642-.9023.68-.9511 1.3842-1.8778 2.1127-2.8046 1.8942-2.4143 2.9626-5.292 4.3468-7.99897 1.1414-2.24362 2.817-4.04827 4.7597-5.60905.3157-.24388.6799-.43897.9956-.68285 1.0928-.877937 2.3313-1.268132 3.7398-1.146196.3885.024387.7528 0 1.117 0zm-7.6494 9.486626c.4371 0 .8985.02439 1.3356 0 1.3356-.09755 2.7198-.26826 3.6426-1.34129 1.0199-1.19498 1.9184-2.4875 2.8412-3.75564.17-.24387.2428-.60968.3157-.90232.17-.68285-.0243-1.09743-.68-1.3413-.3642-.12194-.8013-.14632-1.1899-.12194-.8742.04878-1.7727.17071-2.6469.17071-.6071 0-1.0928.1951-1.4813.65846-1.0685 1.26813-2.2099 2.46311-3.1812 3.8044-.4614.63407-.6557 1.46324-.9471 2.21924-.17.41458.0243.63407.4371.63407.51-.02439 1.0199-.02439 1.5542-.02439z"/><path d="m75.3287.83816h3.6426c.1214 0 .2428.121936.3643.1951-.0729.09755-.1214.21948-.1943.26826-1.1656.82916-2.2827 1.63394-3.8611 1.512-1.6028-.12193-3.2298-.07316-4.8568 0-.5343.02439-1.1656.1951-1.5542.51214-1.6999 1.39007-3.1812 2.97524-4.2011 4.97499-.2429.46335-.0972.58529.34.58529h4.3711c.3157 0 .6556-.02439.9713.02439.7285.07316.8985.46336.4857 1.04865-.4128.60972-.9713.90232-1.7484.87792-1.6513-.0488-3.3269.0244-4.9782-.0244-.7528-.0244-1.2142.2439-1.5056.9267-.9228 2.1461-2.4042 3.9264-3.8612 5.7067-.0728.0975-.1457.1707-.2185.2682.1214.0488.2671.1707.3885.1463 2.0641-.0487 4.104-.1219 6.1681-.1951.1943 0 .4128-.0487.6071-.0243.4128.0487.6071.3414.34.6828-.6557.8048-1.2628 1.7071-2.5013 1.7315-2.0155.0488-4.0311.1707-6.0467.2439-.7528.0243-1.5298 0-2.2826-.0488-.17 0-.4372-.122-.4857-.2195-.0486-.1463.0728-.3902.1942-.5365.6314-.6829 1.2142-1.4145 1.9428-1.9998 1.6756-1.3413 2.7683-3.1459 3.8611-4.9506 1.0199-1.6583 1.8699-3.41419 2.9384-5.04813 1.627-2.51188 3.6911-4.5848 6.3381-6.07242.8742-.487741 1.7727-.707227 2.7926-.658452.85.121936 1.6999.097549 2.5498.073162z"/><path d="m25.5953 2.56967c-.2915 0-.5829.04878-.85 0-2.0398-.41458-3.3269.75601-4.5654 2.12169-.8742.9511-1.7727 1.87782-2.6469 2.85331-.2428.29264-.3643.68284-.5585 1.02426.3642.04877.7042.09755 1.0685.12194 1.0442.02438 2.1127 0 3.1569.02438.2428 0 .4856.1951.7285.29265-.0972.24387-.17.53652-.3157.73162-.6071.75598-1.3113 1.24378-2.3798 1.14618-1.2385-.0975-2.5013-.0488-3.764 0-.3886.0244-.9228.1951-1.1414.4878-1.9913 2.4387-4.44394 4.3409-6.82377 6.3406-.53424.439-1.11706.8048-1.6513 1.2194-.12142.0975-.16999.2439-.26713.3414.14571.0244.31569.0976.4614.0732 1.82129-.0732 3.6183-.1463 5.4396-.1951.1943 0 .3885.0731.5828.1219-.0971.1951-.17.4634-.3157.5853-1.3113 1.1218-2.74406 1.9754-4.56536 1.9998-1.82129.0243-3.6183.1463-5.4396.2194-.16998 0-.33997.0244-.48568 0-.412823-.0975-.849933-.2194-1.26276-.3414.315691-.2438.607098-.5121.947073-.7072 1.457037-.8779 2.986927-1.6339 4.346817-2.6338 1.74845-1.2925 3.37547-2.7558 5.00251-4.219 2.5498-2.3412 4.8082-4.99939 7.0423-7.6576 1.6756-1.97536 3.6183-3.73124 5.7553-5.21886.3643-.26826.8985-.414584 1.3356-.438971 1.8213-.048775 3.6426-.024387 5.4639 0 .2186 0 .4371.121936.6557.170711-.1214.1951-.1943.43897-.3643.58529-.6556.63407-1.4085 1.07304-2.3798.97549-.7285-.07316-1.457-.02439-2.1856-.02439-.0242.02439-.0242 0-.0242 0z"/><path d="m50.0249 9.12982c1.8456.46336 3.3997-.24387 4.6382-2.2924 1.1656-1.95098 2.9869-3.41421 4.8568-4.70673.5585-.3902 1.1899-.68284 1.8213-.97549.1457-.07316.3643.04877.5585.07316-.0971.17071-.17.36581-.3157.46336-1.3356 1.12181-2.7198 2.17046-3.9825 3.36543-2.0884 1.95098-3.4241 4.51164-4.9782 6.87715-.8742 1.317-1.6756 2.707-2.6713 3.902-1.3599 1.6583-2.8655 3.1703-4.6139 4.4385-.2186.1463-.51.2682-.7528.317-.1943.0244-.4128-.1219-.6314-.1707.0971-.1707.17-.3658.3157-.4877.5585-.5366 1.1171-1.0487 1.6999-1.5608 2.137-1.9266 4.0311-4.0971 5.3667-6.6821.3643-.7073.3157-.8048-.5099-.8048-1.6999-.0244-3.3998 0-5.0997 0-.5828 0-.9713.2439-1.287.7316-2.2584 3.4386-4.9782 6.4139-8.2808 8.8282-.3643.2682-.85.439-1.2871.5853-.1214.0488-.3157-.1707-.4857-.2683.0729-.1219.1215-.2926.2429-.3902.8985-.756 1.7484-1.5608 2.6955-2.268 1.9184-1.4876 3.3755-3.3654 4.7839-5.3164 1.3599-1.8534 2.6227-3.78002 4.0069-5.63344 1.5784-2.12169 3.4726-3.95073 5.7067-5.38958.3643-.24387.7771-.43897 1.1899-.58529.17-.07316.3886 0 .5585 0-.0971.14632-.1699.34142-.2914.43897-1.797 1.26813-3.424 2.70698-4.881 4.36531-.68.756-1.2628 1.56078-1.8699 2.38995-.3885.51213-.2914.70723.34.73161.9228.04878 1.8456.02439 3.1569.02439z"/><path d="m135.067 18.1531c-.85.0244-1.093-.3414-.777-.9023.631-1.1219 1.311-2.2437 1.894-3.3655.68-1.3169 1.336-2.6582 1.967-3.99948 1.554-3.26789 3.303-6.41384 5.901-8.998885.17-.17071.316-.414582.534-.487744.316-.121936.68-.121936 1.02-.170711.049.317034.219.70723.098.97549-.875 2.02414-.656 4.07266-.122 6.07242.51 1.99975 1.214 3.95071 1.846 5.90171.388 1.2437.825 2.4631 1.238 3.6825.17.4877.292.9755-.34 1.2193-.51.1951-.995-.1707-1.214-.8779-.316-.9999-.656-1.9998-.947-2.9996-.194-.6341-.559-.9268-1.239-.9024-1.991.0244-3.958.0244-5.949 0-.704 0-1.093.2927-1.384.9267-.559 1.1706-1.214 2.2681-1.894 3.3899-.146.2682-.51.4389-.632.5365zm7.018-6.5846c.729 0 1.457.0244 2.186 0 .85-.0243.971-.2194.704-1.073-.291-.92672-.534-1.85343-.801-2.78014-.389-1.36569-.559-2.78015-.462-4.21899 0-.12194-.048-.24387-.073-.34142-.121.09755-.242.17071-.34.26826-1.675 2.26801-2.865 4.77989-3.982 7.34059-.243.5365-.097.7804.461.8047.753.0244 1.53 0 2.307 0z"/><path d="m164.378 18.2019c-2.938 0-4.735-1.4876-6.192-3.6093-1.045-1.512-1.53-3.2679-1.555-5.04816-.024-1.60955.365-3.19472 1.287-4.60918.899-1.39007 1.943-2.56066 3.376-3.41421 2.113-1.268138 4.614-1.243751 6.168.58529.316.36581.68.68284.996 1.07304.388.43897.291.87794-.098 1.31691-.34.39019-.655.41458-.971-.02439-.218-.29265-.437-.58529-.704-.82916-2.137-1.95098-4.347-1.46324-6.265.31703-2.987 2.82892-3.23 7.60883-.219 10.58403 2.477 2.4387 4.954 2.6338 7.504-.0244.631-.6584 1.238-.6096 1.457.122.073.2438-.049.634-.194.8779-.875 1.634-2.696 2.8533-4.59 2.6826z"/><path d="m177.613 5.88633c.121 1.58517.242 3.14595.364 4.73107 0 .1464.073.2927.121.439.122-.0975.267-.1707.34-.2682 1.312-1.70715 2.55-3.43864 3.91-5.09697.777-.97549 1.724-1.82904 2.598-2.73137.122-.12194.267-.26826.389-.26826.364 0 .753.09755 1.117.14632-.097.29265-.121.63407-.316.85356-1.02 1.1462-2.064 2.26801-3.108 3.41421-.194.21948-.389.41458-.559.63407-.728.92671-.752 1.02426.049 1.97536 1.967 2.41438 3.983 4.77988 5.974 7.16988.121.1463.267.2926.388.4633.243.3414.097.5365-.267.5853-.583.0976-1.02-.1463-1.384-.5609-1.238-1.4388-2.477-2.8777-3.715-4.3165-.656-.7804-1.287-1.5608-1.943-2.3168-.631-.6829-.826-.6585-1.409.0975-.024.0244-.048.0732-.072.0976-1.676 2.3412-1.7 2.5606-1.045 5.3408.073.2682.17.5609.195.8291 0 .2439-.097.5122-.146.7561-.34-.0732-.753-.0488-.971-.2439-.243-.2195-.34-.6341-.389-.9999-.364-2.0729-.728-4.1458-1.02-6.2187-.194-1.43888-.364-2.90212-.413-4.34096-.048-1.17059.122-2.34118.219-3.51176.024-.41459.291-.73162.728-.60968.219.07316.462.43897.486.68284.049 1.09742.024 2.19485.024 3.29227-.073-.02438-.097-.02438-.145-.02438z"/><path d="m120.958 18.4214c-1.335 0-2.671.0244-4.007 0-.922-.0244-1.092-.3171-.728-1.1218 1.19-2.5851 1.967-5.2921 2.525-8.0966.68-3.4386 2.283-6.36507 4.979-8.657464.121-.097549.242-.243872.388-.292646.364-.097549.971-.3414212 1.069-.2194851.388.5365191-.292.5852931-.535.8535521-1.36 1.512003-2.549 3.121563-3.351 5.023763-1.044 2.4875-1.287 5.17008-2.088 7.70638-.194.5853-.364 1.1462-.583 1.7071-.413 1.0974-.17 1.4144.996 1.3413 1.821-.0976 3.618-.1707 5.439-.1951.972-.0244 1.142.1463 1.142.8292 0 .7316-.292 1.0486-1.142 1.0974-1.384.0488-2.744 0-4.128 0 .024 0 .024.0244.024.0244z"/><path d="m41.7683 2.88669c-.4128 0-.8014 0-1.2142 0-1.627 0-2.5012 1.21936-3.4483 2.21924-1.3113 1.36568-2.4527 2.87769-3.5697 4.43847-1.8213 2.5607-3.8612 4.9994-6.0224 7.2918-1.6028 1.7071-3.5698 3.0484-5.6096 4.219-.17.0975-.3643.2195-.5586.2438-.1942 0-.4128-.0975-.6313-.1707.0971-.1707.1699-.3658.2914-.4633.777-.5853 1.5784-1.1462 2.3798-1.6827 2.7684-1.8779 4.8811-4.4141 6.9452-7.048 2.0641-2.63377 3.934-5.46269 6.4352-7.7307.2186-.1951.4129-.3902.6071-.60968.2672-.29265.2429-.48775-.1942-.53652-.5586-.04877-1.1171-.12194-1.6756-.21949-.1457-.02438-.2429-.14632-.3643-.21948.0729-.12194.1457-.29265.2671-.3902.9957-.82916 2.1127-1.21936 3.4726-1.12181 1.797.12194 3.6183.02439 5.4153.02439.1215 0 .2429-.02439.3643-.02439.1457.02439.2914.09755.4371.14633-.0486.14632-.0971.31703-.1943.41458-.8256.92671-1.8455 1.41446-3.1326 1.21936z"/></g><path d="m4.13965 31.8011h2.27369l1.22553-5.6792h-2.27369z"/><path d="m20.3681 31.8011h2.177l.6853-3.1816h.0161l1.7335 3.1816h2.4914l1.2255-5.6792h-2.1769l-.6773 3.1498h-.0241l-1.6287-3.1498h-2.5962z"/><path d="m44.593 27.5536h1.3062c1.0401 0 1.3465.5091 1.153 1.4079s-.7257 1.4079-1.7658 1.4079h-1.3061zm-3.1928 4.2475h4.4748c1.9109 0 3.1203-.8431 3.5476-2.8396.4515-2.0919-.4192-2.8396-2.3704-2.8396h-4.4265z"/><path d="m62.779 29.6456c-.3951 1.8056.5966 2.3544 2.9348 2.3544s3.5557-.5488 3.9507-2.3544l.7579-3.5237h-2.2737l-.7417 3.4362c-.1613.7318-.637.9624-1.3788.9624-.7417 0-1.1207-.2306-.9594-.9624l.7417-3.4362h-2.2736z"/><path d="m87.3293 29.7728c.2983.0478.3628.2148.3305.3818-.0564.2705-.2902.4614-.9997.4614-.3548 0-.5967-.0398-.7499-.1193-.1451-.0875-.1854-.2148-.1532-.4057h-2.7413c-.3548 1.6704 1.5077 1.909 3.2573 1.909 2.5559 0 3.8379-.6522 4.1362-2.0363.2097-.9624-.387-1.4874-1.4996-1.6544l-2.6285-.3977c-.2177-.0318-.2661-.1352-.2338-.2943.0484-.2387.3225-.4057.9998-.4057.2499 0 .4999.0318.6772.1193.1935.0796.3064.2227.25.4534h2.6446c.1773-1.2011-.7338-1.8613-3.2977-1.8613-1.8706 0-3.4186.3977-3.733 1.8693-.1694.7954.1531 1.4317 1.2255 1.5987z"/><path d="m105.099 31.8011h2.273l.92-4.2475h2.104l.306-1.4317h-6.482l-.306 1.4317h2.104z"/><path d="m122.82 31.8011h2.274l.378-1.7499h1.613c.419 0 .508.2546.443.6761-.104.6602-.161.9068-.112 1.0738h2.483c-.105-.1749-.169-.4136-.137-.6681l.169-1.2408c.065-.4932-.145-.7796-.467-.875l.008-.0159c.701-.1909 1.048-.7636 1.161-1.2965.137-.6205-.097-1.1693-.484-1.3761-.282-.1511-.661-.2068-1.314-.2068h-4.79zm3.193-4.2475h1.58c.379 0 .637.1034.54.533-.072.3579-.298.5329-.742.5329h-1.612z"/><path d="m143.419 31.8011h2.274l1.226-5.6792h-2.274z"/><path d="m159.648 31.8011h6.12l.298-1.384h-3.846l.161-.7636h3.572l.298-1.384h-3.571l.169-.7636h3.846l.298-1.384h-6.12z"/><path d="m183.655 29.7728c.299.0478.363.2148.331.3818-.057.2705-.291.4614-1 .4614-.355 0-.597-.0398-.75-.1193-.145-.0875-.185-.2148-.153-.4057h-2.741c-.355 1.6704 1.507 1.909 3.257 1.909 2.556 0 3.838-.6522 4.136-2.0363.21-.9624-.387-1.4874-1.5-1.6544l-2.628-.3977c-.218-.0318-.266-.1352-.234-.2943.049-.2387.323-.4057 1-.4057.25 0 .5.0318.677.1193.194.0796.307.2227.25.4534h2.645c.177-1.2011-.734-1.8613-3.298-1.8613-1.87 0-3.418.3977-3.733 1.8693-.169.7954.153 1.4317 1.226 1.5987z"/></g></svg>