<svg width="99" height="49" viewBox="0 0 99 49" fill="none" xmlns="http://www.w3.org/2000/svg">
<path d="M33.3528 26.1502C33.6193 26.1502 33.8859 26.1502 34.1192 26.1502C34.3525 26.1502 34.5524 26.1502 34.719 26.1502L35.8187 22.9449H32.0198C31.8865 22.9449 31.7865 22.9132 31.7199 22.8497C31.6532 22.7863 31.6199 22.7228 31.5866 22.6276C31.5866 22.4372 31.6865 22.1833 31.8865 21.8659C32.0864 21.5486 32.353 21.1995 32.6196 20.8504C32.7196 20.7552 32.7862 20.66 32.8862 20.5648C32.9862 20.4695 33.0528 20.3743 33.1528 20.2791C33.4527 19.9618 33.7193 19.6761 34.0192 19.3905C34.2858 19.1366 34.4858 18.9462 34.6191 18.8828H35.9187V15.6774H29.2539L29.4205 15.2649L26.5879 14.3763L24.3219 19.8031L27.521 20.8186L27.7876 20.0887C27.7876 20.057 27.7876 20.057 27.8209 19.9935C27.8209 19.9618 27.8543 19.93 27.8876 19.8983C27.9876 19.7079 28.1209 19.5175 28.3208 19.3271C28.5207 19.1366 28.754 19.0097 28.954 18.9462C29.0206 18.9145 29.0873 18.9145 29.1539 18.9145C29.2206 18.9145 29.2872 18.8828 29.3539 18.8828H29.887C29.4538 19.454 29.0873 20.057 28.754 20.7234C28.4208 21.3899 28.2875 22.0563 28.2875 22.7545C28.2875 22.8815 28.2875 23.0084 28.3208 23.1353C28.3208 23.2623 28.3541 23.3892 28.4208 23.5162C28.4541 23.6749 28.4874 23.8018 28.5207 23.9287C28.5541 24.0557 28.6207 24.1826 28.6874 24.3096C29.0206 24.9125 29.4872 25.3568 30.087 25.6742C30.6868 25.9598 31.3533 26.1185 32.0531 26.1185C32.2197 26.1185 32.4197 26.1185 32.6529 26.1185C32.8529 26.1502 33.0862 26.1502 33.3528 26.1502Z" fill="#96FF94"/>
<path d="M45.5493 22.9449L46.2824 20.7234L43.0833 19.7079C43.05 19.8348 42.9833 19.9618 42.95 20.0887C42.9167 20.2157 42.85 20.3426 42.8167 20.5013C42.5834 21.1677 42.2169 21.7707 41.7836 22.342C41.3504 22.9132 40.6839 23.1988 39.8175 23.1988C39.6509 23.1988 39.5509 23.1671 39.4843 23.0719C39.4176 23.0084 39.3843 22.9132 39.3843 22.818C39.3843 22.7545 39.3843 22.6911 39.4176 22.5958C39.451 22.5006 39.451 22.4372 39.4843 22.3737C39.5176 22.2785 39.5842 22.215 39.6176 22.1515C39.6509 22.0881 39.6842 22.0246 39.7509 21.9611C39.7842 21.8659 39.8508 21.8025 39.8842 21.739C39.9175 21.6755 39.9508 21.612 39.9841 21.5803C40.384 21.0725 40.8172 20.66 41.3504 20.3109C41.8836 19.9618 42.4168 19.7079 43.0166 19.5175C43.6831 19.2953 44.3496 19.1049 45.0828 19.0414C45.7826 18.9462 46.5157 18.9145 47.2488 18.9145V15.7092C47.1489 15.7092 47.0822 15.7092 46.9822 15.7092C46.9156 15.7092 46.8156 15.7092 46.749 15.7092C44.9495 15.7409 43.1833 16.0583 41.4837 16.6613C39.7842 17.2642 38.3846 18.2798 37.2516 19.7079C36.885 20.1522 36.5851 20.66 36.3518 21.1677C36.1185 21.7072 36.0186 22.2468 36.0186 22.7863C36.0186 23.0719 36.0519 23.3575 36.1185 23.6114C36.1852 23.8653 36.2852 24.1509 36.4184 24.4365C36.785 25.103 37.2849 25.579 37.8847 25.8964C38.5179 26.182 39.1844 26.3407 39.8842 26.3407C40.0175 26.3407 40.1508 26.3407 40.2841 26.3407C40.4174 26.3407 40.5507 26.3089 40.6839 26.2772C41.0838 26.2455 41.4504 26.1502 41.8503 26.0233C42.2502 25.8964 42.6168 25.7377 42.95 25.5473C43.1833 25.7059 43.4832 25.8646 43.7498 25.9598C44.0497 26.055 44.3829 26.1185 44.7495 26.1185H47.2821L48.3818 22.9132H45.5493V22.9449Z" fill="#96FF94"/>
<path d="M61.9116 22.945H59.5122C59.5456 22.8498 59.5789 22.7228 59.6122 22.6276C59.6455 22.5324 59.6789 22.4054 59.7122 22.3102C59.7122 22.2785 59.7122 22.215 59.7455 22.1516C59.7788 22.0881 59.7788 22.0564 59.8122 21.9611C59.8455 21.8025 59.9121 21.6438 59.9455 21.4851C59.9788 21.3264 60.0454 21.1678 60.1121 21.0091C60.2787 20.5648 60.3787 20.1839 60.4786 19.8031C60.5453 19.4223 60.6119 19.0732 60.6119 18.7558C60.6119 18.1211 60.4786 17.5499 60.1787 17.0104C59.8788 16.4709 59.4123 16.09 58.7458 15.8679C58.5792 15.8044 58.4125 15.7727 58.2126 15.7409C58.0127 15.7092 57.846 15.6775 57.6461 15.6775C57.5128 15.6775 57.3795 15.6775 57.2462 15.6775C57.1129 15.6775 56.9796 15.7092 56.8463 15.7727C56.5797 15.8044 56.3131 15.8996 56.0465 15.9948C55.7799 16.09 55.5467 16.217 55.2801 16.3439L55.5133 15.6775H51.981L48.4153 26.1503H51.9476L52.6808 23.9605C53.014 23.1988 53.4472 22.4689 53.9804 21.7707C54.5469 21.0725 55.1134 20.4378 55.7799 19.9301C56.0132 19.7079 56.2798 19.5175 56.5131 19.3905C56.7463 19.2319 56.9796 19.1367 57.1462 19.0732C57.1129 19.2001 57.0796 19.3271 57.0463 19.454C57.0129 19.581 56.9796 19.7079 56.913 19.8031C56.913 19.8348 56.913 19.8983 56.8796 19.9301C56.8796 19.9618 56.8463 20.0253 56.813 20.057C56.713 20.3426 56.6464 20.6282 56.5464 20.8821C56.4464 21.1678 56.3798 21.4534 56.2798 21.7073C56.2465 21.8342 56.1798 21.9611 56.1465 22.1198C56.1132 22.2468 56.0465 22.4054 56.0132 22.5641C55.9799 22.7228 55.9132 22.8815 55.8799 23.0402C55.8466 23.1988 55.8133 23.3575 55.8133 23.5162C55.8133 24.2461 56.0799 24.8808 56.5797 25.3886C57.1129 25.8964 57.7794 26.1503 58.6125 26.1503H60.6119L61.9116 22.945Z" fill="#96FF94"/>
<path d="M66.1102 22.945L67.5099 18.9145H69.3094L70.4091 15.7092H68.6096L69.576 12.9165L66.3768 11.9009L65.0772 15.6775H63.211L62.078 18.8828H63.9775L62.6778 22.6276C62.6445 22.6911 62.6445 22.7545 62.6112 22.8497C62.5779 22.9132 62.5779 23.0084 62.5445 23.1036C62.5445 23.1988 62.5445 23.2623 62.5445 23.3575C62.5445 23.421 62.5445 23.5162 62.5445 23.5797C62.5445 24.2779 62.8111 24.8808 63.311 25.3886C63.8109 25.8964 64.4774 26.1503 65.3105 26.1503H69.1094L70.2091 22.945H66.1102Z" fill="#96FF94"/>
<path d="M77.0744 16.8517C77.4743 16.3439 77.7742 15.9314 78.0408 15.5823C78.2741 15.2332 78.4407 15.0428 78.4407 15.0428L75.4082 13.6147C75.4082 13.6464 75.1416 13.9637 74.675 14.6302C74.1752 15.2649 73.642 15.9948 73.0755 16.7565C72.4756 17.5499 71.6759 18.5654 70.7095 19.8666L73.442 21.739C73.442 21.7073 73.6087 21.5169 73.9086 21.1043C74.2085 20.6917 74.5751 20.2157 75.0083 19.6762C75.1083 19.8983 75.2082 20.1205 75.2749 20.4061C75.3415 20.6917 75.3748 20.9774 75.3748 21.263C75.3748 21.8342 75.2415 22.2785 74.9416 22.5324C74.6417 22.7863 74.2085 22.945 73.642 22.945H71.3093L70.2096 26.1503H73.642C75.1749 26.1503 76.4079 25.706 77.341 24.7857C78.2741 23.8653 78.7406 22.6911 78.7406 21.263C78.7406 20.4696 78.6073 19.6762 78.3074 18.9145C77.9741 18.1529 77.5742 17.4547 77.0744 16.8517Z" fill="#96FF94"/>
<path d="M90.5374 22.945H88.0381C87.9381 22.945 87.8715 22.945 87.7715 22.945C87.7048 22.945 87.6382 22.9132 87.5715 22.8815L86.7051 21.0408L91.6704 17.5499L89.671 14.9475L85.1389 18.1846L89.1711 6.25195H85.6387L78.8739 26.1503H82.4063L83.7059 22.4054L84.5724 24.3096C84.8723 24.9443 85.3055 25.4203 85.9386 25.706C86.5385 25.9916 87.1716 26.1503 87.8381 26.1503C87.8715 26.1503 87.8715 26.1503 87.9381 26.1503C87.9714 26.1503 88.0048 26.1503 88.0381 26.1503H89.4377L90.5374 22.945Z" fill="#96FF94"/>
<path d="M98.2019 9.23509C97.7687 8.79079 97.2022 8.60037 96.569 8.60037C95.9359 8.60037 95.4027 8.82252 94.9361 9.23509C94.4696 9.67939 94.2697 10.1872 94.2697 10.7901C94.2697 11.3931 94.5029 11.9326 94.9361 12.3452C95.4027 12.7895 95.9359 13.0116 96.569 13.0116C97.2355 13.0116 97.7687 12.7895 98.2019 12.3452C98.6351 11.9009 98.8684 11.3931 98.8684 10.7901C98.8684 10.1872 98.6685 9.64765 98.2019 9.23509Z" fill="#96FF94"/>
<path d="M97.102 15.6775H93.5363L91.2369 22.5641C91.2036 22.6593 91.2036 22.7228 91.1703 22.818C91.137 22.8815 91.137 22.9767 91.1036 23.0402C91.1036 23.1354 91.1036 23.1988 91.1036 23.294C91.1036 23.3575 91.1036 23.4527 91.1036 23.5479C91.1036 24.2461 91.3702 24.8808 91.8701 25.4203C92.4033 25.9598 93.0698 26.2137 93.9029 26.2137H96.9687L98.0684 23.0084H94.7027L97.102 15.6775Z" fill="#96FF94"/>
<path d="M21.9226 23.1036C21.756 23.5162 21.5893 23.9288 21.4227 24.3413L21.0895 24.6587C19.5899 25.8964 17.957 27.0706 16.2242 28.1179C14.4913 29.1652 12.5918 29.6095 10.6257 29.7047C9.59264 29.7681 8.42629 29.419 8.42629 29.419C7.69316 29.2286 7.19329 28.8478 6.9267 28.2448C6.6601 27.6418 6.52681 27.0071 6.52681 26.3089C6.52681 26.2455 6.52681 26.1503 6.52681 26.0868C6.52681 26.0233 6.52681 25.9281 6.52681 25.8646C6.56013 25.4838 6.62678 25.1347 6.66011 24.7856C6.72675 24.4048 6.7934 24.1192 6.86005 23.8653C7.55986 21.2947 8.92615 18.851 10.9923 16.4709C13.0584 14.0907 15.2578 12.0279 17.5571 10.2824C18.0903 9.86982 18.6235 9.48899 19.1567 9.1399C19.6899 8.7908 20.2231 8.44171 20.7562 8.15609C20.9895 7.99741 21.2894 7.83873 21.6893 7.61658C22.0559 7.39443 22.4891 7.17228 22.889 6.95013C22.889 6.95013 27.9209 4.25259 29.054 5.80764C29.054 5.80764 28.8874 7.36269 25.7549 10.9488L31.1867 13.2021C34.919 8.60039 34.7857 5.71244 34.7857 5.71244C34.7857 4.91904 34.6191 4.15738 34.2525 3.39573C33.9193 2.6658 33.3195 1.99935 32.453 1.42811C31.7532 0.920337 31.0201 0.539508 30.2536 0.349093C29.4872 0.0952073 28.6541 0 27.821 0C27.3878 0 26.9879 0.0317358 26.588 0.0952073C26.1881 0.158679 25.7882 0.22215 25.355 0.285622C24.0887 0.539508 22.8223 0.920337 21.5893 1.49158C20.3564 2.03109 19.2233 2.63407 18.1903 3.23705C18.1236 3.26878 18.0237 3.30052 17.957 3.36399C17.8904 3.42746 17.7904 3.4592 17.7237 3.49093C16.924 3.96697 16.0909 4.50648 15.2244 5.14119C14.358 5.77591 13.4916 6.44236 12.5918 7.17228C9.8259 9.45725 7.25994 12.1548 4.89392 15.2649C2.5279 18.375 1.19494 21.5803 0.895018 24.8808C0.861693 25.103 0.828369 25.2934 0.828369 25.4838C0.828369 25.6742 0.828369 25.8329 0.828369 26.0233C0.828369 26.2455 0.828369 26.4359 0.828369 26.658C0.828369 26.8484 0.861693 27.0389 0.895018 27.2293C0.895018 27.4197 0.928342 27.6101 0.961666 27.8005C0.99499 27.9909 1.02831 28.2131 1.06164 28.4352C1.36156 29.9586 2.02804 31.2915 3.06109 32.4022C4.09414 33.4812 5.39379 34.2111 6.96002 34.592C7.62651 34.7824 8.22634 34.8776 8.82618 34.9411C9.42601 35.0045 10.0259 35.0363 10.6257 35.0363C11.792 35.068 12.8917 34.9728 13.9581 34.7189C15.0245 34.465 16.0909 34.1159 17.1239 33.7351C16.0575 35.8297 14.8912 37.8608 13.6249 39.8918C12.3585 41.9229 10.9589 43.8588 9.42601 45.7312C6.76008 48.6509 13.9248 49 13.9248 49C17.0239 45.2234 19.6565 41.193 21.8226 36.8769C23.9887 32.5609 25.9548 28.2131 27.721 23.7701L22.3558 21.8659C22.2558 22.2785 22.0892 22.6911 21.9226 23.1036Z" fill="#96FF94"/>
<path d="M36.1188 39.1302C36.0855 38.9397 36.0188 38.6859 35.9855 38.4002C35.9522 38.1464 35.8855 37.829 35.8189 37.4164C35.7522 37.0356 35.6523 36.5278 35.5523 35.9566C35.519 35.671 35.419 35.4806 35.3523 35.3853C35.2524 35.2901 35.1524 35.2267 35.0524 35.1632L34.9858 35.1315C35.0191 35.1315 35.0191 35.1315 35.0191 35.1315C35.1857 35.0997 35.319 35.0363 35.4523 35.0045C35.5856 34.9728 35.6856 34.9093 35.7855 34.8458C35.8855 34.7824 35.9522 34.7189 35.9855 34.6237C36.0188 34.5285 36.0521 34.4015 36.0521 34.2746V32.6243C36.0521 32.3704 36.0521 32.18 36.0521 31.9896C36.0521 31.7992 36.0188 31.6405 36.0188 31.5136C35.9855 31.3866 35.9522 31.2597 35.8855 31.1645C35.8189 31.0693 35.7189 30.9741 35.6189 30.8789C35.5856 30.8789 35.5856 30.8471 35.5856 30.8471L35.4856 30.7837C35.3523 30.6885 35.1857 30.625 34.9858 30.5298C34.7858 30.4346 34.4859 30.4028 34.1527 30.4028H33.3196H32.4865V39.9236L32.6531 39.8918L32.8863 39.8283L33.053 39.7966L33.3862 39.7014C33.4862 39.6697 33.5528 39.6062 33.5528 39.511V35.5758C33.6195 35.5758 33.6528 35.544 33.7194 35.544C33.7861 35.544 33.8194 35.5123 33.8861 35.5123H33.9194C34.086 35.4806 34.186 35.4806 34.2526 35.544C34.3193 35.6075 34.3859 35.7027 34.4193 35.8614C34.4859 36.3374 34.5526 36.75 34.6192 37.0991C34.6858 37.4482 34.7192 37.7655 34.7858 38.0511C34.8191 38.3368 34.8858 38.5589 34.9191 38.7493C34.9524 38.9397 34.9858 39.0984 35.0191 39.2254C35.0524 39.5427 35.0857 39.7014 35.1191 39.7649C35.1524 39.8918 35.219 39.987 35.319 40.0188L36.2521 39.7966C36.2188 39.7649 36.1521 39.7014 36.1521 39.6062C36.1521 39.384 36.1188 39.2888 36.1188 39.1302ZM34.286 35.0363L33.5862 35.1949V30.625H34.186C34.2526 30.625 34.3526 30.625 34.4526 30.6567C34.5526 30.6567 34.6192 30.6885 34.6858 30.7202C34.7525 30.7519 34.8191 30.8154 34.8858 30.8789C34.9524 30.9423 34.9858 31.0375 35.0191 31.1328V34.2429C35.0191 34.4967 34.9858 34.6554 34.8858 34.7824C34.7858 34.9093 34.5859 34.9728 34.286 35.0363Z" fill="#96FF94"/>
<path d="M42.7501 30.3394H42.1836V39.8601H42.7501H43.2166H45.0161V39.511H43.2166V34.9411L44.5829 34.6237V34.3064L43.2166 34.6237V30.6885H45.0161V30.3394H43.2166H42.7501Z" fill="#96FF94"/>
<path d="M54.0471 31.0376L53.8472 30.9106C53.6473 30.7837 53.4806 30.6885 53.3807 30.625C53.2474 30.5615 53.1474 30.4981 53.0474 30.4346C52.9474 30.4029 52.8475 30.3711 52.7475 30.3394C52.6475 30.3076 52.5809 30.3076 52.4809 30.3076C52.3809 30.3076 52.281 30.3076 52.2143 30.3394C52.1143 30.3711 52.0144 30.4029 51.9144 30.4346C51.8144 30.4663 51.6811 30.5298 51.5478 30.625C51.4145 30.6885 51.2479 30.8154 51.048 30.9106L50.848 31.0376C50.748 31.101 50.7147 31.1962 50.7147 31.2915V38.908C50.7147 38.9715 50.7147 39.035 50.748 39.0667C50.7814 39.0984 50.8147 39.1302 50.848 39.1619L51.1146 39.3523C51.2146 39.4158 51.3146 39.4793 51.3812 39.511C51.4479 39.5745 51.5478 39.6062 51.6145 39.638C51.7811 39.7332 51.9477 39.7966 52.0477 39.8284C52.181 39.8601 52.3143 39.8918 52.4476 39.8918C52.5809 39.8918 52.7142 39.8601 52.8475 39.8284C52.9808 39.7966 53.1141 39.7332 53.2807 39.638C53.3473 39.6062 53.414 39.5427 53.514 39.511C53.5806 39.4475 53.6806 39.4158 53.7805 39.3523L54.0471 39.1619C54.1471 39.0984 54.1804 39.0032 54.1804 38.908V37.6703C54.1804 37.6069 54.1471 37.5117 54.0471 37.4799H54.0138L53.7139 37.5434L53.5473 37.5751L53.314 37.6386L53.1474 37.7021V38.9715C53.1474 39.0984 53.1141 39.2254 53.0807 39.3206C53.0474 39.4158 52.9808 39.4793 52.9141 39.511C52.8475 39.5745 52.7808 39.6062 52.6809 39.6062C52.6142 39.638 52.5142 39.638 52.4476 39.638C52.3809 39.638 52.3143 39.638 52.2143 39.6062C52.1477 39.6062 52.0477 39.5745 51.981 39.511C51.9144 39.4793 51.8477 39.3841 51.8144 39.3206C51.7811 39.2254 51.7478 39.1302 51.7478 38.9715V31.2597C51.7478 31.101 51.7811 31.0058 51.8144 30.9106C51.8477 30.8154 51.9144 30.7519 51.981 30.6885C52.0477 30.625 52.1143 30.5933 52.2143 30.5933C52.281 30.5933 52.3809 30.5615 52.4476 30.5615C52.5142 30.5615 52.5809 30.5615 52.6809 30.5933C52.7475 30.5933 52.8475 30.6567 52.9141 30.6885C52.9808 30.7519 53.0474 30.8154 53.0807 30.9106C53.1141 31.0058 53.1474 31.101 53.1474 31.2597V32.8782L53.4806 33.4495L54.1138 33.2908C54.1804 33.2591 54.2471 33.1956 54.2471 33.1004V31.3232C54.1804 31.1962 54.1471 31.101 54.0471 31.0376Z" fill="#96FF94"/>
<path d="M63.378 30.9106C63.178 30.7837 63.0114 30.6885 62.9114 30.625C62.7781 30.5615 62.6781 30.4981 62.5782 30.4346C62.4782 30.4029 62.3782 30.3711 62.2783 30.3394C62.1783 30.3076 62.1116 30.3076 62.0117 30.3076C61.9117 30.3076 61.8117 30.3076 61.7451 30.3394C61.6451 30.3711 61.5451 30.4029 61.4452 30.4346C61.3452 30.4663 61.2119 30.5298 61.0786 30.625C60.9453 30.6885 60.7787 30.8154 60.612 30.9106L60.4121 31.0376C60.3121 31.101 60.2455 31.1962 60.2455 31.2915V38.908C60.2455 39.035 60.3121 39.1302 60.4121 39.1619L60.6787 39.3523C60.7787 39.4158 60.8453 39.4793 60.9453 39.511C61.0119 39.5745 61.1119 39.6062 61.1786 39.638C61.3452 39.7332 61.4785 39.7966 61.6118 39.8284C61.7451 39.8601 61.8784 39.8918 62.0117 39.8918C62.145 39.8918 62.2783 39.8601 62.4116 39.8284C62.5449 39.7966 62.6781 39.7332 62.8448 39.638C62.9114 39.6062 62.9781 39.5427 63.078 39.511C63.1447 39.4475 63.2447 39.4158 63.3446 39.3523L63.6112 39.1619C63.7112 39.0984 63.7445 39.0032 63.7445 38.908V38.3051V37.7021V31.2915C63.7445 31.1645 63.7112 31.101 63.6112 31.0376L63.378 30.9106ZM62.6448 37.7021V38.0829V38.9715C62.6448 39.0984 62.6115 39.2254 62.5782 39.3206C62.5449 39.4158 62.4782 39.4793 62.4116 39.511C62.3449 39.5745 62.2783 39.6062 62.1783 39.6062C62.1116 39.638 62.0117 39.638 61.945 39.638C61.8784 39.638 61.8117 39.638 61.7117 39.6062C61.6451 39.6062 61.5451 39.5745 61.4785 39.511C61.4118 39.4793 61.3452 39.3841 61.3119 39.3206C61.2785 39.2254 61.2452 39.1302 61.2452 38.9715V31.2597C61.2452 31.101 61.2785 31.0058 61.3119 30.9106C61.3452 30.8154 61.4118 30.7519 61.4785 30.6885C61.5451 30.625 61.6118 30.5933 61.7117 30.5933C61.7784 30.5933 61.8784 30.5615 61.945 30.5615C62.0117 30.5615 62.0783 30.5615 62.1783 30.5933C62.2449 30.5933 62.3449 30.6567 62.4116 30.6885C62.4782 30.7519 62.5449 30.8154 62.5782 30.9106C62.6115 31.0058 62.6448 31.101 62.6448 31.2597V37.7021Z" fill="#96FF94"/>
<path d="M73.5416 39.1302C73.5083 38.9397 73.4417 38.6859 73.4083 38.4002C73.3417 38.1464 73.3084 37.829 73.2417 37.4164C73.1751 37.0356 73.0751 36.5278 72.9751 35.9566C72.9085 35.671 72.8418 35.4806 72.7752 35.3853C72.6752 35.2901 72.5752 35.2267 72.4753 35.1632L72.4086 35.1315C72.4419 35.1315 72.4419 35.1315 72.4419 35.1315C72.6086 35.0997 72.7752 35.0363 72.8752 35.0045C73.0085 34.9728 73.1084 34.9093 73.2084 34.8458C73.3084 34.7824 73.375 34.7189 73.4083 34.6237C73.475 34.5285 73.475 34.4015 73.475 34.2746V32.6243C73.475 32.3704 73.475 32.18 73.475 31.9896C73.475 31.7992 73.4417 31.6405 73.4417 31.5136C73.4083 31.3866 73.375 31.2597 73.3084 31.1645C73.2417 31.0693 73.1417 30.9741 73.0418 30.8789C73.0085 30.8789 73.0085 30.8471 73.0085 30.8471L72.9085 30.7837C72.7752 30.6885 72.6086 30.625 72.4086 30.5298C72.1753 30.4346 71.9088 30.4028 71.5755 30.4028H70.7424H70.0093V39.9236L70.1759 39.8918L70.4092 39.8283L70.5758 39.7966L70.909 39.7014C71.009 39.6697 71.0757 39.6062 71.0757 39.511V35.5758C71.1423 35.5758 71.1756 35.544 71.2423 35.544C71.3089 35.544 71.3422 35.5123 71.4089 35.5123C71.4089 35.5123 71.4422 35.5123 71.4755 35.5123C71.6422 35.4806 71.7421 35.4806 71.8088 35.544C71.8754 35.6075 71.9421 35.7027 71.9754 35.8614C72.0421 36.3374 72.1087 36.75 72.1754 37.0991C72.242 37.4482 72.2753 37.7655 72.342 38.0511C72.3753 38.3368 72.4419 38.5589 72.4753 38.7493C72.5086 38.9397 72.5419 39.0984 72.5752 39.2254C72.6086 39.5427 72.6419 39.7014 72.6752 39.7649C72.7085 39.8918 72.7752 39.987 72.8752 40.0188L73.8082 39.7966C73.7416 39.7649 73.7416 39.7014 73.7083 39.6062C73.575 39.384 73.5416 39.2888 73.5416 39.1302ZM71.7088 35.0363L71.009 35.1949V30.625H71.6088C71.6755 30.625 71.7755 30.625 71.8754 30.6567C71.9754 30.6567 72.0421 30.6885 72.142 30.7202C72.2087 30.7519 72.3086 30.8154 72.342 30.8789C72.4086 30.9423 72.4419 31.0375 72.4753 31.1328V34.2429C72.4753 34.4967 72.4419 34.6554 72.342 34.7824C72.2087 34.9093 72.0087 34.9728 71.7088 35.0363Z" fill="#96FF94"/>
<path d="M83.0726 31.4818C83.0392 31.3549 83.0059 31.228 82.9393 31.1328C82.8726 31.0375 82.7726 30.9423 82.6727 30.8471H82.6393C82.6393 30.8471 82.606 30.8154 82.5727 30.8154C82.5394 30.8154 82.5394 30.7837 82.506 30.7837C82.3727 30.6885 82.2061 30.625 81.9728 30.5298C81.7729 30.4346 81.473 30.4028 81.1397 30.4028H80.6399H79.5735V39.9236H80.2733H80.6065H81.1064C81.4397 39.9236 81.7396 39.8918 81.9395 39.7966C82.1395 39.7014 82.3394 39.6379 82.4727 39.5427C82.506 39.5427 82.5394 39.511 82.5394 39.511C82.5727 39.511 82.5727 39.4793 82.606 39.4793C82.7393 39.3841 82.8393 39.2888 82.8726 39.1936C82.9393 39.0984 82.9726 38.9715 83.0059 38.8445C83.0392 38.7176 83.0726 38.5589 83.0726 38.3685C83.0726 38.1781 83.0726 37.9877 83.0726 37.7338V36.2105V32.7195C83.0726 32.4657 83.0726 32.2752 83.0726 32.0848C83.1059 31.7992 83.1059 31.6405 83.0726 31.4818ZM82.0728 35.3536V38.7811C82.0728 38.9715 82.0395 39.0984 82.0062 39.1936C81.9395 39.2888 81.8729 39.3841 81.8062 39.4158C81.7396 39.4793 81.6396 39.511 81.5063 39.511C81.4063 39.511 81.3064 39.5427 81.2064 39.5427H80.6732V30.6567H81.2064C81.3064 30.6567 81.4063 30.6567 81.5063 30.6885C81.6063 30.6885 81.7063 30.7202 81.8062 30.7837C81.8729 30.8471 81.9728 30.9106 82.0062 31.0058C82.0728 31.101 82.0728 31.2597 82.0728 31.4184V35.3536Z" fill="#96FF94"/>
<path d="M92.6702 31.0693L92.4702 30.9424C92.2703 30.8154 92.1037 30.6885 91.9704 30.625C91.8371 30.5298 91.7038 30.4663 91.6038 30.4346C91.5038 30.3711 91.4039 30.3394 91.3039 30.3394C91.2039 30.3076 91.104 30.3076 91.004 30.3076C90.8707 30.3076 90.7374 30.3076 90.6374 30.3394C90.5041 30.3711 90.3708 30.4346 90.2375 30.5298C90.1709 30.5615 90.1042 30.625 90.0043 30.6567C89.9376 30.7202 89.8376 30.7519 89.7377 30.8154C89.6377 30.8789 89.5044 30.9424 89.4044 31.0376C89.3044 31.101 89.2711 31.1645 89.2711 31.2915V32.91C89.2711 32.9417 89.2711 33.0052 89.3044 33.0369C89.3044 33.1004 89.3378 33.1321 89.3378 33.1956L91.6705 37.353C91.6705 37.3847 91.7038 37.4482 91.7371 37.4799C91.7371 37.5434 91.7704 37.5751 91.7704 37.6069V38.8446C91.7704 39.0032 91.7371 39.1619 91.7038 39.2571C91.6371 39.3523 91.5705 39.4475 91.5038 39.511C91.4372 39.5745 91.3372 39.6062 91.2706 39.638C91.2039 39.6697 91.1373 39.6697 91.0706 39.6697C91.0373 39.6697 90.9707 39.6697 90.8707 39.638C90.7707 39.6062 90.7041 39.5745 90.6374 39.511C90.5708 39.4475 90.5041 39.3841 90.4375 39.2571C90.3708 39.1619 90.3708 39.0032 90.3708 38.8446V37.2895L90.0376 36.7183L89.4044 36.8769C89.3711 36.8769 89.3378 36.9087 89.3044 36.9404C89.2711 36.9722 89.2711 37.0039 89.2711 37.0674V38.8763C89.2711 38.908 89.2711 38.9715 89.3044 39.0032C89.3378 39.0667 89.3711 39.0984 89.4044 39.1302L89.671 39.2889C89.8376 39.4158 90.0043 39.511 90.1376 39.5745C90.2708 39.638 90.3708 39.7014 90.4708 39.7649C90.5708 39.7966 90.6707 39.8601 90.7374 39.8601C90.804 39.8918 90.904 39.8918 91.004 39.8918C91.104 39.8918 91.2039 39.8918 91.2706 39.8601C91.3372 39.8284 91.4372 39.7966 91.5372 39.7649C91.6371 39.7014 91.7371 39.6697 91.8704 39.5745C92.0037 39.511 92.1703 39.4158 92.337 39.2889L92.6035 39.0984C92.7035 39.035 92.7368 38.9715 92.7368 38.8763V37.2578C92.7368 37.226 92.7368 37.1626 92.7035 37.0991C92.6702 37.0356 92.6702 37.0039 92.6369 36.9722L90.3042 32.8148C90.2708 32.783 90.2708 32.7196 90.2375 32.6878C90.2042 32.6244 90.2042 32.5926 90.2042 32.5609V31.3549C90.2042 31.1962 90.2375 31.0693 90.2708 30.9424C90.3375 30.8472 90.4041 30.7519 90.4708 30.6885C90.5374 30.625 90.6374 30.5933 90.7041 30.5615C90.7707 30.5298 90.8374 30.5298 90.904 30.5298C90.9707 30.5298 91.004 30.5298 91.104 30.5615C91.1706 30.5933 91.2706 30.625 91.3372 30.6885C91.4039 30.7519 91.4705 30.8154 91.5372 30.9424C91.6038 31.0376 91.6038 31.1962 91.6038 31.3549V32.91L91.9371 33.4812L92.5702 33.3225C92.6035 33.3225 92.6369 33.2908 92.6702 33.2591C92.7035 33.2273 92.7035 33.1956 92.7035 33.1321V31.3232C92.7035 31.2597 92.7035 31.228 92.6702 31.1645C92.6369 31.101 92.7035 31.101 92.6702 31.0693Z" fill="#96FF94"/>
</svg>
