<svg fill="none" height="49" viewBox="0 0 99 49" width="99" xmlns="http://www.w3.org/2000/svg"><g fill="#96ff94"><path d="m33.3528 26.1502h.7664.5998l1.0997-3.2053h-3.7989c-.1333 0-.2333-.0317-.2999-.0952-.0667-.0634-.1-.1269-.1333-.2221 0-.1904.0999-.4443.2999-.7617.1999-.3173.4665-.6664.7331-1.0155.1-.0952.1666-.1904.2666-.2856.1-.0953.1666-.1905.2666-.2857.2999-.3173.5665-.603.8664-.8886.2666-.2539.4666-.4443.5999-.5077h1.2996v-3.2054h-6.6648l.1666-.4125-2.8326-.8886-2.266 5.4268 3.1991 1.0155.2666-.7299c0-.0317 0-.0317.0333-.0952 0-.0317.0334-.0635.0667-.0952.1-.1904.2333-.3808.4332-.5712.1999-.1905.4332-.3174.6332-.3809.0666-.0317.1333-.0317.1999-.0317.0667 0 .1333-.0317.2-.0317h.5331c-.4332.5712-.7997 1.1742-1.133 1.8406-.3332.6665-.4665 1.3329-.4665 2.0311 0 .127 0 .2539.0333.3808 0 .127.0333.2539.1.3809.0333.1587.0666.2856.0999.4125.0334.127.1.2539.1667.3809.3332.6029.7998 1.0472 1.3996 1.3646.5998.2856 1.2663.4443 1.9661.4443h.5998c.2.0317.4333.0317.6999.0317z"/><path d="m45.5493 22.9449.7331-2.2215-3.1991-1.0155c-.0333.1269-.1.2539-.1333.3808-.0333.127-.1.2539-.1333.4126-.2333.6664-.5998 1.2694-1.0331 1.8407-.4332.5712-1.0997.8568-1.9661.8568-.1666 0-.2666-.0317-.3332-.1269-.0667-.0635-.1-.1587-.1-.2539 0-.0635 0-.1269.0333-.2222.0334-.0952.0334-.1586.0667-.2221.0333-.0952.0999-.1587.1333-.2222.0333-.0634.0666-.1269.1333-.1904.0333-.0952.0999-.1586.1333-.2221.0333-.0635.0666-.127.0999-.1587.3999-.5078.8331-.9203 1.3663-1.2694s1.0664-.603 1.6662-.7934c.6665-.2222 1.333-.4126 2.0662-.4761.6998-.0952 1.4329-.1269 2.166-.1269v-3.2053c-.0999 0-.1666 0-.2666 0-.0666 0-.1666 0-.2332 0-1.7995.0317-3.5657.3491-5.2653.9521-1.6995.6029-3.0991 1.6185-4.2321 3.0466-.3666.4443-.6665.9521-.8998 1.4598-.2333.5395-.3332 1.0791-.3332 1.6186 0 .2856.0333.5712.0999.8251.0667.2539.1667.5395.2999.8251.3666.6665.8665 1.1425 1.4663 1.4599.6332.2856 1.2997.4443 1.9995.4443h.3999c.1333 0 .2666-.0318.3998-.0635.3999-.0317.7665-.127 1.1664-.2539s.7665-.2856 1.0997-.476c.2333.1586.5332.3173.7998.4125.2999.0952.6331.1587.9997.1587h2.5326l1.0997-3.2053h-2.8325z"/><path d="m61.9116 22.945h-2.3994c.0334-.0952.0667-.2222.1-.3174s.0667-.2222.1-.3174c0-.0317 0-.0952.0333-.1586.0333-.0635.0333-.0952.0667-.1905.0333-.1586.0999-.3173.1333-.476.0333-.1587.0999-.3173.1666-.476.1666-.4443.2666-.8252.3665-1.206.0667-.3808.1333-.7299.1333-1.0473 0-.6347-.1333-1.2059-.4332-1.7454s-.7664-.9204-1.4329-1.1425c-.1666-.0635-.3333-.0952-.5332-.127-.1999-.0317-.3666-.0634-.5665-.0634-.1333 0-.2666 0-.3999 0s-.2666.0317-.3999.0952c-.2666.0317-.5332.1269-.7998.2221s-.4998.2222-.7664.3491l.2332-.6664h-3.5323l-3.5657 10.4728h3.5323l.7332-2.1898c.3332-.7617.7664-1.4916 1.2996-2.1898.5665-.6982 1.133-1.3329 1.7995-1.8406.2333-.2222.4999-.4126.7332-.5396.2332-.1586.4665-.2538.6331-.3173-.0333.1269-.0666.2539-.0999.3808-.0334.127-.0667.2539-.1333.3491 0 .0317 0 .0952-.0334.127 0 .0317-.0333.0952-.0666.1269-.1.2856-.1666.5712-.2666.8251-.1.2857-.1666.5713-.2666.8252-.0333.1269-.1.2538-.1333.4125-.0333.127-.1.2856-.1333.4443s-.1.3174-.1333.4761c-.0333.1586-.0666.3173-.0666.476 0 .7299.2666 1.3646.7664 1.8724.5332.5078 1.1997.7617 2.0328.7617h1.9994z"/><path d="m66.1102 22.945 1.3997-4.0305h1.7995l1.0997-3.2053h-1.7995l.9664-2.7927-3.1992-1.0156-1.2996 3.7766h-1.8662l-1.133 3.2053h1.8995l-1.2997 3.7448c-.0333.0635-.0333.1269-.0666.2221-.0333.0635-.0333.1587-.0667.2539v.2539.2222c0 .6982.2666 1.3011.7665 1.8089s1.1664.7617 1.9995.7617h3.7989l1.0997-3.2053z"/><path d="m77.0744 16.8517c.3999-.5078.6998-.9203.9664-1.2694.2333-.3491.3999-.5395.3999-.5395l-3.0325-1.4281c0 .0317-.2666.349-.7332 1.0155-.4998.6347-1.033 1.3646-1.5995 2.1263-.5999.7934-1.3996 1.8089-2.366 3.1101l2.7325 1.8724c0-.0317.1667-.2221.4666-.6347s.6665-.8886 1.0997-1.4281c.1.2221.1999.4443.2666.7299.0666.2856.0999.5713.0999.8569 0 .5712-.1333 1.0155-.4332 1.2694s-.7331.4126-1.2996.4126h-2.3327l-1.0997 3.2053h3.4324c1.5329 0 2.7659-.4443 3.699-1.3646.9331-.9204 1.3996-2.0946 1.3996-3.5227 0-.7934-.1333-1.5868-.4332-2.3485-.3333-.7616-.7332-1.4598-1.233-2.0628z"/><path d="m90.5374 22.945h-2.4993c-.1 0-.1666 0-.2666 0-.0667 0-.1333-.0318-.2-.0635l-.8664-1.8407 4.9653-3.4909-1.9994-2.6024-4.5321 3.2371 4.0322-11.93265h-3.5324l-6.7648 19.89835h3.5324l1.2996-3.7449.8665 1.9042c.2999.6347.7331 1.1107 1.3662 1.3964.5999.2856 1.233.4443 1.8995.4443h.1.1 1.3996z"/><path d="m98.2019 9.23509c-.4332-.4443-.9997-.63472-1.6329-.63472-.6331 0-1.1663.22215-1.6329.63472-.4665.4443-.6664.95211-.6664 1.55501 0 .603.2332 1.1425.6664 1.5551.4666.4443.9998.6664 1.6329.6664.6665 0 1.1997-.2221 1.6329-.6664s.6665-.9521.6665-1.5551c0-.6029-.1999-1.14245-.6665-1.55501z"/><path d="m97.102 15.6775h-3.5657l-2.2994 6.8866c-.0333.0952-.0333.1587-.0666.2539-.0333.0635-.0333.1587-.0667.2222v.2538.2539c0 .6982.2666 1.3329.7665 1.8724.5332.5395 1.1997.7934 2.0328.7934h3.0658l1.0997-3.2053h-3.3657z"/><path d="m21.9226 23.1036c-.1666.4126-.3333.8252-.4999 1.2377l-.3332.3174c-1.4996 1.2377-3.1325 2.4119-4.8653 3.4592-1.7329 1.0473-3.6324 1.4916-5.5985 1.5868-1.03306.0634-2.19941-.2857-2.19941-.2857-.73313-.1904-1.233-.5712-1.49959-1.1742-.2666-.603-.39989-1.2377-.39989-1.9359 0-.0634 0-.1586 0-.2221s0-.1587 0-.2222c.03332-.3808.09997-.7299.1333-1.079.06664-.3808.13329-.6664.19994-.9203.69981-2.5706 2.0661-5.0143 4.13225-7.3944 2.0661-2.3802 4.2655-4.443 6.5648-6.1885.5332-.41258 1.0664-.79341 1.5996-1.1425.5332-.3491 1.0664-.69819 1.5995-.98381.2333-.15868.5332-.31736.9331-.53951.3666-.22215.7998-.4443 1.1997-.66645 0 0 5.0319-2.69754 6.165-1.14249 0 0-.1666 1.55505-3.2991 5.14116l5.4318 2.2533c3.7323-4.60171 3.599-7.48966 3.599-7.48966 0-.7934-.1666-1.55506-.5332-2.31671-.3332-.72993-.933-1.39638-1.7995-1.96762-.6998-.507773-1.4329-.888602-2.1994-1.079017-.7664-.2538857-1.5995-.349093-2.4326-.349093-.4332 0-.8331.0317358-1.233.0952073-.3999.0634717-.7998.1269427-1.233.1904147-1.2663.253886-2.5327.634715-3.7657 1.205958-1.2329.53951-2.366 1.14249-3.399 1.74547-.0667.03173-.1666.06347-.2333.12694-.0666.06347-.1666.09521-.2333.12694-.7997.47604-1.6328 1.01555-2.4993 1.65026-.8664.63472-1.7328 1.30117-2.6326 2.03109-2.7659 2.28497-5.33186 4.98252-7.69788 8.09262s-3.69898 6.3154-3.998902 9.6159c-.033325.2222-.066649.4126-.066649.603v.5395.6347c0 .1904.033324.3809.066649.5713 0 .1904.033324.3808.066648.5712s.066644.4126.099974.6347c.29992 1.5234.9664 2.8563 1.99945 3.967 1.03305 1.079 2.3327 1.8089 3.89893 2.1898.66649.1904 1.26632.2856 1.86616.3491.59983.0634 1.19972.0952 1.79952.0952 1.1663.0317 2.266-.0635 3.3324-.3174s2.1328-.603 3.1658-.9838c-1.0664 2.0946-2.2327 4.1257-3.499 6.1567-1.2664 2.0311-2.666 3.967-4.19889 5.8394-2.66593 2.9197 4.49879 3.2688 4.49879 3.2688 3.0991-3.7766 5.7317-7.807 7.8978-12.1231 2.1661-4.316 4.1322-8.6638 5.8984-13.1068l-5.3652-1.9042c-.1.4126-.2666.8252-.4332 1.2377z"/><path d="m36.1188 39.1302c-.0333-.1905-.1-.4443-.1333-.73-.0333-.2538-.1-.5712-.1666-.9838-.0667-.3808-.1666-.8886-.2666-1.4598-.0333-.2856-.1333-.476-.2-.5713-.0999-.0952-.1999-.1586-.2999-.2221l-.0666-.0317h.0333c.1666-.0318.2999-.0952.4332-.127.1333-.0317.2333-.0952.3332-.1587.1-.0634.1667-.1269.2-.2221s.0666-.2222.0666-.3491v-1.6503c0-.2539 0-.4443 0-.6347s-.0333-.3491-.0333-.476c-.0333-.127-.0666-.2539-.1333-.3491-.0666-.0952-.1666-.1904-.2666-.2856-.0333 0-.0333-.0318-.0333-.0318l-.1-.0634c-.1333-.0952-.2999-.1587-.4998-.2539-.2-.0952-.4999-.127-.8331-.127h-.8331-.8331v9.5208l.1666-.0318.2332-.0635.1667-.0317.3332-.0952c.1-.0317.1666-.0952.1666-.1904v-3.9352c.0667 0 .1-.0318.1666-.0318.0667 0 .1-.0317.1667-.0317h.0333c.1666-.0317.2666-.0317.3332.0317.0667.0635.1333.1587.1667.3174.0666.476.1333.8886.1999 1.2377s.1.6664.1666.952c.0333.2857.1.5078.1333.6982s.0667.3491.1.4761c.0333.3173.0666.476.1.5395.0333.1269.0999.2221.1999.2539l.9331-.2222c-.0333-.0317-.1-.0952-.1-.1904 0-.2222-.0333-.3174-.0333-.476zm-1.8328-4.0939-.6998.1586v-4.5699h.5998c.0666 0 .1666 0 .2666.0317.1 0 .1666.0318.2332.0635.0667.0317.1333.0952.2.1587.0666.0634.1.1586.1333.2539v3.1101c0 .2538-.0333.4125-.1333.5395-.1.1269-.2999.1904-.5998.2539z"/><path d="m42.7501 30.3394h-.5665v9.5207h.5665.4665 1.7995v-.3491h-1.7995v-4.5699l1.3663-.3174v-.3173l-1.3663.3173v-3.9352h1.7995v-.3491h-1.7995z"/><path d="m54.0471 31.0376-.1999-.127c-.1999-.1269-.3666-.2221-.4665-.2856-.1333-.0635-.2333-.1269-.3333-.1904-.1-.0317-.1999-.0635-.2999-.0952-.1-.0318-.1666-.0318-.2666-.0318s-.1999 0-.2666.0318c-.1.0317-.1999.0635-.2999.0952s-.2333.0952-.3666.1904c-.1333.0635-.2999.1904-.4998.2856l-.2.127c-.1.0634-.1333.1586-.1333.2539v7.6165c0 .0635 0 .127.0333.1587.0334.0317.0667.0635.1.0952l.2666.1904c.1.0635.2.127.2666.1587.0667.0635.1666.0952.2333.127.1666.0952.3332.1586.4332.1904.1333.0317.2666.0634.3999.0634s.2666-.0317.3999-.0634c.1333-.0318.2666-.0952.4332-.1904.0666-.0318.1333-.0953.2333-.127.0666-.0635.1666-.0952.2665-.1587l.2666-.1904c.1-.0635.1333-.1587.1333-.2539v-1.2377c0-.0634-.0333-.1586-.1333-.1904h-.0333l-.2999.0635-.1666.0317-.2333.0635-.1666.0635v1.2694c0 .1269-.0333.2539-.0667.3491-.0333.0952-.0999.1587-.1666.1904-.0666.0635-.1333.0952-.2332.0952-.0667.0318-.1667.0318-.2333.0318-.0667 0-.1333 0-.2333-.0318-.0666 0-.1666-.0317-.2333-.0952-.0666-.0317-.1333-.1269-.1666-.1904-.0333-.0952-.0666-.1904-.0666-.3491v-7.7118c0-.1587.0333-.2539.0666-.3491s.1-.1587.1666-.2221c.0667-.0635.1333-.0952.2333-.0952.0667 0 .1666-.0318.2333-.0318.0666 0 .1333 0 .2333.0318.0666 0 .1666.0634.2332.0952.0667.0634.1333.1269.1666.2221.0334.0952.0667.1904.0667.3491v1.6185l.3332.5713.6332-.1587c.0666-.0317.1333-.0952.1333-.1904v-1.7772c-.0667-.127-.1-.2222-.2-.2856z"/><path d="m63.378 30.9106c-.2-.1269-.3666-.2221-.4666-.2856-.1333-.0635-.2333-.1269-.3332-.1904-.1-.0317-.2-.0635-.2999-.0952-.1-.0318-.1667-.0318-.2666-.0318-.1 0-.2 0-.2666.0318-.1.0317-.2.0635-.2999.0952-.1.0317-.2333.0952-.3666.1904-.1333.0635-.2999.1904-.4666.2856l-.1999.127c-.1.0634-.1666.1586-.1666.2539v7.6165c0 .127.0666.2222.1666.2539l.2666.1904c.1.0635.1666.127.2666.1587.0666.0635.1666.0952.2333.127.1666.0952.2999.1586.4332.1904.1333.0317.2666.0634.3999.0634s.2666-.0317.3999-.0634c.1333-.0318.2665-.0952.4332-.1904.0666-.0318.1333-.0953.2332-.127.0667-.0635.1667-.0952.2666-.1587l.2666-.1904c.1-.0635.1333-.1587.1333-.2539v-.6029-.603-6.4106c0-.127-.0333-.1905-.1333-.2539zm-.7332 6.7915v.3808.8886c0 .1269-.0333.2539-.0666.3491s-.1.1587-.1666.1904c-.0667.0635-.1333.0952-.2333.0952-.0667.0318-.1666.0318-.2333.0318-.0666 0-.1333 0-.2333-.0318-.0666 0-.1666-.0317-.2332-.0952-.0667-.0317-.1333-.1269-.1666-.1904-.0334-.0952-.0667-.1904-.0667-.3491v-7.7118c0-.1587.0333-.2539.0667-.3491.0333-.0952.0999-.1587.1666-.2221.0666-.0635.1333-.0952.2332-.0952.0667 0 .1667-.0318.2333-.0318.0667 0 .1333 0 .2333.0318.0666 0 .1666.0634.2333.0952.0666.0634.1333.1269.1666.2221s.0666.1904.0666.3491z"/><path d="m73.5416 39.1302c-.0333-.1905-.0999-.4443-.1333-.73-.0666-.2538-.0999-.5712-.1666-.9838-.0666-.3808-.1666-.8886-.2666-1.4598-.0666-.2856-.1333-.476-.1999-.5713-.1-.0952-.2-.1586-.2999-.2221l-.0667-.0317h.0333c.1667-.0318.3333-.0952.4333-.127.1333-.0317.2332-.0952.3332-.1587.1-.0634.1666-.1269.1999-.2221.0667-.0952.0667-.2222.0667-.3491v-1.6503c0-.2539 0-.4443 0-.6347s-.0333-.3491-.0333-.476c-.0334-.127-.0667-.2539-.1333-.3491-.0667-.0952-.1667-.1904-.2666-.2856-.0333 0-.0333-.0318-.0333-.0318l-.1-.0634c-.1333-.0952-.2999-.1587-.4999-.2539-.2333-.0952-.4998-.127-.8331-.127h-.8331-.7331v9.5208l.1666-.0318.2333-.0635.1666-.0317.3332-.0952c.1-.0317.1667-.0952.1667-.1904v-3.9352c.0666 0 .0999-.0318.1666-.0318.0666 0 .0999-.0317.1666-.0317h.0666c.1667-.0317.2666-.0317.3333.0317.0666.0635.1333.1587.1666.3174.0667.476.1333.8886.2 1.2377.0666.3491.0999.6664.1666.952.0333.2857.0999.5078.1333.6982.0333.1904.0666.3491.0999.4761.0334.3173.0667.476.1.5395.0333.1269.1.2221.2.2539l.933-.2222c-.0666-.0317-.0666-.0952-.0999-.1904-.1333-.2222-.1667-.3174-.1667-.476zm-1.8328-4.0939-.6998.1586v-4.5699h.5998c.0667 0 .1667 0 .2666.0317.1 0 .1667.0318.2666.0635.0667.0317.1666.0952.2.1587.0666.0634.0999.1586.1333.2539v3.1101c0 .2538-.0334.4125-.1333.5395-.1333.1269-.3333.1904-.6332.2539z"/><path d="m83.0726 31.4818c-.0334-.1269-.0667-.2538-.1333-.349-.0667-.0953-.1667-.1905-.2666-.2857h-.0334s-.0333-.0317-.0666-.0317-.0333-.0317-.0667-.0317c-.1333-.0952-.2999-.1587-.5332-.2539-.1999-.0952-.4998-.127-.8331-.127h-.4998-1.0664v9.5208h.6998.3332.4999c.3333 0 .6332-.0318.8331-.127.2-.0952.3999-.1587.5332-.2539.0333 0 .0667-.0317.0667-.0317.0333 0 .0333-.0317.0666-.0317.1333-.0952.2333-.1905.2666-.2857.0667-.0952.1-.2221.1333-.3491.0333-.1269.0667-.2856.0667-.476s0-.3808 0-.6347v-1.5233-3.491c0-.2538 0-.4443 0-.6347.0333-.2856.0333-.4443 0-.603zm-.9998 3.8718v3.4275c0 .1904-.0333.3173-.0666.4125-.0667.0952-.1333.1905-.2.2222-.0666.0635-.1666.0952-.2999.0952-.1 0-.1999.0317-.2999.0317h-.5332v-8.886h.5332c.1 0 .1999 0 .2999.0318.1 0 .2.0317.2999.0952.0667.0634.1666.1269.2.2221.0666.0952.0666.2539.0666.4126z"/><path d="m92.6702 31.0693-.2-.1269c-.1999-.127-.3665-.2539-.4998-.3174-.1333-.0952-.2666-.1587-.3666-.1904-.1-.0635-.1999-.0952-.2999-.0952-.1-.0318-.1999-.0318-.2999-.0318-.1333 0-.2666 0-.3666.0318-.1333.0317-.2666.0952-.3999.1904-.0666.0317-.1333.0952-.2332.1269-.0667.0635-.1667.0952-.2666.1587-.1.0635-.2333.127-.3333.2222-.1.0634-.1333.1269-.1333.2539v1.6185c0 .0317 0 .0952.0333.1269 0 .0635.0334.0952.0334.1587l2.3327 4.1574c0 .0317.0333.0952.0666.1269 0 .0635.0333.0952.0333.127v1.2377c0 .1586-.0333.3173-.0666.4125-.0667.0952-.1333.1904-.2.2539-.0666.0635-.1666.0952-.2332.127-.0667.0317-.1333.0317-.2.0317-.0333 0-.0999 0-.1999-.0317-.1-.0318-.1666-.0635-.2333-.127-.0666-.0635-.1333-.1269-.1999-.2539-.0667-.0952-.0667-.2539-.0667-.4125v-1.5551l-.3332-.5712-.6332.1586c-.0333 0-.0666.0318-.1.0635-.0333.0318-.0333.0635-.0333.127v1.8089c0 .0317 0 .0952.0333.1269.0334.0635.0667.0952.1.127l.2666.1587c.1666.1269.3333.2221.4666.2856.1332.0635.2332.1269.3332.1904.1.0317.1999.0952.2666.0952.0666.0317.1666.0317.2666.0317s.1999 0 .2666-.0317c.0666-.0317.1666-.0635.2666-.0952.0999-.0635.1999-.0952.3332-.1904.1333-.0635.2999-.1587.4666-.2856l.2665-.1905c.1-.0634.1333-.1269.1333-.2221v-1.6185c0-.0318 0-.0952-.0333-.1587s-.0333-.0952-.0666-.1269l-2.3327-4.1574c-.0334-.0318-.0334-.0952-.0667-.127-.0333-.0634-.0333-.0952-.0333-.1269v-1.206c0-.1587.0333-.2856.0666-.4125.0667-.0952.1333-.1905.2-.2539.0666-.0635.1666-.0952.2333-.127.0666-.0317.1333-.0317.1999-.0317.0667 0 .1 0 .2.0317.0666.0318.1666.0635.2332.127.0667.0634.1333.1269.2.2539.0666.0952.0666.2538.0666.4125v1.5551l.3333.5712.6331-.1587c.0333 0 .0667-.0317.1-.0634.0333-.0318.0333-.0635.0333-.127v-1.8089c0-.0635 0-.0952-.0333-.1587s.0333-.0635 0-.0952z"/></g></svg>