<svg fill="none" height="40" viewBox="0 0 111 40" width="111" xmlns="http://www.w3.org/2000/svg"><g fill="#96ff94"><path d="m94.8557 11.9249c5.6453 0 10.2543-2.66043 10.2543-5.94681s-4.576-5.97809-10.2543-5.97809c-5.6449 0-10.2544 2.66041-10.2544 5.94679 0 3.28639 4.6095 5.97811 10.2544 5.97811zm6.3463-8.60722h.802l1.302 2.34742h-.768l-.234-.43818h-1.369l-.234.43818h-.7682zm-4.9768 1.90924 1.7369-1.37715h-1.6701v-.53209h2.7056v.43819l-1.7035 1.37715h1.7703v.53208h-2.8392zm-.6346 3.31768c.2338 0 .4008.15649.4008.34429 0 .18779-.167.34429-.4008.34429-.2339 0-.4009-.1252-.4009-.34429 0-.1878.167-.34429.4009-.34429zm-3.1732-3.31768 1.7369-1.37715h-1.6701v-.53209h2.7055v.43819l-1.7035 1.37715h1.7703v.53208h-2.8391zm.2004 1.53364c1.002 0 1.6367.46949 1.6367 1.25196s-.6347 1.25195-1.6367 1.25195c-1.0021 0-1.6367-.46948-1.6367-1.25195 0-.81377.6346-1.25196 1.6367-1.25196zm-2.0709-3.44288h.7348v2.34742h-.7348zm-.4677 4.03756-.6346.31299c-.167-.25039-.4342-.34429-.7682-.34429-.5011 0-.8685.25039-.8685.68858 0 .43818.334.68857.8685.68857.334 0 .6012-.09389.7682-.34428l.6346.31299c-.2338.34428-.7348.62597-1.4028.62597-.9353 0-1.5699-.46948-1.5699-1.25195s.6346-1.25196 1.6033-1.25196c.6346-.0313 1.1356.21909 1.3694.56338zm-3.5072-4.03756h1.7369c.6681 0 1.1357.28169 1.1357.81377 0 .53209-.4676.81378-1.1357.81378h-1.002v.68857h-.7349z"/><path d="m101.603 3.88107-.434.84507h.868z"/><path d="m92.6178 8.7011c.5344 0 .9018-.25039.9018-.68858 0-.43818-.334-.68858-.9018-.68858-.5344 0-.9019.2504-.9019.68858 0 .43819.3341.68858.9019.68858z"/><path d="m88.7099 4.13144c0-.25039-.2004-.31299-.4676-.31299h-.9353v.62598h.9353c.2672 0 .4676-.0626.4676-.31299z"/><path d="m109.987 16.025c-5.111 2.1284-10.8557 3.7246-17.2689 4.8827-.3006.0626-.5678.2817-.5678.5946 0 .3756.3006.6573.668.6573h.1336c6.5468-1.158 12.3591-2.8169 17.6031-4.9765.234-.0939.401-.313.401-.5634-.034-.4695-.535-.7825-.969-.5947z"/><path d="m6.40745 35.5242c-2.07092 1.0016-4.00823 2.0658-6.01235 3.3177-.200412.1252-.3006176.313-.3006176.5321 0 .5008.6012346.7825 1.0354576.5321 1.97072-1.2207 3.87463-2.2848 5.91214-3.2551.36743-.1878.46763-.626.23382-.939-.20041-.2817-.60124-.3443-.86845-.1878z"/><path d="m106.613 5.2269c.034 0 1.002.0939 2.94.56338.467.1252.935-.28169.835-.71987-.067-.2191-.234-.40689-.468-.46949-2.037-.50078-3.073-.59468-3.173-.59468-.368-.0313-.702.21909-.702.56338-.066.31299.201.62598.568.65728z"/><path d="m1.16334 19.4366c2.90597-2.1283 4.91009-2.6604 4.94349-2.6604.36742-.0939.56783-.4382.50103-.7511-.10021-.3443-.43423-.5321-.80165-.4695-.16701.0313-2.33813.5633-5.444512 2.8795-.16701.1252-.2672156.313-.2672156.5008v.0312c0 .5008.6346366.7825 1.0688576.4695z"/><path d="m61.2534 23.2551c-.0668-.0313-.167-.0939-.2338-.1252-.1336-.0626-.2338-.0939-.3674 0-.1002.0626-.167.1252-.2672.2191-.5344.5321-1.0355 1.0329-1.5365 1.5649-.5344.5634-1.0689 1.1268-1.7369 1.5337-.3006.1878-.6346.3756-.9687.5008-.3674.1565-.5678.0313-.668-.313-.1336-.5321-.167-1.0642 0-1.5963.2672-.9702.8016-1.784 1.4697-2.5352.2004-.1878.334-.4382.501-.6573.2004-.3129.4008-.6572.6013-.9702.3006-.4382.6346-.8764.9352-1.3459.1002-.1565.2004-.3443.2004-.5321 0-.2816-.1002-.5946-.2004-.8763-.0668-.2504-.2672-.3443-.501-.313-.4008.0313-.7683.1878-1.0689.4382-.1002.0939-.2338.1878-.334.2817-.1002-.1252-.2004-.2504-.3006-.3756l-.0334-.0313c-.1336-.3443-.4342-.4695-.7683-.5321-.2338-.0626-.501-.0939-.7682-.0939-.7015 0-1.4029.0939-2.0709.313-.8017.2504-1.6033.5634-2.3048 1.0016-.8684.532-1.6367 1.158-2.2713 1.9718-.501.626-.9687 1.2832-1.3027 2.0031-.2672.5634-.5344 1.1268-.835 1.7215-.334.7198-.7015 1.4084-1.2025 2.0657-.334.4382-.7014.8451-1.1691 1.1893-.2004.1565-.4342.2191-.668.1252-.501-.1565-.9019-.845-.7682-1.3145.2672-.9703.5344-1.9406.7682-2.9108.0668-.1878.167-.3443.3674-.4382.3006-.1878.6347-.3756.9019-.5947.5678-.5008 1.1356-1.0015 1.7035-1.5336.7682-.7512 1.5031-1.5963 2.1043-2.4726.4342-.626.8016-1.252 1.2025-1.878.7014-1.158 1.2692-2.3474 1.7703-3.5681.501-1.158.7682-2.3787.668-3.63062-.0334-.50079-.1336-1.00157-.5344-1.34586-.8685-.75117-1.7703-1.15806-3.0396-.56338-.7014.31299-1.3027.78248-1.8037 1.31456-1.0689 1.0955-1.9039 2.3474-2.6054 3.6933-.167.313-.3674.6259-.5344.9389 0-.1252 0-.2504 0-.3443.1336-.7511.0668-1.5023-.1002-2.2535-.167-.6885-.501-1.22063-1.2359-1.53362-.9352-.43818-1.8037-.43818-2.6721.0626-.4342.25039-.8351.59472-1.1691.93892-.6346.5947-1.1023 1.3146-1.5031 2.0345-.6012 1.0328-1.0688 2.097-1.4363 3.1925-.4342 1.2832-.7014 2.6291-.8684 3.9436-.334 2.3474-.5344 4.7262-.5344 7.1049 0 .1565-.0334.2817-.1671.4069-.2672.313-.501.5946-.7348.9389-.4676.6886-.9018 1.4398-1.3695 2.1284-.4676.6572-1.0688 1.158-1.8371 1.5023-.8016.3443-1.4363.2191-2.0375-.4695-.3006-.313-.2672-.4382.167-.5634.6346-.1878 1.2025-.5007 1.7035-.9076.8351-.6886 1.5365-1.4711 2.1043-2.3787.5345-.8138.8017-1.7215.8685-2.6605.0334-.7511 0-1.5023-.501-2.1283-.7015-.9389-1.6033-1.3771-2.8726-.845-1.1357.4694-2.1377 1.0954-3.0396 1.8779-.6012.5321-1.0689 1.1267-1.3361 1.8779-.167.4382-.3006.9077-.4008 1.3459-.2338 1.0641-.2004 2.1283.2004 3.1612.2338.6259.2338.6259-.3674.9389-.4676.2504-.9687.3443-1.5031.4382-.334.0313-.4008-.0626-.3006-.3443.3006-.845.6346-1.6901.9353-2.5352.5344-1.4084 1.0354-2.8482 1.5364-4.2879.7015-1.9719 1.3695-3.9437 2.1044-5.8842.5678-1.565 1.1356-3.1299 1.9039-4.6636.4008-.7824.7014-1.6275 1.0688-2.4413.2004-.4695.1336-.8138-.3006-1.0954-.3006-.18784-.668-.31303-1.002-.43823-.1336-.0626-.2339-.0313-.3007.0939-.2004.25043-.4008.50083-.5344.78243-.167.3756-.2672.7825-.4342 1.1581-.7349 1.9092-1.4697 3.8185-2.2045 5.6964-1.4029 3.7246-2.8058 7.4804-4.1753 11.205-.0334.1252-.1002.2191-.167.3443-.0668-.1252-.1336-.2191-.167-.3443-.3674-.9703-.9687-1.8153-1.9373-2.3474-.5344-.2817-1.1023-.4069-1.7035-.313-.334.0626-.6681.1252-1.0355.1878-.4008.0626-.4676.0313-.334-.313.2338-.6886.501-1.3771.7682-2.097.4677-1.2833.9353-2.5665 1.3695-3.8498.5011-1.3771.9687-2.7543 1.4697-4.1627.4342-1.1581.8685-2.3162 1.2025-3.5055.0668-.2817.2338-.5634.4008-.8451.1336-.2504.334-.4695.501-.7199.2673-.4068.4009-.84503.2673-1.31452-.1337-.40688-.3675-.78247-.8685-.87637-.4676-.12519-.9019-.03129-1.2025.34429-.1336.1565-.3006.28169-.4008.43819-.7348.97031-1.4363 1.97181-2.1377 2.97341-.0668.0939-.1002.1565-.167.2191-.6681.6573-1.3695 1.3145-2.0709 1.9718-.4343.4069-.9353.7825-1.5031 1.0642-.6347.3443-1.3027.4069-1.9707.0939-.4343-.1878-.5345-.3443-.5011-.7825.0668-.9077.334-1.7527 1.0355-2.3787.4676-.4069.4342-.8451.334-1.3459-.0668-.2817-.2338-.4695-.501-.5947s-.5679-.1252-.8685 0c-.4342.1565-.7348.4695-.9352.8764-.16704.3443-.36745.6886-.53446 1.0329-.20041.4069-.46763.7512-.56783 1.2206-.13361.7825-.06681 1.5963 0 2.3788.0334.219.0668.4381.16701.6259.26721.5634.70144.9703 1.30268 1.2207.6012.2504 1.2025.4069 1.8705.3443.8016-.0939 1.5031-.3443 2.1711-.7825.7349-.5008 1.4363-1.0642 2.238-1.471.1336-.0626.2672-.2191.3674-.3443.0334-.0313.0668-.0626.0668-.0939 0 .0313.0334.0939 0 .1252-.1002.3756-.167.7511-.2672 1.1267-.5345 1.5963-1.1023 3.1925-1.6701 4.7575-.7015 1.9092-1.5031 3.7558-2.0376 5.7277-.0334.1252-.1336.2503-.2672.3442-.2338.1565-.501.313-.7348.4695-.9019.5634-1.7369 1.2207-2.43835 1.9719-.33402.3442-.63464.7511-.80165 1.2206-.1002.2817-.1336.5634-.0334.8451.16701.5321.56783.7825 1.1357.6573.3006-.0626.5678-.1565.835-.2817.2338-.0939.4342-.2191.6347-.313v-.0313.0313.0939c-.4009 1.158-.8017 2.3474-1.2025 3.5055-.0668.1565-.1002.3442-.0668.5007.1002.313.2672.626.4342.9077.2338.3443.6346.4069 1.0021.1878.4676-.2504.7014-.6573.8016-1.1581.2004-1.0328.4008-2.097.8351-3.0672.2672-.5947.501-1.2207.8016-1.7841.2672-.5321.5344-1.0329.8351-1.5336.501-.7512 1.2692-1.2207 2.2045-1.4085.6346-.1252.7682-.0626 1.1356.4382.4677.6573.7015 1.3772.7349 2.1596.0334 1.2833-.2338 2.5352-.3006 3.8185-.0334.4069-.2672.7825-.4009 1.1894-.0334.1251-.1002.2503-.0668.3442.1337.4069.3341.8138.7015 1.0955.1336.0939.334.1878.4676.1565.4342-.0939.9019-.1878 1.1357-.626.2004-.3443.4008-.7199.5344-1.1267.167-.4069.2338-.8451.3674-1.2833s.334-.7825.8685-.8764c.3674-.0626.7348-.1878 1.1022-.313.7683-.2816 1.5031-.5946 2.2714-.9076.2004-.0939.334-.0626.501.0626.3674.2504.7348.5321 1.1691.7198.9018.3756 1.8371.6573 2.8391.2817.9019-.3443 1.8037-.7511 2.4718-1.4397.4008-.4069.7348-.8451 1.1022-1.2833.1671-.1878.3007-.4382.4343-.6259.167-.2191.2004-.2191.3674 0 .0334.0626.1002.0939.1336.1877.1336.2504.334.4069.6012.5321.2004.1252.4343.2191.6347.313 1.1022.4382 2.1377.3756 3.0729-.3756.5345-.4069.9353-.9076 1.3695-1.4084.1002-.1252.167-.2504.2672-.3756.1003.1252.2005.2504.3007.3756.6012.626 1.336.9702 2.2045 1.0328.2338.0313.5344 0 .7682-.0939.4009-.1564.7683-.3442 1.1023-.5633.6012-.4069 1.1023-.939 1.5699-1.4711.1336-.1565.167-.1565.3006.0313.1336.2191.2672.4382.4342.626.3007.3443.7015.5947 1.2025.5947.5678 0 1.1023-.0939 1.6033-.3443.5344-.2817 1.0021-.6886 1.4363-1.0955.3674-.3756.668-.7824 1.1356-1.0641.1002-.0626.1337-.1878.2005-.2504.1002-.1252.167-.2504.2672-.3756.0334-.0313.1002-.0626.1336-.0626 0 .0313.0334.0939.0334.1252 0 .1252 0 .2504-.0334.3443-.0668.845.3006 1.5649.835 2.2222.2338.2817.5679.4695.9687.4382.3006-.0313.6012-.0939.8684-.1878 1.0689-.4069 1.9708-1.0016 2.7724-1.7215.835-.7511 1.6033-1.5649 2.1377-2.5352.2338-.4069.4342-.845.4342-1.3458.0668-.2817.0669-.4069-.1336-.4695zm-17.3022-3.1925c.2004-.8764.3675-1.784.7015-2.6604.7014-1.784 1.4363-3.5368 2.3715-5.2269.3674-.626.8351-1.2207 1.2693-1.8154.167-.219.4008-.40684.7014-.46943.4342-.0939.7349.12523.7349.56333.0334.626-.2004 1.2207-.4343 1.7841-.6012 1.4397-1.3026 2.7856-2.1377 4.1314-.5344.8764-1.1356 1.6902-1.8037 2.4727-.4008.4694-.835.9076-1.4029 1.2206zm-.4008-6.4163c0-.0626.0334-.0939.0334-.1565 0 .0626-.0334.1252-.0334.1565zm-16.5339 15.0235c0-.0626-.0335-.0939-.0335-.1565-.1002-1.0641-.0334-2.097.5345-3.036.334-.5634.7682-1.0641 1.3027-1.4397.1336-.0939.3006-.1878.4676-.2504.4008-.1565.7348 0 .8684.3756.2672.6885.1336 1.3458-.2004 1.9718-.5678 1.0955-1.4363 1.9405-2.4717 2.6604-.334.2817-.3674.2817-.4676-.1252zm9.8869-8.5446c.1336-.939.3674-1.8779.6681-2.7856.2004-.5634.334-1.1268.501-1.6588.2338-.7199.501-1.4085.8016-2.0971.2339-.5007.5011-.9702.8017-1.4397.1002-.1878.3006-.3443.4676-.4695.501-.313.9353-.1252 1.0355.4069.1002.4695 0 .939-.1336 1.3771-.4677 1.8154-1.1691 3.5368-2.1044 5.1644-.3006.532-.6012 1.0641-.9686 1.5649-.334.4382-.7349.8138-1.1023 1.252-.0334.0313-.1002.0626-.167.0626 0-.0626 0-.1252 0-.1565.1002-.3756.1336-.8138.2004-1.2207zm5.1105-2.0344c-.1002.4382-.2004.8763-.3006 1.3145-.3006 1.5024-.6346 3.0047-.9352 4.5071-.0335.1565-.1003.3443-.2005.4695-.4342.5946-.7348 1.2519-.9686 1.9405s-.5679 1.3145-1.0689 1.8466c-.2004.2191-.3674.4382-.5678.626-.3006.2504-.5678.2817-.9019.0939-.5344-.2504-.7682-.7825-.7014-1.3146.1336-.8137.2338-1.6275.334-2.4413.0334-.2817.1336-.5008.4008-.6572 1.0021-.6886 1.8037-1.565 2.5386-2.504.3006-.3755.5678-.7511.835-1.1267.5679-.7825 1.0021-1.6276 1.4029-2.4726 0-.0939.0668-.1878.1336-.2817zm13.0936 3.0673c-.3006.4069-.6013.7824-.9019 1.1893-.4008.5321-.835 1.0329-1.2692 1.5337-.6681.7512-1.3027 1.471-2.0042 2.1909-.334.3443-.7348.6886-1.1356.9703-.5011.313-1.0021.0939-1.1691-.4695 0-.0313-.0334-.0939-.0334-.0939-.1336-.5634-.0334-1.0329.1336-1.5337.2338-.6885.5344-1.3145.9687-1.9092.3674-.5321.7348-1.0329 1.1356-1.5336.6013-.7825 1.4363-1.252 2.3716-1.6276.4342-.1878.8684-.3443 1.3695-.3443.501 0 .8016.2504.835.6886 0 .2817-.1002.626-.3006.939z"/><path d="m74.18 13.1143c.1336-.7512.2672-1.5337.4008-2.2849.0334-.2504.0668-.2504.3006-.1565.2672.1252.5344.2817.8351.3756 1.169.3756 2.3047.1878 3.407-.2504 1.0688-.4381 1.9707-1.06413 2.7055-1.9092.6681-.78247 1.0689-1.62754 1.2359-2.5978.1336-.81378 0-1.59625-.3006-2.37872-.4343-1.15806-1.2025-2.06573-2.3048-2.72301-.835-.500778-1.7703-.813767-2.7723-.970261-1.6033-.2503916-3.2066-.2503916-4.8433.093896-.6346.156495-1.3027.28169-1.9373.500783-1.6701.594682-3.1732 1.502352-4.3757 2.723002-.8684.87637-1.6033 1.84664-2.0375 3.0047-.3006.81377-.4008 1.65884-.3006 2.53521.1002.84507.6012 1.471 1.1691 2.0657.4676.5321 1.0354.9077 1.7703 1.0642.9352.2191 1.8371.1565 2.7389-.0939.6013-.1565.9687-.5947.9019-1.1268-.0334-.2191-.1336-.4382-.2004-.6572-.167-.40693-.4343-.53213-.9019-.50083-.4342.0313-.835.0939-1.2693.0626-.8016-.0313-1.4028-.31299-1.6033-1.28326-.1336-.75117.0668-1.43975.4677-2.09702.5344-.87637 1.336-1.50235 2.2045-2.09703 1.2025-.78247 2.5051-1.31455 3.8412-1.78404.3006-.09389.6013-.18779.8685-.25039h.167c-.0334.0626-.0334.0939-.0668.1565-.0334.0313-.0668.09389-.0668.12519-.5011.68858-.8351 1.47105-1.1023 2.25352-.3674 1.12676-.6012 2.28482-.8016 3.44288-.2339 1.28326-.4677 2.59778-.7349 3.88108-.3006 1.5336-.668 3.0673-1.002 4.6009-.3341 1.4398-.6347 2.8482-1.0021 4.2567-.2004.7512-.4342 1.471-.668 2.2222-.3007.9703-.6347 1.9405-1.1357 2.8482-.167.2817-.3674.5634-.6012.8451-.3675.3756-.6681.4069-1.1357.1252-.2004-.1252-.4008-.2504-.5678-.3443-.6347-.3756-1.1357-.313-1.6367.2191-.3675.4069-.4009.5946-.0668 1.0328.3674.4695.835.8138 1.336 1.1894.7683.5321 1.6033.5321 2.4384.2504 1.2693-.4069 2.1711-1.252 2.8726-2.2535.4342-.626.7014-1.3146.8684-2.0345.3006-1.158.6012-2.3474.8685-3.5054.167-.6573.3006-1.2833.4676-1.9406.2338-1.0328.501-2.097.7014-3.1299.4342-1.158.6347-2.3161.8685-3.5054zm.7682-4.75748c.1002-.62598.2338-1.25195.4008-1.87793.2673-.93897.7015-1.84664 1.3027-2.62911.2338-.31299.501-.56338.7683-.84507.0668-.0626.2004-.15649.3006-.15649.668 0 1.3027.09389 1.8371.46948.5678.40689.8016 1.00156.835 1.62754.1002 1.43975-.5344 2.59781-1.8037 3.44288-.334.21909-.7014.34429-.9686.46948-.8685.0626-1.6367.0939-2.405-.06259-.3006-.0939-.334-.1252-.2672-.43819z"/><path d="m89.3778 19.7183c-.167.0939-.334.2191-.4676.3756-.4342.4382-.835.9077-1.2359 1.3771-.6012.7512-1.2024 1.5024-2.0041 2.0971-.6012.4694-1.3027.8137-2.1043.9389-.334.0626-.6346 0-.8351-.2504-.2004-.2191-.3674-.4381-.4676-.6885-.1336-.2504-.1002-.5008.334-.5634.5679-.0939 1.1023-.2817 1.6033-.5634 1.0021-.5321 1.8371-1.252 2.572-2.0344 1.1022-1.1894 1.7369-2.5665 1.6701-4.1628-.0334-.7825-.2672-1.5336-.8685-2.097-.3674-.3756-.835-.5008-1.3695-.4069-1.1022.2191-2.0709.7199-2.9727 1.3146-.7015.4381-1.2359 1.0328-1.6701 1.7214-.5011.8451-.9353 1.6901-1.2359 2.6291-.334 1.0642-.4342 2.1596-.4008 3.2551 0 .1252 0 .2504-.0334.3443-.167.4695-.5011.8138-.9019 1.0954-.4676.313-1.0688.0939-1.2024-.4694-.167-.7199-.2339-1.4398-.1002-2.191.1336-.6572.2672-1.3145.4008-1.9718.0668-.3756-.0334-.7512-.3006-1.0329-.3675-.4068-.9353-.4381-1.3027-.0313-.3674.3756-.6013.8138-.6681 1.3146-.1002.5634-.1336 1.1581-.2004 1.7214-.0334.1878-.0334.3756-.1002.5634-.1336.3756-.3006.7199-.4342 1.0955-.3006.7825-.6012 1.5336-1.3361 2.0657-.167.1252-.334.313-.4342.5008-.0668.1252-.1002.313-.1002.4695-.0334.4069.6346.7198 1.0355.6885.3006-.0313.5678-.1564.8016-.3129.4676-.313.7682-.7512 1.0355-1.1894.167-.2817.167-.2817.3674-.0313.3006.3756.668.6573 1.1691.7199.9686.0626 1.9039-.0626 2.6721-.6886.1336-.1252.2338-.1565.3674 0s.2672.2817.4008.3756c.7683.5947 1.5699 1.0641 2.6388.8138.5678-.1878 1.1357-.3756 1.7035-.5947 1.0021-.4069 1.8037-1.0642 2.5385-1.7841.8351-.8137 1.6033-1.6901 2.071-2.7543.167-.4068.334-.8137.2338-1.2519-.1336-.4695-.4676-.626-.8685-.4069zm-6.981.3443c.3006-.9077.6013-1.8467 1.2025-2.6604.4342-.5634.9353-1.0329 1.6033-1.3146.0668-.0313.167-.0626.2004-.0626.334-.0626.4676 0 .6346.2191.2004.2817.2005.5947.1337.9077-.1003.6573-.4009 1.2206-.8351 1.7214-.668.8138-1.4697 1.4711-2.4383 1.9719-.1337.0626-.3007.1565-.4343.2191-.1336.0625-.2338.0312-.2004-.1252.0334-.2817.0668-.5947.1336-.8764z"/><path d="m77.1527 14.3975c-.1002.0313-.2004.0313-.3006.0626-.7349.2191-1.3027.626-1.5365 1.3771-.2004.626 0 1.0329.668 1.3146.9019.3756 1.7369.2817 2.6054-.0939.3674-.1565.6346-.3756.8016-.6886.3674-.626.2338-1.3145-.4342-1.6901-.5678-.3756-1.1357-.4382-1.8037-.2817z"/><path d="m62.9903 1.75274c-3.0062-.0939-6.0458-.0626-9.0185.09389-9.887.53209-20.0078 2.59781-29.2267 5.97809-.334.1252-.501.50079-.3674.81378.1002.25039.3674.40688.6346.40688.0668 0 .167 0 .2338-.0313 9.0853-3.31768 19.0725-5.35211 28.8259-5.88419 2.9393-.1565 5.9455-.18779 8.9183-.0939.3674.0313.668-.25039.7014-.59468-.0334-.37558-.334-.65727-.7014-.68857z"/><path d="m64.2596 23.9124h2.0375c.3674 0 .668-.2817.668-.626s-.3006-.626-.668-.626c-.668 0-1.3361 0-2.0375 0-.3674 0-.668.2817-.668.626s.3006.626.668.626z"/></g></svg>