<svg width="111" height="40" viewBox="0 0 111 40" fill="none" xmlns="http://www.w3.org/2000/svg">
<path d="M94.8557 11.9249C100.501 11.9249 105.11 9.26447 105.11 5.97809C105.11 2.69171 100.534 0 94.8557 0C89.2108 0 84.6013 2.66041 84.6013 5.94679C84.6013 9.23318 89.2108 11.9249 94.8557 11.9249ZM101.202 3.31768H102.004L103.306 5.6651H102.538L102.304 5.22692H100.935L100.701 5.6651H99.9328L101.202 3.31768ZM96.2252 5.22692L97.9621 3.84977H96.292V3.31768H98.9976V3.75587L97.2941 5.13302H99.0644V5.6651H96.2252V5.22692ZM95.5906 8.5446C95.8244 8.5446 95.9914 8.70109 95.9914 8.88889C95.9914 9.07668 95.8244 9.23318 95.5906 9.23318C95.3567 9.23318 95.1897 9.10798 95.1897 8.88889C95.1897 8.70109 95.3567 8.5446 95.5906 8.5446ZM92.4174 5.22692L94.1543 3.84977H92.4842V3.31768H95.1897V3.75587L93.4862 5.13302H95.2565V5.6651H92.4174V5.22692ZM92.6178 6.76056C93.6198 6.76056 94.2545 7.23005 94.2545 8.01252C94.2545 8.79499 93.6198 9.26447 92.6178 9.26447C91.6157 9.26447 90.9811 8.79499 90.9811 8.01252C90.9811 7.19875 91.6157 6.76056 92.6178 6.76056ZM90.5469 3.31768H91.2817V5.6651H90.5469V3.31768ZM90.0792 7.35524L89.4446 7.66823C89.2776 7.41784 89.0104 7.32394 88.6764 7.32394C88.1753 7.32394 87.8079 7.57433 87.8079 8.01252C87.8079 8.4507 88.1419 8.70109 88.6764 8.70109C89.0104 8.70109 89.2776 8.6072 89.4446 8.35681L90.0792 8.6698C89.8454 9.01408 89.3444 9.29577 88.6764 9.29577C87.7411 9.29577 87.1065 8.82629 87.1065 8.04382C87.1065 7.26135 87.7411 6.79186 88.7098 6.79186C89.3444 6.76056 89.8454 7.01095 90.0792 7.35524ZM86.572 3.31768H88.3089C88.977 3.31768 89.4446 3.59937 89.4446 4.13145C89.4446 4.66354 88.977 4.94523 88.3089 4.94523H87.3069V5.6338H86.572V3.31768Z" fill="#96FF94"/>
<path d="M101.603 3.88107L101.169 4.72614H102.037L101.603 3.88107Z" fill="#96FF94"/>
<path d="M92.6178 8.7011C93.1522 8.7011 93.5196 8.45071 93.5196 8.01252C93.5196 7.57434 93.1856 7.32394 92.6178 7.32394C92.0834 7.32394 91.7159 7.57434 91.7159 8.01252C91.7159 8.45071 92.05 8.7011 92.6178 8.7011Z" fill="#96FF94"/>
<path d="M88.7099 4.13144C88.7099 3.88105 88.5095 3.81845 88.2423 3.81845H87.307V4.44443H88.2423C88.5095 4.44443 88.7099 4.38183 88.7099 4.13144Z" fill="#96FF94"/>
<path d="M109.987 16.025C104.876 18.1534 99.1313 19.7496 92.7181 20.9077C92.4175 20.9703 92.1503 21.1894 92.1503 21.5023C92.1503 21.8779 92.4509 22.1596 92.8183 22.1596C92.8517 22.1596 92.8851 22.1596 92.9519 22.1596C99.4987 21.0016 105.311 19.3427 110.555 17.1831C110.789 17.0892 110.956 16.8701 110.956 16.6197C110.922 16.1502 110.421 15.8372 109.987 16.025Z" fill="#96FF94"/>
<path d="M6.40745 35.5242C4.33653 36.5258 2.39922 37.59 0.3951 38.8419C0.194688 38.9671 0.0944824 39.1549 0.0944824 39.374C0.0944824 39.8748 0.695717 40.1565 1.12994 39.9061C3.10066 38.6854 5.00457 37.6213 7.04208 36.651C7.40951 36.4632 7.50971 36.025 7.2759 35.712C7.07549 35.4303 6.67466 35.3677 6.40745 35.5242Z" fill="#96FF94"/>
<path d="M106.613 5.2269C106.647 5.2269 107.615 5.3208 109.553 5.79028C110.02 5.91548 110.488 5.50859 110.388 5.07041C110.321 4.85131 110.154 4.66352 109.92 4.60092C107.883 4.10014 106.847 4.00624 106.747 4.00624C106.379 3.97494 106.045 4.22533 106.045 4.56962C105.979 4.88261 106.246 5.1956 106.613 5.2269Z" fill="#96FF94"/>
<path d="M1.16334 19.4366C4.06931 17.3083 6.07343 16.7762 6.10683 16.7762C6.47425 16.6823 6.67466 16.338 6.60786 16.0251C6.50765 15.6808 6.17363 15.493 5.80621 15.5556C5.6392 15.5869 3.46808 16.1189 0.361698 18.4351C0.194688 18.5603 0.0944824 18.7481 0.0944824 18.9359V18.9671C0.0944824 19.4679 0.729119 19.7496 1.16334 19.4366Z" fill="#96FF94"/>
<path d="M61.2534 23.2551C61.1866 23.2238 61.0864 23.1612 61.0196 23.1299C60.886 23.0673 60.7858 23.036 60.6522 23.1299C60.552 23.1925 60.4852 23.2551 60.385 23.349C59.8506 23.8811 59.3495 24.3819 58.8485 24.9139C58.3141 25.4773 57.7796 26.0407 57.1116 26.4476C56.811 26.6354 56.477 26.8232 56.1429 26.9484C55.7755 27.1049 55.5751 26.9797 55.4749 26.6354C55.3413 26.1033 55.3079 25.5712 55.4749 25.0391C55.7421 24.0689 56.2765 23.2551 56.9446 22.5039C57.145 22.3161 57.2786 22.0657 57.4456 21.8466C57.646 21.5337 57.8464 21.1894 58.0469 20.8764C58.3475 20.4382 58.6815 20 58.9821 19.5305C59.0823 19.374 59.1825 19.1862 59.1825 18.9984C59.1825 18.7168 59.0823 18.4038 58.9821 18.1221C58.9153 17.8717 58.7149 17.7778 58.4811 17.8091C58.0803 17.8404 57.7128 17.9969 57.4122 18.2473C57.312 18.3412 57.1784 18.4351 57.0782 18.529C56.978 18.4038 56.8778 18.2786 56.7776 18.1534L56.7442 18.1221C56.6106 17.7778 56.31 17.6526 55.9759 17.59C55.7421 17.5274 55.4749 17.4961 55.2077 17.4961C54.5062 17.4961 53.8048 17.59 53.1368 17.8091C52.3351 18.0595 51.5335 18.3725 50.832 18.8107C49.9636 19.3427 49.1953 19.9687 48.5607 20.7825C48.0597 21.4085 47.592 22.0657 47.258 22.7856C46.9908 23.349 46.7236 23.9124 46.423 24.5071C46.089 25.2269 45.7215 25.9155 45.2205 26.5728C44.8865 27.011 44.5191 27.4179 44.0514 27.7621C43.851 27.9186 43.6172 27.9812 43.3834 27.8873C42.8824 27.7308 42.4815 27.0423 42.6152 26.5728C42.8824 25.6025 43.1496 24.6322 43.3834 23.662C43.4502 23.4742 43.5504 23.3177 43.7508 23.2238C44.0514 23.036 44.3855 22.8482 44.6527 22.6291C45.2205 22.1283 45.7883 21.6276 46.3562 21.0955C47.1244 20.3443 47.8593 19.4992 48.4605 18.6229C48.8947 17.9969 49.2621 17.3709 49.663 16.7449C50.3644 15.5869 50.9322 14.3975 51.4333 13.1768C51.9343 12.0188 52.2015 10.7981 52.1013 9.54618C52.0679 9.04539 51.9677 8.54461 51.5669 8.20032C50.6984 7.44915 49.7966 7.04226 48.5273 7.63694C47.8259 7.94993 47.2246 8.41942 46.7236 8.9515C45.6547 10.047 44.8197 11.2989 44.1182 12.6448C43.9512 12.9578 43.7508 13.2707 43.5838 13.5837C43.5838 13.4585 43.5838 13.3333 43.5838 13.2394C43.7174 12.4883 43.6506 11.7371 43.4836 10.9859C43.3166 10.2974 42.9826 9.76527 42.2477 9.45228C41.3125 9.0141 40.444 9.0141 39.5756 9.51488C39.1414 9.76527 38.7405 10.1096 38.4065 10.4538C37.7719 11.0485 37.3042 11.7684 36.9034 12.4883C36.3022 13.5211 35.8346 14.5853 35.4671 15.6808C35.0329 16.964 34.7657 18.3099 34.5987 19.6244C34.2647 21.9718 34.0643 24.3506 34.0643 26.7293C34.0643 26.8858 34.0309 27.011 33.8972 27.1362C33.63 27.4492 33.3962 27.7308 33.1624 28.0751C32.6948 28.7637 32.2606 29.5149 31.7929 30.2035C31.3253 30.8607 30.7241 31.3615 29.9558 31.7058C29.1542 32.0501 28.5195 31.9249 27.9183 31.2363C27.6177 30.9233 27.6511 30.7981 28.0853 30.6729C28.7199 30.4851 29.2878 30.1722 29.7888 29.7653C30.6239 29.0767 31.3253 28.2942 31.8931 27.3866C32.4276 26.5728 32.6948 25.6651 32.7616 24.7261C32.795 23.975 32.7616 23.2238 32.2606 22.5978C31.5591 21.6589 30.6573 21.2207 29.388 21.7528C28.2523 22.2222 27.2503 22.8482 26.3484 23.6307C25.7472 24.1628 25.2795 24.7574 25.0123 25.5086C24.8453 25.9468 24.7117 26.4163 24.6115 26.8545C24.3777 27.9186 24.4111 28.9828 24.8119 30.0157C25.0457 30.6416 25.0457 30.6416 24.4445 30.9546C23.9769 31.205 23.4758 31.2989 22.9414 31.3928C22.6074 31.4241 22.5406 31.3302 22.6408 31.0485C22.9414 30.2035 23.2754 29.3584 23.5761 28.5133C24.1105 27.1049 24.6115 25.6651 25.1125 24.2254C25.814 22.2535 26.482 20.2817 27.2169 18.3412C27.7847 16.7762 28.3525 15.2113 29.1208 13.6776C29.5216 12.8952 29.8222 12.0501 30.1896 11.2363C30.39 10.7668 30.3232 10.4225 29.889 10.1409C29.5884 9.95306 29.221 9.82787 28.887 9.70267C28.7534 9.64007 28.6531 9.67137 28.5863 9.79657C28.3859 10.047 28.1855 10.2974 28.0519 10.579C27.8849 10.9546 27.7847 11.3615 27.6177 11.7371C26.8828 13.6463 26.148 15.5556 25.4132 17.4335C24.0103 21.1581 22.6074 24.9139 21.2379 28.6385C21.2045 28.7637 21.1377 28.8576 21.0709 28.9828C21.0041 28.8576 20.9373 28.7637 20.9039 28.6385C20.5365 27.6682 19.9352 26.8232 18.9666 26.2911C18.4322 26.0094 17.8643 25.8842 17.2631 25.9781C16.9291 26.0407 16.595 26.1033 16.2276 26.1659C15.8268 26.2285 15.76 26.1972 15.8936 25.8529C16.1274 25.1643 16.3946 24.4758 16.6618 23.7559C17.1295 22.4726 17.5971 21.1894 18.0313 19.9061C18.5324 18.529 19 17.1518 19.501 15.7434C19.9352 14.5853 20.3695 13.4272 20.7035 12.2379C20.7703 11.9562 20.9373 11.6745 21.1043 11.3928C21.2379 11.1424 21.4383 10.9233 21.6053 10.6729C21.8726 10.2661 22.0062 9.82787 21.8726 9.35838C21.7389 8.9515 21.5051 8.57591 21.0041 8.48201C20.5365 8.35682 20.1022 8.45072 19.8016 8.8263C19.668 8.9828 19.501 9.10799 19.4008 9.26449C18.666 10.2348 17.9645 11.2363 17.2631 12.2379C17.1963 12.3318 17.1629 12.3944 17.0961 12.457C16.428 13.1143 15.7266 13.7715 15.0252 14.4288C14.5909 14.8357 14.0899 15.2113 13.5221 15.493C12.8874 15.8373 12.2194 15.8999 11.5514 15.5869C11.1171 15.3991 11.0169 15.2426 11.0503 14.8044C11.1171 13.8967 11.3843 13.0517 12.0858 12.4257C12.5534 12.0188 12.52 11.5806 12.4198 11.0798C12.353 10.7981 12.186 10.6103 11.9188 10.4851C11.6516 10.3599 11.3509 10.3599 11.0503 10.4851C10.6161 10.6416 10.3155 10.9546 10.1151 11.3615C9.94806 11.7058 9.74765 12.0501 9.58064 12.3944C9.38023 12.8013 9.11301 13.1456 9.01281 13.615C8.8792 14.3975 8.946 15.2113 9.01281 15.9938C9.04621 16.2128 9.07961 16.4319 9.17982 16.6197C9.44703 17.1831 9.88126 17.59 10.4825 17.8404C11.0837 18.0908 11.685 18.2473 12.353 18.1847C13.1546 18.0908 13.8561 17.8404 14.5241 17.4022C15.259 16.9014 15.9604 16.338 16.7621 15.9312C16.8957 15.8686 17.0293 15.7121 17.1295 15.5869C17.1629 15.5556 17.1963 15.5243 17.1963 15.493C17.1963 15.5243 17.2297 15.5869 17.1963 15.6182C17.0961 15.9938 17.0293 16.3693 16.9291 16.7449C16.3946 18.3412 15.8268 19.9374 15.259 21.5024C14.5575 23.4116 13.7559 25.2582 13.2214 27.2301C13.188 27.3553 13.0878 27.4804 12.9542 27.5743C12.7204 27.7308 12.4532 27.8873 12.2194 28.0438C11.3175 28.6072 10.4825 29.2645 9.78105 30.0157C9.44703 30.3599 9.14641 30.7668 8.9794 31.2363C8.8792 31.518 8.8458 31.7997 8.946 32.0814C9.11301 32.6135 9.51383 32.8639 10.0817 32.7387C10.3823 32.6761 10.6495 32.5822 10.9167 32.457C11.1505 32.3631 11.3509 32.2379 11.5514 32.144V32.1127V32.144C11.5514 32.1753 11.5514 32.2066 11.5514 32.2379C11.1505 33.3959 10.7497 34.5853 10.3489 35.7434C10.2821 35.8999 10.2487 36.0876 10.2821 36.2441C10.3823 36.5571 10.5493 36.8701 10.7163 37.1518C10.9501 37.4961 11.3509 37.5587 11.7184 37.3396C12.186 37.0892 12.4198 36.6823 12.52 36.1815C12.7204 35.1487 12.9208 34.0845 13.3551 33.1143C13.6223 32.5196 13.8561 31.8936 14.1567 31.3302C14.4239 30.7981 14.6911 30.2973 14.9918 29.7966C15.4928 29.0454 16.261 28.5759 17.1963 28.3881C17.8309 28.2629 17.9645 28.3255 18.3319 28.8263C18.7996 29.4836 19.0334 30.2035 19.0668 30.9859C19.1002 32.2692 18.833 33.5211 18.7662 34.8044C18.7328 35.2113 18.499 35.5869 18.3653 35.9938C18.3319 36.1189 18.2651 36.2441 18.2985 36.338C18.4322 36.7449 18.6326 37.1518 19 37.4335C19.1336 37.5274 19.334 37.6213 19.4676 37.59C19.9018 37.4961 20.3695 37.4022 20.6033 36.964C20.8037 36.6197 21.0041 36.2441 21.1377 35.8373C21.3047 35.4304 21.3715 34.9922 21.5051 34.554C21.6387 34.1158 21.8391 33.7715 22.3736 33.6776C22.741 33.615 23.1084 33.4898 23.4758 33.3646C24.2441 33.083 24.9789 32.77 25.7472 32.457C25.9476 32.3631 26.0812 32.3944 26.2482 32.5196C26.6156 32.77 26.983 33.0517 27.4173 33.2394C28.3191 33.615 29.2544 33.8967 30.2564 33.5211C31.1583 33.1768 32.0601 32.77 32.7282 32.0814C33.129 31.6745 33.463 31.2363 33.8304 30.7981C33.9975 30.6103 34.1311 30.3599 34.2647 30.1722C34.4317 29.9531 34.4651 29.9531 34.6321 30.1722C34.6655 30.2348 34.7323 30.2661 34.7657 30.3599C34.8993 30.6103 35.0997 30.7668 35.3669 30.892C35.5673 31.0172 35.8012 31.1111 36.0016 31.205C37.1038 31.6432 38.1393 31.5806 39.0745 30.8294C39.609 30.4225 40.0098 29.9218 40.444 29.421C40.5442 29.2958 40.611 29.1706 40.7112 29.0454C40.8115 29.1706 40.9117 29.2958 41.0119 29.421C41.6131 30.047 42.3479 30.3912 43.2164 30.4538C43.4502 30.4851 43.7508 30.4538 43.9846 30.3599C44.3855 30.2035 44.7529 30.0157 45.0869 29.7966C45.6881 29.3897 46.1892 28.8576 46.6568 28.3255C46.7904 28.169 46.8238 28.169 46.9574 28.3568C47.091 28.5759 47.2246 28.795 47.3916 28.9828C47.6923 29.3271 48.0931 29.5775 48.5941 29.5775C49.1619 29.5775 49.6964 29.4836 50.1974 29.2332C50.7318 28.9515 51.1995 28.5446 51.6337 28.1377C52.0011 27.7621 52.3017 27.3553 52.7693 27.0736C52.8695 27.011 52.903 26.8858 52.9698 26.8232C53.07 26.698 53.1368 26.5728 53.237 26.4476C53.2704 26.4163 53.3372 26.385 53.3706 26.385C53.3706 26.4163 53.404 26.4789 53.404 26.5102C53.404 26.6354 53.404 26.7606 53.3706 26.8545C53.3038 27.6995 53.6712 28.4194 54.2056 29.0767C54.4394 29.3584 54.7735 29.5462 55.1743 29.5149C55.4749 29.4836 55.7755 29.421 56.0427 29.3271C57.1116 28.9202 58.0135 28.3255 58.8151 27.6056C59.6501 26.8545 60.4184 26.0407 60.9528 25.0704C61.1866 24.6635 61.387 24.2254 61.387 23.7246C61.4538 23.4429 61.4539 23.3177 61.2534 23.2551ZM43.9512 20.0626C44.1516 19.1862 44.3187 18.2786 44.6527 17.4022C45.3541 15.6182 46.089 13.8654 47.0242 12.1753C47.3916 11.5493 47.8593 10.9546 48.2935 10.3599C48.4605 10.1409 48.6943 9.95306 48.9949 9.89047C49.4291 9.79657 49.7298 10.0157 49.7298 10.4538C49.7632 11.0798 49.5294 11.6745 49.2955 12.2379C48.6943 13.6776 47.9929 15.0235 47.1578 16.3693C46.6234 17.2457 46.0222 18.0595 45.3541 18.842C44.9533 19.3114 44.5191 19.7496 43.9512 20.0626ZM43.5504 13.6463C43.5504 13.5837 43.5838 13.5524 43.5838 13.4898C43.5838 13.5524 43.5504 13.615 43.5504 13.6463ZM27.0165 28.6698C27.0165 28.6072 26.983 28.5759 26.983 28.5133C26.8828 27.4492 26.9496 26.4163 27.5175 25.4773C27.8515 24.9139 28.2857 24.4132 28.8202 24.0376C28.9538 23.9437 29.1208 23.8498 29.2878 23.7872C29.6886 23.6307 30.0226 23.7872 30.1562 24.1628C30.4234 24.8513 30.2898 25.5086 29.9558 26.1346C29.388 27.2301 28.5195 28.0751 27.4841 28.795C27.1501 29.0767 27.1167 29.0767 27.0165 28.6698ZM36.9034 20.1252C37.037 19.1862 37.2708 18.2473 37.5715 17.3396C37.7719 16.7762 37.9055 16.2128 38.0725 15.6808C38.3063 14.9609 38.5735 14.2723 38.8741 13.5837C39.108 13.083 39.3752 12.6135 39.6758 12.144C39.776 11.9562 39.9764 11.7997 40.1434 11.6745C40.6444 11.3615 41.0787 11.5493 41.1789 12.0814C41.2791 12.5509 41.1789 13.0204 41.0453 13.4585C40.5776 15.2739 39.8762 16.9953 38.9409 18.6229C38.6403 19.1549 38.3397 19.687 37.9723 20.1878C37.6383 20.626 37.2374 21.0016 36.87 21.4398C36.8366 21.4711 36.7698 21.5024 36.703 21.5024C36.703 21.4398 36.703 21.3772 36.703 21.3459C36.8032 20.9703 36.8366 20.5321 36.9034 20.1252ZM42.0139 18.0908C41.9137 18.529 41.8135 18.9671 41.7133 19.4053C41.4127 20.9077 41.0787 22.41 40.7781 23.9124C40.7446 24.0689 40.6778 24.2567 40.5776 24.3819C40.1434 24.9765 39.8428 25.6338 39.609 26.3224C39.3752 27.011 39.0411 27.6369 38.5401 28.169C38.3397 28.3881 38.1727 28.6072 37.9723 28.795C37.6717 29.0454 37.4045 29.0767 37.0704 28.8889C36.536 28.6385 36.3022 28.1064 36.369 27.5743C36.5026 26.7606 36.6028 25.9468 36.703 25.133C36.7364 24.8513 36.8366 24.6322 37.1038 24.4758C38.1059 23.7872 38.9075 22.9108 39.6424 21.9718C39.943 21.5963 40.2102 21.2207 40.4774 20.8451C41.0453 20.0626 41.4795 19.2175 41.8803 18.3725C41.8803 18.2786 41.9471 18.1847 42.0139 18.0908ZM55.1075 21.1581C54.8069 21.565 54.5062 21.9405 54.2056 22.3474C53.8048 22.8795 53.3706 23.3803 52.9364 23.8811C52.2683 24.6323 51.6337 25.3521 50.9322 26.072C50.5982 26.4163 50.1974 26.7606 49.7966 27.0423C49.2955 27.3553 48.7945 27.1362 48.6275 26.5728C48.6275 26.5415 48.5941 26.4789 48.5941 26.4789C48.4605 25.9155 48.5607 25.446 48.7277 24.9452C48.9615 24.2567 49.2621 23.6307 49.6964 23.036C50.0638 22.5039 50.4312 22.0031 50.832 21.5024C51.4333 20.7199 52.2683 20.2504 53.2036 19.8748C53.6378 19.687 54.072 19.5305 54.5731 19.5305C55.0741 19.5305 55.3747 19.7809 55.4081 20.2191C55.4081 20.5008 55.3079 20.8451 55.1075 21.1581Z" fill="#96FF94"/>
<path d="M74.18 13.1143C74.3136 12.3631 74.4472 11.5806 74.5808 10.8294C74.6142 10.579 74.6476 10.579 74.8814 10.6729C75.1486 10.7981 75.4158 10.9546 75.7165 11.0485C76.8855 11.4241 78.0212 11.2363 79.1235 10.7981C80.1923 10.36 81.0942 9.73397 81.829 8.8889C82.4971 8.10643 82.8979 7.26136 83.0649 6.2911C83.1985 5.47732 83.0649 4.69485 82.7643 3.91238C82.33 2.75432 81.5618 1.84665 80.4595 1.18937C79.6245 0.688592 78.6892 0.375603 77.6872 0.219109C76.0839 -0.0312826 74.4806 -0.0312826 72.8439 0.313005C72.2093 0.4695 71.5412 0.594695 70.9066 0.813788C69.2365 1.40847 67.7334 2.31614 66.5309 3.53679C65.6625 4.41316 64.9276 5.38343 64.4934 6.54149C64.1928 7.35526 64.0926 8.20033 64.1928 9.0767C64.293 9.92177 64.794 10.5477 65.3619 11.1424C65.8295 11.6745 66.3973 12.0501 67.1322 12.2066C68.0674 12.4257 68.9693 12.3631 69.8711 12.1127C70.4724 11.9562 70.8398 11.518 70.773 10.9859C70.7396 10.7668 70.6394 10.5477 70.5726 10.3287C70.4056 9.92177 70.1383 9.79657 69.6707 9.82787C69.2365 9.85917 68.8357 9.92177 68.4014 9.89047C67.5998 9.85917 66.9986 9.57748 66.7981 8.60721C66.6645 7.85604 66.8649 7.16746 67.2658 6.51019C67.8002 5.63382 68.6018 5.00784 69.4703 4.41316C70.6728 3.63069 71.9754 3.09861 73.3115 2.62912C73.6121 2.53523 73.9128 2.44133 74.18 2.37873C74.2468 2.37873 74.3136 2.37873 74.347 2.37873C74.3136 2.44133 74.3136 2.47263 74.2802 2.53523C74.2468 2.56653 74.2134 2.62912 74.2134 2.66042C73.7123 3.349 73.3783 4.13147 73.1111 4.91394C72.7437 6.0407 72.5099 7.19876 72.3095 8.35682C72.0756 9.64008 71.8418 10.9546 71.5746 12.2379C71.274 13.7715 70.9066 15.3052 70.5726 16.8388C70.2385 18.2786 69.9379 19.687 69.5705 21.0955C69.3701 21.8467 69.1363 22.5665 68.9025 23.3177C68.6018 24.288 68.2678 25.2582 67.7668 26.1659C67.5998 26.4476 67.3994 26.7293 67.1656 27.011C66.7981 27.3866 66.4975 27.4179 66.0299 27.1362C65.8295 27.011 65.6291 26.8858 65.4621 26.7919C64.8274 26.4163 64.3264 26.4789 63.8254 27.011C63.4579 27.4179 63.4245 27.6056 63.7586 28.0438C64.126 28.5133 64.5936 28.8576 65.0946 29.2332C65.8629 29.7653 66.6979 29.7653 67.533 29.4836C68.8023 29.0767 69.7041 28.2316 70.4056 27.2301C70.8398 26.6041 71.107 25.9155 71.274 25.1956C71.5746 24.0376 71.8752 22.8482 72.1425 21.6902C72.3095 21.0329 72.4431 20.4069 72.6101 19.7496C72.8439 18.7168 73.1111 17.6526 73.3115 16.6197C73.7457 15.4617 73.9462 14.3036 74.18 13.1143ZM74.9482 8.35682C75.0484 7.73084 75.182 7.10487 75.349 6.47889C75.6163 5.53992 76.0505 4.63225 76.6517 3.84978C76.8855 3.53679 77.1527 3.2864 77.42 3.00471C77.4868 2.94211 77.6204 2.84822 77.7206 2.84822C78.3886 2.84822 79.0233 2.94211 79.5577 3.3177C80.1255 3.72459 80.3593 4.31926 80.3927 4.94524C80.4929 6.38499 79.8583 7.54305 78.589 8.38812C78.255 8.60721 77.8876 8.73241 77.6204 8.8576C76.7519 8.9202 75.9837 8.9515 75.2154 8.79501C74.9148 8.70111 74.8814 8.66981 74.9482 8.35682Z" fill="#96FF94"/>
<path d="M89.3778 19.7183C89.2108 19.8122 89.0438 19.9374 88.9102 20.0939C88.476 20.5321 88.0752 21.0016 87.6743 21.471C87.0731 22.2222 86.4719 22.9734 85.6702 23.5681C85.069 24.0375 84.3675 24.3818 83.5659 24.507C83.2319 24.5696 82.9313 24.507 82.7308 24.2566C82.5304 24.0375 82.3634 23.8185 82.2632 23.5681C82.1296 23.3177 82.163 23.0673 82.5972 23.0047C83.1651 22.9108 83.6995 22.723 84.2005 22.4413C85.2026 21.9092 86.0376 21.1893 86.7725 20.4069C87.8747 19.2175 88.5094 17.8404 88.4426 16.2441C88.4092 15.4616 88.1754 14.7105 87.5741 14.1471C87.2067 13.7715 86.7391 13.6463 86.2046 13.7402C85.1024 13.9593 84.1337 14.4601 83.2319 15.0548C82.5304 15.4929 81.996 16.0876 81.5618 16.7762C81.0607 17.6213 80.6265 18.4663 80.3259 19.4053C79.9919 20.4695 79.8917 21.5649 79.9251 22.6604C79.9251 22.7856 79.9251 22.9108 79.8917 23.0047C79.7247 23.4742 79.3906 23.8185 78.9898 24.1001C78.5222 24.4131 77.921 24.194 77.7874 23.6307C77.6204 22.9108 77.5535 22.1909 77.6872 21.4397C77.8208 20.7825 77.9544 20.1252 78.088 19.4679C78.1548 19.0923 78.0546 18.7167 77.7874 18.435C77.4199 18.0282 76.8521 17.9969 76.4847 18.4037C76.1173 18.7793 75.8834 19.2175 75.8166 19.7183C75.7164 20.2817 75.683 20.8764 75.6162 21.4397C75.5828 21.6275 75.5828 21.8153 75.516 22.0031C75.3824 22.3787 75.2154 22.723 75.0818 23.0986C74.7812 23.8811 74.4806 24.6322 73.7457 25.1643C73.5787 25.2895 73.4117 25.4773 73.3115 25.6651C73.2447 25.7903 73.2113 25.9781 73.2113 26.1346C73.1779 26.5415 73.8459 26.8544 74.2468 26.8231C74.5474 26.7918 74.8146 26.6667 75.0484 26.5102C75.516 26.1972 75.8166 25.759 76.0839 25.3208C76.2509 25.0391 76.2509 25.0391 76.4513 25.2895C76.7519 25.6651 77.1193 25.9468 77.6204 26.0094C78.589 26.072 79.5243 25.9468 80.2925 25.3208C80.4261 25.1956 80.5263 25.1643 80.6599 25.3208C80.7935 25.4773 80.9271 25.6025 81.0607 25.6964C81.829 26.2911 82.6306 26.7605 83.6995 26.5102C84.2673 26.3224 84.8352 26.1346 85.403 25.9155C86.4051 25.5086 87.2067 24.8513 87.9415 24.1314C88.7766 23.3177 89.5448 22.4413 90.0125 21.3771C90.1795 20.9703 90.3465 20.5634 90.2463 20.1252C90.1127 19.6557 89.7787 19.4992 89.3778 19.7183ZM82.3968 20.0626C82.6974 19.1549 82.9981 18.2159 83.5993 17.4022C84.0335 16.8388 84.5346 16.3693 85.2026 16.0876C85.2694 16.0563 85.3696 16.025 85.403 16.025C85.737 15.9624 85.8706 16.025 86.0376 16.2441C86.238 16.5258 86.2381 16.8388 86.1713 17.1518C86.071 17.8091 85.7704 18.3724 85.3362 18.8732C84.6682 19.687 83.8665 20.3443 82.8979 20.8451C82.7642 20.9077 82.5972 21.0016 82.4636 21.0642C82.33 21.1267 82.2298 21.0954 82.2632 20.939C82.2966 20.6573 82.33 20.3443 82.3968 20.0626Z" fill="#96FF94"/>
<path d="M77.1527 14.3975C77.0525 14.4288 76.9523 14.4288 76.8521 14.4601C76.1172 14.6792 75.5494 15.0861 75.3156 15.8372C75.1152 16.4632 75.3156 16.8701 75.9836 17.1518C76.8855 17.5274 77.7205 17.4335 78.589 17.0579C78.9564 16.9014 79.2236 16.6823 79.3906 16.3693C79.758 15.7433 79.6244 15.0548 78.9564 14.6792C78.3886 14.3036 77.8207 14.241 77.1527 14.3975Z" fill="#96FF94"/>
<path d="M62.9903 1.75274C59.9841 1.65884 56.9445 1.69014 53.9718 1.84663C44.0848 2.37872 33.964 4.44444 24.7451 7.82472C24.4111 7.94992 24.2441 8.32551 24.3777 8.6385C24.4779 8.88889 24.7451 9.04538 25.0123 9.04538C25.0791 9.04538 25.1793 9.04538 25.2461 9.01408C34.3314 5.6964 44.3186 3.66197 54.072 3.12989C57.0113 2.97339 60.0175 2.9421 62.9903 3.03599C63.3577 3.06729 63.6583 2.7856 63.6917 2.44131C63.6583 2.06573 63.3577 1.78404 62.9903 1.75274Z" fill="#96FF94"/>
<path d="M64.2596 23.9124C64.9276 23.9124 65.6291 23.9124 66.2971 23.9124C66.6645 23.9124 66.9651 23.6307 66.9651 23.2864C66.9651 22.9421 66.6645 22.6604 66.2971 22.6604C65.6291 22.6604 64.961 22.6604 64.2596 22.6604C63.8922 22.6604 63.5916 22.9421 63.5916 23.2864C63.5916 23.6307 63.8922 23.9124 64.2596 23.9124Z" fill="#96FF94"/>
</svg>
