<svg fill="none" height="213" viewBox="0 0 1203 213" width="1203" xmlns="http://www.w3.org/2000/svg"><g fill="#96ff94"><path d="m22.2223 94.1187h32.5405l13.728-64.9534h.2542l5.3387 64.9534h27.2013l32.795-64.9534h.254l-13.728 64.9534h32.541l19.321-90.93471h-50.463l-26.0582 52.85421h-.2543l-3.6862-52.85421h-50.4631z"/><path d="m248.73 61.5147h-21.609l17.288-30.821h.254zm-78.3 32.604h38.133l5.974-10.4435h37.371l1.653 10.4435h38.133l-19.321-90.93471h-43.98z"/><path d="m377.074 61.642c4.703.7642 5.72 3.4387 5.211 6.1133-.889 4.3302-4.576 7.3869-15.761 7.3869-5.593 0-9.407-.6368-11.822-1.9104-2.288-1.401-2.923-3.4387-2.415-6.4954h-43.218c-5.592 26.7455 23.77 30.5663 51.353 30.5663 40.295 0 60.505-10.4435 65.208-32.604 3.305-15.4105-6.101-23.8163-23.642-26.4908l-41.439-6.368c-3.432-.5094-4.194-2.1651-3.686-4.7123.763-3.8208 5.085-6.4953 15.762-6.4953 3.94 0 7.881.5094 10.677 1.9103 3.051 1.2736 4.831 3.5661 3.941 7.2595h41.692c2.797-19.2313-11.567-29.8021-51.988-29.8021-29.49 0-53.895 6.36798-58.853 29.9295-2.669 12.736 2.415 22.9247 19.321 25.5993z"/><path d="m448.754 48.6514c-10.042 47.123 29.998 48.6513 51.734 48.6513s62.284-1.5283 72.326-48.6513c10.042-47.12309-29.998-48.6514-51.734-48.6514s-62.285 1.52831-72.326 48.6514zm38.133 0c3.94-18.4672 14.745-25.7267 29.363-25.7267 14.617 0 22.371 7.2595 18.431 25.7267-3.941 18.4671-14.745 25.7266-29.363 25.7266s-22.372-7.2595-18.431-25.7266z"/><path d="m588.587 94.1187h34.32l10.804-50.9438h.254l27.329 50.9438h39.278l19.321-90.93471h-34.32l-10.678 50.43441h-.381l-25.677-50.43441h-40.929z"/><path d="m798.899 61.642c4.703.7642 5.72 3.4387 5.212 6.1133-.89 4.3302-4.576 7.3869-15.762 7.3869-5.593 0-9.406-.6368-11.821-1.9104-2.288-1.401-2.924-3.4387-2.416-6.4954h-43.217c-5.593 26.7455 23.769 30.5663 51.353 30.5663 40.294 0 60.504-10.4435 65.208-32.604 3.304-15.4105-6.102-23.8163-23.643-26.4908l-41.438-6.368c-3.432-.5094-4.195-2.1651-3.687-4.7123.763-3.8208 5.085-6.4953 15.762-6.4953 3.941 0 7.881.5094 10.678 1.9103 3.05 1.2736 4.83 3.5661 3.94 7.2595h41.692c2.797-19.2313-11.567-29.8021-51.988-29.8021-29.49 0-53.895 6.36798-58.853 29.9295-2.669 12.736 2.416 22.9247 19.321 25.5993z"/><path d="m935.177 48.6514c-10.042 47.123 29.998 48.6513 51.734 48.6513 21.739 0 62.289-1.5283 72.329-48.6513 10.04-47.12309-30-48.6514-51.74-48.6514-21.733 0-62.281 1.52831-72.323 48.6514zm38.133 0c3.941-18.4672 14.745-25.7267 29.36-25.7267 14.62 0 22.37 7.2595 18.43 25.7267-3.94 18.4671-14.74 25.7266-29.358 25.7266s-22.372-7.2595-18.432-25.7266z"/><path d="m1075.01 94.1187h35.85l6.99-32.7314h51.6l4.71-22.1606h-51.61l2.92-13.8821h56.06l4.7-22.16061h-91.9z"/><path d="m0 211.112h21.2571l4.1459-19.411h30.6042l2.7891-13.141h-30.6042l1.7337-8.233h33.2425l2.7891-13.142h-54.4997z"/><path d="m70.3971 184.149c-5.955 27.945 17.7897 28.851 30.6799 28.851 12.89 0 36.936-.906 42.891-28.851s-17.79-28.852-30.68-28.852-36.9359.907-42.8909 28.852zm22.614 0c2.3368-10.952 8.7439-15.257 17.4129-15.257s13.267 4.305 10.93 15.257c-2.337 10.951-8.744 15.256-17.413 15.256-8.6685 0-13.2667-4.305-10.9299-15.256z"/><path d="m153.321 211.112h21.258l3.542-16.616h15.076c3.92 0 4.749 2.417 4.146 6.42-.98 6.268-1.507 8.61-1.055 10.196h23.217c-.98-1.662-1.583-3.928-1.282-6.344l1.583-11.783c.604-4.682-1.356-7.401-4.372-8.308l.076-.151c6.558-1.812 9.799-7.25 10.855-12.311 1.281-5.891-.905-11.102-4.523-13.066-2.639-1.435-6.181-1.964-12.287-1.964h-44.776zm29.851-40.332h14.774c3.543 0 5.955.982 5.051 5.061-.679 3.398-2.789 5.06-6.935 5.06h-15.076z"/><path d="m233.368 211.112h19.298l8.141-38.519h.15l3.166 38.519h16.132l19.448-38.519h.15l-8.141 38.519h19.298l11.457-53.927h-29.925l-15.453 31.344h-.151l-2.186-31.344h-29.926z"/><path d="m406.001 191.777h-12.814l10.251-18.278h.151zm-46.434 19.335h22.614l3.543-6.193h22.162l.98 6.193h22.614l-11.458-53.927h-26.082z"/><path d="m441.708 211.112h20.353l6.407-30.211h.151l16.207 30.211h23.292l11.458-53.927h-20.353l-6.332 29.909h-.226l-15.227-29.909h-24.272z"/><path d="m555.875 170.78h12.212c9.724 0 12.588 4.834 10.779 13.369-1.809 8.534-6.784 13.368-16.508 13.368h-12.212zm-29.85 40.332h41.836c17.865 0 29.172-8.006 33.167-26.963 4.221-19.864-3.92-26.964-22.162-26.964h-41.384z"/><path d="m662.821 211.112h21.257l8.593-40.332h19.674l2.865-13.595h-60.606l-2.864 13.595h19.674z"/><path d="m761.335 211.112h21.257l11.458-53.927h-21.258l-3.995 18.807h-23.895l3.995-18.807h-21.257l-11.458 53.927h21.257l4.598-21.525h23.896z"/><path d="m803.363 184.149c-5.955 27.945 17.79 28.851 30.68 28.851s36.936-.906 42.891-28.851-17.79-28.852-30.68-28.852-36.936.907-42.891 28.852zm22.614 0c2.337-10.952 8.744-15.257 17.413-15.257 8.668 0 13.267 4.305 10.93 15.257-2.337 10.951-8.744 15.256-17.413 15.256s-13.267-4.305-10.93-15.256z"/><path d="m889.529 190.644c-3.694 17.145 5.578 22.356 27.438 22.356s33.243-5.211 36.936-22.356l7.086-33.459h-21.257l-6.935 32.628c-1.508 6.949-5.955 9.139-12.89 9.139s-10.478-2.19-8.97-9.139l6.935-32.628h-21.257z"/><path d="m1008.55 192.608h8.74c-2.34 4.078-6.41 6.797-13.34 6.797-10.554 0-14.7-5.287-12.59-15.256 2.337-10.952 8.74-15.257 17.41-15.257 2.79 0 5.13.302 6.94 1.284 1.73.982 3.01 2.719 3.01 5.514h23.97c1.29-13.897-8.59-20.393-32.26-20.393-16.28 0-36.256 5.438-41.307 29.078-5.276 24.924 14.247 28.625 29.172 28.625 12.215 0 19.525-1.888 26.085-6.797l1.35 4.909h9.12l6.56-30.74h-30.22z"/><path d="m1097.28 211.112h21.25l11.46-53.927h-21.26l-3.99 18.807h-23.9l4-18.807h-21.26l-11.46 53.927h21.26l4.6-21.525h23.89z"/><path d="m1150.61 211.112h21.26l8.59-40.332h19.68l2.86-13.595h-60.61l-2.86 13.595h19.67z"/></g></svg>