<svg width="1201" height="367" viewBox="0 0 1201 367" stroke-width="none" fill="none" xmlns="http://www.w3.org/2000/svg">
<g style="mix-blend-mode:overlay" filter="url(#filter0_b)">
<path d="M61.2872 36.4084H48.4839L58.7266 18.1665H58.8772L61.2872 36.4084ZM14.8941 55.7056H37.4882L41.0279 49.5244H63.1701L64.1492 55.7056H86.7432L75.2956 1.88449H49.2371L14.8941 55.7056Z" fill="#96FF94"/>
<path d="M135.238 55.7056H156.476L160.016 39.122H175.078C178.995 39.122 179.823 41.5342 179.221 45.5293C178.242 51.7858 177.714 54.1226 178.166 55.7056H201.363C200.384 54.0472 199.781 51.7858 200.083 49.3737L201.664 37.6145C202.267 32.9409 200.308 30.2272 197.296 29.3227L197.371 29.1719C203.924 27.3628 207.162 21.9355 208.216 16.885C209.497 11.0054 207.313 5.80423 203.698 3.84436C201.062 2.41215 197.522 1.88449 191.421 1.88449H146.685L135.238 55.7056ZM165.062 15.4528H179.823C183.363 15.4528 185.773 16.4328 184.869 20.5033C184.191 23.8954 182.083 25.5537 177.94 25.5537H162.878L165.062 15.4528Z" fill="#96FF94"/>
<path d="M218.076 28.795C212.126 56.6855 235.85 57.5901 248.729 57.5901C261.607 57.5901 285.632 56.6855 291.582 28.795C297.532 0.904553 273.808 0 260.929 0C248.051 0 224.026 0.904553 218.076 28.795ZM240.67 28.795C243.005 17.865 249.406 13.5683 258.068 13.5683C266.729 13.5683 271.323 17.865 268.988 28.795C266.653 39.7251 260.252 44.0217 251.591 44.0217C242.929 44.0217 238.335 39.7251 240.67 28.795Z" fill="#96FF94"/>
<path d="M343.103 37.2376H351.839C349.505 41.3081 345.438 44.0217 338.509 44.0217C327.965 44.0217 323.823 38.7451 325.932 28.795C328.266 17.865 334.668 13.5683 343.329 13.5683C346.116 13.5683 348.45 13.8699 350.258 14.8498C351.99 15.8297 353.27 17.5635 353.27 20.3525H377.22C378.5 6.48265 368.634 0 344.986 0C328.718 0 308.76 5.42733 303.714 29.0212C298.442 53.8965 317.948 57.5901 332.86 57.5901C345.061 57.5901 352.367 55.7056 358.919 50.8059L360.275 55.7056H369.387L375.94 25.026H345.739L343.103 37.2376Z" fill="#96FF94"/>
<path d="M389.879 35.2777C386.189 52.3889 395.452 57.5901 417.293 57.5901C439.134 57.5901 450.507 52.3889 454.197 35.2777L461.276 1.88449H440.038L433.109 34.4485C431.603 41.3834 427.159 43.5694 420.231 43.5694C413.302 43.5694 409.762 41.3834 411.268 34.4485L418.197 1.88449H396.959L389.879 35.2777Z" fill="#96FF94"/>
<path d="M466.617 55.7056H523.78L526.567 42.5895H490.642L492.149 35.3531H525.513L528.299 22.237H494.935L496.517 15.0006H532.441L535.228 1.88449H478.065L466.617 55.7056Z" fill="#96FF94"/>
<path d="M618.733 37.2376H627.469C625.135 41.3081 621.068 44.0217 614.139 44.0217C603.595 44.0217 599.453 38.7451 601.562 28.795C603.896 17.865 610.298 13.5683 618.959 13.5683C621.746 13.5683 624.08 13.8699 625.888 14.8498C627.62 15.8297 628.9 17.5635 628.9 20.3525H652.85C654.13 6.48265 644.264 0 620.616 0C604.348 0 584.39 5.42733 579.344 29.0212C574.072 53.8965 593.578 57.5901 608.49 57.5901C620.691 57.5901 627.997 55.7056 634.549 50.8059L635.905 55.7056H645.018L651.57 25.026H621.369L618.733 37.2376Z" fill="#96FF94"/>
<path d="M662.271 55.7056H683.509L687.049 39.122H702.112C706.028 39.122 706.856 41.5342 706.254 45.5293C705.275 51.7858 704.748 54.1226 705.2 55.7056H728.396C727.417 54.0472 726.815 51.7858 727.116 49.3737L728.697 37.6145C729.3 32.9409 727.342 30.2272 724.329 29.3227L724.405 29.1719C730.957 27.3628 734.195 21.9355 735.25 16.885C736.53 11.0054 734.346 5.80423 730.731 3.84436C728.095 2.41215 724.555 1.88449 718.455 1.88449H673.718L662.271 55.7056ZM692.095 15.4528H706.856C710.396 15.4528 712.806 16.4328 711.902 20.5033C711.225 23.8954 709.116 25.5537 704.974 25.5537H689.911L692.095 15.4528Z" fill="#96FF94"/>
<path d="M745.109 28.795C739.159 56.6855 762.883 57.5901 775.762 57.5901C788.641 57.5901 812.666 56.6855 818.615 28.795C824.565 0.904553 800.841 0 787.963 0C775.084 0 751.059 0.904553 745.109 28.795ZM767.703 28.795C770.038 17.865 776.44 13.5683 785.101 13.5683C793.762 13.5683 798.356 17.865 796.021 28.795C793.687 39.7251 787.285 44.0217 778.624 44.0217C769.963 44.0217 765.369 39.7251 767.703 28.795Z" fill="#96FF94"/>
<path d="M831.199 35.2777C827.509 52.3889 836.772 57.5901 858.613 57.5901C880.454 57.5901 891.827 52.3889 895.517 35.2777L902.596 1.88449H881.358L874.429 34.4485C872.923 41.3834 868.479 43.5694 861.551 43.5694C854.622 43.5694 851.082 41.3834 852.588 34.4485L859.517 1.88449H838.279L831.199 35.2777Z" fill="#96FF94"/>
<path d="M907.937 55.7056H929.176L932.715 38.9713H955.46C970.523 38.9713 977.678 30.981 979.862 20.654C982.422 8.66866 978.28 1.88449 963.217 1.88449H919.385L907.937 55.7056ZM937.912 14.5483H951.619C956.966 14.5483 958.623 16.2066 957.795 20.2771C956.966 24.1969 954.556 25.8552 949.209 25.8552H935.502L937.912 14.5483Z" fill="#96FF94"/>
<path d="M1027.73 28.795C1021.78 56.6855 1045.5 57.5901 1058.38 57.5901C1071.26 57.5901 1095.28 56.6855 1101.23 28.795C1107.18 0.904553 1083.46 0 1070.58 0C1057.7 0 1033.68 0.904553 1027.73 28.795ZM1050.32 28.795C1052.66 17.865 1059.06 13.5683 1067.72 13.5683C1076.38 13.5683 1080.97 17.865 1078.64 28.795C1076.3 39.7251 1069.9 44.0217 1061.24 44.0217C1052.58 44.0217 1047.99 39.7251 1050.32 28.795Z" fill="#96FF94"/>
<path d="M1110.58 55.7056H1131.82L1135.96 36.333H1166.54L1169.32 23.2169H1138.75L1140.48 15.0006H1173.69L1176.48 1.88449H1122.03L1110.58 55.7056Z" fill="#96FF94"/>
<path d="M64.8179 125.206C61.73 131.688 57.1359 134.477 50.433 134.477C42.6757 134.477 38.2322 130.181 40.5669 119.251C42.9016 108.321 49.3033 104.024 57.9643 104.024C66.1735 104.024 67.5292 109.602 67.3032 113.446H91.2529C92.9851 92.1139 73.6296 90.4556 60.8262 90.4556C47.9476 90.4556 23.9226 91.3601 17.9728 119.251C12.023 147.141 35.7468 148.046 48.6254 148.046C61.5794 148.046 70.1651 145.86 76.1902 141.94C82.2906 138.02 85.9057 132.291 88.7676 125.206H64.8179Z" fill="#96FF94"/>
<path d="M99.3533 146.161H120.592L124.131 129.578H139.194C143.11 129.578 143.939 131.99 143.336 135.985C142.357 142.241 141.83 144.578 142.282 146.161H165.479C164.5 144.503 163.897 142.241 164.198 139.829L165.78 128.07C166.382 123.396 164.424 120.683 161.412 119.778L161.487 119.628C168.039 117.818 171.278 112.391 172.332 107.341C173.612 101.461 171.428 96.2598 167.813 94.3C165.177 92.8677 161.638 92.3401 155.537 92.3401H110.801L99.3533 146.161ZM129.177 105.908H143.939C147.479 105.908 149.889 106.888 148.985 110.959C148.307 114.351 146.198 116.009 142.056 116.009H126.993L129.177 105.908Z" fill="#96FF94"/>
<path d="M179.33 146.161H236.493L239.279 133.045H203.355L204.861 125.809H238.225L241.012 112.693H207.648L209.229 105.456H245.154L247.94 92.3401H190.777L179.33 146.161Z" fill="#96FF94"/>
<path d="M289.707 126.864H276.903L287.146 108.622H287.297L289.707 126.864ZM243.313 146.161H265.907L269.447 139.98H291.589L292.568 146.161H315.163L303.715 92.3401H277.656L243.313 146.161Z" fill="#96FF94"/>
<path d="M335.423 146.161H356.661L365.247 105.908H384.904L387.765 92.3401H327.213L324.351 105.908H344.008L335.423 146.161Z" fill="#96FF94"/>
<path d="M391.599 119.251C385.649 147.141 409.373 148.046 422.251 148.046C435.13 148.046 459.155 147.141 465.105 119.251C471.055 91.3601 447.331 90.4556 434.452 90.4556C421.574 90.4556 397.549 91.3601 391.599 119.251ZM414.193 119.251C416.528 108.321 422.929 104.024 431.59 104.024C440.251 104.024 444.845 108.321 442.511 119.251C440.176 130.181 433.774 134.477 425.113 134.477C416.452 134.477 411.858 130.181 414.193 119.251Z" fill="#96FF94"/>
<path d="M474.45 146.161H495.689L499.228 129.578H514.291C518.207 129.578 519.036 131.99 518.433 135.985C517.454 142.241 516.927 144.578 517.379 146.161H540.576C539.596 144.503 538.994 142.241 539.295 139.829L540.877 128.07C541.479 123.396 539.521 120.683 536.509 119.778L536.584 119.628C543.136 117.818 546.375 112.391 547.429 107.341C548.709 101.461 546.525 96.2598 542.91 94.3C540.274 92.8677 536.735 92.3401 530.634 92.3401H485.898L474.45 146.161ZM504.274 105.908H519.036C522.576 105.908 524.986 106.888 524.082 110.959C523.404 114.351 521.295 116.009 517.153 116.009H502.09L504.274 105.908Z" fill="#96FF94"/>
<path d="M594.795 126.939C597.581 127.392 598.184 128.975 597.883 130.558C597.356 133.12 595.171 134.93 588.544 134.93C585.23 134.93 582.971 134.553 581.54 133.799C580.184 132.97 579.807 131.764 580.109 129.955H554.502C551.188 145.784 568.586 148.046 584.929 148.046C608.803 148.046 620.778 141.865 623.565 128.748C625.523 119.628 619.95 114.652 609.556 113.069L585.004 109.301C582.971 108.999 582.519 108.019 582.82 106.511C583.272 104.25 585.833 102.667 592.159 102.667C594.494 102.667 596.828 102.969 598.485 103.798C600.293 104.552 601.347 105.908 600.82 108.094H625.523C627.18 96.7121 618.669 90.4556 594.72 90.4556C577.247 90.4556 562.787 94.2246 559.849 108.17C558.268 115.708 561.28 121.738 571.297 123.321L594.795 126.939Z" fill="#96FF94"/>
<path d="M713.046 126.939C715.833 127.392 716.435 128.975 716.134 130.558C715.607 133.12 713.423 134.93 706.795 134.93C703.481 134.93 701.222 134.553 699.791 133.799C698.435 132.97 698.059 131.764 698.36 129.955H672.753C669.439 145.784 686.837 148.046 703.18 148.046C727.054 148.046 739.029 141.865 741.816 128.748C743.774 119.628 738.201 114.652 727.807 113.069L703.255 109.301C701.222 108.999 700.77 108.019 701.071 106.511C701.523 104.25 704.084 102.667 710.41 102.667C712.745 102.667 715.079 102.969 716.736 103.798C718.544 104.552 719.598 105.908 719.071 108.094H743.774C745.431 96.7121 736.92 90.4556 712.971 90.4556C695.498 90.4556 681.038 94.2246 678.1 108.17C676.519 115.708 679.531 121.738 689.548 123.321L713.046 126.939Z" fill="#96FF94"/>
<path d="M752.654 146.161H809.817L812.604 133.045H776.68L778.186 125.809H811.55L814.336 112.693H780.972L782.554 105.456H818.479L821.265 92.3401H764.102L752.654 146.161Z" fill="#96FF94"/>
<path d="M824.32 146.161H845.558L849.098 129.578H864.161C868.077 129.578 868.906 131.99 868.303 135.985C867.324 142.241 866.797 144.578 867.249 146.161H890.445C889.466 144.503 888.864 142.241 889.165 139.829L890.747 128.07C891.349 123.396 889.391 120.683 886.378 119.778L886.454 119.628C893.006 117.818 896.245 112.391 897.299 107.341C898.579 101.461 896.395 96.2598 892.78 94.3C890.144 92.8677 886.604 92.3401 880.504 92.3401H835.768L824.32 146.161ZM854.144 105.908H868.906C872.445 105.908 874.855 106.888 873.952 110.959C873.274 114.351 871.165 116.009 867.023 116.009H851.96L854.144 105.908Z" fill="#96FF94"/>
<path d="M920.037 146.161H942.33L977.878 92.3401H954.531L935.326 126.864H935.175L930.732 92.3401H907.384L920.037 146.161Z" fill="#96FF94"/>
<path d="M976.188 146.161H997.427L1008.87 92.3401H987.636L976.188 146.161Z" fill="#96FF94"/>
<path d="M1015.56 146.161H1035.9L1042.3 116.009H1042.45L1058.64 146.161H1081.91L1093.36 92.3401H1073.02L1066.7 122.19H1066.47L1051.26 92.3401H1027.01L1015.56 146.161Z" fill="#96FF94"/>
<path d="M1141.98 127.693H1150.71C1148.38 131.764 1144.31 134.477 1137.38 134.477C1126.84 134.477 1122.7 129.201 1124.81 119.251C1127.14 108.321 1133.54 104.024 1142.2 104.024C1144.99 104.024 1147.33 104.325 1149.13 105.305C1150.87 106.285 1152.15 108.019 1152.15 110.808H1176.1C1177.38 96.9382 1167.51 90.4556 1143.86 90.4556C1127.59 90.4556 1107.64 95.8829 1102.59 119.477C1097.32 144.352 1116.82 148.046 1131.74 148.046C1143.94 148.046 1151.24 146.161 1157.79 141.261L1159.15 146.161H1168.26L1174.82 115.482H1144.61L1141.98 127.693Z" fill="#96FF94"/>
<path d="M47.7855 215.661C44.6976 222.144 40.1035 224.933 33.4006 224.933C25.6433 224.933 21.1998 220.636 23.5345 209.706C25.8692 198.776 32.2709 194.48 40.9319 194.48C49.1411 194.48 50.4968 200.058 50.2708 203.902H74.2206C75.9528 182.57 56.5972 180.911 43.7939 180.911C30.9152 180.911 6.89021 181.816 0.940436 209.706C-5.00934 237.597 18.7144 238.501 31.5931 238.501C44.547 238.501 53.1327 236.315 59.1578 232.395C65.2582 228.476 68.8733 222.747 71.7352 215.661H47.7855Z" fill="#96FF94"/>
<path d="M119.526 217.32H106.722L116.965 199.078H117.116L119.526 217.32ZM73.1326 236.617H95.7267L99.2664 230.436H121.409L122.388 236.617H144.982L133.534 182.796H107.476L73.1326 236.617Z" fill="#96FF94"/>
<path d="M153.695 236.617H174.934L178.473 219.882H201.218C216.281 219.882 223.436 211.892 225.62 201.565C228.18 189.58 224.038 182.796 208.975 182.796H165.143L153.695 236.617ZM183.67 195.459H197.377C202.724 195.459 204.381 197.118 203.553 201.188C202.724 205.108 200.314 206.766 194.967 206.766H181.26L183.67 195.459Z" fill="#96FF94"/>
<path d="M231.068 236.617H252.306L263.754 182.796H242.515L231.068 236.617Z" fill="#96FF94"/>
<path d="M283.093 236.617H304.331L312.917 196.364H332.574L335.436 182.796H274.884L272.022 196.364H291.679L283.093 236.617Z" fill="#96FF94"/>
<path d="M370.817 217.32H358.014L368.257 199.078H368.407L370.817 217.32ZM324.424 236.617H347.018L350.558 230.436H372.7L373.679 236.617H396.273L384.826 182.796H358.767L324.424 236.617Z" fill="#96FF94"/>
<path d="M404.987 236.617H459.137L462.225 222.144H429.313L437.673 182.796H416.434L404.987 236.617Z" fill="#96FF94"/>
<path d="M471.18 236.617H492.418L503.866 182.796H482.627L471.18 236.617Z" fill="#96FF94"/>
<path d="M549.414 217.395C552.201 217.847 552.803 219.43 552.502 221.013C551.975 223.576 549.791 225.385 543.163 225.385C539.849 225.385 537.59 225.008 536.159 224.254C534.803 223.425 534.427 222.219 534.728 220.41H509.121C505.807 236.24 523.205 238.501 539.548 238.501C563.422 238.501 575.397 232.32 578.184 219.204C580.142 210.083 574.569 205.108 564.175 203.525L539.623 199.756C537.59 199.455 537.138 198.475 537.439 196.967C537.891 194.706 540.452 193.123 546.778 193.123C549.113 193.123 551.447 193.424 553.104 194.253C554.912 195.007 555.966 196.364 555.439 198.55H580.142C581.799 187.168 573.288 180.911 549.339 180.911C531.866 180.911 517.406 184.68 514.468 198.625C512.887 206.163 515.899 212.194 525.916 213.777L549.414 217.395Z" fill="#96FF94"/>
<path d="M587.516 236.617H606.796L614.93 198.173H615.081L618.244 236.617H634.361L653.792 198.173H653.943L645.809 236.617H665.089L676.537 182.796H646.637L631.198 214.078H631.047L628.863 182.796H598.964L587.516 236.617Z" fill="#96FF94"/>
<path d="M718.273 236.617H739.512L743.654 217.244H774.232L777.018 204.128H746.441L748.173 195.912H781.386L784.173 182.796H729.721L718.273 236.617Z" fill="#96FF94"/>
<path d="M787.102 209.706C781.153 237.597 804.877 238.501 817.755 238.501C830.634 238.501 854.659 237.597 860.609 209.706C866.558 181.816 842.835 180.911 829.956 180.911C817.077 180.911 793.052 181.816 787.102 209.706ZM809.697 209.706C812.031 198.776 818.433 194.48 827.094 194.48C835.755 194.48 840.349 198.776 838.014 209.706C835.68 220.636 829.278 224.933 820.617 224.933C811.956 224.933 807.362 220.636 809.697 209.706Z" fill="#96FF94"/>
<path d="M868.448 236.617H889.686L893.226 220.033H908.288C912.205 220.033 913.033 222.445 912.431 226.441C911.452 232.697 910.924 235.034 911.376 236.617H934.573C933.594 234.958 932.991 232.697 933.293 230.285L934.874 218.526C935.477 213.852 933.519 211.138 930.506 210.234L930.581 210.083C937.134 208.274 940.372 202.847 941.426 197.796C942.707 191.917 940.523 186.715 936.908 184.756C934.272 183.323 930.732 182.796 924.632 182.796H879.895L868.448 236.617ZM898.272 196.364H913.033C916.573 196.364 918.983 197.344 918.079 201.414C917.401 204.807 915.293 206.465 911.15 206.465H896.088L898.272 196.364Z" fill="#96FF94"/>
<path d="M997.845 236.617H1019.08L1027.67 196.364H1047.33L1050.19 182.796H989.636L986.774 196.364H1006.43L997.845 236.617Z" fill="#96FF94"/>
<path d="M1094.77 236.617H1116L1127.45 182.796H1106.21L1102.22 201.565H1078.35L1082.34 182.796H1061.1L1049.65 236.617H1070.89L1075.49 215.134H1099.36L1094.77 236.617Z" fill="#96FF94"/>
<path d="M1132.39 236.617H1189.55L1192.34 223.501H1156.41L1157.92 216.264H1191.28L1194.07 203.148H1160.71L1162.29 195.912H1198.21L1201 182.796H1143.84L1132.39 236.617Z" fill="#96FF94"/>
<path d="M55.8586 295.893H76.4474C92.8422 295.893 97.6717 304.034 94.6215 318.408C91.5713 332.782 83.1833 340.923 66.7884 340.923H46.1996L55.8586 295.893ZM5.53026 363.82H76.0661C106.187 363.82 125.251 350.336 131.986 318.408C139.104 284.954 125.378 272.997 94.6215 272.997H24.8482L5.53026 363.82Z" fill="#96FF94"/>
<path d="M145.529 363.82H181.369L200.686 272.997H164.847L145.529 363.82Z" fill="#96FF94"/>
<path d="M280.599 332.655H295.342C291.402 339.524 284.539 344.103 272.847 344.103C255.054 344.103 248.064 335.199 251.622 318.408C255.562 299.964 266.365 292.713 280.981 292.713C285.683 292.713 289.623 293.222 292.673 294.876C295.596 296.529 297.757 299.455 297.757 304.162H338.172C340.332 280.756 323.683 269.817 283.777 269.817C256.325 269.817 222.646 278.975 214.13 318.79C205.234 360.767 238.151 367 263.315 367C283.904 367 296.232 363.82 307.289 355.552L309.576 363.82H324.954L336.011 312.048H285.048L280.599 332.655Z" fill="#96FF94"/>
<path d="M351.909 363.82H387.749L407.066 272.997H371.227L351.909 363.82Z" fill="#96FF94"/>
<path d="M439.701 363.82H475.541L490.03 295.893H523.201L528.03 272.997H425.848L421.019 295.893H454.19L439.701 363.82Z" fill="#96FF94"/>
<path d="M587.736 331.256H566.131L583.415 300.473H583.669L587.736 331.256ZM509.448 363.82H547.575L553.549 353.389H590.914L592.566 363.82H630.693L611.375 272.997H567.402L509.448 363.82Z" fill="#96FF94"/>
<path d="M645.397 363.82H736.776L741.987 339.397H686.448L700.555 272.997H664.715L645.397 363.82Z" fill="#96FF94"/>
<path d="M884.088 331.256H862.483L879.767 300.473H880.021L884.088 331.256ZM805.8 363.82H843.927L849.901 353.389H887.266L888.918 363.82H927.045L907.727 272.997H863.754L805.8 363.82Z" fill="#96FF94"/>
<path d="M1012.92 332.655H1027.66C1023.72 339.524 1016.86 344.103 1005.17 344.103C987.375 344.103 980.385 335.199 983.944 318.408C987.883 299.964 998.686 292.713 1013.3 292.713C1018 292.713 1021.94 293.222 1024.99 294.876C1027.92 296.529 1030.08 299.455 1030.08 304.162H1070.49C1072.65 280.756 1056 269.817 1016.1 269.817C988.646 269.817 954.967 278.975 946.452 318.79C937.555 360.767 970.472 367 995.636 367C1016.22 367 1028.55 363.82 1039.61 355.552L1041.9 363.82H1057.28L1068.33 312.048H1017.37L1012.92 332.655Z" fill="#96FF94"/>
<path d="M1083.85 363.82H1180.31L1185.01 341.687H1124.39L1126.93 329.475H1183.23L1187.94 307.342H1131.64L1134.3 295.13H1194.93L1199.63 272.997H1103.17L1083.85 363.82Z" fill="#96FF94"/>
</g>
<defs>
<filter id="filter0_b" x="-224" y="-224" width="1649" height="815" filterUnits="userSpaceOnUse" color-interpolation-filters="sRGB">
<feFlood flood-opacity="0" result="BackgroundImageFix"/>
<feGaussianBlur in="BackgroundImage" stdDeviation="112"/>
<feComposite in2="SourceAlpha" operator="in" result="effect1_backgroundBlur"/>
<feBlend mode="normal" in="SourceGraphic" in2="effect1_backgroundBlur" result="shape"/>
</filter>
</defs>
</svg>
