<svg fill="none" height="25" viewBox="0 0 25 25" width="25" xmlns="http://www.w3.org/2000/svg"><g fill="#ff903f"><path d="m12.495 2.25198c3.3383 0 3.7302.01489 5.0496.07441 1.2203.05456 1.88.25794 2.3215.43155.5853.22817 1.002.49603 1.4385.93254.4365.4365.7093.85317.9325 1.43849.1687.44147.377 1.10119.4316 2.32143.0595 1.31944.0744 1.71131.0744 5.0496 0 3.3383-.0149 3.7302-.0744 5.0496-.0546 1.2202-.258 1.88-.4316 2.3214-.2282.5854-.496 1.002-.9325 1.4385s-.8532.7093-1.4385.9326c-.4415.1686-1.1012.3769-2.3215.4315-1.3194.0595-1.7113.0744-5.0496.0744-3.33825 0-3.73012-.0149-5.04956-.0744-1.22024-.0546-1.87996-.2579-2.32143-.4315-.58532-.2282-1.00199-.4961-1.43849-.9326-.43651-.4365-.70933-.8531-.93254-1.4385-.16865-.4414-.37699-1.1012-.43155-2.3214-.05953-1.3194-.07441-1.7113-.07441-5.0496 0-3.33829.01488-3.73016.07441-5.0496.05456-1.22024.25794-1.87996.43155-2.32143.22817-.58532.49603-1.00199.93254-1.43849.4365-.43651.85317-.70933 1.43849-.93254.44147-.16865 1.10119-.37699 2.32143-.43155 1.31944-.06449 1.71627-.07441 5.04956-.07441zm0-2.25198c-3.39282 0-3.8194.014881-5.15373.0744048-1.32937.0595242-2.2371.2728172-3.03075.5803572-.82342.31746-1.51786.749008-2.21231 1.443448-.69444.69445-1.121027 1.39385-1.443448 2.21231-.30754.79365-.520833 1.70139-.5803572 3.03571-.0595238 1.32937-.0744048 1.75595-.0744048 5.14877 0 3.3929.014881 3.8195.0744048 5.1538.0595242 1.3294.2728172 2.2371.5803572 3.0357.31746.8234.749008 1.5179 1.443448 2.2123.69445.6945 1.39385 1.1211 2.21231 1.4435.79365.3075 1.70139.5208 3.03571.5803 1.33433.0596 1.75595.0744 5.15377.0744 3.3978 0 3.8194-.0148 5.1538-.0744 1.3293-.0595 2.2371-.2728 3.0357-.5803.8234-.3175 1.5178-.749 2.2123-1.4435.6944-.6944 1.121-1.3938 1.4434-2.2123.3076-.7936.5209-1.7014.5804-3.0357s.0744-1.7559.0744-5.1538c0-3.39778-.0149-3.8194-.0744-5.15373-.0595-1.32937-.2728-2.2371-.5804-3.03571-.3174-.82342-.749-1.51786-1.4434-2.21231-.6945-.69444-1.3939-1.121028-2.2123-1.443448-.7937-.30754-1.7014-.520834-3.0357-.5803576-1.3393-.0545634-1.7659-.0694444-5.1588-.0694444z"/><path d="m12.495 6.08136c-3.54163 0-6.41861 2.87202-6.41861 6.41864 0 3.5466 2.87202 6.4187 6.41861 6.4187 3.5467 0 6.4187-2.8721 6.4187-6.4187 0-3.54662-2.872-6.41864-6.4187-6.41864zm0 10.58034c-2.3015 0-4.16663-1.8651-4.16663-4.1667 0-2.3015 1.86513-4.16662 4.16663-4.16662 2.3016 0 4.1667 1.86512 4.1667 4.16662 0 2.3016-1.8651 4.1667-4.1667 4.1667z"/><path d="m19.1667 7.32144c.8273 0 1.498-.67068 1.498-1.49801 0-.82734-.6707-1.49802-1.498-1.49802-.8274 0-1.498.67068-1.498 1.49802 0 .82733.6706 1.49801 1.498 1.49801z"/></g></svg>