<svg fill="none" height="25" viewBox="0 0 25 25" width="25" xmlns="http://www.w3.org/2000/svg"><path d="m25 23.6376c0 .7493-.6131 1.3624-1.3624 1.3624h-6.4033v-9.673h3.2698l.4768-3.7466h-3.7466v-2.38421c0-1.08992.2725-1.83924 1.8393-1.83924h1.9754v-3.406c-.3406-.06812-1.4986-.13624-2.9291-.13624-2.861 0-4.8365 1.77112-4.8365 4.97276v2.79293h-3.2698v3.7466h3.2698v9.673h-11.921c-.749321 0-1.3624-.6131-1.3624-1.3624v-22.2752c0-.749321.613079-1.3624 1.3624-1.3624h22.2752c.7493 0 1.3624.613079 1.3624 1.3624z" fill="#ff903f"/></svg>