<svg fill="none" height="21" viewBox="0 0 25 21" width="25" xmlns="http://www.w3.org/2000/svg"><path d="m24.1333.4c-1 .6-2.0666 1.06667-3.2666 1.26667-.9334-1.000003-2.2667-1.66667-3.7334-1.66667-2.8 0-5.1333 2.33333-5.1333 5.26667 0 .4.0667.8.1333 1.2-4.26663-.2-7.99997-2.33334-10.5333-5.46667-.46667.8-.666667 1.66667-.666667 2.66667 0 1.8.933337 3.4 2.266667 4.4-.86667 0-1.6-.26667-2.333333-.66667v.06667c0 2.53333 1.733333 4.66663 4.133333 5.13333-.4.1333-.86667.2-1.33333.2-.33334 0-.66667 0-.93334-.0667.66667 2.0667 2.53334 3.6 4.8 3.6667-1.73333 1.4-3.93333 2.2667-6.33333 2.2667-.4 0-.8 0-1.2-.0667 2.26667 1.4667 4.93333 2.3333 7.86667 2.3333 9.40003 0 14.60003-8 14.60003-14.9333 0-.2 0-.46667 0-.66667 1-.73333 1.8666-1.66666 2.5333-2.73333-.9333.4-1.9333.73333-2.9333.8.8666-.73333 1.6666-1.8 2.0666-3z" fill="#ff903f"/></svg>