<svg width="25" height="25" viewBox="0 0 25 25" fill="none" xmlns="http://www.w3.org/2000/svg">
<path d="M25 23.6376C25 24.3869 24.3869 25 23.6376 25H17.2343V15.327H20.5041L20.9809 11.5804H17.2343V9.19619C17.2343 8.10627 17.5068 7.35695 19.0736 7.35695H21.049V3.95095C20.7084 3.88283 19.5504 3.81471 18.1199 3.81471C15.2589 3.81471 13.2834 5.58583 13.2834 8.78747V11.5804H10.0136V15.327H13.2834V25H1.3624C0.613079 25 0 24.3869 0 23.6376V1.3624C0 0.613079 0.613079 0 1.3624 0H23.6376C24.3869 0 25 0.613079 25 1.3624V23.6376Z" fill="#FF903F"/>
</svg>
