<svg fill="none" height="24" viewBox="0 0 142 24" width="142" xmlns="http://www.w3.org/2000/svg" xmlns:xlink="http://www.w3.org/1999/xlink"><clipPath id="a"><path d="m0 0h141.236v24h-141.236z"/></clipPath><g clip-path="url(#a)" fill="#96ff94"><path d="m131.91 23.6854c-.494 0-.966.0225-1.461 0-.696-.0225-.809-.1348-.741-.7865.157-1.4832.337-2.9663.517-4.4495.202-1.7078.382-3.4157.584-5.1236.067-.6292.157-1.2584.202-1.8876 0-.1124-.112-.2247-.157-.3371-.045.0899-.112.1798-.157.2922-.517 1.6404-1.057 3.2809-1.573 4.9213-.697 2.1798-1.371 4.3596-2.045 6.5169-.27.8764-.292.8764-1.169.8764-.944.0224-1.865.0224-2.809 0-.786-.0225-.899-.1349-.809-.8315.247-2.1573.517-4.2921.787-6.4494.179-1.5506.359-3.1236.539-4.6742.27-2.33706.539-4.67414.809-7.01122.112-.96629.202-1.93259.315-2.89888.022-.29213.089-.58427.112-.876403.045-.494382.315-.719102.809-.69663.562.022472 1.124 0 1.685 0 .472 0 .697.202248.652.674158-.112 1.011235-.202 1.999995-.315 3.011235-.202 1.70787-.404 3.41573-.606 5.1236-.27 2.26964-.54 4.51684-.809 6.78654-.09.6966-.158 1.4157-.248 2.1123 0 .0899.045.2023.09.2922.068-.0899.158-.1573.203-.2472.247-.7416.472-1.4832.719-2.2472 1.483-4.809 2.944-9.64046 4.427-14.47192.314-1.033713.314-1.033713 1.37-1.056185h1.236c.877.022472.922.067416.877.898875-.045.74157-.135 1.48315-.225 2.22472-.27 2.1573-.562 4.29214-.809 6.44944-.27 2.15727-.494 4.29217-.764 6.44947-.067.5168-.112 1.0337-.18 1.5505 0 .0674.068.1349.09.2023.045-.045.113-.0899.135-.1349.112-.2696.202-.5618.292-.8539 1.618-5.2135 3.259-10.40448 4.832-15.61797.404-1.3258379.516-1.146063 1.528-1.168535 1.528-.022472 1.528 0 1.078 1.460675-2.157 6.92135-4.292 13.84273-6.449 20.76403-.045.1798-.135.3596-.18.5393-.09.5618-.472.7191-.966.6967-.427-.0225-.921-.0225-1.416-.0225z"/><path d="m62.6292 13.5281c-.3371 0-.6742 0-1.0113 0-.9438.0225-.9887.0449-1.2134.9663-.5394 2.2921-1.0787 4.5843-1.618 6.8539-.1348.5393-.2922 1.0787-.382 1.6405-.0899.4944-.3146.7191-.809.7191-.6742-.0225-1.3483 0-2.0225-.0225-.382 0-.5393-.2247-.4944-.5843.0225-.1797.0674-.3595.1124-.5393 1.6854-7.1236 3.3708-14.22471 5.0562-21.34831.2247-.921345.2471-.943817 1.191-.966289.4943 0 .9663-.022472 1.4606 0 .809.022472.854.067415.6742.853929-.5843 2.47191-1.1685 4.94382-1.7528 7.41573-.0899.4045-.2023.78652-.2921 1.19101-.0899.51683 0 .67413.5617.69663.8315.0225 1.6405.0225 2.472.0225.8988-.0225.9213-.0225 1.1236-.87643.5842-2.38202 1.1235-4.78652 1.7078-7.19101.6068-2.494382.1124-2.044944 2.6517-2.089887 1.3483-.022472 1.4157 0 1.0786 1.370787-1.6629 7.03371-3.3033 14.08984-4.9662 21.14604-.2023.8989-.2472.9438-1.2135.9438-.6292 0-1.2809.0225-1.9101-.0224-.5618-.0225-.6517-.1798-.5394-.7191.3821-1.6629.7866-3.3483 1.1911-5.0113.2921-1.2359.5842-2.4719.8539-3.7078.1348-.5843.0449-.6742-.5169-.6967-.4045-.0674-.8988-.0449-1.3932-.0449z"/><path d="m91.3258.292123c.9663 0 1.9551-.067416 2.9214.022472 1.0786.089887 2.0899.47191 2.5168 1.573035.2247.58427.427 1.23595.3596 1.84269-.1798 1.93259-.5394 3.8427-1.3259 5.64045-.4719 1.05623-1.1685 1.91013-2.1573 2.51683-.2696.1573-.5168.3596-.1348.6742 1.1685 1.0112 1.191 2.3595.9438 3.7303-.3146 1.7528-.7416 3.5056-1.0786 5.2584-.0899.472-.1573.9663-.1573 1.4383-.0225.4494-.1573.7191-.6517.6966-.6742 0-1.3483 0-2.0225 0-.4719 0-.6966-.2472-.6292-.6966.1124-.854.2022-1.7079.382-2.5394.2472-1.3483.6068-2.6966.8315-4.0449.2696-1.7528-.9663-2.7865-2.6742-2.2922-.4719.1349-.4944.5169-.5842.8765-.3146 1.3707-.6293 2.764-.9439 4.1573-.2921 1.2809-.6067 2.5393-.8764 3.8202-.1123.5393-.3595.764-.8988.764-.6742-.0224-1.3484 0-2.0225 0-.3596 0-.5393-.1123-.4494-.5393.2921-1.236.5393-2.4719.8314-3.7079 1.3933-6.0449 2.7865-12.06738 4.1798-18.11233.2472-1.078647.2472-1.078647 1.3034-1.078647h2.3595c-.0225-.044944-.0225-.022472-.0225 0zm-1.3932 10.584277c1.5955 0 2.4269-.5843 2.8988-2.11237.2922-.92135.4944-1.88764.6742-2.83146.382-1.97753-.2022-2.62921-2.2247-2.51685-.7641.04494-.8315.08989-1.0112.89887-.2248 1.01124-.4495 2.04495-.6967 3.05618-.2247.94382-.4494 1.88765-.6517 2.83143-.1123.5618-.0224.6517.5618.6742.1573.0225.2922 0 .4495 0z"/><path d="m112.539 24c-.696-.1348-1.415-.1798-2.067-.427-1.124-.4269-1.865-1.3033-1.91-2.5393-.045-1.1011 0-2.2472.225-3.3258.853-4.045 1.775-8.08992 2.674-12.13487.314-1.39325.899-2.67415 1.91-3.7528 1.798-1.955061 4.607-2.134836 6.517-1.483151 1.236.426967 1.91 1.370791 2.045 2.696631.157 1.50562-.203 2.96629-.517 4.42697-.742 3.43822-1.483 6.85392-2.247 10.26962-.18.7866-.45 1.5955-.764 2.3371-1.057 2.6068-3.034 3.8652-5.866 3.9326zm-.696-5.0337c0 1.4382.786 2.0225 2 1.6854.786-.2023 1.303-.7191 1.618-1.4382.135-.3146.224-.6292.314-.9663.967-4.2921 1.91-8.60675 2.854-12.92136.045-.24719.068-.51685.045-.78651-.067-.87641-.607-1.41573-1.46-1.37079-.72.04494-1.439.24719-1.798.96629-.27.51686-.517 1.07865-.652 1.64045-.921 4.04495-1.82 8.08992-2.697 12.13482-.112.427-.179.8315-.224 1.0562z"/><path d="m42.4494.292136c1.5505 0 1.5505 0 1.1685 1.528094-.6067 2.49438-1.2359 5.01123-1.8427 7.50561-.0449.13484-.0674.29214-.0674.44944 0 .13483 0 .26962.0225.42692.1123-.0898.2472-.1573.337-.26962 1.8203-2.60674 3.6405-5.21348 5.4382-7.84269 1.3034-1.887641 1.3034-1.887642 3.618-1.797754.1124 0 .2247 0 .3371.022472.3371.044944.3371.224719.1798.449438-.1798.269664-.382.561794-.5843.831464-1.955 2.78651-3.9101 5.57303-5.8876 8.33707-.4495.62922-.5618 1.25842-.4495 2.00002.3146 2.1798.5618 4.3595.854 6.5393.1797 1.4382.382 2.8764.5842 4.3371.1124.764.045.8539-.7191.8989-.5618.0224-1.1236.0224-1.6854 0-.7415-.0225-.7865-.045-.9213-.8315-.1348-.764-.2247-1.5506-.3146-2.3371-.1798-1.5505-.3146-3.1236-.5169-4.6741-.0449-.427-.2022-.854-.3146-1.2809-.2921.3146-.6067.6067-.8989.9213-.6067.6517-.8988 1.4382-1.0786 2.2922-.3596 1.6404-.7641 3.2809-1.1685 4.8988-.2472 1.0113-.2472 1.0113-1.2585 1.0113-.4494 0-.8989.0224-1.3483 0-.8989-.0225-.9213-.0675-.6966-1.0113.5618-2.3146 1.1011-4.6517 1.6629-6.9663 1.1685-4.7865 2.3596-9.573 3.5506-14.33704.0449-.17978.0899-.35955.1348-.539326.0899-.382023.3371-.561798.7416-.539326.3595 0 .7415-.022472 1.1236-.022472z"/><path d="m15.2359 19.3708c-.4944 0-.9663.0225-1.4606 0-.5394-.0225-.8315.2247-1.0113.6966-.3595.9888-.7865 1.9326-1.1236 2.9214-.1798.4944-.4719.7191-.9887.6966-.5169-.0225-1.05622 0-1.57308 0-.67416-.0225-.69663-.0674-.44944-.7416.74158-1.9101 1.50562-3.8202 2.24722-5.7303 2.0899-5.2809 4.1573-10.5618 6.2472-15.8427.0899-.20225.1797-.404496.2472-.629215.1797-.337078.4269-.516854.8089-.516854h3.8203c.4719 0 .6741.22472.6292.69663-.0899.898879-.1573 1.775279-.2472 2.674159-.1798 1.70786-.4045 3.41573-.5843 5.12359-.1798 1.70789-.3595 3.41569-.5393 5.12359-.1798 1.7753-.4045 3.5506-.5843 5.3483-.1123 1.1236-.2247 2.2247-.3146 3.3483-.0899 1.0562-.1798 1.1236-1.2135 1.1461-.2921 0-.6067 0-.8988 0-1.1911-.0225-1.2585-.1124-1.1012-1.3258.1124-.7866.1798-1.5506.2922-2.3371.0674-.427-.1124-.6517-.5169-.6742-.5618.0225-1.1236.0225-1.6854.0225zm.8764-2.9663h.6742c1.0112-.0449 1.1011-.1348 1.2135-1.191.3595-3.2584.7191-6.51686 1.0786-9.77529 0-.06741.045-.1573.0225-.22471-.0225-.15731-.0899-.33708-.1348-.49439-.0899.11236-.2023.20225-.2697.33708-.1348.26966-.2247.5618-.3371.83146-1.146 2.92135-2.2921 5.84265-3.4382 8.74155-.6966 1.7753-.6966 1.7753 1.191 1.7753z"/><path d="m80.1574.224709c.6067 0 1.191-.022472 1.7977 0 .6068.022472.6517.11236.6067.674157-.2921 3.303374-.5842 6.629214-.8764 9.932534-.2921 3.3933-.6067 6.7641-.8988 10.1574-.0674.6966-.1573 1.4157-.2023 2.1123-.0224.382-.2022.5618-.5618.5618-.7415 0-1.5056 0-2.2472 0-.337 0-.4494-.2022-.4269-.5168.1123-.9663.2022-1.9326.2921-2.8989.0674-.7416 0-.854-.764-.8764-.9439-.0225-1.8652.0224-2.809-.0225-.6517-.0225-.9438.2697-1.1236.8315-.3146.9663-.6967 1.8876-1.0337 2.8539-.1573.4494-.4045.6517-.8989.6517-2.9214-.0225-2.427.2247-1.5506-2.1124 2.4719-6.6517 4.9888-13.30335 7.4832-19.93256.0449-.11236.0899-.20225.1348-.31461.4045-1.078649.4045-1.078649 1.618-1.101121zm-3.9551 16.179791c2-.045 1.7753.1348 2-1.7978.3371-3.1236.5843-6.24716.8539-9.37076.0225-.17977-.0449-.33707-.0674-.51685-.1123.13483-.2696.24719-.3371.4045-.1123.20224-.1797.40449-.2472.62921-1.1235 3.01123-2.2471 6-3.3707 9.0112-.6517 1.6405-.6292 1.6405 1.1685 1.6405z"/><path d="m34.6966 8.11236c-.4719-.04495-.9662-.08989-1.4382-.11236.0675-.47191.1573-.94382.2248-1.41573.1123-.53933.2472-1.10113.3146-1.64045.1573-1.30337-.6517-1.97753-1.9101-1.6854-.8989.22472-1.4382.78652-1.7079 1.61798-.3596 1.14607-.6517 2.29214-.9438 3.46068-.8315 3.30332-1.6405 6.58422-2.4495 9.88762-.0899.3146-.1573.6517-.1573.9888.0225 1.0112.6742 1.573 1.7079 1.4157.9888-.1348 1.6404-.7191 1.9551-1.6404.2696-.7641.4719-1.5731.6741-2.3596.4045-1.573.382-1.5955 2.045-1.573h.8988c.4045 0 .5169.1798.4045.5618-.3595 1.3033-.6292 2.6067-1.0337 3.8876-.3371 1.0787-.9887 2-1.8202 2.7865-1.7978 1.6854-3.9101 1.9101-6.1798 1.3259-1.1011-.2697-1.6854-1.1236-1.9775-2.2247-.2697-1.1012-.1124-2.1573.1573-3.2135 1.0112-4.1349 2.0225-8.26969 3.0786-12.38205.2248-.89888.5843-1.77528 1.0337-2.58427 1.5506-2.808989 4.1574-3.617978 7.0562-3.033708 1.4158.292134 2.1798 1.325838 2.3371 2.786518.1573 1.5955-.3146 3.10112-.6517 4.62921-.0899.38202-.3146.47191-.6292.44944-.3371 0-.6741 0-1.0112 0 .0224.04494.0224.06742.0224.06742z"/><path d="m100.607 23.6854c-1.1688 0-2.3149.0225-3.4834 0-.9438-.0225-1.0112-.1124-.809-.9663 1.4157-6.2921 2.8315-12.6067 4.2474-18.89886.202-.92135.404-1.82023.607-2.74158.179-.786513.269-.853929 1.056-.853929.741 0 1.483.067416 2.224.089888.225.764041-.134 1.438201-.292 2.134831-1.236 5.55056-2.472 11.07865-3.73 16.60675-.315 1.4157-.337 1.4157 1.124 1.4157 1.191 0 2.404 0 3.595.0225.562 0 .674.1573.584.6741-.112.5843-.314 1.1686-.382 1.7529-.09.5842-.404.7415-.921.7415-1.281.0225-2.539.0225-3.82.0225z"/><path d="m10.6967.224731c1.6854 0 1.6629 0 1.2584 1.617979-1.3258 5.16854-2.62919 10.33709-3.93256 15.50559-.31461 1.191-.67416 2.3596-1.30337 3.4382-1.41573 2.382-3.61798 3.0562-6.202249 3.0113-.382022 0-.5617976-.2023-.47191-.5618.157303-.7641.337079-1.5281.539326-2.2922.089887-.337.35955-.4045.696633-.4269.51685-.0225 1.05618-.0225 1.52809-.2023.85393-.3146 1.37078-1.0337 1.5955-1.8876.4045-1.5056.80899-3.0337 1.19101-4.5393 1.05618-4.11241 2.11236-8.24724 3.14607-12.3596.35955-1.415728.29214-1.280897 1.61796-1.280897.1124-.022472.2247-.022472.3371-.022472z"/></g></svg>