<svg fill="none" height="103" viewBox="0 0 101 103" width="101" xmlns="http://www.w3.org/2000/svg"><g clip-rule="evenodd" fill-rule="evenodd"><g fill="#ff903f"><path d="m93.8846 51.4024c-1.8095 1.9076-3.6477 4.2199-5.8018 6.1565-6.7498 6.0408-13.6432 11.9372-20.4504 17.9202-5.8593 5.1449-10.9719 10.9834-15.5962 17.2844-.4596.607-.9191 1.214-1.3212 1.7342-14.6197-15.4923-29.1532-30.9269-43.83036-46.477 1.83823-1.9366 3.73386-4.2489 5.97426-6.1854 5.7157-4.9714 11.489-9.8851 17.3483-14.6542 5.8307-4.7113 11.6613-9.3648 16.6589-15.0299 1.3213-1.503 2.5563-3.09266 3.8201-4.65346 14.3612 14.59636 28.6937 29.19266 43.1984 43.90466zm-43.8303 36.3897c.316-.3758.6319-.6648.8904-1.0116 5.6583-7.0236 12.2358-13.1223 19.1292-18.8741 5.1125-4.2489 10.1676-8.6422 15.194-13.0067 1.1777-1.0116 2.1542-2.2545 3.0733-3.2083-12.4367-12.7176-24.7299-25.2329-37.1954-37.9794-.1723.2891-.2872.607-.4883.7804-4.3945 4.0754-8.7029 8.2665-13.241 12.1396-7.1806 6.1564-14.5335 12.0817-21.7715 18.1515-1.1489.9827-2.1255 2.1677-3.102 3.1794 12.5516 13.3534 24.9884 26.5335 37.5113 39.8292z"/><path d="m51.4617 24.9266c2.4989 2.2834 4.8829 4.4801 7.4679 6.8791-9.938 7.804-19.7036 15.4924-29.2107 22.9495-2.1829-2.0233-4.5381-4.191-7.0083-6.4744 9.2486-8.6133 19.6749-15.4635 28.7511-23.3542z"/><path d="m39.5132 65.9698c-1.9531-2.081-4.0785-4.3355-6.3189-6.7345 9.0189-8.8156 19.7322-15.3768 28.9521-23.3542 2.384 2.1967 4.5956 4.3067 6.9221 6.4455-9.9092 7.9196-19.7035 15.7525-29.5553 23.6432z"/><path d="m42.7876 69.525c2.384-2.1389 4.6243-4.1332 6.9221-6.2143 2.2403 2.3701 4.3658 4.6246 6.5487 6.9369-2.2691 2.1677-4.452 4.2488-6.7498 6.4455-2.2116-2.3412-4.3658-4.6535-6.721-7.1681z"/><path d="m60.538 56.1137c2.4701-.0289 4.7392 1.9654 4.7967 4.2488.0574 2.7459-2.0394 4.8558-4.9116 4.9137-2.585.0578-4.9402-2.0233-4.9689-4.3934-.0862-2.6591 2.1541-4.7402 5.0838-4.7691z"/><path d="m71.3088 58.0502c-.9191-.9538-1.6658-1.7631-2.5275-2.6591 2.4127-1.9944 4.7392-3.902 7.1806-5.9253.7181.8672 1.4074 1.7054 2.2404 2.717-2.1255 1.792-4.4233 3.7575-6.8935 5.8674z"/><path d="m72.027 45.5928c.8329.8671 1.5797 1.6186 2.4988 2.5724-2.3552 1.9076-4.6817 3.7574-7.0944 5.694-.8042-.9249-1.5798-1.7631-2.4127-2.7169 2.2116-1.7632 4.5669-3.613 7.0083-5.5495z"/><path d="m100.84 51.3353-3.3277 3.5081c-.4029.4247-.8978.9794-1.4549 1.6037-1.3257 1.4858-3.0037 3.3664-4.6319 4.8301l-.0083.0074c-4.238 3.7929-8.5677 7.5601-12.8662 11.3-2.559 2.2264-5.1069 4.4432-7.6177 6.6501l-.0018.0016c-5.5332 4.8585-10.4072 10.4123-14.8644 16.4855l-.0221.0301-.0351.0465c-.4516.5964-.9223 1.2181-1.3388 1.757l-3.5775 4.6286-4.0151-4.2546c-6.9928-7.4102-13.9552-14.7959-20.9219-22.1861-7.6157-8.0787-15.2366-16.1628-22.90806-24.2907l-3.24854-3.4417 3.25824-3.4325c.38922-.4101.83739-.9043 1.3313-1.4491 1.39757-1.5414 3.16151-3.4869 4.99341-5.0714 5.73965-4.9921 11.55485-9.9418 17.46795-14.7546l.0069-.0057.0069-.0056c.1509-.1219.3015-.2435.4518-.3649 5.7337-4.632 11.0508-8.9274 15.5975-14.08059.9081-1.03328 1.7493-2.08287 2.6693-3.23068.3269-.40788.6637-.82815 1.0171-1.26451l3.5232-4.35132 3.9268 3.99103c4.7228 4.80021 9.4414 9.59917 14.1633 14.40157 9.6413 9.8056 19.2966 19.6255 29.0315 29.4994zm-13.042 6.4782c.095-.0848.1899-.1697.2848-.2546 1.0966-.9858 2.1113-2.069 3.082-3.1466.2925-.3247.581-.6489.8666-.9698l.0006-.0008c.6282-.7058 1.2421-1.3956 1.8526-2.0393-.8591-.8715-1.7176-1.7425-2.5756-2.6131-8.8657-8.9964-17.6713-17.9521-26.4629-26.8935-3.5446-3.6051-7.087-7.2079-10.6302-10.81-.0628-.064-.1257-.1279-.1886-.1918-1.1135-1.13211-2.2272-2.26419-3.3411-3.39626-.3159.39019-.6301.78219-.9442 1.17419-.6587.8219-1.3173 1.64377-1.9925 2.44907-.0346.0412-.0692.0825-.1039.1236-.0442.0524-.0884.1048-.1327.157-.0271.032-.0543.0639-.0814.0958-.1869.2195-.3752.4376-.5654.6538-3.6978 4.1917-7.8517 7.8296-12.1242 11.3469-.0024.0019-.0048.0039-.0072.0059-1.3078 1.0766-2.6268 2.1418-3.9471 3.2083l-.5804.4688c-5.7974 4.7187-11.5104 9.5788-17.1669 14.4964-.0099.0087-.0199.0173-.0299.026-.0505.0439-.101.0878-.1515.1318-1.1779 1.0182-2.2606 2.1402-3.28969 3.2569-.35591.3862-.7054.7718-1.05023 1.1522-.55444.6116-1.0969 1.2101-1.63434 1.7763.87747.9296 1.75443 1.8589 2.63092 2.7878 6.77934 7.1845 13.53094 14.3465 20.27754 21.5032 5.7527 6.1024 11.5017 12.2009 17.2612 18.3061.0616.0654.1232.1307.1848.196 1.1582 1.2277 2.3168 2.4556 3.4759 3.6839.4021-.5202.8616-1.1272 1.3212-1.7342.5002-.6816 1.0062-1.3579 1.5182-2.0284.0723-.0946.1447-.1891.2171-.2835.2206-.2871.4422-.5732.665-.8582.0346-.0443.0694-.0887.1041-.133 3.9543-5.0442 8.2702-9.7476 13.0918-13.9813 1.6822-1.4785 3.3696-2.9517 5.0589-4.4231.002-.0018.0041-.0036.0061-.0054.8721-.7596 1.7447-1.5188 2.6174-2.278 4.1734-3.631 8.3468-7.2619 12.468-10.9454.0051-.0046.0101-.0091.0152-.0137zm-2.5301-2.9138c.0798-.0685.1587-.1381.2367-.2087.0022-.0019.0043-.0038.0064-.0057.6905-.6251 1.3122-1.3204 1.896-1.9734.1203-.1346.2389-.2673.3562-.3972.196-.217.3883-.4263.578-.6233-.2528-.2585-.5056-.517-.7583-.7754-5.9674-6.1011-11.9032-12.1575-17.8423-18.2174l-.0606-.0618c-4.9672-5.0682-9.9368-10.1389-14.9293-15.2401-1.0291-1.0515-2.0592-2.1042-3.0904-3.1586-.1714-.1753-.3429-.3507-.5145-.5261-.0534.0897-.1014.1821-.1481.2721-.1038.2003-.2015.3887-.3402.5083-.0181.0169-.0363.0337-.0544.0505-.1648.1529-.3295.3059-.494.4591-.0019.0017-.0037.0034-.0056.0052-.8171.7606-1.6318 1.5246-2.4459 2.2892-.1786.1677-.3571.3354-.5357.5031-3.1946 3.0012-6.3886 6.0017-9.7054 8.8325-1.5035 1.289-3.0146 2.568-4.5306 3.8402-.0038.0033-.0077.0065-.0116.0098-2.8926 2.4274-5.803 4.8305-8.713 7.2332-2.8449 2.349-5.6894 4.6976-8.5163 7.0683-.0424.0362-.0846.0728-.1265.1096-.0031.0027-.0063.0054-.0094.0082-.7411.6515-1.4117 1.3828-2.0598 2.0895-.1093.1193-.2181.2378-.3264.3552-.1942.2104-.387.417-.5799.6169.1989.2116.3979.4233.5968.6349 8.3391 8.8708 16.6289 17.667 24.9284 26.4735l.021.0223c2.839 3.0123 5.6791 6.0259 8.5227 9.0441 1.0469 1.1113 2.0944 2.2232 3.1424 3.3358l.3.3186c.1329-.158.2657-.3007.3943-.4388.0672-.0722.1333-.1431.1976-.2143.1051-.1165.2055-.2338.2985-.3585.7719-.9582 1.5609-1.8991 2.3654-2.8242 3.5959-4.135 7.5029-7.9554 11.5842-11.5924l.0016-.0014c1.699-1.514 3.4283-2.9962 5.178-4.4561 5.0102-4.1639 9.9654-8.4665 14.8923-12.7447zm-9.3356-5.4093c-.0666.0551-.133.1102-.1994.1651-.112.0928-.2237.1853-.3352.2776-.9268.7669-1.839 1.5192-2.748 2.2682-.2662.2193-.5321.4384-.798.6575l-.0076.0062c-.9664.7961-1.9327 1.5922-2.9126 2.402-.0501.0413-.1001.0827-.1502.1241.4129.4293.7993.8387 1.191 1.2536.2781.2946.5589.5921.8536.9014.1565.1642.3169.3318.4829.5041l.6933-.5922c2.2081-1.8864 4.2749-3.6519 6.2002-5.2752l-.3571-.4338c-.6783-.8239-1.2703-1.543-1.8833-2.2832-.0099.0082-.0198.0164-.0296.0246zm-20.7203-21.1228c1.2155 1.12 2.4421 2.2544 3.7176 3.4381-1.3302 1.0445-2.6573 2.087-3.9811 3.1271-2.7787 2.1833-5.5428 4.3562-8.2906 6.5163l-.001.0007-.0038.003c-5.7217 4.4979-11.3722 8.9397-16.9342 13.3024-1.0688-.9906-2.1789-2.0159-3.3236-3.0725-.2636-.2433-.529-.4882-.7961-.7347l-.0114-.0105c-.9387-.8663-1.8989-1.7524-2.8772-2.6567 1.2293-1.1449 2.4795-2.2586 3.7445-3.3478 4.0849-3.517 8.3248-6.778 12.52-10.0044 4.2796-3.2914 8.5125-6.547 12.4866-10.002 1.2659 1.1568 2.5023 2.2912 3.7503 3.441zm-2.0875 44.8721c-1.1929 1.1387-2.388 2.2795-3.6159 3.4534-1.105-1.1697-2.1956-2.3322-3.3041-3.5163-.0398-.0426-.0798-.0852-.1197-.1278-.4494-.4802-.9019-.9641-1.3598-1.4536l-.0008-.0008-.0007-.0008-.009-.0095c-.5912-.6322-1.1912-1.2737-1.8047-1.9288-.0407-.0435-.0814-.087-.1222-.1305.7427-.6664 1.4715-1.3187 2.1924-1.964.5143-.4603 1.0245-.9171 1.533-1.3728 1.0667-.9559 2.1254-1.9073 3.1967-2.8775.162.1715.3235.3423.4845.5126.5249.5556 1.0442 1.1054 1.56 1.6518.7813.8275 1.5547 1.6471 2.3281 2.4667l.006.0064c.141.1494.282.2988.423.4482.5804.6152 1.1617 1.2311 1.7471 1.8512-.9625.9195-1.9095 1.8234-2.8563 2.7271l-.0018.0017-.0259.0248c-.0833.0795-.1666.159-.2499.2385zm2.7375-10.697c.404.8219 1.0811 1.5322 1.9089 2.0227.7837.4645 1.7024.732 2.6522.7108 2.8722-.0579 4.969-2.1678 4.9116-4.9137-.0181-.7195-.2559-1.4104-.6503-2.0182-.0229-.0352-.0462-.0702-.0701-.1048-.1969-.2857-.4288-.5517-.6888-.7922-.1515-.1402-.3127-.2717-.482-.3934-.8262-.5937-1.8474-.9526-2.9055-.9402-.2659.0026-.5261.0221-.7794.0575-2.0184.2815-3.5985 1.5662-4.1214 3.2966-.1345.4453-.1991.9202-.183 1.415.007.5796.1532 1.1419.4078 1.6599zm-4.3565-6.1726c1.9993-1.5996 3.9992-3.1992 6.001-4.8001.2448-.1958.4896-.3916.7345-.5875 1.3527-1.0817 2.7064-2.1641 4.0615-3.2474.9376-.7496 1.8758-1.4997 2.8149-2.2504 1.3153-1.0514 2.6322-2.104 3.9511-3.1581-.15-.1379-.2995-.2757-.4486-.4134-1.0375-.9579-2.0556-1.9115-3.0802-2.8713-.0567-.0531-.1136-.1064-.1703-.1595-1.0564-.9895-2.1213-1.9861-3.223-3.0013-3.8578 3.338-7.9771 6.428-12.1244 9.539-4.4501 3.338-8.9323 6.7003-13.1582 10.4188-.2182.1921-.4358.3851-.6527.5791-1.0231.9153-2.0301 1.8528-3.0168 2.8173 1.5498 1.6595 3.0446 3.2499 4.4654 4.7616l.0017.0018.012.0127c.5883.6259 1.1639 1.2383 1.7254 1.8365.0382.0407.0764.0814.1144.1219.0165-.0131.0329-.0263.0493-.0394 2.4217-1.9397 4.8399-3.8758 7.2573-5.8106 1.2818-1.026 2.5634-2.0516 3.8452-3.0772.2801-.2241.5603-.4483.8405-.6725zm13.9576-4.7232c.2488.2805.4938.5536.7372.8251.4105.4576.8172.9111 1.2311 1.3872.0168-.0135.0335-.0269.0503-.0404.7977-.6402 1.5861-1.2711 2.3694-1.8978.2544-.2036.5083-.4067.7618-.6096 1.2153-.9728 2.4213-1.9396 3.6337-2.9203.0931-.0752.1861-.1505.2792-.2259-.445-.4618-.8496-.8762-1.2431-1.2792l-.003-.003-.001-.0012c-.2794-.2861-.5533-.5665-.8322-.8543-.0254-.0262-.0509-.0526-.0764-.079-.1132-.1169-.2273-.2352-.3431-.3557-.0711.0563-.1422.1127-.2131.1689-.9291.7366-1.8455 1.4606-2.7459 2.172-.042.0331-.0839.0663-.1257.0994-1.2975 1.0251-2.5614 2.0239-3.7821 2.9964-.0473.0376-.0944.0752-.1415.1128.1432.164.2848.3246.4251.4828.0064.0073.0128.0145.0193.0218z"/></g><path d="m93.8846 50.4023c-1.8095 1.9077-3.6477 4.22-5.8019 6.1565-6.7497 6.0409-13.6431 11.9372-20.4503 17.9203-5.8593 5.1448-10.9719 10.9834-15.5962 17.2844-.4596.6069-.9191 1.2139-1.3212 1.7342-14.6197-15.4924-29.1532-30.9269-43.83036-46.4771 1.83823-1.9365 3.73386-4.2488 5.97426-6.1854 5.7157-4.9714 11.4889-9.885 17.3483-14.6541 5.8306-4.7113 11.6613-9.3648 16.659-15.0299 1.3212-1.50302 2.5562-3.09272 3.82-4.65352 14.3612 14.59632 28.6937 29.19272 43.1984 43.90462zm-43.8303 36.3897c.316-.3757.6319-.6647.8904-1.0116 5.6583-7.0236 12.2358-13.1223 19.1291-18.8741 5.1126-4.2488 10.1677-8.6422 15.1941-13.0066 1.1777-1.0117 2.1542-2.2545 3.0733-3.2083-12.4367-12.7176-24.7299-25.2329-37.1954-37.9794-.1723.289-.2872.6069-.4883.7804-4.3945 4.0754-8.7029 8.2664-13.241 12.1395-7.1806 6.1565-14.5335 12.0817-21.7715 18.1515-1.1489.9827-2.1255 2.1678-3.1021 3.1794 12.5517 13.3535 24.9885 26.5336 37.5114 39.8292z" fill="#000"/><path d="m51.4617 23.9266c2.4989 2.2834 4.8828 4.48 7.4678 6.8791-9.9379 7.8039-19.7035 15.4923-29.2106 22.9494-2.1829-2.0232-4.5381-4.191-7.0083-6.4744 9.2486-8.6133 19.6749-15.4634 28.7511-23.3541z" fill="#000"/><path d="m39.5132 64.9698c-1.9531-2.0811-4.0785-4.3356-6.3189-6.7346 9.0188-8.8156 19.7323-15.3767 28.9521-23.3541 2.384 2.1966 4.5956 4.3066 6.9221 6.4455-9.9092 7.9196-19.7035 15.7525-29.5553 23.6432z" fill="#000"/><path d="m42.7876 68.5249c2.3839-2.1388 4.6243-4.1332 6.9221-6.2143 2.2403 2.3701 4.3658 4.6246 6.5487 6.9369-2.2691 2.1678-4.452 4.2488-6.7498 6.4455-2.2116-2.3412-4.3658-4.6535-6.721-7.1681z" fill="#000"/><path d="m60.538 55.1136c2.4701-.0289 4.7392 1.9655 4.7966 4.2489.0575 2.7458-2.0392 4.8558-4.9115 4.9136-2.585.0578-4.9402-2.0233-4.9689-4.3934-.0862-2.6591 2.1541-4.7402 5.0838-4.7691z" fill="#000"/><path d="m71.3089 57.0502c-.9191-.9539-1.6659-1.7632-2.5276-2.6592 2.4127-1.9943 4.7392-3.902 7.1806-5.9252.718.8671 1.4074 1.7053 2.2403 2.7169-2.1254 1.7921-4.4232 3.7575-6.8933 5.8675z" fill="#000"/><path d="m72.027 44.5927c.8329.8671 1.5797 1.6186 2.4988 2.5724-2.3552 1.9077-4.6817 3.7575-7.0944 5.694-.8042-.9249-1.5797-1.7631-2.4127-2.7169 2.2116-1.7631 4.5669-3.613 7.0083-5.5495z" fill="#000"/></g></svg>