<svg width="87" height="87" viewBox="0 0 87 87" fill="none" xmlns="http://www.w3.org/2000/svg">
<path fill-rule="evenodd" clip-rule="evenodd" d="M87 43.9046C85.1905 45.8123 83.3523 48.1246 81.1981 50.0611C74.4483 56.102 67.555 61.9983 60.7478 67.9814C54.8884 73.1262 49.7758 78.9648 45.1515 85.2658C44.692 85.8728 44.2324 86.4797 43.8303 87C29.2106 71.5076 14.6771 56.0731 0 40.5229C1.83823 38.5864 3.73391 36.2741 5.97425 34.3375C11.69 29.3661 17.4632 24.4525 23.3225 19.6834C29.1532 14.9721 34.9838 10.3186 39.9815 4.65349C41.3027 3.1505 42.5378 1.5608 43.8016 0C58.1628 14.5963 72.4952 29.1927 87 43.9046ZM43.1697 80.2943C43.4856 79.9186 43.8016 79.6296 44.0601 79.2827C49.7184 72.2591 56.2958 66.1605 63.1892 60.4086C68.3018 56.1598 73.3569 51.7664 78.3833 47.402C79.5609 46.3904 80.5375 45.1475 81.4566 44.1937C69.0198 31.4761 56.7266 18.9608 44.2611 6.21429C44.0888 6.50332 43.9739 6.82126 43.7729 6.99468C39.3783 11.0701 35.07 15.2611 30.5319 19.1342C23.3513 25.2907 15.9984 31.2159 8.76032 37.2857C7.61142 38.2684 6.63486 39.4535 5.6583 40.4651C18.21 53.8186 30.6468 66.9987 43.1697 80.2943Z" fill="black"/>
<path fill-rule="evenodd" clip-rule="evenodd" d="M44.5771 17.4289C47.0759 19.7123 49.4599 21.909 52.0449 24.308C42.107 32.112 32.3414 39.8003 22.8343 47.2575C20.6514 45.2342 18.2961 43.0664 15.826 40.7831C25.0746 32.1698 35.5008 25.3196 44.5771 17.4289Z" fill="black"/>
<path fill-rule="evenodd" clip-rule="evenodd" d="M32.6286 58.4721C30.6755 56.391 28.55 54.1365 26.3097 51.7375C35.3285 42.9219 46.0419 36.3608 55.2618 28.3834C57.6458 30.5801 59.8574 32.69 62.1839 34.8289C52.2747 42.7485 42.4803 50.5814 32.6286 58.4721Z" fill="black"/>
<path fill-rule="evenodd" clip-rule="evenodd" d="M35.9029 62.0272C38.2869 59.8884 40.5272 57.894 42.825 55.813C45.0654 58.1831 47.1908 60.4375 49.3737 62.7498C47.1047 64.9176 44.9218 66.9987 42.624 69.1953C40.4123 66.8541 38.2582 64.5419 35.9029 62.0272Z" fill="black"/>
<path fill-rule="evenodd" clip-rule="evenodd" d="M53.6534 48.616C56.1235 48.5871 58.3926 50.5814 58.45 52.8648C58.5075 55.6106 56.4107 57.7206 53.5385 57.7784C50.9535 57.8362 48.5982 55.7552 48.5695 53.3851C48.4833 50.7259 50.7237 48.6449 53.6534 48.616Z" fill="black"/>
<path fill-rule="evenodd" clip-rule="evenodd" d="M64.4242 50.5525C63.5051 49.5987 62.7583 48.7894 61.8967 47.8934C64.3093 45.899 66.6358 43.9914 69.0772 41.9681C69.7953 42.8352 70.4846 43.6734 71.3176 44.6851C69.1921 46.4771 66.8943 48.4425 64.4242 50.5525Z" fill="black"/>
<path fill-rule="evenodd" clip-rule="evenodd" d="M65.1423 38.095C65.9753 38.9621 66.7221 39.7136 67.6412 40.6674C65.2859 42.5751 62.9594 44.4249 60.5467 46.3615C59.7425 45.4365 58.967 44.5983 58.1341 43.6445C60.3457 41.8814 62.7009 40.0316 65.1423 38.095Z" fill="black"/>
</svg>
