<svg width="101" height="103" viewBox="0 0 101 103" fill="none" xmlns="http://www.w3.org/2000/svg">
<g style="mix-blend-mode:hard-light">
<path fill-rule="evenodd" clip-rule="evenodd" d="M93.8846 51.4024C92.0751 53.31 90.2369 55.6223 88.0828 57.5589C81.333 63.5997 74.4396 69.4961 67.6324 75.4791C61.7731 80.624 56.6605 86.4625 52.0362 92.7635C51.5766 93.3705 51.1171 93.9775 50.715 94.4977C36.0953 79.0054 21.5618 63.5708 6.88464 48.0207C8.72287 46.0841 10.6185 43.7718 12.8589 41.8353C18.5746 36.8639 24.3479 31.9502 30.2072 27.1811C36.0379 22.4698 41.8685 17.8163 46.8661 12.1512C48.1874 10.6482 49.4224 9.05854 50.6862 7.49774C65.0474 22.0941 79.3799 36.6904 93.8846 51.4024ZM50.0543 87.7921C50.3703 87.4163 50.6862 87.1273 50.9447 86.7805C56.603 79.7569 63.1805 73.6582 70.0739 67.9064C75.1864 63.6575 80.2415 59.2642 85.2679 54.8997C86.4456 53.8881 87.4221 52.6452 88.3412 51.6914C75.9045 38.9738 63.6113 26.4585 51.1458 13.712C50.9735 14.0011 50.8586 14.319 50.6575 14.4924C46.263 18.5678 41.9546 22.7589 37.4165 26.632C30.2359 32.7884 22.883 38.7137 15.645 44.7835C14.4961 45.7662 13.5195 46.9512 12.543 47.9629C25.0946 61.3163 37.5314 74.4964 50.0543 87.7921Z" fill="#FF903F"/>
<path fill-rule="evenodd" clip-rule="evenodd" d="M51.4617 24.9266C53.9606 27.21 56.3446 29.4067 58.9296 31.8057C48.9916 39.6097 39.226 47.2981 29.7189 54.7552C27.536 52.7319 25.1808 50.5642 22.7106 48.2808C31.9592 39.6675 42.3855 32.8173 51.4617 24.9266Z" fill="#FF903F"/>
<path fill-rule="evenodd" clip-rule="evenodd" d="M39.5132 65.9698C37.5601 63.8888 35.4347 61.6343 33.1943 59.2353C42.2132 50.4197 52.9265 43.8585 62.1464 35.8811C64.5304 38.0778 66.742 40.1878 69.0685 42.3266C59.1593 50.2462 49.365 58.0791 39.5132 65.9698Z" fill="#FF903F"/>
<path fill-rule="evenodd" clip-rule="evenodd" d="M42.7876 69.525C45.1716 67.3861 47.4119 65.3918 49.7097 63.3107C51.95 65.6808 54.0755 67.9353 56.2584 70.2476C53.9893 72.4153 51.8064 74.4964 49.5086 76.6931C47.297 74.3519 45.1428 72.0396 42.7876 69.525Z" fill="#FF903F"/>
<path fill-rule="evenodd" clip-rule="evenodd" d="M60.538 56.1137C63.0081 56.0848 65.2772 58.0791 65.3347 60.3625C65.3921 63.1084 63.2953 65.2183 60.4231 65.2762C57.8381 65.334 55.4829 63.2529 55.4542 60.8828C55.368 58.2237 57.6083 56.1426 60.538 56.1137Z" fill="#FF903F"/>
<path fill-rule="evenodd" clip-rule="evenodd" d="M71.3088 58.0502C70.3897 57.0964 69.643 56.2871 68.7813 55.3911C71.194 53.3967 73.5205 51.4891 75.9619 49.4658C76.68 50.333 77.3693 51.1712 78.2023 52.1828C76.0768 53.9748 73.779 55.9403 71.3088 58.0502Z" fill="#FF903F"/>
<path fill-rule="evenodd" clip-rule="evenodd" d="M72.027 45.5928C72.8599 46.4599 73.6067 47.2114 74.5258 48.1652C72.1706 50.0728 69.8441 51.9226 67.4314 53.8592C66.6272 52.9343 65.8516 52.0961 65.0187 51.1423C67.2303 49.3791 69.5856 47.5293 72.027 45.5928Z" fill="#FF903F"/>
<path fill-rule="evenodd" clip-rule="evenodd" d="M100.84 51.3353L97.5123 54.8434C97.1094 55.2681 96.6145 55.8228 96.0574 56.4471C94.7317 57.9329 93.0537 59.8135 91.4255 61.2772L91.4172 61.2846C87.1792 65.0775 82.8495 68.8447 78.551 72.5846C75.992 74.811 73.4441 77.0278 70.9333 79.2347L70.9315 79.2363C65.3983 84.0948 60.5243 89.6486 56.0671 95.7218L56.045 95.7519L56.0099 95.7984C55.5583 96.3948 55.0876 97.0165 54.6711 97.5554L51.0936 102.184L47.0785 97.9294C40.0857 90.5192 33.1233 83.1335 26.1566 75.7433C18.5409 67.6646 10.92 59.5805 3.24854 51.4526L0 48.0109L3.25824 44.5784C3.64746 44.1683 4.09563 43.6741 4.58954 43.1293C5.98711 41.5879 7.75105 39.6424 9.58295 38.0579C15.3226 33.0658 21.1378 28.1161 27.0509 23.3033L27.0578 23.2976L27.0647 23.292C27.2156 23.1701 27.3662 23.0485 27.5165 22.9271C33.2502 18.2951 38.5673 13.9997 43.114 8.84651C44.0221 7.81323 44.8633 6.76364 45.7833 5.61583C46.1102 5.20795 46.447 4.78768 46.8004 4.35132L50.3236 0L54.2504 3.99103C58.9732 8.79124 63.6918 13.5902 68.4137 18.3926C78.055 28.1982 87.7103 38.0181 97.4452 47.892L100.84 51.3353ZM87.798 57.8135C87.893 57.7287 87.9879 57.6438 88.0828 57.5589C89.1794 56.5731 90.1941 55.4899 91.1648 54.4123C91.4573 54.0876 91.7458 53.7634 92.0314 53.4425L92.032 53.4417C92.6602 52.7359 93.2741 52.0461 93.8846 51.4024C93.0255 50.5309 92.167 49.6599 91.309 48.7893C82.4433 39.7929 73.6377 30.8372 64.8461 21.8958C61.3015 18.2907 57.7591 14.6879 54.2159 11.0858C54.1531 11.0218 54.0902 10.9579 54.0273 10.894C52.9138 9.76189 51.8001 8.62981 50.6862 7.49774C50.3703 7.88793 50.0561 8.27993 49.742 8.67193C49.0833 9.49383 48.4247 10.3157 47.7495 11.121C47.7149 11.1622 47.6803 11.2035 47.6456 11.2446C47.6014 11.297 47.5572 11.3494 47.5129 11.4016C47.4858 11.4336 47.4586 11.4655 47.4315 11.4974C47.2446 11.7169 47.0563 11.935 46.8661 12.1512C43.1683 16.3429 39.0144 19.9808 34.7419 23.4981C34.7395 23.5 34.7371 23.502 34.7347 23.504C33.4269 24.5806 32.1079 25.6458 30.7876 26.7123L30.2072 27.1811C24.4098 31.8998 18.6968 36.7599 13.0403 41.6775C13.0304 41.6862 13.0204 41.6948 13.0104 41.7035C12.9599 41.7474 12.9094 41.7913 12.8589 41.8353C11.681 42.8535 10.5983 43.9755 9.56921 45.0922C9.2133 45.4784 8.86381 45.864 8.51898 46.2444C7.96454 46.856 7.42208 47.4545 6.88464 48.0207C7.76211 48.9503 8.63907 49.8796 9.51556 50.8085C16.2949 57.993 23.0465 65.155 29.7931 72.3117C35.5458 78.4141 41.2948 84.5126 47.0543 90.6178C47.1159 90.6832 47.1775 90.7485 47.2391 90.8138C48.3973 92.0415 49.5559 93.2694 50.715 94.4977C51.1171 93.9775 51.5766 93.3705 52.0362 92.7635C52.5364 92.0819 53.0424 91.4056 53.5544 90.7351C53.6267 90.6405 53.6991 90.546 53.7715 90.4516C53.9921 90.1645 54.2137 89.8784 54.4365 89.5934C54.4711 89.5491 54.5059 89.5047 54.5406 89.4604C58.4949 84.4162 62.8108 79.7128 67.6324 75.4791C69.3146 74.0006 71.002 72.5274 72.6913 71.056C72.6933 71.0542 72.6954 71.0524 72.6974 71.0506C73.5695 70.291 74.4421 69.5318 75.3148 68.7726C79.4882 65.1416 83.6616 61.5107 87.7828 57.8272C87.7879 57.8226 87.7929 57.8181 87.798 57.8135ZM85.2679 54.8997C85.3477 54.8312 85.4266 54.7616 85.5046 54.691C85.5068 54.6891 85.5089 54.6872 85.511 54.6853C86.2015 54.0602 86.8232 53.3649 87.407 52.7119C87.5273 52.5773 87.6459 52.4446 87.7632 52.3147C87.9592 52.0977 88.1515 51.8884 88.3412 51.6914C88.0884 51.4329 87.8356 51.1744 87.5829 50.916C81.6155 44.8149 75.6797 38.7585 69.7406 32.6986L69.68 32.6368C64.7128 27.5686 59.7432 22.4979 54.7507 17.3967C53.7216 16.3452 52.6915 15.2925 51.6603 14.2381C51.4889 14.0628 51.3174 13.8874 51.1458 13.712C51.0924 13.8017 51.0444 13.8941 50.9977 13.9841C50.8939 14.1844 50.7962 14.3728 50.6575 14.4924C50.6394 14.5093 50.6212 14.5261 50.6031 14.5429C50.4383 14.6958 50.2736 14.8488 50.1091 15.002C50.1072 15.0037 50.1054 15.0054 50.1035 15.0072C49.2864 15.7678 48.4717 16.5318 47.6576 17.2964C47.479 17.4641 47.3005 17.6318 47.1219 17.7995C43.9273 20.8007 40.7333 23.8012 37.4165 26.632C35.913 27.921 34.4019 29.2 32.8859 30.4722C32.8821 30.4755 32.8782 30.4787 32.8743 30.482C29.9817 32.9094 27.0713 35.3125 24.1613 37.7152C21.3164 40.0642 18.4719 42.4128 15.645 44.7835C15.6026 44.8197 15.5604 44.8563 15.5185 44.8931C15.5154 44.8958 15.5122 44.8985 15.5091 44.9013C14.768 45.5528 14.0974 46.2841 13.4493 46.9908C13.34 47.1101 13.2312 47.2286 13.1229 47.346C12.9287 47.5564 12.7359 47.763 12.543 47.9629C12.7419 48.1745 12.9409 48.3862 13.1398 48.5978C21.4789 57.4686 29.7687 66.2648 38.0682 75.0713L38.0892 75.0936C40.9282 78.1059 43.7683 81.1195 46.6119 84.1377C47.6588 85.249 48.7063 86.3609 49.7543 87.4735C49.8543 87.5797 49.9543 87.6859 50.0543 87.7921C50.1872 87.6341 50.32 87.4914 50.4486 87.3533C50.5158 87.2811 50.5819 87.2102 50.6462 87.139C50.7513 87.0225 50.8517 86.9052 50.9447 86.7805C51.7166 85.8223 52.5056 84.8814 53.3101 83.9563C56.906 79.8213 60.813 76.0009 64.8943 72.3639L64.8959 72.3625C66.5949 70.8485 68.3242 69.3663 70.0739 67.9064C75.0841 63.7425 80.0393 59.4399 84.9662 55.1617L85.2679 54.8997ZM75.9323 49.4904C75.8657 49.5455 75.7993 49.6006 75.7329 49.6555C75.6209 49.7483 75.5092 49.8408 75.3977 49.9331C74.4709 50.7 73.5587 51.4523 72.6497 52.2013C72.3835 52.4206 72.1176 52.6397 71.8517 52.8588L71.8441 52.865C70.8777 53.6611 69.9114 54.4572 68.9315 55.267C68.8814 55.3083 68.8314 55.3497 68.7813 55.3911C69.1942 55.8204 69.5806 56.2298 69.9723 56.6447C70.2504 56.9393 70.5312 57.2368 70.8259 57.5461C70.9824 57.7103 71.1428 57.8779 71.3088 58.0502L72.0021 57.458C74.2102 55.5716 76.277 53.8061 78.2023 52.1828L77.8452 51.749C77.1669 50.9251 76.5749 50.206 75.9619 49.4658C75.952 49.474 75.9421 49.4822 75.9323 49.4904ZM55.212 28.3676C56.4275 29.4876 57.6541 30.622 58.9296 31.8057C57.5994 32.8502 56.2723 33.8927 54.9485 34.9328C52.1698 37.1161 49.4057 39.289 46.6579 41.4491L46.6569 41.4498L46.6531 41.4528C40.9314 45.9507 35.2809 50.3925 29.7189 54.7552C28.6501 53.7646 27.54 52.7393 26.3953 51.6827C26.1317 51.4394 25.8663 51.1945 25.5992 50.948L25.5878 50.9375C24.6491 50.0712 23.6889 49.1851 22.7106 48.2808C23.9399 47.1359 25.1901 46.0222 26.4551 44.933C30.54 41.416 34.7799 38.155 38.9751 34.9286C43.2547 31.6372 47.4876 28.3816 51.4617 24.9266C52.7276 26.0834 53.964 27.2178 55.212 28.3676ZM53.1245 73.2397C51.9316 74.3784 50.7365 75.5192 49.5086 76.6931C48.4036 75.5234 47.313 74.3609 46.2045 73.1768C46.1647 73.1342 46.1247 73.0916 46.0848 73.049C45.6354 72.5688 45.1829 72.0849 44.725 71.5954L44.7242 71.5946L44.7235 71.5938L44.7145 71.5843C44.1233 70.9521 43.5233 70.3106 42.9098 69.6555C42.8691 69.612 42.8284 69.5685 42.7876 69.525C43.5303 68.8586 44.2591 68.2063 44.98 67.561C45.4943 67.1007 46.0045 66.6439 46.513 66.1882C47.5797 65.2323 48.6384 64.2809 49.7097 63.3107C49.8717 63.4822 50.0332 63.653 50.1942 63.8233C50.7191 64.3789 51.2384 64.9287 51.7542 65.4751C52.5355 66.3026 53.3089 67.1222 54.0823 67.9418L54.0883 67.9482C54.2293 68.0976 54.3703 68.247 54.5113 68.3964C55.0917 69.0116 55.673 69.6275 56.2584 70.2476C55.2959 71.1671 54.3489 72.071 53.4021 72.9747L53.4003 72.9764L53.3744 73.0012C53.2911 73.0807 53.2078 73.1602 53.1245 73.2397ZM55.862 62.5427C56.266 63.3646 56.9431 64.0749 57.7709 64.5654C58.5546 65.0299 59.4733 65.2974 60.4231 65.2762C63.2953 65.2183 65.3921 63.1084 65.3347 60.3625C65.3166 59.643 65.0788 58.9521 64.6844 58.3443C64.6615 58.3091 64.6382 58.2741 64.6143 58.2395C64.4174 57.9538 64.1855 57.6878 63.9255 57.4473C63.774 57.3071 63.6128 57.1756 63.4435 57.0539C62.6173 56.4602 61.5961 56.1013 60.538 56.1137C60.2721 56.1163 60.0119 56.1358 59.7586 56.1712C57.7402 56.4527 56.1601 57.7374 55.6372 59.4678C55.5027 59.9131 55.4381 60.388 55.4542 60.8828C55.4612 61.4624 55.6074 62.0247 55.862 62.5427ZM51.5055 56.3701C53.5048 54.7705 55.5047 53.1709 57.5065 51.57C57.7513 51.3742 57.9961 51.1784 58.241 50.9825C59.5937 49.9008 60.9474 48.8184 62.3025 47.7351C63.2401 46.9855 64.1783 46.2354 65.1174 45.4847C66.4327 44.4333 67.7496 43.3807 69.0685 42.3266C68.9185 42.1887 68.769 42.0509 68.6199 41.9132C67.5824 40.9553 66.5643 40.0017 65.5397 39.0419C65.483 38.9888 65.4261 38.9355 65.3694 38.8824C64.313 37.8929 63.2481 36.8963 62.1464 35.8811C58.2886 39.2191 54.1693 42.3091 50.022 45.4201C45.5719 48.7581 41.0897 52.1204 36.8638 55.8389C36.6456 56.031 36.428 56.224 36.2111 56.418C35.188 57.3333 34.181 58.2708 33.1943 59.2353C34.7441 60.8948 36.2389 62.4852 37.6597 63.9969L37.6614 63.9987L37.6734 64.0114C38.2617 64.6373 38.8373 65.2497 39.3988 65.8479C39.437 65.8886 39.4752 65.9293 39.5132 65.9698C39.5297 65.9567 39.5461 65.9435 39.5625 65.9304C41.9842 63.9907 44.4024 62.0546 46.8198 60.1198C48.1016 59.0938 49.3832 58.0682 50.665 57.0426C50.9451 56.8185 51.2253 56.5943 51.5055 56.3701ZM65.4631 51.6469C65.7119 51.9274 65.9569 52.2005 66.2003 52.472C66.6108 52.9296 67.0175 53.3831 67.4314 53.8592C67.4482 53.8457 67.4649 53.8323 67.4817 53.8188C68.2794 53.1786 69.0678 52.5477 69.8511 51.921C70.1055 51.7174 70.3594 51.5143 70.6129 51.3114C71.8282 50.3386 73.0342 49.3718 74.2466 48.3911C74.3397 48.3159 74.4327 48.2406 74.5258 48.1652C74.0808 47.7034 73.6762 47.289 73.2827 46.886L73.2797 46.883L73.2787 46.8818C72.9993 46.5957 72.7254 46.3153 72.4465 46.0275C72.4211 46.0013 72.3956 45.9749 72.3701 45.9485C72.2569 45.8316 72.1428 45.7133 72.027 45.5928C71.9559 45.6491 71.8848 45.7055 71.8139 45.7617C70.8848 46.4983 69.9684 47.2223 69.068 47.9337C69.026 47.9668 68.9841 48 68.9423 48.0331C67.6448 49.0582 66.3809 50.057 65.1602 51.0295C65.1129 51.0671 65.0658 51.1047 65.0187 51.1423C65.1619 51.3063 65.3035 51.4669 65.4438 51.6251C65.4502 51.6324 65.4566 51.6396 65.4631 51.6469Z" fill="#FF903F"/>
</g>
<path fill-rule="evenodd" clip-rule="evenodd" d="M93.8846 50.4023C92.0751 52.31 90.2369 54.6223 88.0827 56.5588C81.333 62.5997 74.4396 68.496 67.6324 74.4791C61.7731 79.6239 56.6605 85.4625 52.0362 91.7635C51.5766 92.3704 51.1171 92.9774 50.715 93.4977C36.0953 78.0053 21.5618 62.5708 6.88464 47.0206C8.72287 45.0841 10.6185 42.7718 12.8589 40.8352C18.5746 35.8638 24.3478 30.9502 30.2072 26.1811C36.0378 21.4698 41.8685 16.8163 46.8662 11.1512C48.1874 9.64818 49.4224 8.05848 50.6862 6.49768C65.0474 21.094 79.3799 35.6904 93.8846 50.4023ZM50.0543 86.792C50.3703 86.4163 50.6862 86.1273 50.9447 85.7804C56.603 78.7568 63.1805 72.6581 70.0738 66.9063C75.1864 62.6575 80.2415 58.2641 85.2679 53.8997C86.4456 52.888 87.4221 51.6452 88.3412 50.6914C75.9045 37.9738 63.6113 25.4585 51.1458 12.712C50.9735 13.001 50.8586 13.3189 50.6575 13.4924C46.263 17.5678 41.9546 21.7588 37.4165 25.6319C30.2359 31.7884 22.883 37.7136 15.645 43.7834C14.4961 44.7661 13.5195 45.9512 12.5429 46.9628C25.0946 60.3163 37.5314 73.4964 50.0543 86.792Z" fill="black"/>
<path fill-rule="evenodd" clip-rule="evenodd" d="M51.4617 23.9266C53.9606 26.21 56.3445 28.4066 58.9295 30.8057C48.9916 38.6096 39.226 46.298 29.7189 53.7551C27.536 51.7319 25.1808 49.5641 22.7106 47.2807C31.9592 38.6674 42.3855 31.8173 51.4617 23.9266Z" fill="black"/>
<path fill-rule="evenodd" clip-rule="evenodd" d="M39.5132 64.9698C37.5601 62.8887 35.4347 60.6342 33.1943 58.2352C42.2131 49.4196 52.9266 42.8585 62.1464 34.8811C64.5304 37.0777 66.742 39.1877 69.0685 41.3266C59.1593 49.2462 49.365 57.0791 39.5132 64.9698Z" fill="black"/>
<path fill-rule="evenodd" clip-rule="evenodd" d="M42.7876 68.5249C45.1715 66.3861 47.4119 64.3917 49.7097 62.3106C51.95 64.6807 54.0755 66.9352 56.2584 69.2475C53.9893 71.4153 51.8064 73.4963 49.5086 75.693C47.297 73.3518 45.1428 71.0395 42.7876 68.5249Z" fill="black"/>
<path fill-rule="evenodd" clip-rule="evenodd" d="M60.538 55.1136C63.0081 55.0847 65.2772 57.0791 65.3346 59.3625C65.3921 62.1083 63.2954 64.2183 60.4231 64.2761C57.8381 64.3339 55.4829 62.2528 55.4542 59.8827C55.368 57.2236 57.6083 55.1425 60.538 55.1136Z" fill="black"/>
<path fill-rule="evenodd" clip-rule="evenodd" d="M71.3089 57.0502C70.3898 56.0963 69.643 55.287 68.7813 54.391C71.194 52.3967 73.5205 50.489 75.9619 48.4658C76.6799 49.3329 77.3693 50.1711 78.2022 51.1827C76.0768 52.9748 73.779 54.9402 71.3089 57.0502Z" fill="black"/>
<path fill-rule="evenodd" clip-rule="evenodd" d="M72.027 44.5927C72.8599 45.4598 73.6067 46.2113 74.5258 47.1651C72.1706 49.0728 69.8441 50.9226 67.4314 52.8591C66.6272 51.9342 65.8517 51.096 65.0187 50.1422C67.2303 48.3791 69.5856 46.5292 72.027 44.5927Z" fill="black"/>
<defs>
<filter id="filter0_b" x="-140" y="-140" width="380.84" height="382.184" filterUnits="userSpaceOnUse" color-interpolation-filters="sRGB">
<feFlood flood-opacity="0" result="BackgroundImageFix"/>
<feGaussianBlur in="BackgroundImage" stdDeviation="70"/>
<feComposite in2="SourceAlpha" operator="in" result="effect1_backgroundBlur"/>
<feBlend mode="normal" in="SourceGraphic" in2="effect1_backgroundBlur" result="shape"/>
</filter>
</defs>
</svg>
