<svg width="89" height="34" viewBox="0 0 89 34" fill="none" xmlns="http://www.w3.org/2000/svg">
<path fill-rule="evenodd" clip-rule="evenodd" d="M8.77585 4.61461C9.15403 5.26762 9.67404 5.83356 9.86314 6.61717C9.95769 7.13958 10.4304 7.66199 10.9032 7.83612C11.4232 8.01026 11.5177 7.18312 11.8014 6.79131C11.8959 6.66071 12.0377 6.66071 12.1323 6.57364C12.8887 5.35469 13.5978 4.22281 14.165 3.00386C14.5432 2.13318 14.8269 1.1319 15.4887 0.478889C15.8196 0.130618 16.6233 0.130618 17.2378 0.304753C18.3724 0.565957 19.4597 -0.261188 20.547 0.261219C20.9252 0.435355 20.8306 0.740093 20.6888 0.957762C20.4524 1.2625 19.9324 1.04483 19.6015 1.21897C19.4124 1.30603 19.3179 1.5237 19.176 1.69784C19.0815 1.82844 19.2233 2.00258 19.2233 2.13318C19.1288 2.43792 19.176 2.74265 19.0815 3.00386C18.9869 3.39566 18.9869 3.87454 19.0342 4.30988C19.1288 4.96288 18.9397 5.61589 18.8924 6.22537C18.8451 7.18312 18.8924 8.09733 18.9397 9.05507C18.9397 9.22921 19.0342 9.40335 19.0815 9.57748C19.1288 9.66455 19.1288 9.75162 19.176 9.83869C19.2706 10.0128 19.0342 10.2305 19.0342 10.3611C19.0342 10.7094 19.0815 11.1882 19.4124 11.4059C19.7906 11.6236 20.3579 11.3188 20.7833 11.58C21.0197 11.7106 20.9724 12.1024 20.7833 12.2766C19.6961 13.1037 18.2778 12.4507 17.0487 12.4507C16.5287 12.4507 15.9142 12.5378 15.3469 12.7119C15.016 12.799 14.5905 12.8861 14.3069 12.6249C14.0705 12.4507 13.7868 12.4072 13.8814 12.1024C13.9287 11.9283 13.9287 11.7106 14.1178 11.6671C14.4014 11.58 14.7323 11.58 15.016 11.5365C15.5832 11.4494 15.536 10.9706 15.7251 10.6223C15.8669 10.3176 15.6305 9.92575 15.6778 9.57748C15.7251 8.7068 15.7251 7.79259 15.7723 6.96545C15.7723 5.7465 15.9142 4.44048 15.7251 3.17799C15.016 3.39566 14.8741 4.09221 14.5905 4.57108C14.4014 4.91935 14.2123 5.31116 13.9759 5.65943C13.7868 5.92063 13.5978 6.18183 13.4559 6.44304C13.0777 7.27018 12.9359 8.27146 12.1795 8.88094C12.3214 8.92447 12.2741 9.05507 12.2268 9.09861C11.9905 9.27274 11.7541 9.49041 11.7068 9.66455C11.6595 10.0128 11.6123 10.4917 11.3286 10.7529C11.2813 10.7964 11.3286 10.9706 11.2813 11.0141C10.9032 11.2318 10.9504 11.6236 10.6668 11.8412C10.5722 11.9283 10.7613 12.1024 10.7141 12.1895C10.525 12.4507 10.4304 12.8861 10.0522 12.9296C9.81587 12.9731 9.72132 12.6684 9.5795 12.4943C8.96494 11.7106 8.72857 10.927 8.20856 10.1434C7.87765 9.62101 7.59401 9.01154 7.35764 8.4456C7.26309 8.27146 6.93217 8.22793 6.8849 7.96673C6.83763 7.27018 6.31762 6.66071 5.93943 6.05123C5.89215 5.96416 5.93943 5.83356 5.89215 5.7465C5.75033 5.39822 5.32487 5.26762 5.0885 4.96288C4.94668 4.78875 5.04123 4.57108 4.80486 4.44048C4.3794 5.18055 4.71031 5.96416 4.56849 6.74778C4.52122 6.96545 4.52122 7.22665 4.52122 7.44432C4.47395 8.315 4.61577 9.22921 4.66304 10.1434C4.66304 10.4046 4.75759 10.7529 4.94668 10.9706C5.23032 11.3624 5.70306 11.4059 6.22307 11.493C6.55399 11.5365 6.60126 11.9718 6.45944 12.2766C6.45944 12.6249 6.1758 12.6249 5.93943 12.6684C4.66304 12.799 3.52847 12.1895 2.25209 12.6249C1.77935 12.799 1.07024 12.8425 0.644782 12.4507C0.408414 12.1895 0.455688 11.7542 0.833877 11.6671C1.30661 11.58 1.77935 11.6236 2.25209 11.5365C2.39391 11.493 2.53573 11.3624 2.67755 11.3188C2.91392 11.2318 3.00846 10.927 3.05574 10.7964C3.52847 8.22793 3.43393 5.7465 3.38665 3.17799C3.38665 3.13446 3.52847 3.04739 3.52847 3.04739C3.29211 2.43792 3.62302 1.69784 3.00846 1.30603C2.48845 0.914228 1.8739 1.48017 1.35389 1.1319C1.25934 1.04483 1.11752 0.827161 1.21207 0.696559C1.25934 0.522423 1.40116 0.348287 1.59025 0.217686C1.77935 0.130618 2.01572 0.217686 2.06299 -0.0435181C2.91392 0.217686 3.81212 0.261219 4.66304 0.261219C5.23032 0.261219 5.89215 0.0870837 6.27034 0.348287C6.93217 0.870695 7.21582 1.74137 7.59401 2.43792C8.01947 3.13446 8.39766 3.87454 8.77585 4.61461Z" fill="#96FF94"/>
<path fill-rule="evenodd" clip-rule="evenodd" d="M33.358 9.83868C33.3108 10.3175 33.358 10.7964 33.4526 11.2753C33.4999 11.493 33.8308 11.6236 34.0199 11.6236C34.3035 11.6236 34.5399 11.3188 34.8708 11.4059C35.2017 11.493 35.3435 11.8848 35.1544 12.1024C34.3508 13.1908 32.7907 13.4955 31.5616 13.1473C30.9471 12.9731 30.4743 12.3201 29.9071 12.1024C29.2452 11.7977 28.4888 12.3636 27.6852 12.5378C26.9761 12.6684 26.3143 12.7555 25.6052 12.8425C25.0379 12.8861 24.5179 12.7119 24.0451 12.4942C23.3833 12.233 22.9578 11.6671 22.5796 11.1012C21.9651 10.2305 22.4378 9.27274 22.816 8.35852C23.0997 7.70551 23.856 7.35724 24.5179 7.0525C24.9906 6.87837 25.4633 6.70423 25.9361 6.61717C27.2125 6.35596 28.4416 6.35596 29.6707 6.31243C29.7652 6.31243 29.8598 6.18183 29.9071 6.09476C30.1434 5.22408 29.5761 4.17927 28.5834 4.04866C27.5906 3.91806 26.4088 4.26633 26.0779 5.09348C25.747 5.87709 24.9433 6.5301 24.0924 6.3995C23.8088 6.35596 23.5251 6.18183 23.4306 5.87709C23.1469 4.96288 23.9033 4.39693 24.707 4.00513C25.3215 3.65686 25.9361 3.43919 26.5979 3.39565C27.6379 3.30859 28.7252 3.22152 29.7652 3.30859C30.238 3.48272 30.758 3.61332 31.2307 3.74393C31.5616 3.83099 31.8925 3.9616 32.2235 4.13573C32.9798 4.52754 33.4999 5.31115 33.4526 6.09476C33.4526 6.44303 33.2635 6.83483 33.3108 7.18311C33.4526 8.05378 33.4526 8.92446 33.358 9.83868ZM25.8415 9.70807C25.9833 10.3611 26.3143 11.0141 27.0234 11.1882C27.5434 11.3188 28.1579 11.2753 28.6779 11.1882C28.9616 11.1012 29.4343 11.1447 29.5761 10.84C30.1434 9.83868 30.0016 8.75033 29.9543 7.70551C29.9543 7.57491 29.8598 7.31371 29.6707 7.27017C28.9616 7.09604 28.2525 7.18311 27.6379 7.35724C26.787 7.57491 25.9833 8.18439 25.9361 9.0986C25.9361 9.18567 25.747 9.2292 25.747 9.31627C25.6524 9.44687 25.7943 9.53394 25.8415 9.70807Z" fill="#96FF94"/>
<path fill-rule="evenodd" clip-rule="evenodd" d="M41.2527 10.6223C41.2054 10.927 41.2527 11.3188 41.5364 11.4494C41.9145 11.58 42.1982 11.6236 42.6236 11.6671C42.86 11.7106 43.0964 12.0589 42.9073 12.2766C42.0091 13.4085 40.4963 12.4072 39.3145 12.6684C38.3217 12.9296 37.3763 12.9731 36.3835 12.799C36.0526 12.7554 36.0053 12.3636 36.1472 12.146C36.4308 11.7542 36.9981 11.7106 37.5181 11.6236C37.6126 11.6236 37.7072 11.493 37.7545 11.4059C38.0381 10.927 37.9436 10.4046 37.9436 9.96927C37.9436 9.27273 37.8963 8.53265 37.8963 7.83611C37.8963 7.66198 38.0381 7.44431 38.0381 7.3137C38.0381 6.26889 38.0854 5.26761 38.0854 4.2228C38.0854 3.78746 38.1327 3.26505 38.0854 2.82971C38.0381 2.3073 38.1327 1.56723 37.5654 1.30602C37.1399 1.13189 36.6672 1.21896 36.4308 0.783616C36.3363 0.60948 36.4781 0.435345 36.6672 0.348277C37.2345 0.0435394 37.849 0.174141 38.4163 0.217675C38.889 0.261209 39.3145 0.304743 39.74 0.261209C40.2127 0.174141 40.6854 0.174141 41.1582 0.174141C41.2527 0.174141 41.4418 0.261209 41.4891 0.391811C41.5836 1.13189 41.6309 1.82843 41.5364 2.52497C41.3945 3.26505 41.5836 3.96159 41.3945 4.70167C41.3473 4.87581 41.2054 5.13701 41.2527 5.22408C41.4891 5.96415 40.8272 7.53137 42.0091 7.3137C42.5764 7.1831 42.9073 6.53009 43.4746 6.31242C43.8055 6.18182 43.9946 5.87709 44.3255 5.74648C44.6564 5.61588 45.0819 5.13701 44.751 4.83227C44.42 4.57107 43.7582 4.3534 43.9946 3.87452C44.1837 3.52625 44.6564 3.52625 45.0346 3.52625C45.6492 3.48272 46.2637 3.61332 46.8783 3.70039C47.9656 3.83099 49.0529 3.26505 50.1402 3.61332C50.5656 3.74392 50.4711 4.26633 50.282 4.484C49.8092 5.00641 48.9583 4.70167 48.3438 5.00641C47.2565 5.61588 46.0273 5.92062 45.3182 6.9219C44.9873 7.35724 45.9801 7.44431 46.4055 7.61844C47.1619 7.92318 47.6819 8.53265 48.1074 9.14213C48.5801 9.79514 48.9583 10.4046 49.5256 10.927C50.0456 11.4059 50.7547 11.5365 51.5111 11.5365C51.842 11.5365 51.6529 11.9283 51.5584 12.1895C51.4638 12.4942 51.0856 12.6248 50.802 12.7119C49.9983 12.9731 49.1001 13.0602 48.2492 12.9296C46.9255 12.7119 46.0746 11.8412 45.271 10.8835C45.1764 10.7529 45.2237 10.5787 45.1291 10.4481C44.5619 9.66454 43.9946 8.92446 43.1437 8.57619C42.5291 8.31499 41.9618 9.05506 41.5364 9.53394C41.2054 9.79514 41.3 10.2305 41.2527 10.6223Z" fill="#96FF94"/>
<path fill-rule="evenodd" clip-rule="evenodd" d="M55.5766 9.83869C55.8603 10.5788 56.5694 10.9706 57.3258 11.2753C57.6567 11.4059 58.0821 11.3624 58.4603 11.4059C59.7367 11.5365 60.9658 10.9706 61.9586 10.187C62.1004 10.0999 62.2895 10.0564 62.4313 10.0999C62.715 10.2305 62.7622 10.5788 62.6677 10.84C62.3368 11.6671 61.3913 11.9718 60.5876 12.3201C59.8313 12.6684 58.9331 12.8425 58.1294 12.8861C58.0821 12.8861 57.893 12.9731 57.893 12.9731C57.4676 12.9731 56.9948 13.0167 56.5694 12.9731C56.0494 12.9296 55.5294 12.8861 55.0566 12.7119C54.6312 12.5378 54.2057 12.3637 53.8275 12.0589C53.0711 11.5365 52.362 11.1012 51.8893 10.3611C51.842 10.274 51.8893 10.1434 51.842 10.0999C51.322 9.70808 51.4165 9.18568 51.2274 8.66327C50.9911 7.79259 51.3693 6.92191 51.7002 6.18184C52.0784 5.31116 52.7402 4.44048 53.6857 3.91807C54.6312 3.4392 55.6712 3.04739 56.7585 3.09093C56.8057 3.09093 57.0421 3.13446 57.0894 3.13446C57.7985 3.04739 58.4603 3.17799 59.0749 3.26506C59.9258 3.39566 60.6349 3.831 61.3913 4.22281C62.2422 4.70168 62.8568 5.39822 62.9986 6.2689C63.0931 6.74778 63.5659 7.40079 62.9513 7.66199C62.2422 7.96673 61.3913 7.79259 60.6349 7.87966C60.3513 7.92319 59.9258 7.83612 59.6422 7.83612C58.8385 7.83612 57.9876 7.83612 57.1367 7.96673C57.0894 7.96673 57.0421 7.83612 56.9948 7.83612C56.4276 7.96673 55.813 7.66199 55.3403 7.92319C54.7257 8.4456 55.3875 9.27274 55.5766 9.83869ZM55.5294 6.1383C55.4348 6.22537 55.4348 6.31244 55.4821 6.35597C55.6712 6.66071 56.0966 6.70424 56.3803 6.70424C57.373 6.70424 58.6494 7.13958 59.3113 6.44304C59.6894 6.05123 59.1694 5.26762 58.6494 4.87582C58.3658 4.65815 58.0821 4.35341 57.6567 4.44048C57.373 4.48401 57.1367 4.35341 56.9003 4.44048C56.1912 4.70168 55.7657 5.31116 55.4821 5.96417C55.5294 5.96417 55.6239 6.09477 55.5294 6.1383Z" fill="#96FF94"/>
<path fill-rule="evenodd" clip-rule="evenodd" d="M70.1369 9.62101C70.2314 10.3611 70.0423 11.3624 70.846 11.6236C71.2714 11.7542 71.886 11.493 72.1696 11.7977C72.5005 12.1895 72.1224 12.799 71.5551 12.7555C69.8532 12.6249 68.2459 12.2766 66.5441 12.7119C66.1659 12.799 65.7404 12.7119 65.4095 12.4943C65.315 12.4072 65.1259 12.233 65.2204 12.0589C65.3622 11.8848 65.2204 11.58 65.4568 11.5365C65.7404 11.4494 66.0241 11.7542 66.2604 11.6236C66.9695 11.3188 66.7804 10.4917 66.9695 9.88221C67.0641 9.53394 66.9223 9.14214 66.8277 8.75033C66.7332 8.27146 67.0168 7.79259 66.7804 7.27018C66.6859 7.05251 67.0168 6.92191 67.0641 6.6607C67.1586 6.31243 66.7332 6.09476 66.8277 5.83356C66.9695 5.44175 66.7804 5.13702 66.7332 4.83228C66.6386 4.17927 65.6931 4.70168 65.3622 4.30987C64.7477 3.65686 66.0241 3.35212 66.6386 3.43919C67.2059 3.56979 67.7732 3.61333 68.2932 3.61333C68.8132 3.61333 69.3805 3.26506 69.8532 3.39566C70.326 3.52626 70.3732 4.0922 70.4205 4.57107C70.4205 4.61461 70.5151 4.78874 70.6096 4.70168C71.6023 3.87453 72.6896 3.04739 74.0606 3.35212C74.6279 3.48273 75.1479 3.74393 75.337 4.26634C75.4315 4.57107 75.526 4.91935 75.4315 5.22408C75.3842 5.39822 75.2424 5.61589 75.0533 5.65942C74.5333 5.79002 74.0133 5.96416 73.4933 5.83356C72.926 5.70296 72.4533 5.26762 71.7914 5.35469C70.9878 5.48529 70.2787 6.05123 70.2314 6.70424C70.1841 7.74905 70.0423 8.66326 70.1369 9.62101Z" fill="#96FF94"/>
<path fill-rule="evenodd" clip-rule="evenodd" d="M79.2134 3.22151C79.1661 3.61332 78.977 3.96159 78.7407 4.26633C78.6934 4.30986 78.5516 4.39693 78.5516 4.44046C78.457 4.96287 77.9843 5.13701 77.7479 5.57235C77.7006 5.61588 77.5116 5.52881 77.4643 5.65941C77.417 5.61588 77.3225 5.57235 77.3225 5.48528C77.2279 5.22407 77.5588 5.18054 77.6061 5.0064C77.7952 4.6146 78.0788 4.09219 77.5115 3.87452C76.897 3.65685 76.5661 3.17798 76.377 2.61204C76.2824 2.3073 76.2824 1.95903 76.4715 1.69783C76.7079 1.39309 77.0388 1.21895 77.3697 1.08835C77.9843 0.870681 78.6934 1.13188 79.0716 1.69783C79.4025 2.22023 79.308 2.69911 79.2134 3.22151Z" fill="#96FF94"/>
<path fill-rule="evenodd" clip-rule="evenodd" d="M88.7628 10.187C88.7155 10.3176 88.7155 10.4917 88.5737 10.5788C88.621 10.6223 88.7155 10.6658 88.6682 10.7094C88.4791 10.9706 88.3846 11.1447 88.1955 11.3624C87.8646 11.7542 87.4391 12.1895 86.9664 12.3201C86.2573 12.5378 85.4536 12.5813 84.65 12.7119C84.2718 12.7555 83.8463 12.6684 83.4681 12.6684C83.1845 12.6684 82.9008 12.3637 82.5699 12.4072C82.3336 12.4507 82.1445 12.6684 81.9081 12.7555C81.5772 12.8861 81.199 12.6249 81.0572 12.4943C80.4426 11.6671 79.6862 10.7529 79.9699 9.7081C80.0644 9.40336 80.5844 9.49043 80.8681 9.66457C81.4354 9.9693 81.7663 10.4917 82.3808 10.7964C82.6172 10.927 82.6645 11.2318 82.9008 11.2753C83.7518 11.493 84.6027 11.8848 85.4536 11.6671C86.0209 11.493 86.4936 10.9706 86.3518 10.4046C86.1627 9.75163 85.4063 9.31629 84.5554 9.35983C84.4609 9.35983 84.2718 9.27276 84.13 9.22923C83.6572 9.05509 83.0899 9.31629 82.5699 9.22923C82.3808 9.18569 82.2863 8.96802 82.1445 8.92449C81.3881 8.75035 80.9153 8.27148 80.5372 7.70554C80.3008 7.31373 80.2535 6.83486 80.2062 6.44305C80.159 5.61591 80.5844 4.78877 81.3408 4.26636C82.0026 3.78748 82.6645 3.39568 83.4681 3.35215C84.4609 3.30861 85.4063 3.39568 86.3991 3.61335C86.4464 3.61335 86.5882 3.30861 86.73 3.30861C87.1555 3.35215 87.77 3.04741 87.8646 3.56981C87.9591 4.39696 88.6682 5.13704 88.3373 5.92065C88.29 6.05125 88.0537 6.35599 87.8173 6.31245C87.4391 6.22538 87.2973 5.87711 86.9664 5.65944C86.9191 5.61591 86.7773 5.65944 86.73 5.61591C85.8318 4.65816 84.4136 4.17929 83.1372 4.61463C82.5227 4.8323 82.4281 5.57238 82.9954 5.87711C83.8936 6.44305 84.9336 6.35599 85.9264 6.70426C86.0209 6.74779 86.2573 6.70426 86.3991 6.70426C86.5409 6.70426 86.4464 7.009 86.6355 6.92193C87.0609 6.74779 87.4864 7.09606 87.77 7.31373C88.3846 7.74907 88.7628 8.40208 88.9046 9.14216C88.9991 9.40336 88.9046 9.79517 88.7628 10.187Z" fill="#96FF94"/>
<path fill-rule="evenodd" clip-rule="evenodd" d="M22.4379 26.2945C22.3906 26.6863 22.3906 27.1652 21.9651 27.3393C21.3506 27.557 21.3978 26.7734 21.4451 26.3816C21.4451 26.2074 21.5869 25.9898 21.5397 25.7721C21.3978 25.1191 21.6815 24.5531 21.5869 23.9437C21.3033 22.42 21.1142 20.9834 19.9796 19.7644C19.9324 19.7209 19.9796 19.5467 19.9324 19.5032C19.3651 18.7196 18.7505 18.1972 17.8996 17.6748C16.6232 16.8476 15.3468 16.3252 13.8813 16.0205C13.125 15.8464 12.3686 15.8464 11.5649 15.977C11.1395 16.064 10.7613 16.0205 10.3831 16.1076C10.0049 16.1946 9.67398 16.2817 9.29579 16.4123C9.10669 16.4558 8.96487 16.5864 8.77578 16.6735C8.63396 16.717 8.39759 16.6735 8.30304 16.8041C7.92485 17.1959 7.35757 17.1524 6.97938 17.5006C6.223 18.1537 5.37208 18.6761 4.85207 19.5032C4.04841 20.7222 3.33931 21.9411 3.29204 23.3342C3.24476 24.3355 2.91385 25.3803 3.57568 26.2945C3.62295 26.338 3.81205 26.1639 3.85932 26.0333C4.09569 25.2062 4.28478 24.4225 5.04116 23.9437C5.08844 23.9001 5.23026 23.9001 5.27753 23.9437C5.56117 24.0743 5.60844 24.379 5.65572 24.6402C5.75027 24.9449 5.93936 25.2062 6.03391 25.4238C6.27028 25.9462 6.4121 26.5557 6.93211 26.7298C7.87758 27.0346 8.9176 26.9475 9.91034 27.1652C10.0522 27.2087 10.0994 27.6441 9.91034 27.8182C9.15397 28.4712 8.25577 28.9065 7.54666 29.5595C7.35757 29.7337 7.40484 29.9949 7.45212 30.2126C7.54666 30.735 7.73576 31.2574 7.92485 31.7362C8.0194 31.9539 8.25577 32.1716 8.53941 32.2586C9.29579 32.5199 10.0049 32.8246 10.8085 32.9987C11.4231 33.1293 12.0849 33.0858 12.6995 33.0858C13.0304 33.0858 13.2195 33.3035 13.314 33.6082C13.4086 33.9129 12.9831 33.8694 12.7468 33.9129C12.5104 34 12.1322 33.8259 11.8486 33.8694C10.8085 33.9129 9.72125 33.5647 8.82305 33.1729C8.30304 32.9552 7.73576 32.8246 7.21575 32.694C6.50664 32.5199 5.98663 31.9539 5.37208 31.5186C5.18298 31.388 4.89934 31.4315 4.71025 31.475C4.4266 31.6056 4.14296 31.9974 3.90659 32.041C3.52841 32.128 3.29204 32.3893 2.91385 32.3893C2.77203 32.3893 2.77203 32.6069 2.67748 32.6505C2.53566 32.7375 2.44111 32.6069 2.34657 32.5199C2.29929 32.5634 2.25202 32.6505 2.20474 32.6069C2.01565 32.4763 1.77928 32.4763 1.73201 32.3022C1.63746 31.6927 2.1102 31.1703 2.15747 30.5608C2.15747 30.4738 2.29929 30.3867 2.39384 30.2996C2.44111 30.2126 2.25202 30.1255 2.34657 29.9949C2.77203 29.6031 2.58293 29.1677 2.15747 28.9501C1.40109 28.5147 0.45562 27.9923 0.597441 27.0781C0.644714 26.8604 0.833809 26.7734 1.0229 26.7298C1.49564 26.5992 2.06292 26.904 2.39384 26.6428C2.77203 26.3816 2.44111 25.8156 2.48839 25.3803C2.48839 25.2497 2.86657 25.1191 2.77203 25.032C2.44111 24.7273 2.20474 24.2484 2.44111 23.9437C2.72475 23.5954 2.53566 23.3342 2.67748 22.9859C2.67748 22.8989 2.77203 22.7683 2.77203 22.7247C2.8193 22.0282 3.10294 21.3316 3.29204 20.6351C3.33931 20.5045 3.52841 20.5916 3.52841 20.461C3.48113 19.7209 4.19024 19.3291 4.56843 18.7196C4.6157 18.6325 4.66297 18.4149 4.71025 18.2843C5.23026 17.5006 5.93936 17.0218 6.79029 16.5429C7.02665 16.4123 7.26302 16.3252 7.49939 16.2382C8.0194 16.0205 8.63396 15.6287 9.20124 15.7158C9.39033 15.7593 9.48488 15.411 9.6267 15.411C10.3358 15.411 10.9976 14.9321 11.7067 15.1063C11.8013 15.1498 11.9431 15.1933 12.0377 15.3239C12.1322 15.2369 12.274 15.0627 12.3686 15.0627C12.9359 15.0627 13.4559 15.0627 14.0232 15.1498C14.6377 15.2804 15.205 15.3239 15.7723 15.4981C16.0559 15.5852 16.3396 15.8028 16.5759 15.9334C17.0959 16.2382 17.7105 16.2817 18.0887 16.7606C18.136 16.8476 18.1832 17.0218 18.2778 17.0218C19.176 17.1524 19.696 17.8925 20.2633 18.4584C20.3578 18.5455 20.3578 18.7631 20.4051 18.8067C20.9724 19.2855 21.3033 19.8079 21.6815 20.4174C22.2015 21.3316 22.5797 22.2894 22.5797 23.3342C22.5324 24.2919 22.6269 25.2932 22.4379 26.2945ZM1.9211 28.1229C2.48839 28.5583 3.52841 28.7324 3.43386 29.3854C3.33931 30.2561 2.53566 30.9962 2.39384 31.9539C2.39384 32.041 2.53566 32.1716 2.67748 32.0845C3.0084 31.8233 3.33931 31.6492 3.67023 31.388C4.04842 31.0832 4.4266 30.6914 4.85207 30.735C5.65572 30.7785 6.12845 31.6056 6.93211 31.7362C7.02665 30.9091 6.4121 30.1255 6.60119 29.3854C6.83756 28.5583 8.0194 28.4277 8.68123 27.8182C7.92485 27.557 7.1212 27.6441 6.36482 27.4699C6.03391 27.3828 5.84481 26.991 5.75027 26.7298C5.60844 26.251 5.3248 25.8592 5.08843 25.4238C4.99389 25.5109 4.89934 25.5544 4.85207 25.685C4.56842 26.2945 4.47388 27.0781 3.95387 27.4264C3.52841 27.6876 2.91385 27.4699 2.34657 27.5135C2.06292 27.5135 1.54291 27.2958 1.49564 27.6876C1.44837 27.8182 1.73201 27.9488 1.9211 28.1229Z" fill="#96FF94"/>
<path fill-rule="evenodd" clip-rule="evenodd" d="M10.9502 22.8553C10.8084 23.3777 10.4775 23.8131 9.95748 23.9872C9.24837 24.2049 8.58654 24.3355 7.87744 24.0308C7.68834 23.9437 7.49925 24.0743 7.31015 24.2049C7.12106 24.292 6.97924 24.1178 6.93196 23.9872C6.64832 23.5083 6.5065 22.8989 6.6956 22.3765C6.74287 22.2894 6.88469 22.2023 6.97924 22.2459C7.16833 22.3329 7.21561 22.5506 7.26288 22.6812C7.64107 23.2471 8.35017 23.8566 9.24837 23.5954C9.67383 23.4648 10.0047 23.1165 9.76838 22.8118C9.2011 22.0282 8.1138 21.8541 7.21561 21.4622C6.31741 21.0704 6.36468 20.1127 6.79014 19.4162C7.26288 18.6761 8.25563 18.5455 9.012 18.7631C9.48474 18.8937 9.95748 18.8502 10.4775 18.8502C10.5248 18.8502 10.6193 18.9373 10.6193 18.9808C10.6666 19.2855 10.572 19.5468 10.7611 19.8515C10.8557 19.9821 10.6666 20.1998 10.7139 20.3739C10.6193 20.3739 10.5248 20.4174 10.4775 20.3739C10.1466 20.1998 10.2411 19.808 9.95748 19.6338C9.62656 19.4597 9.29564 19.3291 8.96473 19.242C8.39745 19.1114 7.78289 19.242 7.64107 19.8515C7.54652 20.1998 7.92471 20.3304 8.16108 20.4174C9.012 20.7657 10.0047 21.0269 10.6193 21.7235C10.8084 22.0282 11.0448 22.42 10.9502 22.8553Z" fill="#96FF94"/>
<path fill-rule="evenodd" clip-rule="evenodd" d="M13.6921 26.1639C13.7394 26.6863 13.503 27.2523 13.6449 27.7747C13.7394 28.0359 13.8812 28.3406 14.3067 28.2535C14.3067 28.2971 14.3067 28.3841 14.3067 28.3841C14.2121 28.5583 13.9285 28.6018 13.834 28.5583C13.2667 28.4277 12.6048 28.6889 11.9903 28.6018C11.943 28.6018 11.8485 28.5148 11.8485 28.4712C11.8012 28.21 12.1794 28.21 12.2267 27.9923C12.6521 26.6863 12.5103 25.3803 12.2739 24.0743C12.2267 23.9002 11.943 23.8566 11.8485 23.6825C11.8012 23.6389 11.8485 23.5519 11.8485 23.4648C12.6994 23.4648 13.5503 23.5083 14.354 23.6389C14.2121 23.9872 13.7394 24.1614 13.6921 24.5532C13.5976 25.0756 13.6449 25.598 13.6921 26.1639Z" fill="#96FF94"/>
<path fill-rule="evenodd" clip-rule="evenodd" d="M18.0886 27.2523C17.9468 27.8182 17.6631 28.21 17.3322 28.6889C17.2377 28.8195 16.954 28.6454 16.9067 28.6018C16.0558 27.2523 15.914 25.685 15.3467 24.2484C15.2522 24.0743 14.9685 24.0308 14.874 23.8566C14.7794 23.6825 15.0158 23.5519 15.0631 23.5083C15.4413 23.3342 15.914 23.4213 16.3867 23.5083C16.5758 23.5519 17.0013 23.4648 16.9067 23.6389C16.6231 24.1178 16.8122 24.7273 16.954 25.2062C16.954 25.2497 16.9067 25.3803 16.9067 25.4238C17.1904 25.7286 17.0958 26.2075 17.4268 26.3816C17.7104 26.5122 17.8049 26.0769 17.9468 25.8592C18.2304 25.3803 18.325 24.8144 18.3722 24.2484C18.3722 24.0308 17.994 23.9872 17.9468 23.7696C17.8995 23.6825 17.8049 23.5083 17.8522 23.5083C18.4668 23.2907 19.1759 23.3777 19.8377 23.4648C19.8377 23.5519 19.885 23.5954 19.9323 23.5954C18.9395 24.7273 18.4668 25.9462 18.0886 27.2523Z" fill="#96FF94"/>
<path fill-rule="evenodd" clip-rule="evenodd" d="M15.1104 33.4776C14.7322 33.7388 13.9758 33.7823 13.9285 33.3035C13.834 32.8681 14.7795 32.7375 15.1104 33.0423C15.2049 33.1293 15.2995 33.3035 15.1104 33.4776Z" fill="#96FF94"/>
<path fill-rule="evenodd" clip-rule="evenodd" d="M19.9795 30.9962C19.5068 31.2139 19.3649 31.6492 18.9867 31.9104C18.4195 32.3022 17.8522 32.5634 17.2376 32.9117C17.0485 33.0423 16.8122 33.0423 16.5758 32.9987C16.2921 32.9552 16.2449 32.6505 16.3394 32.5199C16.7649 32.041 17.3794 31.8669 17.9467 31.5186C18.8922 30.9091 19.7431 30.2561 20.3577 29.3854C20.594 28.9936 20.7359 28.5147 21.2086 28.2971C21.5868 28.1229 21.965 28.5583 21.8232 28.863C21.5868 29.429 21.0195 29.8643 20.6886 30.4302C20.4522 30.6479 20.2631 30.8656 19.9795 30.9962Z" fill="#96FF94"/>
<path fill-rule="evenodd" clip-rule="evenodd" d="M29.7179 25.4674C29.6706 25.9027 29.8125 26.3816 29.8125 26.7734C29.7652 27.6005 29.6234 28.6453 30.3325 29.2113C30.7107 29.4725 31.5616 29.2113 31.6089 29.6466C31.6561 30.9526 29.5288 30.169 28.4888 30.2996C28.1579 30.3432 27.7797 30.3432 27.4488 30.3867C26.8815 30.4738 26.1724 30.6914 25.6524 30.2996C25.3687 30.082 25.2742 29.5596 25.5106 29.4725C25.8887 29.2984 26.456 29.4725 26.8815 29.3854C27.2124 29.2984 27.5906 29.2984 27.827 28.9501C28.1579 28.5583 28.2051 28.1665 28.0633 27.7311C28.2051 27.6876 28.1106 27.5135 28.2524 27.5135C28.1106 27.4699 28.1579 27.3393 28.2051 27.2958C28.2997 27.2087 28.2997 27.0781 28.2997 27.0346C28.347 26.3816 28.2524 25.7721 28.2997 25.1191C28.347 24.7273 28.5361 24.379 28.4415 23.9872C28.347 23.6825 28.2524 23.3777 28.2997 23.073C28.5361 21.767 28.6779 20.5045 28.3942 19.242C28.2051 18.4149 27.0233 19.0244 26.5033 18.5019C26.3142 18.2843 26.5033 17.7619 26.8815 17.7183C27.4015 17.6748 28.0633 17.2395 28.4415 17.7619C29.5288 17.5442 30.6161 17.8054 31.7034 17.7183C31.8452 17.7183 32.0343 17.8489 32.1761 17.936C32.6016 18.2843 32.7434 18.8502 32.9798 19.3291C33.2162 19.808 33.5471 20.2433 33.7834 20.7222C33.9253 21.0269 34.0198 21.3316 34.3034 21.5929C34.6344 21.9847 34.6344 22.4635 34.9653 22.8989C35.1071 23.073 35.0125 23.3777 35.1071 23.5519C35.2016 23.7695 35.3907 23.9002 35.5798 24.0743C35.7689 24.2484 36.0526 24.3355 36.1944 24.0743C36.3362 23.8131 36.4308 23.5083 36.5726 23.2471C37.8017 21.4187 38.8417 19.7209 39.8817 17.8489C39.9763 17.6748 40.1181 17.5877 40.3072 17.5442C40.5436 17.5007 40.7799 17.5007 41.0636 17.5442C41.489 17.5877 41.9618 17.5442 42.3872 17.4571C43.38 17.3265 44.3727 17.4136 45.3655 17.4571C45.8382 17.5007 46.1219 17.936 46.0273 18.4149C46.0273 18.5455 45.7909 18.5455 45.7909 18.5455C44.9873 18.5019 44.1836 18.8502 44.1836 19.5903C44.1836 20.4174 44.1836 21.201 44.0418 22.0717C43.9945 22.2459 44.1364 22.5506 44.2782 22.7683C44.3255 22.8553 44.3255 23.0295 44.2782 23.1165C44.1836 23.3342 43.9 23.4648 43.8527 23.6825C43.7109 23.9872 44.1364 24.379 43.8527 24.7708C43.7109 24.945 43.9473 25.2497 43.9 25.4238C43.8527 25.8592 43.9473 26.2945 43.9473 26.7299C43.9473 27.1217 44.0891 27.557 44.1364 27.9488C44.1836 28.3406 44.3727 28.5583 44.6564 28.7759C44.7509 28.863 44.8455 28.9066 44.9873 28.9501C45.2709 29.0372 45.5546 28.7759 45.7909 28.9936C46.1691 29.3854 45.98 30.0384 45.46 30.169C44.9873 30.2561 44.5618 30.3432 44.1364 30.3432C43.2854 30.3432 42.4818 29.9514 41.6309 30.0384C40.8745 30.1255 40.2126 30.3432 39.4563 30.2561C38.8417 30.2126 38.2272 29.6902 38.6999 29.2548C39.1254 28.863 40.2126 29.1678 40.4017 28.5583C40.6854 27.4264 40.5908 26.3381 40.6854 25.2062C40.6854 24.9885 40.4017 24.7708 40.5436 24.5096C40.6854 24.292 40.7327 24.0308 40.7327 23.8131C40.6381 22.9424 40.8272 22.1153 40.6854 21.2881C40.6381 20.9834 40.9218 20.5045 40.4963 20.3739C40.449 20.3739 40.2126 20.461 40.1654 20.548C39.7399 21.5058 39.0781 22.2459 38.6053 23.1601C38.5581 23.2907 38.6526 23.4648 38.5581 23.5954C37.8017 24.8144 37.2344 26.0333 36.5253 27.2523C36.3835 27.5135 36.1944 27.8182 36.0998 28.1229C36.0053 28.4277 35.6271 28.6453 35.5326 28.9066C35.438 29.2548 35.0598 29.5596 35.2016 29.9514C35.0126 29.9514 34.918 30.2126 34.8235 30.082C34.398 29.6466 34.0671 29.0372 33.9253 28.5147C33.7834 28.1229 33.5471 27.6876 33.2634 27.2958C33.1689 27.1652 33.2162 26.9475 33.1689 26.7734C33.0271 26.0333 32.5543 25.4674 32.2707 24.8144C31.7979 23.6389 31.1361 22.5071 30.6161 21.3317C30.5688 21.201 30.4743 20.9834 30.3325 20.9834C29.8597 20.9398 30.0488 21.3317 29.9543 21.6364C29.9543 21.6799 29.9543 21.8541 29.8125 21.8976C30.0961 22.2894 29.8125 22.7247 29.8597 23.1165C29.8597 23.3777 29.7179 23.6825 29.7652 23.9437C29.8125 24.5532 29.7652 24.9885 29.7179 25.4674Z" fill="#96FF94"/>
<path fill-rule="evenodd" clip-rule="evenodd" d="M58.4604 27.7747C58.5076 28.1229 58.3185 28.5147 58.4604 28.8195C58.6495 29.2983 59.3113 28.9936 59.7367 29.0807C60.1622 29.1678 60.304 29.9949 59.8313 30.2126C59.1222 30.5173 58.3185 30.5608 57.5149 30.6044C56.9003 30.6479 56.333 30.5173 55.7658 30.3432C55.4348 30.2561 55.1985 30.0384 54.9621 29.7772C54.8203 29.6466 54.5366 29.6031 54.3476 29.6902C54.2057 29.7337 54.0639 29.8643 53.9221 29.9514C53.1184 30.2996 52.3621 30.5173 51.5111 30.735C51.3693 30.7785 51.2275 30.6479 51.0857 30.6914C50.2347 30.9526 49.3365 30.6479 48.5802 30.2561C47.4456 29.6466 46.7838 28.5583 47.0201 27.3829C47.2092 26.3816 47.8238 25.685 48.7693 25.0756C49.1475 24.8579 49.5256 24.6838 49.9511 24.5532C50.6129 24.3355 51.322 24.2049 52.0311 24.0743C53.0239 23.9001 54.0166 24.0743 54.9621 23.6825C55.1039 22.8989 54.773 22.1588 54.0166 21.8105C53.2603 21.5058 52.3621 21.6799 51.7002 22.1588C51.7002 23.1165 50.8493 23.9872 49.8093 23.726C49.1475 23.5954 48.6747 22.9424 48.9584 22.2894C49.5729 20.8963 51.2748 20.8528 52.6457 20.5916C53.3548 20.461 54.0639 20.548 54.773 20.6351C55.7658 20.8092 56.7112 21.0269 57.6094 21.5493C58.0349 21.8105 58.3185 22.2023 58.4131 22.5941C58.6495 23.4648 58.6967 24.3355 58.5549 25.1626C58.4604 25.7286 58.7913 26.2945 58.4604 26.904C58.224 27.2087 58.4131 27.5135 58.4604 27.7747ZM50.802 27.9488C51.2748 29.1677 52.693 29.2984 53.8748 28.9936C54.5839 28.8195 54.8676 28.1665 54.9148 27.557C54.9148 27.3829 54.773 27.2087 54.8203 27.0346C54.9148 26.7298 54.8203 26.3816 54.8203 26.1204C54.8203 25.8592 54.6312 25.5544 54.3476 25.4674C54.1585 25.4238 53.9694 25.2497 53.7803 25.2932C53.213 25.4674 52.5984 25.3368 52.1257 25.598C51.7475 25.8156 51.7002 26.2945 51.322 26.5557C51.2275 26.5992 51.0857 26.6428 51.0384 26.7298C50.9439 26.9911 50.7548 27.2087 50.8493 27.5135C50.7075 27.557 50.802 27.6876 50.7075 27.7747C50.6602 27.7747 50.7548 27.8617 50.802 27.9488Z" fill="#96FF94"/>
<path fill-rule="evenodd" clip-rule="evenodd" d="M66.355 26.2945C66.3077 27.1652 66.4022 27.9923 66.7332 28.7324C66.9222 29.2548 67.7732 28.6889 68.2459 28.9501C68.6241 29.1242 68.5768 29.8208 68.1514 30.0384C67.6314 30.3432 67.0168 30.4302 66.4495 30.2561C65.6931 29.9949 64.9367 29.8643 64.1804 29.9949C63.5658 30.1255 62.9985 30.082 62.384 30.2561C61.7694 30.4302 61.0603 29.9078 61.3912 29.3419C61.533 29.0807 62.0058 28.9501 62.4312 28.9065C62.9513 28.8195 63.0458 28.3406 63.2349 27.9488C63.2822 27.8617 63.1403 27.7747 63.0931 27.6441C62.9513 26.9911 63.1876 26.3816 63.0458 25.7286C62.9513 25.4238 63.2822 25.0756 63.1404 24.7708C62.7622 24.0307 63.2822 23.2471 62.904 22.5506C62.7622 22.2894 62.4312 22.2894 62.1476 22.1588C62.0058 22.3765 61.8167 22.4635 61.5803 22.3765C61.2021 22.2459 60.7767 21.8105 61.1076 21.5058C61.4385 21.1575 62.0058 21.0704 62.4785 21.114C63.2349 21.201 63.9913 21.201 64.7477 21.1575C65.2677 21.114 65.7404 20.8963 66.2604 21.0269C66.6386 21.114 66.4495 21.6799 66.7804 21.7234C67.3004 21.8105 67.7732 21.4187 68.2932 21.2446C68.8605 21.0269 69.4277 21.201 69.9478 21.2881C70.2787 21.3316 70.5623 21.4622 70.846 21.6799C71.1296 21.854 71.2241 22.2023 71.3187 22.5071C71.4605 22.9424 71.2241 23.4213 70.7514 23.5954C70.4678 23.6825 70.1368 23.6825 69.8532 23.6825C69.1441 23.6389 68.6241 23.2036 67.9623 22.9424C67.4895 22.7683 66.8277 23.1601 66.6386 23.5519C66.355 24.3355 66.4022 25.3368 66.355 26.2945Z" fill="#96FF94"/>
<path fill-rule="evenodd" clip-rule="evenodd" d="M76.7551 27.6441C76.8497 27.9488 76.8024 28.2971 76.9915 28.5583C77.1806 28.9065 77.6533 28.863 78.0315 28.9065C78.2206 28.9065 78.3624 29.0371 78.457 29.2113C78.5988 29.5596 78.5988 30.082 78.1261 30.169C77.2279 30.2996 76.3297 30.2996 75.4315 30.0384C74.9587 29.8643 74.3915 30.082 73.8242 30.2126C73.2096 30.3867 72.5478 30.2996 71.9332 30.2561C71.3187 30.169 71.2714 29.4725 71.555 29.1677C71.8387 28.9065 72.4532 29.0371 72.7841 28.8195C73.2569 28.5583 73.1151 27.9053 73.2569 27.4264C73.3042 27.3393 73.446 27.1652 73.446 27.1217C73.2096 26.4686 73.446 25.8156 73.446 25.2062C73.446 25.0756 73.6823 24.9014 73.6351 24.7708C73.3042 23.9001 73.5878 23.0295 73.4933 22.1153C73.3987 21.201 73.6351 20.2868 73.446 19.3726C73.3042 18.7196 72.406 19.0679 71.8387 18.9373C71.4605 18.8502 71.6496 18.2843 71.8387 17.9795C71.9805 17.7619 72.3114 17.7619 72.5005 17.7183C73.3987 17.5442 74.3442 17.8925 75.2424 17.7619C75.7151 17.7183 76.1879 17.5442 76.6606 17.5442C76.8497 17.5442 77.1333 17.8054 77.0861 18.0231C76.8024 19.4161 76.8024 20.7657 76.8497 22.1153C76.8497 22.5071 77.0861 22.9859 76.9915 23.3342C76.897 23.5954 76.7079 24.0743 76.8024 24.4225C76.9442 24.2484 77.0861 24.4661 77.1806 24.4225C78.2206 23.7695 79.2606 23.2907 80.1116 22.42C80.1588 22.3765 80.3007 22.2459 80.2061 22.1588C79.8279 21.854 79.3552 22.2459 78.977 22.1153C78.5043 21.8976 78.5988 21.0704 79.0715 21.0269C80.8207 20.7657 82.5698 20.8092 84.3189 20.8528C84.8389 20.8528 84.9808 21.2446 85.1699 21.5928C85.028 21.6364 85.1226 21.767 85.028 21.854C84.9808 21.8976 84.9808 22.0282 85.0753 22.0717C83.6571 22.3765 82.428 22.7683 81.1516 23.5954C81.057 23.6389 80.9152 23.5954 80.8679 23.6389C80.5843 23.9437 80.017 24.2049 80.1588 24.5096C80.2534 24.7273 80.8207 24.7708 81.0098 24.9885C81.6716 25.6415 82.5225 25.9898 83.0898 26.6863C83.3262 26.9475 83.6571 27.1652 83.8935 27.4699C84.1771 27.8182 84.6026 27.9923 85.028 28.2535C85.1226 28.2971 85.2644 28.2535 85.3589 28.2971C85.879 28.6453 86.4935 28.4277 87.0608 28.4277C87.3444 28.4277 87.3917 28.9065 87.2026 29.1242C86.4462 30.0384 85.3117 30.3867 84.1298 30.4302C83.7044 30.4302 83.3262 30.3432 82.9007 30.2561C81.9552 30.0384 81.3407 29.3854 80.7734 28.6453C80.0643 27.7311 79.3552 26.991 78.5988 26.1639C78.457 25.9898 78.1261 25.7721 77.8424 25.9027C77.3697 26.1639 76.7079 26.4686 76.897 27.1217C76.897 27.1652 76.8024 27.2087 76.7551 27.2958C76.6606 27.2958 76.7079 27.4699 76.7551 27.6441Z" fill="#96FF94"/>
<path fill-rule="evenodd" clip-rule="evenodd" d="M87.9591 26.2074C88.1482 26.3816 88.2427 26.5557 88.2427 26.7734C88.2427 26.991 88.1482 27.2087 87.9591 27.3393C87.77 27.5135 87.5809 27.6005 87.3445 27.6005C87.1081 27.6005 86.8718 27.5135 86.7299 27.3393C86.5408 27.1652 86.4936 26.991 86.4936 26.7298C86.4936 26.5122 86.5881 26.338 86.7299 26.1639C86.919 25.9898 87.1081 25.9027 87.3918 25.9027C87.5809 25.9462 87.8172 26.0333 87.9591 26.2074ZM88.1009 26.0768C87.9118 25.8592 87.6281 25.7721 87.3445 25.7721C87.0609 25.7721 86.8245 25.8592 86.5881 26.0333C86.3518 26.2074 86.2572 26.4686 86.2572 26.7734C86.2572 27.0346 86.3518 27.2958 86.5881 27.4699C86.7772 27.6441 87.0609 27.7747 87.3445 27.7747C87.6281 27.7747 87.8645 27.6876 88.1009 27.4699C88.3372 27.2958 88.4318 27.0346 88.4318 26.7734C88.4318 26.5122 88.3372 26.251 88.1009 26.0768ZM87.4863 26.7298C87.439 26.7734 87.3918 26.7734 87.2972 26.7734H87.1554V26.4686H87.25C87.3445 26.4686 87.3918 26.4686 87.439 26.5122C87.4863 26.5557 87.5336 26.5557 87.5336 26.6428C87.5336 26.6428 87.5336 26.6863 87.4863 26.7298ZM87.2027 26.9475H87.25H87.2972C87.3445 26.9475 87.3918 26.9475 87.3918 26.9475C87.439 26.9475 87.4863 26.991 87.4863 27.0346C87.4863 27.0781 87.4863 27.1216 87.4863 27.1652C87.4863 27.2522 87.4863 27.2958 87.4863 27.3393H87.77V27.2958C87.77 27.2958 87.77 27.2958 87.77 27.2522C87.77 27.2522 87.77 27.2522 87.77 27.2087V27.1216C87.77 26.991 87.7227 26.9475 87.6754 26.8604C87.6281 26.8169 87.5809 26.8169 87.4863 26.7734C87.5809 26.7734 87.6281 26.7298 87.6754 26.6863C87.7227 26.6428 87.77 26.5992 87.77 26.4686C87.77 26.338 87.7227 26.251 87.6281 26.2074C87.5809 26.1639 87.4863 26.1639 87.3918 26.1639C87.3918 26.1639 87.2972 26.1639 87.1554 26.1639C87.0136 26.1639 86.919 26.1639 86.8245 26.1639V27.2522H87.1554V26.9475H87.2027Z" fill="#96FF94"/>
</svg>
