<svg fill="none" height="34" viewBox="0 0 89 34" width="89" xmlns="http://www.w3.org/2000/svg"><g clip-rule="evenodd" fill="#96ff94" fill-rule="evenodd"><path d="m8.77585 4.61461c.37818.65301.89819 1.21895 1.08729 2.00256.09455.52241.56726 1.04482 1.04006 1.21895.52.17414.6145-.653.8982-1.04481.0945-.1306.2363-.1306.3309-.21767.7564-1.21895 1.4655-2.35083 2.0327-3.56978.3782-.87068.6619-1.87196 1.3237-2.524971.3309-.348271 1.1346-.348271 1.7491-.174136 1.1346.261204 2.2219-.565941 3.3092-.043534.3782.174136.2836.478874.1418.696543-.2364.304738-.7564.087068-1.0873.261208-.1891.08706-.2836.30473-.4255.47887-.0945.1306.0473.30474.0473.43534-.0945.30474-.0473.60947-.1418.87068-.0946.3918-.0946.87068-.0473 1.30602.0946.653-.0945 1.30601-.1418 1.91549-.0473.95775 0 1.87196.0473 2.8297 0 .17414.0945.34828.1418.52241.0473.08707.0473.17414.0945.26121.0946.17411-.1418.39181-.1418.52241 0 .3483.0473.8271.3782 1.0448.3782.2177.9455-.0871 1.3709.1741.2364.1306.1891.5224 0 .6966-1.0872.8271-2.5055.1741-3.7346.1741-.52 0-1.1345.0871-1.7018.2612-.3309.0871-.7564.1742-1.04-.087-.2364-.1742-.5201-.2177-.4255-.5225.0473-.1741.0473-.3918.2364-.4353.2836-.0871.6145-.0871.8982-.1306.5672-.0871.52-.5659.7091-.9142.1418-.3047-.0946-.69655-.0473-1.04482.0473-.87068.0473-1.78489.0945-2.61203 0-1.21895.1419-2.52497-.0472-3.78746-.7091.21767-.851.91422-1.1346 1.39309-.1891.34827-.3782.74008-.6146 1.08835-.1891.2612-.3781.5224-.52.78361-.3782.82714-.52 1.82842-1.2764 2.4379.1419.04353.0946.17413.0473.21767-.2363.17413-.4727.3918-.52.56594-.0473.34825-.0945.82715-.3782 1.08835-.0473.0435 0 .2177-.0473.2612-.3781.2177-.3309.6095-.6145.8271-.0946.0871.0945.2612.0473.3483-.1891.2612-.2837.6966-.6619.7401-.23633.0435-.33088-.2612-.4727-.4353-.61456-.7837-.85093-1.5673-1.37094-2.3509-.33091-.52239-.61455-1.13186-.85092-1.6978-.09455-.17414-.42547-.21767-.47274-.47887-.04727-.69655-.56728-1.30602-.94547-1.9155-.04728-.08707 0-.21767-.04728-.30473-.14182-.34828-.56728-.47888-.80365-.78362-.14182-.17413-.04727-.3918-.28364-.5224-.42546.74007-.09455 1.52368-.23637 2.3073-.04727.21767-.04727.47887-.04727.69654-.04727.87068.09455 1.78489.14182 2.69908 0 .2612.09455.6095.28364.8272.28364.3918.75638.4353 1.27639.5224.33092.0435.37819.4788.23637.7836 0 .3483-.28364.3483-.52001.3918-1.27639.1306-2.41096-.4789-3.68734-.0435-.47274.1741-1.18185.2176-1.607308-.1742-.236368-.2612-.189094-.6965.189095-.7836.472733-.0871.945473-.0435 1.418213-.1306.14182-.0435.28364-.1741.42546-.2177.23637-.087.33091-.3918.37819-.5224.47273-2.56847.37819-5.0499.33091-7.61841 0-.04353.14182-.1306.14182-.1306-.23636-.60947.09455-1.34955-.52001-1.74136-.52001-.391802-1.13456.17414-1.65457-.17413-.09455-.08707-.23637-.304739-.14182-.435341.04727-.174136.18909-.348272.37818-.478873.1891-.087068.42547 0 .47274-.2612041.85093.2612041 1.74913.3047371 2.60005.3047371.56728 0 1.22911-.1741353 1.6073.087068.66183.522408.94548 1.393083 1.32367 2.089633.42546.69654.80365 1.43662 1.18184 2.17669z"/><path d="m33.358 9.83868c-.0472.47882 0 .95772.0946 1.43662.0473.2177.3782.3483.5673.3483.2836 0 .52-.3048.8509-.2177s.4727.4789.2836.6965c-.8036 1.0884-2.3637 1.3931-3.5928 1.0449-.6145-.1742-1.0873-.8272-1.6545-1.0449-.6619-.3047-1.4183.2612-2.2219.4354-.7091.1306-1.3709.2177-2.08.3047-.5673.0436-1.0873-.1306-1.5601-.3483-.6618-.2612-1.0873-.8271-1.4655-1.393-.6145-.8707-.1418-1.82846.2364-2.74268.2837-.65301 1.04-1.00128 1.7019-1.30602.4727-.17413.9454-.34827 1.4182-.43533 1.2764-.26121 2.5055-.26121 3.7346-.30474.0945 0 .1891-.1306.2364-.21767.2363-.87068-.331-1.91549-1.3237-2.0461-.9928-.1306-2.1746.21767-2.5055 1.04482-.3309.78361-1.1346 1.43662-1.9855 1.30602-.2836-.04354-.5673-.21767-.6618-.52241-.2837-.91421.4727-1.48016 1.2764-1.87196.6145-.34827 1.2291-.56594 1.8909-.60948 1.04-.08706 2.1273-.17413 3.1673-.08706.4728.17413.9928.30473 1.4655.43534.3309.08706.6618.21767.9928.3918.7563.39181 1.2764 1.17542 1.2291 1.95903 0 .34827-.1891.74007-.1418 1.08835.1418.87067.1418 1.74135.0472 2.65557zm-7.5165-.13061c.1418.65303.4728 1.30603 1.1819 1.48013.52.1306 1.1345.0871 1.6545 0 .2837-.087.7564-.0435.8982-.3482.5673-1.00132.4255-2.08967.3782-3.13449 0-.1306-.0945-.3918-.2836-.43534-.7091-.17413-1.4182-.08706-2.0328.08707-.8509.21767-1.6546.82715-1.7018 1.74136 0 .08707-.1891.1306-.1891.21767-.0946.1306.0473.21767.0945.3918z"/><path d="m41.2527 10.6223c-.0473.3047 0 .6965.2837.8271.3781.1306.6618.1742 1.0872.2177.2364.0435.4728.3918.2837.6095-.8982 1.1319-2.411.1306-3.5928.3918-.9928.2612-1.9382.3047-2.931.1306-.3309-.0436-.3782-.4354-.2363-.653.2836-.3918.8509-.4354 1.3709-.5224.0945 0 .1891-.1306.2364-.2177.2836-.4789.1891-1.0013.1891-1.43663 0-.69654-.0473-1.43662-.0473-2.13316 0-.17413.1418-.3918.1418-.52241 0-1.04481.0473-2.04609.0473-3.0909 0-.43534.0473-.95775 0-1.39309-.0473-.52241.0473-1.26248-.52-1.52369-.4255-.17413-.8982-.08706-1.1346-.522404-.0945-.174136.0473-.348271.2364-.435339.5673-.3047376 1.1818-.174136 1.7491-.130602.4727.043534.8982.087068 1.3237.043534.4727-.087068.9454-.087068 1.4182-.087068.0945 0 .2836.087068.3309.21767.0945.740079.1418 1.436619.0473 2.133159-.1419.74008.0472 1.43662-.1419 2.1767-.0472.17414-.1891.43534-.1418.52241.2364.74007-.4255 2.30729.7564 2.08962.5673-.1306.8982-.78361 1.4655-1.00128.3309-.1306.52-.43533.8509-.56594.3309-.1306.7564-.60947.4255-.91421-.331-.2612-.9928-.47887-.7564-.95775.1891-.34827.6618-.34827 1.04-.34827.6146-.04353 1.2291.08707 1.8437.17414 1.0873.1306 2.1746-.43534 3.2619-.08707.4254.1306.3309.65301.1418.87068-.4728.52241-1.3237.21767-1.9382.52241-1.0873.60947-2.3165.91421-3.0256 1.91549-.3309.43534.6619.52241 1.0873.69654.7564.30474 1.2764.91421 1.7019 1.52369.4727.65301.8509 1.26247 1.4182 1.78487.52.4789 1.2291.6095 1.9855.6095.3309 0 .1418.3918.0473.653-.0946.3047-.4728.4353-.7564.5224-.8037.2612-1.7019.3483-2.5528.2177-1.3237-.2177-2.1746-1.0884-2.9782-2.0461-.0946-.1306-.0473-.3048-.1419-.4354-.5672-.78356-1.1345-1.52364-1.9854-1.87191-.6146-.2612-1.1819.47887-1.6073.95775-.331.2612-.2364.69656-.2837 1.08836z"/><path d="m55.5766 9.83869c.2837.74011.9928 1.13191 1.7492 1.43661.3309.1306.7563.0871 1.1345.1306 1.2764.1306 2.5055-.4353 3.4983-1.2189.1418-.0871.3309-.1306.4727-.0871.2837.1306.3309.4789.2364.7401-.3309.8271-1.2764 1.1318-2.0801 1.4801-.7563.3483-1.6545.5224-2.4582.566-.0473 0-.2364.087-.2364.087-.4254 0-.8982.0436-1.3236 0-.52-.0435-1.04-.087-1.5128-.2612-.4254-.1741-.8509-.3482-1.2291-.653-.7564-.5224-1.4655-.9577-1.9382-1.6978-.0473-.0871 0-.2177-.0473-.2612-.52-.39182-.4255-.91422-.6146-1.43663-.2363-.87068.1419-1.74136.4728-2.48143.3782-.87068 1.04-1.74136 1.9855-2.26377.9455-.47887 1.9855-.87068 3.0728-.82714.0472 0 .2836.04353.3309.04353.7091-.08707 1.3709.04353 1.9855.1306.8509.1306 1.56.56594 2.3164.95775.8509.47887 1.4655 1.17541 1.6073 2.04609.0945.47888.5673 1.13189-.0473 1.39309-.7091.30474-1.56.1306-2.3164.21767-.2836.04353-.7091-.04354-.9927-.04354-.8037 0-1.6546 0-2.5055.13061-.0473 0-.0946-.13061-.1419-.13061-.5672.13061-1.1818-.17413-1.6545.08707-.6146.52241.0472 1.34955.2363 1.9155zm-.0472-3.70039c-.0946.08707-.0946.17414-.0473.21767.1891.30474.6145.34827.8982.34827.9927 0 2.2691.43534 2.931-.2612.3781-.39181-.1419-1.17542-.6619-1.56722-.2836-.21767-.5673-.52241-.9927-.43534-.2837.04353-.52-.08707-.7564 0-.7091.2612-1.1346.87068-1.4182 1.52369.0473 0 .1418.1306.0473.17413z"/><path d="m70.1369 9.62101c.0945.74009-.0946 1.74139.7091 2.00259.4254.1306 1.04-.1306 1.3236.1741.3309.3918-.0472 1.0013-.6145.9578-1.7019-.1306-3.3092-.4789-5.011-.0436-.3782.0871-.8037 0-1.1346-.2176-.0945-.0871-.2836-.2613-.1891-.4354.1418-.1741 0-.4789.2364-.5224.2836-.0871.5673.2177.8036.0871.7091-.3048.52-1.1319.7091-1.74139.0946-.34827-.0472-.74007-.1418-1.13188-.0945-.47887.1891-.95774-.0473-1.48015-.0945-.21767.2364-.34827.2837-.60948.0945-.34827-.3309-.56594-.2364-.82714.1418-.39181-.0473-.69654-.0945-1.00128-.0946-.65301-1.0401-.1306-1.371-.52241-.6145-.65301.6619-.95775 1.2764-.87068.5673.1306 1.1346.17414 1.6546.17414s1.0873-.34827 1.56-.21767c.4728.1306.52.69654.5673 1.17541 0 .04354.0946.21767.1891.13061.9927-.82715 2.08-1.65429 3.451-1.34956.5673.13061 1.0873.39181 1.2764.91422.0945.30473.189.65301.0945.95774-.0473.17414-.1891.39181-.3782.43534-.52.1306-1.04.30474-1.56.17414-.5673-.1306-1.04-.56594-1.7019-.47887-.8036.1306-1.5127.69654-1.56 1.34955-.0473 1.04481-.1891 1.95902-.0945 2.91677z"/><path d="m79.2134 3.22151c-.0473.39181-.2364.74008-.4727 1.04482-.0473.04353-.1891.1306-.1891.17413-.0946.52241-.5673.69655-.8037 1.13189-.0473.04353-.2363-.04354-.2836.08706-.0473-.04353-.1418-.08706-.1418-.17413-.0946-.26121.2363-.30474.2836-.47888.1891-.3918.4727-.91421-.0946-1.13188-.6145-.21767-.9454-.69654-1.1345-1.26248-.0946-.30474-.0946-.65301.0945-.91421.2364-.30474.5673-.47888.8982-.60948.6146-.217669 1.3237.04353 1.7019.60948.3309.5224.2364 1.00128.1418 1.52368z"/><path d="m88.7628 10.187c-.0473.1306-.0473.3047-.1891.3918.0473.0435.1418.087.0945.1306-.1891.2612-.2836.4353-.4727.653-.3309.3918-.7564.8271-1.2291.9577-.7091.2177-1.5128.2612-2.3164.3918-.3782.0436-.8037-.0435-1.1819-.0435-.2836 0-.5673-.3047-.8982-.2612-.2363.0435-.4254.2612-.6618.3483-.3309.1306-.7091-.1306-.8509-.2612-.6146-.8272-1.371-1.7414-1.0873-2.7862.0945-.30474.6145-.21767.8982-.04353.5673.30473.8982.82713 1.5127 1.13183.2364.1306.2837.4354.52.4789.851.2177 1.7019.6095 2.5528.3918.5673-.1741 1.04-.6965.8982-1.2625-.1891-.65297-.9455-1.08831-1.7964-1.04477-.0945 0-.2836-.08707-.4254-.1306-.4728-.17414-1.0401.08706-1.5601 0-.1891-.04354-.2836-.26121-.4254-.30474-.7564-.17414-1.2292-.65301-1.6073-1.21895-.2364-.39181-.2837-.87068-.331-1.26249-.0472-.82714.3782-1.65428 1.1346-2.17669.6618-.47888 1.3237-.87068 2.1273-.91421.9928-.04354 1.9382.04353 2.931.2612.0473 0 .1891-.30474.3309-.30474.4255.04354 1.04-.2612 1.1346.2612.0945.82715.8036 1.56723.4727 2.35084-.0473.1306-.2836.43534-.52.3918-.3782-.08707-.52-.43534-.8509-.65301-.0473-.04353-.1891 0-.2364-.04353-.8982-.95775-2.3164-1.43662-3.5928-1.00128-.6145.21767-.7091.95775-.1418 1.26248.8982.56594 1.9382.47888 2.931.82715.0945.04353.3309 0 .4727 0s.0473.30474.2364.21767c.4254-.17414.8509.17413 1.1345.3918.6146.43534.9928 1.08835 1.1346 1.82843.0945.2612 0 .65301-.1418 1.04484z"/><path d="m22.4379 26.2945c-.0473.3918-.0473.8707-.4728 1.0448-.6145.2177-.5673-.5659-.52-.9577 0-.1742.1418-.3918.0946-.6095-.1419-.653.1418-1.219.0472-1.8284-.2836-1.5237-.4727-2.9603-1.6073-4.1793-.0472-.0435 0-.2177-.0472-.2612-.5673-.7836-1.1819-1.306-2.0328-1.8284-1.2764-.8272-2.5528-1.3496-4.0183-1.6543-.7563-.1741-1.5127-.1741-2.3164-.0435-.4254.087-.8036.0435-1.1818.1306-.3782.087-.70912.1741-1.08731.3047-.1891.0435-.33092.1741-.52001.2612-.14182.0435-.37819 0-.47274.1306-.37819.3918-.94547.3483-1.32366.6965-.75638.6531-1.6073 1.1755-2.12731 2.0026-.80366 1.219-1.51276 2.4379-1.56003 3.831-.04728 1.0013-.37819 2.0461.28364 2.9603.04727.0435.23637-.1306.28364-.2612.23637-.8271.42546-1.6108 1.18184-2.0896.04728-.0436.1891-.0436.23637 0 .28364.1306.33091.4353.37819.6965.09455.3047.28364.566.37819.7836.23637.5224.37819 1.1319.8982 1.306.94547.3048 1.98549.2177 2.97823.4354.14186.0435.18906.4789 0 .653-.75637.653-1.65457 1.0883-2.36368 1.7413-.18909.1742-.14182.4354-.09454.6531.09454.5224.28364 1.0448.47273 1.5236.09455.2177.33092.4354.61456.5224.75638.2613 1.46549.566 2.26909.7401.6146.1306 1.2764.0871 1.891.0871.3309 0 .52.2177.6145.5224.0946.3047-.3309.2612-.5672.3047-.2364.0871-.6146-.087-.8982-.0435-1.0401.0435-2.12735-.3047-3.02555-.6965-.52001-.2177-1.08729-.3483-1.6073-.4789-.70911-.1741-1.22912-.7401-1.84367-1.1754-.1891-.1306-.47274-.0871-.66183-.0436-.28365.1306-.56729.5224-.80366.566-.37818.087-.61455.3483-.99274.3483-.14182 0-.14182.2176-.23637.2612-.14182.087-.23637-.0436-.33091-.1306-.04728.0435-.09455.1306-.14183.087-.18909-.1306-.42546-.1306-.47273-.3047-.09455-.6095.37819-1.1319.42546-1.7414 0-.087.14182-.1741.23637-.2612.04727-.087-.14182-.1741-.04727-.3047.42546-.3918.23636-.8272-.1891-1.0448-.75638-.4354-1.70185-.9578-1.560029-1.872.047273-.2177.236368-.3047.425459-.3483.47274-.1306 1.04002.1742 1.37094-.087.37819-.2612.04727-.8272.09455-1.2625 0-.1306.37818-.2612.28364-.3483-.33092-.3047-.56729-.7836-.33092-1.0883.28364-.3483.09455-.6095.23637-.9578 0-.087.09455-.2176.09455-.2612.04727-.6965.33091-1.3931.52001-2.0896.04727-.1306.23637-.0435.23637-.1741-.04728-.7401.66183-1.1319 1.04002-1.7414.04727-.0871.09454-.3047.14182-.4353.52001-.7837 1.22911-1.2625 2.08004-1.7414.23636-.1306.47273-.2177.7091-.3047.52001-.2177 1.13457-.6095 1.70185-.5224.18909.0435.28364-.3048.42546-.3048.7091 0 1.3709-.4789 2.08-.3047.0946.0435.2364.087.331.2176.0945-.087.2363-.2612.3309-.2612.5673 0 1.0873 0 1.6546.0871.6145.1306 1.1818.1741 1.7491.3483.2836.0871.5673.3047.8036.4353.52.3048 1.1346.3483 1.5128.8272.0473.087.0945.2612.1891.2612.8982.1306 1.4182.8707 1.9855 1.4366.0945.0871.0945.3047.1418.3483.5673.4788.8982 1.0012 1.2764 1.6107.52.9142.8982 1.872.8982 2.9168-.0473.9577.0472 1.959-.1418 2.9603zm-20.5168 1.8284c.56729.4354 1.60731.6095 1.51276 1.2625-.09455.8707-.8982 1.6108-1.04002 2.5685 0 .0871.14182.2177.28364.1306.33092-.2612.66183-.4353.99275-.6965.37819-.3048.75637-.6966 1.18184-.653.80365.0435 1.27638.8706 2.08004 1.0012.09454-.8271-.52001-1.6107-.33092-2.3508.23637-.8271 1.41821-.9577 2.08004-1.5672-.75638-.2612-1.56003-.1741-2.31641-.3483-.33091-.0871-.52001-.4789-.61455-.7401-.14183-.4788-.42547-.8706-.66184-1.306-.09454.0871-.18909.1306-.23636.2612-.28365.6095-.37819 1.3931-.8982 1.7414-.42546.2612-1.04002.0435-1.6073.0871-.28365 0-.80366-.2177-.85093.1741-.04727.1306.23637.2612.42546.4353z"/><path d="m10.9502 22.8553c-.1418.5224-.4727.9578-.99272 1.1319-.70911.2177-1.37094.3483-2.08004.0436-.1891-.0871-.37819.0435-.56729.1741-.18909.0871-.33091-.0871-.37819-.2177-.28364-.4789-.42546-1.0883-.23636-1.6107.04727-.0871.18909-.1742.28364-.1306.18909.087.23637.3047.28364.4353.37819.5659 1.08729 1.1754 1.98549.9142.42546-.1306.75633-.4789.52001-.7836-.56728-.7836-1.65458-.9577-2.55277-1.3496-.8982-.3918-.85093-1.3495-.42547-2.046.47274-.7401 1.46549-.8707 2.22186-.6531.47274.1306.94548.0871 1.4655.0871.0473 0 .1418.0871.1418.1306.0473.3047-.0473.566.1418.8707.0946.1306-.0945.3483-.0472.5224-.0946 0-.1891.0435-.2364 0-.3309-.1741-.2364-.5659-.52002-.7401-.33092-.1741-.66184-.3047-.99275-.3918-.56728-.1306-1.18184 0-1.32366.6095-.09455.3483.28364.4789.52001.5659.85092.3483 1.84362.6095 2.45822 1.3061.1891.3047.4255.6965.3309 1.1318z"/><path d="m13.6921 26.1639c.0473.5224-.1891 1.0884-.0472 1.6108.0945.2612.2363.5659.6618.4788v.1306c-.0946.1742-.3782.2177-.4727.1742-.5673-.1306-1.2292.1306-1.8437.0435-.0473 0-.1418-.087-.1418-.1306-.0473-.2612.3309-.2612.3782-.4789.4254-1.306.2836-2.612.0472-3.918-.0472-.1741-.3309-.2177-.4254-.3918-.0473-.0436 0-.1306 0-.2177.8509 0 1.7018.0435 2.5055.1741-.1419.3483-.6146.5225-.6619.9143-.0945.5224-.0472 1.0448 0 1.6107z"/><path d="m18.0886 27.2523c-.1418.5659-.4255.9577-.7564 1.4366-.0945.1306-.3782-.0435-.4255-.0871-.8509-1.3495-.9927-2.9168-1.56-4.3534-.0945-.1741-.3782-.2176-.4727-.3918-.0946-.1741.1418-.3047.1891-.3483.3782-.1741.8509-.087 1.3236 0 .1891.0436.6146-.0435.52.1306-.2836.4789-.0945 1.0884.0473 1.5673 0 .0435-.0473.1741-.0473.2176.2837.3048.1891.7837.5201.9578.2836.1306.3781-.3047.52-.5224.2836-.4789.3782-1.0448.4254-1.6108 0-.2176-.3782-.2612-.4254-.4788-.0473-.0871-.1419-.2613-.0946-.2613.6146-.2176 1.3237-.1306 1.9855-.0435 0 .0871.0473.1306.0946.1306-.9928 1.1319-1.4655 2.3508-1.8437 3.6569z"/><path d="m15.1104 33.4776c-.3782.2612-1.1346.3047-1.1819-.1741-.0945-.4354.851-.566 1.1819-.2612.0945.087.1891.2612 0 .4353z"/><path d="m19.9795 30.9962c-.4727.2177-.6146.653-.9928.9142-.5672.3918-1.1345.653-1.7491 1.0013-.1891.1306-.4254.1306-.6618.087-.2837-.0435-.3309-.3482-.2364-.4788.4255-.4789 1.04-.653 1.6073-1.0013.9455-.6095 1.7964-1.2625 2.411-2.1332.2363-.3918.3782-.8707.8509-1.0883.3782-.1742.7564.2612.6146.5659-.2364.566-.8037 1.0013-1.1346 1.5672-.2364.2177-.4255.4354-.7091.566z"/><path d="m29.7179 25.4674c-.0473.4353.0946.9142.0946 1.306-.0473.8271-.1891 1.8719.52 2.4379.3782.2612 1.2291 0 1.2764.4353.0472 1.306-2.0801.5224-3.1201.653-.3309.0436-.7091.0436-1.04.0871-.5673.0871-1.2764.3047-1.7964-.0871-.2837-.2176-.3782-.74-.1418-.8271.3781-.1741.9454 0 1.3709-.0871.3309-.087.7091-.087.9455-.4353.3309-.3918.3781-.7836.2363-1.219.1418-.0435.0473-.2176.1891-.2176-.1418-.0436-.0945-.1742-.0473-.2177.0946-.0871.0946-.2177.0946-.2612.0473-.653-.0473-1.2625 0-1.9155.0473-.3918.2364-.7401.1418-1.1319-.0945-.3047-.1891-.6095-.1418-.9142.2364-1.306.3782-2.5685.0945-3.831-.1891-.8271-1.3709-.2176-1.8909-.7401-.1891-.2176 0-.74.3782-.7836.52-.0435 1.1818-.4788 1.56.0436 1.0873-.2177 2.1746.0435 3.2619-.0436.1418 0 .3309.1306.4727.2177.4255.3483.5673.9142.8037 1.3931s.5673.9142.8036 1.3931c.1419.3047.2364.6094.52.8707.331.3918.331.8706.6619 1.306.1418.1741.0472.4788.1418.653.0945.2176.2836.3483.4727.5224s.4728.2612.6146 0 .2364-.566.3782-.8272c1.2291-1.8284 2.2691-3.5262 3.3091-5.3982.0946-.1741.2364-.2612.4255-.3047.2364-.0435.4727-.0435.7564 0 .4254.0435.8982 0 1.3236-.0871.9928-.1306 1.9855-.0435 2.9783 0 .4727.0436.7564.4789.6618.9578 0 .1306-.2364.1306-.2364.1306-.8036-.0436-1.6073.3047-1.6073 1.0448 0 .8271 0 1.6107-.1418 2.4814-.0473.1742.0946.4789.2364.6966.0473.087.0473.2612 0 .3482-.0946.2177-.3782.3483-.4255.566-.1418.3047.2837.6965 0 1.0883-.1418.1742.0946.4789.0473.653-.0473.4354.0473.8707.0473 1.3061 0 .3918.1418.8271.1891 1.2189.0472.3918.2363.6095.52.8271.0945.0871.1891.1307.3309.1742.2836.0871.5673-.1742.8036.0435.3782.3918.1891 1.0448-.3309 1.1754-.4727.0871-.8982.1742-1.3236.1742-.851 0-1.6546-.3918-2.5055-.3048-.7564.0871-1.4183.3048-2.1746.2177-.6146-.0435-1.2291-.5659-.7564-1.0013.4255-.3918 1.5127-.087 1.7018-.6965.2837-1.1319.1891-2.2202.2837-3.3521 0-.2177-.2837-.4354-.1418-.6966.1418-.2176.1891-.4788.1891-.6965-.0946-.8707.0945-1.6978-.0473-2.525-.0473-.3047.2364-.7836-.1891-.9142-.0473 0-.2837.0871-.3309.1741-.4255.9578-1.0873 1.6979-1.5601 2.6121-.0472.1306.0473.3047-.0472.4353-.7564 1.219-1.3237 2.4379-2.0328 3.6569-.1418.2612-.3309.5659-.4255.8706-.0945.3048-.4727.5224-.5672.7837-.0946.3482-.4728.653-.331 1.0448-.189 0-.2836.2612-.3781.1306-.4255-.4354-.7564-1.0448-.8982-1.5673-.1419-.3918-.3782-.8271-.6619-1.2189-.0945-.1306-.0472-.3483-.0945-.5224-.1418-.7401-.6146-1.306-.8982-1.959-.4728-1.1755-1.1346-2.3073-1.6546-3.4827-.0473-.1307-.1418-.3483-.2836-.3483-.4728-.0436-.2837.3483-.3782.653 0 .0435 0 .2177-.1418.2612.2836.3918 0 .8271.0472 1.2189 0 .2612-.1418.566-.0945.8272.0473.6095 0 1.0448-.0473 1.5237z"/><path d="m58.4604 27.7747c.0472.3482-.1419.74 0 1.0448.1891.4788.8509.1741 1.2763.2612.4255.0871.5673.9142.0946 1.1319-.7091.3047-1.5128.3482-2.3164.3918-.6146.0435-1.1819-.0871-1.7491-.2612-.331-.0871-.5673-.3048-.8037-.566-.1418-.1306-.4255-.1741-.6145-.087-.1419.0435-.2837.1741-.4255.2612-.8037.3482-1.56.5659-2.411.7836-.1418.0435-.2836-.0871-.4254-.0436-.851.2612-1.7492-.0435-2.5055-.4353-1.1346-.6095-1.7964-1.6978-1.5601-2.8732.1891-1.0013.8037-1.6979 1.7492-2.3073.3782-.2177.7563-.3918 1.1818-.5224.6618-.2177 1.3709-.3483 2.08-.4789.9928-.1742 1.9855 0 2.931-.3918.1418-.7836-.1891-1.5237-.9455-1.872-.7563-.3047-1.6545-.1306-2.3164.3483 0 .9577-.8509 1.8284-1.8909 1.5672-.6618-.1306-1.1346-.7836-.8509-1.4366.6145-1.3931 2.3164-1.4366 3.6873-1.6978.7091-.1306 1.4182-.0436 2.1273.0435.9928.1741 1.9382.3918 2.8364.9142.4255.2612.7091.653.8037 1.0448.2364.8707.2836 1.7414.1418 2.5685-.0945.566.2364 1.1319-.0945 1.7414-.2364.3047-.0473.6095 0 .8707zm-7.6584.1741c.4728 1.2189 1.891 1.3496 3.0728 1.0448.7091-.1741.9928-.8271 1.04-1.4366 0-.1741-.1418-.3483-.0945-.5224.0945-.3048 0-.653 0-.9142s-.1891-.566-.4727-.653c-.1891-.0436-.3782-.2177-.5673-.1742-.5673.1742-1.1819.0436-1.6546.3048-.3782.2176-.4255.6965-.8037.9577-.0945.0435-.2363.0871-.2836.1741-.0945.2613-.2836.4789-.1891.7837-.1418.0435-.0473.1741-.1418.2612-.0473 0 .0473.087.0945.1741z"/><path d="m66.355 26.2945c-.0473.8707.0472 1.6978.3782 2.4379.189.5224 1.04-.0435 1.5127.2177.3782.1741.3309.8707-.0945 1.0883-.52.3048-1.1346.3918-1.7019.2177-.7564-.2612-1.5128-.3918-2.2691-.2612-.6146.1306-1.1819.0871-1.7964.2612-.6146.1741-1.3237-.3483-.9928-.9142.1418-.2612.6146-.3918 1.04-.4354.5201-.087.6146-.5659.8037-.9577.0473-.0871-.0946-.1741-.1418-.3047-.1418-.653.0945-1.2625-.0473-1.9155-.0945-.3048.2364-.653.0946-.9578-.3782-.7401.1418-1.5237-.2364-2.2202-.1418-.2612-.4728-.2612-.7564-.3918-.1418.2177-.3309.3047-.5673.2177-.3782-.1306-.8036-.566-.4727-.8707.3309-.3483.8982-.4354 1.3709-.3918.7564.087 1.5128.087 2.2692.0435.52-.0435.9927-.2612 1.5127-.1306.3782.0871.1891.653.52.6965.52.0871.9928-.3047 1.5128-.4788.5673-.2177 1.1345-.0436 1.6546.0435.3309.0435.6145.1741.8982.3918.2836.1741.3781.5224.4727.8272.1418.4353-.0946.9142-.5673 1.0883-.2836.0871-.6146.0871-.8982.0871-.7091-.0436-1.2291-.4789-1.8909-.7401-.4728-.1741-1.1346.2177-1.3237.6095-.2836.7836-.2364 1.7849-.2836 2.7426z"/><path d="m76.7551 27.6441c.0946.3047.0473.653.2364.9142.1891.3482.6618.3047 1.04.3482.1891 0 .3309.1306.4255.3048.1418.3483.1418.8707-.3309.9577-.8982.1306-1.7964.1306-2.6946-.1306-.4728-.1741-1.04.0436-1.6073.1742-.6146.1741-1.2764.087-1.891.0435-.6145-.0871-.6618-.7836-.3782-1.0884.2837-.2612.8982-.1306 1.2291-.3482.4728-.2612.331-.9142.4728-1.3931.0473-.0871.1891-.2612.1891-.3047-.2364-.6531 0-1.3061 0-1.9155 0-.1306.2363-.3048.1891-.4354-.3309-.8707-.0473-1.7413-.1418-2.6555-.0946-.9143.1418-1.8285-.0473-2.7427-.1418-.653-1.04-.3047-1.6073-.4353-.3782-.0871-.1891-.653 0-.9578.1418-.2176.4727-.2176.6618-.2612.8982-.1741 1.8437.1742 2.7419.0436.4727-.0436.9455-.2177 1.4182-.2177.1891 0 .4727.2612.4255.4789-.2837 1.393-.2837 2.7426-.2364 4.0922 0 .3918.2364.8706.1418 1.2189-.0945.2612-.2836.7401-.1891 1.0883.1418-.1741.2837.0436.3782 0 1.04-.653 2.08-1.1318 2.931-2.0025.0472-.0435.1891-.1741.0945-.2612-.3782-.3048-.8509.0871-1.2291-.0435-.4727-.2177-.3782-1.0449.0945-1.0884 1.7492-.2612 3.4983-.2177 5.2474-.1741.52 0 .6619.3918.851.74-.1419.0436-.0473.1742-.1419.2612-.0472.0436-.0472.1742.0473.2177-1.4182.3048-2.6473.6966-3.9237 1.5237-.0946.0435-.2364 0-.2837.0435-.2836.3048-.8509.566-.7091.8707.0946.2177.6619.2612.851.4789.6618.653 1.5127 1.0013 2.08 1.6978.2364.2612.5673.4789.8037.7836.2836.3483.7091.5224 1.1345.7836.0946.0436.2364 0 .3309.0436.5201.3482 1.1346.1306 1.7019.1306.2836 0 .3309.4788.1418.6965-.7564.9142-1.8909 1.2625-3.0728 1.306-.4254 0-.8036-.087-1.2291-.1741-.9455-.2177-1.56-.8707-2.1273-1.6108-.7091-.9142-1.4182-1.6543-2.1746-2.4814-.1418-.1741-.4727-.3918-.7564-.2612-.4727.2612-1.1345.5659-.9454 1.219 0 .0435-.0946.087-.1419.1741-.0945 0-.0472.1741 0 .3483z"/><path d="m87.9591 26.2074c.1891.1742.2836.3483.2836.566 0 .2176-.0945.4353-.2836.5659-.1891.1742-.3782.2612-.6146.2612s-.4727-.087-.6146-.2612c-.1891-.1741-.2363-.3483-.2363-.6095 0-.2176.0945-.3918.2363-.5659.1891-.1741.3782-.2612.6619-.2612.1891.0435.4254.1306.5673.3047zm.1418-.1306c-.1891-.2176-.4728-.3047-.7564-.3047s-.52.0871-.7564.2612c-.2363.1741-.3309.4353-.3309.7401 0 .2612.0946.5224.3309.6965.1891.1742.4728.3048.7564.3048s.52-.0871.7564-.3048c.2363-.1741.3309-.4353.3309-.6965s-.0946-.5224-.3309-.6966zm-.6146.653c-.0473.0436-.0945.0436-.1891.0436h-.1418v-.3048h.0946c.0945 0 .1418 0 .189.0436.0473.0435.0946.0435.0946.1306 0 0 0 .0435-.0473.087zm-.2836.2177h.0473.0472.0946c.0472 0 .0945.0435.0945.0871v.1306.1741h.2837v-.0435s0 0 0-.0436c0 0 0 0 0-.0435v-.0871c0-.1306-.0473-.1741-.0946-.2612-.0473-.0435-.0945-.0435-.1891-.087.0946 0 .1418-.0436.1891-.0871s.0946-.0871.0946-.2177-.0473-.2176-.1419-.2612c-.0472-.0435-.1418-.0435-.2363-.0435 0 0-.0946 0-.2364 0s-.2364 0-.3309 0v1.0883h.3309v-.3047z"/></g></svg>