<svg fill="none" height="19" viewBox="0 0 139 19" width="139" xmlns="http://www.w3.org/2000/svg"><g fill="#96ff94"><path d="m12.0837 5.451.8359-3.58913s-2.7942-1.166474-5.46902-1.166474c-5.23021 0-7.069144 2.961034-7.260202 5.249114-.2388229 2.91618 1.767282 4.41909 3.892802 5.06969 3.60622 1.0991 5.32575 1.4132 5.13469 2.6021-.1433.8748-.71647 1.7048-2.91364 1.7048-2.88975 0-5.373503-1.2786-5.373503-1.2786l-.8358784 3.6116s3.2718714 1.2786 6.2571514 1.2786c4.6332 0 7.1886-2.6246 7.1886-5.7426 0-2.7592-2.2927-4.10509-4.29885-4.68833-3.72563-1.07674-4.89586-1.27863-4.82421-2.60212.04776-1.05431 1.26575-1.52539 3.15245-1.45809 2.22105.11216 4.51371 1.00944 4.51371 1.00944z"/><path d="m110.694 9.1523.692-3.18536s-2.34-.51594-4.418-.51594c-4.06 0-5.541 2.04133-5.684 3.81346-.167 2.26564 1.409 3.49944 3.081 4.01534 2.794.8524 3.821 1.144 3.678 1.7946-.096.4038-.478.7627-2.174.7627-2.245 0-3.916-.673-3.916-.673l-.574 3.0283s2.532.7627 4.849.7627c3.725 0 5.803-1.7945 5.803-4.2172 0-2.1311-1.314-3.1854-3.439-3.7686-2.508-.673-3.487-.9646-3.32-1.59268.167-.67296.836-.91971 2.412-.82998 1.672.08972 3.01.60566 3.01.60566z"/><path d="m28.658 12.1806c0 3.7238-2.7703 6.7297-7.093 6.7297s-7.093-3.0059-7.093-6.7297c0-3.72369 2.7703-6.7296 7.093-6.7296s7.093 3.00591 7.093 6.7296zm-7.1169-3.27505c-1.9106 0-3.1525 1.45805-3.1525 3.27505 0 1.7946 1.218 3.2751 3.1525 3.2751 1.9106 0 3.1525-1.4581 3.1525-3.2751s-1.218-3.27505-3.1525-3.27505z"/><path d="m33.6016 13.7509v-7.6045h-3.8928v8.098c0 3.0956 2.2927 4.6883 6.2572 4.6883 3.248 0 6.1138-.9197 6.1138-.9197v-11.8666h-3.8928v9.085c-.2866.1122-1.624.2916-2.6748.2019-1.0986-.0673-1.9106-.5159-1.9106-1.6824z"/><path d="m60.9468 5.47344c-1.1224 0-2.5076.35891-3.2719.58323v-6.05667h-3.8928v18.9327h3.8928v-9.51121c.406-.15703 1.624-.51594 2.5793-.49351 1.3613.04487 1.9106.47108 1.9106 1.63752v8.3672h3.8928v-8.7485c.0239-3.11808-1.5284-4.71076-5.1108-4.71076z"/><path d="m52.4447 15.4109c-2.6987.5608-3.2241 0-3.2241-1.3011v-4.97993h3.2003v-2.98347h-3.2241v-3.67887h-3.8929v3.67887h-1.9822v2.98347h1.9822v4.97993c0 3.7237 1.5046 5.8996 7.523 4.2845z"/><path d="m121.369 15.4109c-2.699.5608-3.224 0-3.224-1.3011v-4.97993h3.224v-2.98347h-3.224v-3.67887h-3.893v3.67887h-1.982v2.98347h1.982v4.97993c0 3.7237 1.505 5.8996 7.523 4.2845z"/><path d="m83.7782 6.12397-2.4598 7.11093-2.4838-7.11093h-3.439l-2.4599 7.11093-2.4599-7.11093h-4.2032l4.8003 12.78633h3.5823l2.4599-6.9316 2.4837 6.9316h3.5824l4.8003-12.78633z"/><path d="m99.8032 17.7214s-2.4121 1.1889-5.3018 1.1889c-5.1586 0-7.0931-3.0059-7.0931-6.7297 0-3.81342 2.651-6.7296 7.0931-6.7296 4.1316 0 6.1856 3.05077 6.0186 6.7296-.024.4262-.072.8525-.12 1.2787h-8.8123c.1433.7851.7643 2.2432 3.2719 2.2432 2.6032 0 4.3227-.9422 4.3227-.9422zm-3.2957-6.7297c-.1672-1.48048-.9314-2.57966-2.3405-2.57966-1.2896 0-2.221 1.09918-2.5076 2.57966z"/><path d="m138.086 7.49233c-1.528-2.82645-5.684-2.26565-7.045-1.21134-1.361-1.03188-5.517-1.61511-7.045 1.21134-1.743 3.23027.74 7.62687 7.045 11.50767 6.305-3.9032 8.789-8.2774 7.045-11.50767z"/><path d="m138.182 10.4982c.191-1.00942.048-1.974-.43-2.87128-.884-1.63755-2.651-1.8843-3.606-1.8843-1.027 0-2.078.33648-2.699.67296 3.033 1.57025 6.09 3.65642 6.735 4.08262z"/><path d="m123.877 8.83825c-.574 2.93865 2.03 6.55015 7.14 9.73555 1.075-.673 2.03-1.3684 2.89-2.0638-.955-.7627-6.305-4.9799-10.03-7.67175z"/><path d="m134.6 15.8595c1.648-1.5029 2.77-3.0283 3.272-4.464-.669-.5384-3.678-2.96103-6.902-4.73316-.669-.40378-1.601-.91972-3.105-.91972-.979 0-2.723.24675-3.606 1.8843-.144.26918-.263.53837-.335.80755 3.941 2.48993 9.72 6.72963 10.676 7.42503z"/></g></svg>