<svg fill="none" height="34" viewBox="0 0 72 34" width="72" xmlns="http://www.w3.org/2000/svg" xmlns:xlink="http://www.w3.org/1999/xlink"><clipPath id="a"><path d="m.019531 0h71.9709v34h-71.9709z"/></clipPath><g clip-path="url(#a)" fill="#96ff94"><path d="m6.2525 6.94304h2.51113c.29147 0 .51568.2104.51568.48391v22.65965c0 .2735.22421.4839.51568.4839h3.07161c.2915 0 .5157-.2104.5157-.4839v-22.65965c0-.27351.2242-.48391.5157-.48391h2.4887c.2915 0 .5157-.21039.5157-.48391v-2.52475c0-.27351-.2242-.48391-.5157-.48391h-10.1342c-.29148 0-.51568.2104-.51568.48391v2.52475c0 .27352.2242.48391.51568.48391z"/><path d="m30.9155 14.8329c.0897-.3577.1345-1.4517.1345-3.2822v-3.15592c0-3.30322-2.2196-4.94431-6.6365-4.94431h-4.3273c-.2914 0-.5156.2104-.5156.48391v26.08912c0 .2735.2242.4839.5156.4839h3.0717c.2915 0 .5157-.2104.5157-.4839v-9.8045c0-.547.8071-.6732.9865-.1472l3.4752 10.099c.0673.1893.2691.3366.4709.3366l3.0716.0421c.3588 0 .6054-.3156.4933-.6312l-4.4169-12.4765c-.0897-.2735.0897-.5891.4035-.6312 1.4574-.1683 2.4888-.9257 2.7578-1.9777zm-3.9461-2.5668c0 .547-.269.9678-.7847 1.2623-.5157.2946-1.0762.4629-1.6816.4629h-.3587c-.2915 0-.5157-.2104-.5157-.4839v-6.45916c0-.27351.2242-.48391.5157-.48391h.3587c.6054 0 1.1659.16832 1.6816.48391.5157.3156.7847.73639.7847 1.28342z"/><path d="m35.5789 30.5495h3.0717c.2914 0 .5156-.2104.5156-.4839v-26.13122c0-.27351-.2242-.48391-.5156-.48391h-3.0717c-.2915 0-.5157.2104-.5157.48391v26.15222c0 .2525.2242.4629.5157.4629z"/><path d="m48.0674 3.45047h-5.2689c-.2915 0-.5157.2104-.5157.48391v26.15222c0 .2735.2242.4839.5157.4839h5.2689c1.9955 0 3.4528-.3997 4.3721-1.1782.9192-.7785 1.3677-2.0408 1.3677-3.8082v-5.5334c0-2.2512-1.3677-3.4926-4.1255-3.724v-.1262c2.7354-.5471 4.1255-1.9357 4.1255-4.208v-3.55564c0-1.76733-.4485-3.02971-1.3453-3.80817-.9192-.79951-2.3766-1.17822-4.3945-1.17822zm1.6143 22.02843c0 1.1783-.5157 1.7674-1.5246 1.7674h-1.278c-.2915 0-.5157-.2104-.5157-.4839v-8.3949c0-.2735.2242-.4839.5157-.4839h1.3004c1.009 0 1.5246.5681 1.5246 1.7253v5.87zm0-12.7079c0 1.1993-.5157 1.7884-1.5246 1.7884h-1.278c-.2915 0-.5157-.2104-.5157-.4839v-7.02726c0-.27351.2242-.48391.5157-.48391h1.3004c1.009 0 1.5246.58911 1.5246 1.76733v4.43934z"/><path d="m60.78 26.3626v-8.3106c0-.2735.2242-.4839.5157-.4839h3.8116c.2914 0 .5156-.2104.5156-.484v-2.6509c0-.2736-.2242-.484-.5156-.484h-3.8116c-.2915 0-.5157-.2104-.5157-.4839v-5.84898c0-.27351.2242-.48391.5157-.48391h3.9237c.2914 0 .5156-.21039.5156-.48391v-2.73515c0-.27351-.2242-.48391-.5156-.48391h-8.0267c-.2915 0-.5157.2104-.5157.48391v26.17325c0 .2735.2242.4839.5157.4839h8.5423c.2915 0 .5157-.2104.5157-.4839v-2.7772c0-.2735-.2242-.4839-.5157-.4839h-4.4617c-.2691 0-.4933-.2104-.4933-.4629z"/><path d="m.0195312.483911v33.032189c0 .2735.2466298.4839.5381008.4839h70.894768c.2915 0 .5381-.2104.5381-.4839v-33.032189c0-.273515-.2466-.483911-.5381-.483911h-70.894768c-.291471 0-.5381008.210396-.5381008.483911zm70.4014688 32.590389h-68.85443c-.29147 0-.5381-.2104-.5381-.484v-31.18065c0-.27351.24663-.483907.5381-.483907h68.85443c.2915 0 .5381.210397.5381.483907v31.18065c0 .2736-.2242.484-.5381.484z"/></g></svg>